<?xml version="1.0" encoding="UTF-8"?>
<svg version="1.1" xmlns="http://www.w3.org/2000/svg" width="256" height="256">
<path d="M0 0 C1.00909424 0.27287842 1.00909424 0.27287842 2.03857422 0.55126953 C33.61153011 9.36397535 61.41934431 31.32474939 77.6875 59.6875 C94.21371751 89.55237494 99.12459647 124.95801426 90 158 C89.72712158 159.00909424 89.72712158 159.00909424 89.44873047 160.03857422 C80.48299194 192.15979475 58.1111044 219.9459791 29.1875 236.25 C-0.36415764 252.39905867 -35.4023424 257.00189455 -68 248 C-69.00909424 247.72712158 -69.00909424 247.72712158 -70.03857422 247.44873047 C-101.61153011 238.63602465 -129.41934431 216.67525061 -145.6875 188.3125 C-162.21371751 158.44762506 -167.12459647 123.04198574 -158 90 C-157.81808105 89.32727051 -157.63616211 88.65454102 -157.44873047 87.96142578 C-148.48299194 55.84020525 -126.1111044 28.0540209 -97.1875 11.75 C-67.63584236 -4.39905867 -32.5976576 -9.00189455 0 0 Z " fill="#FBFBFA" transform="translate(162,4)"/>
<path d="M0 0 C-1.22422599 3.67267796 -2.55590537 4.40190536 -5.625 6.6875 C-16.7244022 15.4186087 -24.90073151 26.97970989 -26.7890625 41.2890625 C-27.50499674 50.49014333 -27.00082483 58.23034813 -24 67 C-23.7215625 67.83273438 -23.443125 68.66546875 -23.15625 69.5234375 C-14.92474934 92.01814188 3.78662435 110.04882413 25.17895508 120.01464844 C37.10591911 125.32926874 48.15349396 127.79580486 60.95703125 124.4375 C63 124 63 124 67 124 C67 124.66 67 125.32 67 126 C65.53125 127.4453125 65.53125 127.4453125 63.5 129.125 C60.46900783 131.69009762 57.63696045 134.33489606 54.875 137.1875 C47.03490614 145.04270001 37.18946091 150.16330153 25.93115234 150.39355469 C18.9306207 150.330382 11.95385865 149.78949948 5 149 C5.02094727 149.58491211 5.04189453 150.16982422 5.06347656 150.77246094 C5.14680115 153.43146465 5.19870897 156.09019355 5.25 158.75 C5.28351563 159.67039063 5.31703125 160.59078125 5.3515625 161.5390625 C5.45052892 168.36774514 5.45052892 168.36774514 3.140625 171.609375 C0.4416821 173.36270287 -0.84181009 173.63163798 -4 173 C-6.47853726 170.9957987 -7.83079038 169.77572155 -8.51898193 166.62078857 C-8.52786438 165.74142639 -8.53674683 164.86206421 -8.54589844 163.95605469 C-8.56561707 162.95531921 -8.58533569 161.95458374 -8.60565186 160.92352295 C-8.60688049 159.85047913 -8.60810913 158.7774353 -8.609375 157.671875 C-8.62591125 156.56773254 -8.64244751 155.46359009 -8.65948486 154.32598877 C-8.70805626 150.80060311 -8.7293569 147.27564911 -8.75 143.75 C-8.7781519 141.35935318 -8.80807822 138.96872654 -8.83984375 136.578125 C-8.91381769 130.7188286 -8.96540665 124.85965406 -9 119 C-11.31 119 -13.62 119 -16 119 C-16.33 140.78 -16.66 162.56 -17 185 C-26 183.875 -26 183.875 -30 182 C-30.01030746 181.31761765 -30.02061493 180.63523529 -30.03123474 179.93217468 C-30.13923821 172.84343768 -30.25384131 165.75482937 -30.37231445 158.66625977 C-30.41568304 156.01915168 -30.45735668 153.37201528 -30.49731445 150.72485352 C-30.55497023 146.924555 -30.61867844 143.12439932 -30.68359375 139.32421875 C-30.70030624 138.13664474 -30.71701874 136.94907074 -30.73423767 135.72550964 C-30.75418289 134.62459488 -30.77412811 133.52368011 -30.79467773 132.3894043 C-30.81022202 131.41899704 -30.8257663 130.44858978 -30.84178162 129.44877625 C-30.90465129 126.86204325 -30.90465129 126.86204325 -32 124 C-35.79547921 124.96776098 -35.79547921 124.96776098 -39 127 C-39.12174629 128.95189828 -39.1797283 130.90783883 -39.2109375 132.86328125 C-39.23929688 134.06017578 -39.26765625 135.25707031 -39.296875 136.49023438 C-39.34871588 139.02654928 -39.39305818 141.56302918 -39.4296875 144.09960938 C-39.460625 145.30037109 -39.4915625 146.50113281 -39.5234375 147.73828125 C-39.5531665 149.39404175 -39.5531665 149.39404175 -39.58349609 151.08325195 C-40.04397249 154.30793631 -40.69786503 155.72261553 -43 158 C-46 158.5 -46 158.5 -49 158 C-51.83866648 155.47693222 -52.01472235 153.85442519 -52.40113831 150.03353882 C-52.42809272 148.3928199 -52.43842913 146.75177804 -52.43579102 145.11083984 C-52.44586685 144.2125798 -52.45594269 143.31431976 -52.46632385 142.38883972 C-52.49485889 139.41274593 -52.50068613 136.43715972 -52.50390625 133.4609375 C-52.51355393 131.37985022 -52.5236469 129.29876495 -52.53416443 127.21768188 C-52.55214703 122.84461772 -52.55768431 118.47173135 -52.5559082 114.09863281 C-52.55560562 108.54210739 -52.596316 102.98675194 -52.64822483 97.43050194 C-52.68190464 93.12339244 -52.68765584 88.81655451 -52.68607903 84.50932693 C-52.68958095 82.46434171 -52.70263164 80.41934648 -52.72607613 78.37449265 C-52.97083908 54.79089426 -46.37624067 35.06961737 -29.92407227 17.77441406 C-25.36182873 13.16273139 -20.60055317 9.30221295 -15 6 C-14.03578125 5.42378906 -13.0715625 4.84757812 -12.078125 4.25390625 C-4.65098152 0 -4.65098152 0 0 0 Z " fill="#F7A534" transform="translate(119,68)"/>
<path d="M0 0 C3.125 0.3125 3.125 0.3125 4.79428101 1.96040344 C6.46224976 4.90860182 6.51556699 6.87807275 6.54150391 10.25854492 C6.55807037 11.45626022 6.57463684 12.65397552 6.59170532 13.88798523 C6.59495819 15.17662979 6.59821106 16.46527435 6.6015625 17.79296875 C6.61587556 19.130087 6.63163313 20.46719051 6.64877319 21.80427551 C6.69057623 25.31701742 6.7156093 28.82966784 6.73626709 32.34259033 C6.77212656 37.97603267 6.83294315 43.60924982 6.89475632 49.24245644 C6.91389167 51.2128779 6.92507555 53.18337133 6.93618774 55.15385437 C6.94644989 56.34211319 6.95671204 57.53037201 6.96728516 58.75463867 C6.97378082 59.8062468 6.98027649 60.85785492 6.98696899 61.94132996 C6.85877942 64.26788577 6.85877942 64.26788577 8.125 65.3125 C10.46444736 65.02519945 12.7989143 64.69313221 15.125 64.3125 C15.14481934 63.48000732 15.16463867 62.64751465 15.18505859 61.78979492 C15.26320742 58.697735 15.34990206 55.60606617 15.44238281 52.5144043 C15.49944092 50.5195464 15.54664442 48.5244146 15.59375 46.52929688 C15.63242188 45.27568359 15.67109375 44.02207031 15.7109375 42.73046875 C15.75806885 40.99446411 15.75806885 40.99446411 15.80615234 39.22338867 C16.125 36.3125 16.125 36.3125 18.125 33.3125 C24.02608358 32.66874543 24.02608358 32.66874543 26.82339478 34.30743408 C28.92394424 37.54323866 28.5409616 41.0333802 28.51318359 44.76855469 C28.51844055 45.6324733 28.52369751 46.49639191 28.52911377 47.38648987 C28.5423504 50.25263398 28.53355353 53.11822484 28.5234375 55.984375 C28.52545939 57.98439642 28.52837179 59.98441713 28.53213501 61.98443604 C28.53656514 66.18777446 28.53011332 70.39092202 28.51611328 74.59423828 C28.49915336 79.94337855 28.50877371 85.29206282 28.52683067 90.64118576 C28.5377636 94.78002237 28.53417673 98.91875422 28.5264473 103.0575943 C28.52446451 105.02686875 28.52683594 106.99615313 28.53388596 108.96541595 C28.5736459 123.21343595 28.46813624 137.72924068 21.4375 150.5625 C21.08864746 151.22523926 20.73979492 151.88797852 20.38037109 152.57080078 C10.444803 170.98305472 -3.91465561 184.46380396 -23.875 191.3125 C-22.39816112 187.62040279 -20.44853383 186.04244762 -17.25 183.75 C-6.84320318 175.60750623 1.22935253 162.58203229 3.125 149.3125 C4.58078785 129.50423905 -1.93728815 111.71338386 -14.75 96.6484375 C-28.83321057 81.16726118 -47.28816856 67.17343374 -68.875 65.3125 C-75.968918 65.08334254 -82.84192285 65.37475638 -89.875 66.3125 C-85.96786809 56.62558716 -73.90746501 47.73631301 -64.875 43.3125 C-58.43505766 40.59078202 -52.70271906 39.86771843 -45.75 40 C-44.89535156 39.99677734 -44.04070312 39.99355469 -43.16015625 39.99023438 C-38.02888502 40.03358613 -33.73479498 40.6596429 -28.875 42.3125 C-28.89071045 41.32854248 -28.89071045 41.32854248 -28.90673828 40.32470703 C-28.94822503 37.36234342 -28.97430262 34.40004084 -29 31.4375 C-29.01675781 30.40496094 -29.03351563 29.37242188 -29.05078125 28.30859375 C-29.06044922 26.82939453 -29.06044922 26.82939453 -29.0703125 25.3203125 C-29.08602295 23.95350342 -29.08602295 23.95350342 -29.10205078 22.55908203 C-28.875 20.3125 -28.875 20.3125 -26.875 18.3125 C-25 18.046875 -25 18.046875 -22.875 18.0625 C-21.823125 18.05476563 -21.823125 18.05476563 -20.75 18.046875 C-18.875 18.3125 -18.875 18.3125 -16.875 20.3125 C-16.60998535 22.43774414 -16.60998535 22.43774414 -16.58789062 25.09765625 C-16.57447632 26.0920874 -16.56106201 27.08651855 -16.54724121 28.11108398 C-16.53932556 29.72672241 -16.53932556 29.72672241 -16.53125 31.375 C-16.5166272 32.477229 -16.50200439 33.57945801 -16.48693848 34.71508789 C-16.42447813 39.44633386 -16.38501373 44.17771303 -16.34326172 48.90917969 C-16.30961547 52.35626155 -16.26447907 55.80306077 -16.21875 59.25 C-16.21083435 60.86563843 -16.21083435 60.86563843 -16.20275879 62.51391602 C-16.18934448 63.50834717 -16.17593018 64.50277832 -16.16210938 65.52734375 C-16.15117249 66.84400024 -16.15117249 66.84400024 -16.14001465 68.18725586 C-16.06907058 70.5278794 -16.06907058 70.5278794 -13.875 72.3125 C-11.33309998 72.5625773 -11.33309998 72.5625773 -8.875 72.3125 C-7.06968652 70.50718652 -7.73117887 67.74436654 -7.71728516 65.31152344 C-7.70702301 64.02638855 -7.69676086 62.74125366 -7.68618774 61.41717529 C-7.68103086 60.37999485 -7.68103086 60.37999485 -7.67576981 59.32186127 C-7.66400435 57.16119634 -7.64455606 55.00073344 -7.62265015 52.84014893 C-7.56096818 46.69542188 -7.50704946 40.55071246 -7.47363281 34.40576172 C-7.45265755 30.6502436 -7.41732609 26.89508851 -7.37287521 23.13977814 C-7.35873094 21.70933566 -7.34999631 20.27882889 -7.34682083 18.84832001 C-7.34189887 16.84248619 -7.31710756 14.83673113 -7.29150391 12.83105469 C-7.28341705 11.69045593 -7.2753302 10.54985718 -7.26699829 9.37469482 C-6.6546522 4.59119683 -5.00474856 0.54399441 0 0 Z " fill="#1F88C7" transform="translate(194.875,23.6875)"/>
<path d="M0 0 C-1.22422599 3.67267796 -2.55590537 4.40190536 -5.625 6.6875 C-16.7244022 15.4186087 -24.90073151 26.97970989 -26.7890625 41.2890625 C-27.50499674 50.49014333 -27.00082483 58.23034813 -24 67 C-23.7215625 67.83273438 -23.443125 68.66546875 -23.15625 69.5234375 C-18.99634106 80.89146451 -11.53842033 91.46157967 -3 100 C-3 100.99 -3 101.98 -3 103 C-3.86625 102.649375 -4.7325 102.29875 -5.625 101.9375 C-9.4089002 100.88641661 -11.17882511 101.27902361 -15 102 C-18.6681589 102.09639698 -22.33132765 102.05875098 -26 102 C-26.33 103.65 -26.66 105.3 -27 107 C-27.639375 106.195625 -28.27875 105.39125 -28.9375 104.5625 C-30.40603502 102.7249496 -30.40603502 102.7249496 -32 101 C-33.99950636 100.95556653 -36.00038436 100.96079185 -38 101 C-42.07721511 101 -42.95207891 100.72529212 -46.1875 98.625 C-47.22970703 97.96371094 -47.22970703 97.96371094 -48.29296875 97.2890625 C-50 96 -50 96 -51 94 C-51.31185304 88.69156818 -51.35702204 83.38211164 -51.4050293 78.06542969 C-51.42637635 76.29667356 -51.46019272 74.52801603 -51.50756836 72.75976562 C-52.09079481 50.75905249 -44.72733202 33.58586605 -29.56616211 17.46777344 C-25.13988159 12.943471 -20.44746914 9.24314442 -15 6 C-14.03449219 5.4225 -13.06898437 4.845 -12.07421875 4.25 C-4.64655671 0 -4.64655671 0 0 0 Z " fill="#F05334" transform="translate(119,68)"/>
<path d="M0 0 C4.00615226 0.41229132 8.00727451 0.78490642 12.0234375 1.0859375 C13.00763672 1.16392578 13.99183594 1.24191406 15.00585938 1.32226562 C17.02622516 1.48194182 19.04708807 1.63543059 21.06835938 1.78320312 C22.04353516 1.86248047 23.01871094 1.94175781 24.0234375 2.0234375 C24.89605225 2.09038818 25.76866699 2.15733887 26.66772461 2.22631836 C29.14039112 2.63459996 30.89333187 3.38429415 33.05859375 4.62109375 C33.13412122 8.9036949 33.18782677 13.18591853 33.22338867 17.46899414 C33.23825076 18.91860729 33.25854642 20.3681774 33.28491211 21.81762695 C33.51710769 34.93440076 32.81982531 48.10000482 26.37109375 59.87109375 C25.84781494 60.86520264 25.84781494 60.86520264 25.31396484 61.87939453 C15.37839675 80.29164847 1.01893814 93.77239771 -18.94140625 100.62109375 C-17.46456737 96.92899654 -15.51494008 95.35104137 -12.31640625 93.05859375 C-1.90960943 84.91609998 6.16294628 71.89062604 8.05859375 58.62109375 C9.38728224 40.54221754 4.23256091 23.83957855 -7.00390625 9.55859375 C-8.94140625 6.62109375 -8.94140625 6.62109375 -8.75390625 3.18359375 C-8.48578125 2.33796875 -8.21765625 1.49234375 -7.94140625 0.62109375 C-4.78815864 -0.42998879 -3.24944687 -0.35495655 0 0 Z " fill="#1B4D9E" transform="translate(189.94140625,114.37890625)"/>
<path d="M0 0 C3.125 0.3125 3.125 0.3125 4.79428101 1.96040344 C6.46224976 4.90860182 6.51556699 6.87807275 6.54150391 10.25854492 C6.55807037 11.45626022 6.57463684 12.65397552 6.59170532 13.88798523 C6.59495819 15.17662979 6.59821106 16.46527435 6.6015625 17.79296875 C6.61587556 19.130087 6.63163313 20.46719051 6.64877319 21.80427551 C6.69057623 25.31701742 6.7156093 28.82966784 6.73626709 32.34259033 C6.77212656 37.97603267 6.83294315 43.60924982 6.89475632 49.24245644 C6.91389167 51.2128779 6.92507555 53.18337133 6.93618774 55.15385437 C6.94644989 56.34211319 6.95671204 57.53037201 6.96728516 58.75463867 C6.97378082 59.8062468 6.98027649 60.85785492 6.98696899 61.94132996 C6.85877942 64.26788577 6.85877942 64.26788577 8.125 65.3125 C10.46444736 65.02519945 12.7989143 64.69313221 15.125 64.3125 C15.14481934 63.48000732 15.16463867 62.64751465 15.18505859 61.78979492 C15.26320742 58.697735 15.34990206 55.60606617 15.44238281 52.5144043 C15.49944092 50.5195464 15.54664442 48.5244146 15.59375 46.52929688 C15.63242188 45.27568359 15.67109375 44.02207031 15.7109375 42.73046875 C15.7423584 41.57313232 15.7737793 40.4157959 15.80615234 39.22338867 C16.125 36.3125 16.125 36.3125 18.125 33.3125 C24.19756964 32.65003786 24.19756964 32.65003786 26.82637024 34.52778625 C28.54439669 36.88887909 28.48753522 38.33700597 28.46557617 41.24291992 C28.46523628 42.74413643 28.46523628 42.74413643 28.46488953 44.27568054 C28.44940567 45.35388565 28.43392181 46.43209076 28.41796875 47.54296875 C28.41372391 48.64852615 28.40947906 49.75408356 28.40510559 50.8931427 C28.38829437 54.42900812 28.35063685 57.96430645 28.3125 61.5 C28.29745636 63.89517407 28.2837674 66.29035706 28.27148438 68.68554688 C28.23838285 74.56139185 28.18815893 80.43690542 28.125 86.3125 C27.795 86.3125 27.465 86.3125 27.125 86.3125 C26.795 81.0325 26.465 75.7525 26.125 70.3125 C21.49919484 71.65852292 21.49919484 71.65852292 16.88256836 73.03540039 C10.76892304 74.73969454 4.78052775 74.45445986 -0.875 71.3125 C-2.6875 68.6875 -2.6875 68.6875 -3.875 66.3125 C-4.535 67.9625 -5.195 69.6125 -5.875 71.3125 C-6.205 71.3125 -6.535 71.3125 -6.875 71.3125 C-6.94457382 62.92393815 -6.99784852 54.53549727 -7.03043652 46.14671803 C-7.04607878 42.25127264 -7.06729041 38.35602497 -7.10131836 34.46069336 C-7.13396368 30.70001475 -7.15186385 26.93952606 -7.15963173 23.17871666 C-7.165166 21.74540913 -7.17597321 20.31211174 -7.19219017 18.87888527 C-7.21403055 16.86833497 -7.21522597 14.85759272 -7.21557617 12.84692383 C-7.22223801 11.70330887 -7.22889984 10.55969391 -7.23576355 9.38142395 C-6.67215702 4.58696622 -5.00606092 0.54413706 0 0 Z " fill="#2087C7" transform="translate(194.875,23.6875)"/>
<path d="M0 0 C0.33 0 0.66 0 1 0 C1 17.82 1 35.64 1 54 C1.99 54 2.98 54 4 54 C4.33 57.96 4.66 61.92 5 66 C8.18074165 64.23148964 8.18074165 64.23148964 11 62 C12.810285 61.90120435 14.62452727 61.87028486 16.4375 61.875 C17.42621094 61.87242187 18.41492188 61.86984375 19.43359375 61.8671875 C22 62 22 62 24 63 C24 63.66 24 64.32 24 65 C26.43717258 64.72965366 26.43717258 64.72965366 29 64 C29.66 63.01 30.32 62.02 31 61 C32.32 61 33.64 61 35 61 C35 82.45 35 103.9 35 126 C26 124.875 26 124.875 22 123 C21.98969254 122.31761765 21.97938507 121.63523529 21.96876526 120.93217468 C21.86076179 113.84343768 21.74615869 106.75482937 21.62768555 99.66625977 C21.58431696 97.01915168 21.54264332 94.37201528 21.50268555 91.72485352 C21.44502977 87.924555 21.38132156 84.12439932 21.31640625 80.32421875 C21.29969376 79.13664474 21.28298126 77.94907074 21.26576233 76.72550964 C21.24581711 75.62459488 21.22587189 74.52368011 21.20532227 73.3894043 C21.18977798 72.41899704 21.1742337 71.44858978 21.15821838 70.44877625 C21.09534871 67.86204325 21.09534871 67.86204325 20 65 C16.20452079 65.96776098 16.20452079 65.96776098 13 68 C12.87825371 69.95189828 12.8202717 71.90783883 12.7890625 73.86328125 C12.76070312 75.06017578 12.73234375 76.25707031 12.703125 77.49023438 C12.65128412 80.02654928 12.60694182 82.56302918 12.5703125 85.09960938 C12.539375 86.30037109 12.5084375 87.50113281 12.4765625 88.73828125 C12.45674316 89.84212158 12.43692383 90.94596191 12.41650391 92.08325195 C11.95602751 95.30793631 11.30213497 96.72261553 9 99 C6 99.5 6 99.5 3 99 C0.98557944 97.23751806 0.10963111 95.77970105 -0.26500511 93.11527252 C-0.3708705 90.67991112 -0.37065916 88.26271823 -0.34057617 85.82519531 C-0.34101425 84.898022 -0.34145233 83.97084869 -0.34190369 83.01557922 C-0.33981472 79.95287981 -0.31647828 76.89072871 -0.29296875 73.828125 C-0.28737319 71.7039215 -0.2831029 69.57971413 -0.28010559 67.45550537 C-0.26865373 61.86587832 -0.23918341 56.2764853 -0.20599365 50.68695068 C-0.17530025 44.98273891 -0.1616018 39.27848931 -0.14648438 33.57421875 C-0.1143142 22.3827097 -0.06311356 11.19137432 0 0 Z " fill="#F7A637" transform="translate(67,127)"/>
<path d="M0 0 C0.66 0 1.32 0 2 0 C2.474375 0.969375 2.94875 1.93875 3.4375 2.9375 C4.70193947 5.80477437 4.70193947 5.80477437 6 7 C9.06481021 7.1613058 11.05549278 6.98150241 14 6 C14.33 4.02 14.66 2.04 15 0 C17.0245738 1.93254772 18.42105792 3.63158688 20 6 C26.8081766 8.72327064 32.4836796 7.67597259 39.3125 5.9375 C43 5 43 5 46 5 C47.25838557 7.51677113 47.20818973 9.41293288 47.31640625 12.2265625 C47.35830078 13.2578125 47.40019531 14.2890625 47.44335938 15.3515625 C47.48267578 16.43179688 47.52199219 17.51203125 47.5625 18.625 C47.60568359 19.71296875 47.64886719 20.8009375 47.69335938 21.921875 C47.7996453 24.6144517 47.90168057 27.30712253 48 30 C47.12601562 29.87882812 46.25203125 29.75765625 45.3515625 29.6328125 C38.09649017 28.64417581 30.8366094 27.71297497 23.5625 26.875 C22.83047363 26.78750488 22.09844727 26.70000977 21.34423828 26.60986328 C16.53252851 26.06746824 11.84236761 25.9235703 7 26 C7.33 27.65 7.66 29.3 8 31 C3.66029166 30.53575213 1.75516011 27.95668735 -1.125 24.875 C-6.41431098 19.35657838 -12.10903897 14.44548051 -19 11 C-19 10.34 -19 9.68 -19 9 C-18.34 9 -17.68 9 -17 9 C-17.9977758 6.00667261 -18.7522025 5.05233685 -21 3 C-20.09906616 2.91697632 -20.09906616 2.91697632 -19.17993164 2.83227539 C-16.47366869 2.58029218 -13.76810116 2.3214883 -11.0625 2.0625 C-10.11697266 1.97548828 -9.17144531 1.88847656 -8.19726562 1.79882812 C-6.84858398 1.66831055 -6.84858398 1.66831055 -5.47265625 1.53515625 C-4.64000244 1.456604 -3.80734863 1.37805176 -2.94946289 1.29711914 C-0.999388 1.19688602 -0.999388 1.19688602 0 0 Z " fill="#186CB6" transform="translate(175,89)"/>
<path d="M0 0 C0.33 0.66 0.66 1.32 1 2 C2.6635479 2.67441131 4.33066942 3.3400321 6 4 C6.86625 4.8353125 6.86625 4.8353125 7.75 5.6875 C10.52517062 7.30634953 11.35745927 6.89287131 14.4375 6.3125 C16.8046875 5.9296875 16.8046875 5.9296875 19 6 C21.368166 7.75702639 22.39286168 9.45968459 24 12 C24.33 10.68 24.66 9.36 25 8 C26.08667969 7.90912109 26.08667969 7.90912109 27.1953125 7.81640625 C28.16210938 7.73261719 29.12890625 7.64882812 30.125 7.5625 C31.13175781 7.47613281 32.13851562 7.38976562 33.17578125 7.30078125 C36.10119503 7.04458465 36.10119503 7.04458465 39.3125 6.25 C42.92533769 5.91392207 44.9380568 7.17741476 48 9 C48.33 8.34 48.66 7.68 49 7 C49.86625 7.969375 50.7325 8.93875 51.625 9.9375 C56.12708218 14.47656026 61.38942924 17.64277128 66.79296875 20.984375 C69.30410052 22.56262591 71.66937554 24.17251283 74 26 C73.02417969 25.91621094 72.04835938 25.83242187 71.04296875 25.74609375 C69.77066406 25.64425781 68.49835938 25.54242188 67.1875 25.4375 C65.92292969 25.33308594 64.65835938 25.22867188 63.35546875 25.12109375 C60.00418816 24.80402822 60.00418816 24.80402822 57 26 C55.46050671 26.09182942 53.91722145 26.13002352 52.375 26.125 C51.18003906 26.12886719 51.18003906 26.12886719 49.9609375 26.1328125 C48 26 48 26 47 25 C45.08647154 24.87380104 43.16764977 24.82419299 41.25 24.8125 C39.67992188 24.79123047 39.67992188 24.79123047 38.078125 24.76953125 C34.91894871 25.00606856 32.79576689 25.52880099 30 27 C29.34 27.99 28.68 28.98 28 30 C25.375 30.1875 25.375 30.1875 23 30 C23 29.34 23 28.68 23 28 C20.89646505 27.9189794 18.79204048 27.86080093 16.6875 27.8125 C15.51574219 27.77769531 14.34398438 27.74289063 13.13671875 27.70703125 C9.67057315 28.03076839 9.15581908 28.47271671 7 31 C6.01 31 5.02 31 4 31 C3.01751476 26.9472484 2.91840426 23.16138263 3 19 C2.01 19 1.02 19 0 19 C0 12.73 0 6.46 0 0 Z " fill="#F29133" transform="translate(68,162)"/>
<path d="M0 0 C0.33 0.66 0.66 1.32 1 2 C2.670625 1.9690625 2.670625 1.9690625 4.375 1.9375 C8 2 8 2 10 3 C14.65275976 3.3052622 14.65275976 3.3052622 19 2 C26.98626755 1.70421231 26.98626755 1.70421231 30 3 C31.859375 5.58984375 31.859375 5.58984375 33.75 8.9375 C37.77787421 15.85927051 42.3155663 22.3155663 48 28 C48 28.99 48 29.98 48 31 C46.700625 30.4740625 46.700625 30.4740625 45.375 29.9375 C41.5910998 28.88641661 39.82117489 29.27902361 36 30 C32.3318411 30.09639698 28.66867235 30.05875098 25 30 C24.67 31.65 24.34 33.3 24 35 C23.360625 34.195625 22.72125 33.39125 22.0625 32.5625 C20.59396498 30.7249496 20.59396498 30.7249496 19 29 C17.00049364 28.95556653 14.99961564 28.96079185 13 29 C8.92278489 29 8.04792109 28.72529212 4.8125 26.625 C4.11769531 26.18414062 3.42289062 25.74328125 2.70703125 25.2890625 C1 24 1 24 0 22 C-0.08426094 20.3325394 -0.10725143 18.66174813 -0.09765625 16.9921875 C-0.09443359 16.00605469 -0.09121094 15.01992187 -0.08789062 14.00390625 C-0.07951172 12.97136719 -0.07113281 11.93882812 -0.0625 10.875 C-0.05798828 9.83472656 -0.05347656 8.79445312 -0.04882812 7.72265625 C-0.03701952 5.14838038 -0.02055075 2.57421854 0 0 Z " fill="#EE8230" transform="translate(68,140)"/>
<path d="M0 0 C4.00615226 0.41229132 8.00727451 0.78490642 12.0234375 1.0859375 C13.00763672 1.16392578 13.99183594 1.24191406 15.00585938 1.32226562 C17.02622516 1.48194182 19.04708807 1.63543059 21.06835938 1.78320312 C22.04353516 1.86248047 23.01871094 1.94175781 24.0234375 2.0234375 C24.89605225 2.09038818 25.76866699 2.15733887 26.66772461 2.22631836 C29.05859375 2.62109375 29.05859375 2.62109375 33.05859375 4.62109375 C33.05859375 15.18109375 33.05859375 25.74109375 33.05859375 36.62109375 C32.72859375 36.62109375 32.39859375 36.62109375 32.05859375 36.62109375 C31.99800781 35.70585937 31.93742187 34.790625 31.875 33.84765625 C31.79121094 32.65914062 31.70742187 31.470625 31.62109375 30.24609375 C31.53988281 29.06273437 31.45867187 27.879375 31.375 26.66015625 C31.24774439 23.70590474 31.24774439 23.70590474 30.05859375 21.62109375 C24.06369643 18.1573753 17.8913624 17.67158094 11.05859375 18.62109375 C7.73378116 20.2392003 6.38251128 20.95783405 4.74609375 24.30859375 C4.40578125 25.45328125 4.40578125 25.45328125 4.05859375 26.62109375 C1.21272726 22.95609061 -1.09704027 19.07917525 -3.44140625 15.08203125 C-4.6673378 13.0707373 -5.95500124 11.23996908 -7.37890625 9.37109375 C-8.94140625 6.62109375 -8.94140625 6.62109375 -8.69140625 3.24609375 C-8.44390625 2.37984375 -8.19640625 1.51359375 -7.94140625 0.62109375 C-4.78815864 -0.42998879 -3.24944687 -0.35495655 0 0 Z " fill="#205EAB" transform="translate(189.94140625,114.37890625)"/>
<path d="M0 0 C0.33 0 0.66 0 1 0 C1 21.12 1 42.24 1 64 C-7 63 -7 63 -12 61 C-12 42.85 -12 24.7 -12 6 C-10.21863323 9.56273355 -9.73686665 10.82395587 -9.5859375 14.546875 C-9.54726562 15.39121094 -9.50859375 16.23554688 -9.46875 17.10546875 C-9.42234375 18.41451172 -9.42234375 18.41451172 -9.375 19.75 C-9.33632812 20.63816406 -9.29765625 21.52632812 -9.2578125 22.44140625 C-9.16379127 24.6273998 -9.07813857 26.81339062 -9 29 C-6.69 29.33 -4.38 29.66 -2 30 C-2 30.66 -2 31.32 -2 32 C-1.34 32 -0.68 32 0 32 C0 21.44 0 10.88 0 0 Z " fill="#FCBE3D" transform="translate(101,189)"/>
<path d="M0 0 C3.125 0.3125 3.125 0.3125 4.79902649 1.96514893 C6.45989114 4.90535277 6.48717081 6.81385358 6.46557617 10.18261719 C6.46534958 11.36353943 6.46512299 12.54446167 6.46488953 13.76116943 C6.44940567 15.03107727 6.43392181 16.30098511 6.41796875 17.609375 C6.41372391 18.91328186 6.40947906 20.21718872 6.40510559 21.56060791 C6.39367549 25.01968772 6.36422477 28.47838698 6.33099365 31.93731689 C6.3002528 35.46987765 6.28659172 39.00250016 6.27148438 42.53515625 C6.23935282 49.46109339 6.18817904 56.3867784 6.125 63.3125 C5.795 63.3125 5.465 63.3125 5.125 63.3125 C4.795 50.4425 4.465 37.5725 4.125 24.3125 C2.145 23.6525 0.165 22.9925 -1.875 22.3125 C-2.865 21.6525 -3.855 20.9925 -4.875 20.3125 C-4.86976318 21.21790527 -4.86452637 22.12331055 -4.85913086 23.05615234 C-4.69227622 56.29613195 -4.69227622 56.29613195 -5.875 71.3125 C-6.205 71.3125 -6.535 71.3125 -6.875 71.3125 C-6.94457382 62.92393815 -6.99784852 54.53549727 -7.03043652 46.14671803 C-7.04607878 42.25127264 -7.06729041 38.35602497 -7.10131836 34.46069336 C-7.13396368 30.70001475 -7.15186385 26.93952606 -7.15963173 23.17871666 C-7.165166 21.74540913 -7.17597321 20.31211174 -7.19219017 18.87888527 C-7.21403055 16.86833497 -7.21522597 14.85759272 -7.21557617 12.84692383 C-7.22223801 11.70330887 -7.22889984 10.55969391 -7.23576355 9.38142395 C-6.67215702 4.58696622 -5.00606092 0.54413706 0 0 Z " fill="#30AEDA" transform="translate(194.875,23.6875)"/>
<path d="M0 0 C0.33 0 0.66 0 1 0 C1.01458252 0.71542969 1.02916504 1.43085938 1.04418945 2.16796875 C1.11919213 5.44582436 1.21567955 8.72271917 1.3125 12 C1.34633789 13.68802734 1.34633789 13.68802734 1.38085938 15.41015625 C1.5907285 21.93517826 2.27899107 27.04733704 5 33 C7.31 33 9.62 33 12 33 C12 31.35 12 29.7 12 28 C12.99 28.33 13.98 28.66 15 29 C14.34 29 13.68 29 13 29 C13.02094727 29.58491211 13.04189453 30.16982422 13.06347656 30.77246094 C13.14680115 33.43146465 13.19870897 36.09019355 13.25 38.75 C13.30027344 40.13058594 13.30027344 40.13058594 13.3515625 41.5390625 C13.45052892 48.36774514 13.45052892 48.36774514 11.140625 51.609375 C8.4416821 53.36270287 7.15818991 53.63163798 4 53 C1.86816406 51.66308594 1.86816406 51.66308594 0 49 C-0.57036474 45.29733386 -0.46404587 41.62892897 -0.390625 37.890625 C-0.38496521 36.80867859 -0.37930542 35.72673218 -0.37347412 34.61199951 C-0.35108999 31.15754893 -0.30088791 27.70413689 -0.25 24.25 C-0.22993772 21.90756707 -0.21168648 19.56511787 -0.1953125 17.22265625 C-0.15121855 11.4814167 -0.08428555 5.74078255 0 0 Z " fill="#FCC249" transform="translate(111,188)"/>
<path d="M0 0 C4.49847561 1.84552846 4.49847561 1.84552846 6.4375 4 C7 7.4375 7 7.4375 6.4375 11 C4.3125 13.5 4.3125 13.5 1.4375 15 C-2.12340901 15 -3.81947245 14.69349238 -6.4375 12.25 C-7.83580399 9.45339201 -8.16463919 8.08596334 -7.5625 5 C-3.75815217 0 -3.75815217 0 0 0 Z " fill="#1AB0DC" transform="translate(172.5625,21)"/>
<path d="M0 0 C3.44982283 1.43041434 5.28397899 3.11382575 7.5625 6.0625 C7.625 8.6875 7.625 8.6875 6.5625 11.0625 C4.4410325 13.25973419 3.05485277 13.96402945 0.0625 14.5625 C-2.4375 14.0625 -2.4375 14.0625 -4.75 11.875 C-6.58706543 8.81322428 -7.151437 7.5429429 -6.4375 4.0625 C-4.4491545 1.26408782 -3.49603627 0.08964196 0 0 Z " fill="#16AEDC" transform="translate(216.4375,35.9375)"/>
<path d="M0 0 C1.875 1.125 1.875 1.125 3 3 C3.42454541 6.32560568 3.31414524 8.33680449 1.875 11.375 C0 13 0 13 -2.9375 13.5 C-6 13 -6 13 -8.4375 11.4375 C-10 9 -10 9 -9.9375 5.375 C-8.3868786 -0.20723702 -5.30716391 -0.55282957 0 0 Z " fill="#EAF1F7" transform="translate(209,102)"/>
<path d="M0 0 C2.5 1.5625 2.5 1.5625 4 4 C3.75 7.75 3.75 7.75 3 11 C0.31143576 12.00821159 -1.41703215 12.22736824 -4.11328125 11.17578125 C-6.10794931 10.16604698 -8.0646772 9.11893353 -10 8 C-10.21917317 5.29686424 -10.32851983 3.56041618 -8.9375 1.1875 C-5.86370782 -0.69643714 -3.51614342 -0.43180709 0 0 Z " fill="#FCC139" transform="translate(76,233)"/>
<path d="M0 0 C1.875 1.0625 1.875 1.0625 3 3 C3.6384 8.9584 3.6384 8.9584 1.8125 11.9375 C-0.70554428 13.41359492 -2.12476676 13.49089348 -5 13 C-7.3125 11.375 -7.3125 11.375 -9 9 C-9.45742277 5.79804064 -9.55468045 3.92446741 -7.875 1.125 C-5.11909116 -0.52854531 -3.14924548 -0.39365568 0 0 Z " fill="#FCF6F1" transform="translate(87,168)"/>
<path d="M0 0 C2.875 1.6875 2.875 1.6875 5 4 C5.1328125 6.64453125 5.1328125 6.64453125 5 9 C3.22925083 9.02705729 1.45838289 9.04642195 -0.3125 9.0625 C-1.29863281 9.07410156 -2.28476563 9.08570313 -3.30078125 9.09765625 C-6 9 -6 9 -9 8 C-9.22223194 5.25913944 -9.34781139 3.56036279 -7.875 1.1875 C-5.07306524 -0.58705868 -3.25598452 -0.45583783 0 0 Z " fill="#FCD339" transform="translate(120,247)"/>
<path d="M0 0 C2.01822917 0.06510417 4.03645833 0.13020833 6.0546875 0.1953125 C6.7146875 1.5153125 7.3746875 2.8353125 8.0546875 4.1953125 C6.7346875 4.1953125 5.4146875 4.1953125 4.0546875 4.1953125 C4.0546875 6.5053125 4.0546875 8.8153125 4.0546875 11.1953125 C3.0646875 11.1953125 2.0746875 11.1953125 1.0546875 11.1953125 C0.7659375 10.0609375 0.4771875 8.9265625 0.1796875 7.7578125 C-0.1915625 6.5821875 -0.5628125 5.4065625 -0.9453125 4.1953125 C-1.6053125 3.8653125 -2.2653125 3.5353125 -2.9453125 3.1953125 C-2.9453125 10.1253125 -2.9453125 17.0553125 -2.9453125 24.1953125 C-3.2753125 24.1953125 -3.6053125 24.1953125 -3.9453125 24.1953125 C-4.00319034 20.57037916 -4.0388667 16.94556393 -4.0703125 13.3203125 C-4.08707031 12.28777344 -4.10382813 11.25523438 -4.12109375 10.19140625 C-4.12753906 9.20527344 -4.13398438 8.21914063 -4.140625 7.203125 C-4.15109863 6.29191895 -4.16157227 5.38071289 -4.17236328 4.44189453 C-3.8731734 1.48152328 -3.0378827 0.3050083 0 0 Z " fill="#42B6DC" transform="translate(169.9453125,41.8046875)"/>
<path d="M0 0 C0.33 0 0.66 0 1 0 C1.35897436 6.22222222 1.35897436 6.22222222 -0.125 9.4375 C-2.75128857 11.6260738 -4.68553637 11.29461899 -8 11 C-8.66 9.68 -9.32 8.36 -10 7 C-3.375 4.875 -3.375 4.875 0 6 C0 4.02 0 2.04 0 0 Z " fill="#FBBA3F" transform="translate(78,215)"/>
<path d="M0 0 C0.66 0.33 1.32 0.66 2 1 C1.13375 1.83144531 0.2675 2.66289063 -0.625 3.51953125 C-1.75039057 4.61678706 -2.87536934 5.71446534 -4 6.8125 C-4.57234375 7.35970703 -5.1446875 7.90691406 -5.734375 8.47070312 C-7.21400538 9.92391154 -8.61296658 11.45816374 -10 13 C-10 13.99 -10 14.98 -10 16 C-11.32 16 -12.64 16 -14 16 C-12.34136495 11.67495164 -9.128959 8.90581175 -5.875 5.75 C-5.31167969 5.19570312 -4.74835938 4.64140625 -4.16796875 4.0703125 C-2.78313972 2.70895515 -1.39216796 1.35385141 0 0 Z " fill="#3E95CD" transform="translate(119,74)"/>
<path d="M0 0 C0.66 0.33 1.32 0.66 2 1 C1.34 1.66 0.68 2.32 0 3 C0.33 3.66 0.66 4.32 1 5 C-1.64 5.99 -4.28 6.98 -7 8 C-5.50902342 4.2047869 -3.24299151 2.38957269 0 0 Z " fill="#3C6AAE" transform="translate(178,207)"/>
</svg>
