<?xml version="1.0" encoding="UTF-8"?>
<svg version="1.1" viewBox="0 0 2048 933" width="1280" height="1280" xmlns="http://www.w3.org/2000/svg">
<path transform="translate(0)" d="m0 0h2048v933h-2048z" fill="#FCFCFC"/>
<path transform="translate(253,316)" d="m0 0 3 1-5 5-13 10-10 9-11 14-8 13-6 13-4 13-3 21 1 16 4 16 7 20 10 19 12 17 9 11 17 17 11 9 13 9 19 11 20 8 13 4 19 3h10l15-2 11-3 3 1-11 12-16 16-15 11-16 8-14 4-9 1h-20l-18-2-8-2v42l-3 5-5 3h-8l-6-4-2-4-1-97-2-5-3-2h-9l-4 2-2 7v129l-4 6-5 4h-6l-8-6-2-5-1-119-5-5h-8l-5 4-1 2-1 54-7 8-7 1-6-3-4-7v-177l3-21 6-20 9-20 10-16 9-11 11-12 3-3h2l2-4 13-10 13-8 19-9z" fill="#F8A533"/>
<path transform="translate(403,228)" d="m0 0h9l6 5 2 5v116l2 6 5 3h7l6-5 1-4 1-53 4-5 4-2h7l6 5 3 6v164l-2 23-5 22-10 24-11 18-10 13-12 13-14 12-19 12-13 6-10 4-2-1 20-16 10-10 10-13 7-11 7-17 3-11 2-14v-14l-3-18-4-15-8-18-9-16-14-19-8-8v-2l-4-2-13-13-16-12-19-11-17-8-15-5-20-4h-20l-15 3-7 1 2-4 6-7h2l2-4 9-9 8-7 14-10 13-6 13-4 6-1h28l18 3h4l1-43 4-5 5-2 7 1 6 5 1 2 1 98 4 6 2 1h8l5-4 1-3 1-118 1-16z" fill="#166BB6"/>
<path transform="translate(1021,311)" d="m0 0h43l22 2 15 5 13 7 10 9 8 9 6 10 7 19 2 11v21l-3 15-5 14-7 12-11 12-9 7-14 7-15 4-7 1-28 1h-40l-6-1-1-127 1-37z" fill="#062750"/>
<path transform="translate(875,308)" d="m0 0h14l14 3 13 5 13 9 7 7 8 14 4 10 2 10v55l-4 16-7 13-9 10-8 7-14 7-14 4h-24l-12-3-16-8-12-11-7-9-6-14-2-7-1-8v-49l3-15 5-12 7-11 11-10 12-7 16-5z" fill="#06264F"/>
<path transform="translate(1316,345)" d="m0 0h8l6 4 3 7-1 6-3 5-9 10 1 5 8 16 2 8v17l-3 12-6 10-5 6-9 6h-2l4 4 8 5 8 9 4 10 1 4v13l-4 13-6 9-8 7-15 8-14 4h-27l-19-5-11-6-6-7-1-7 4-8 4-3h8l18 7 8 2h14l12-3 9-6 4-6 1-7-3-9-5-5-8-4-8-2-26-2-13-4-8-4-10-8-8-10-5-11-2-9-1-11 1-13 4-13 6-10 6-7 10-7 10-5 9-3 15-2 15 1 14 4 5 3 2-5 10-11z" fill="#062650"/>
<path transform="translate(729,309)" d="m0 0h24l16 3 13 5 10 7 8 9 4 8 2 8v8l-3 6-7 4-10-1-5-5-2-5-3-9-4-5-12-6-8-2h-21l-12 3-10 6-6 9-1 3v31l8-7 10-5 12-3 12-1 18 2 13 4 14 7 5 4 8 10 4 8 2 9v19l-4 13-8 11-10 9-12 6-14 4-6 1h-25l-14-3-11-4-10-6-11-11-7-14-2-10v-75l4-14 7-10 7-7 11-7 15-5z" fill="#072750"/>
<path transform="translate(1553,310)" d="m0 0h34l6 7 13 19 24 34 10 14 4-5 11-15 14-20 12-17 8-12 4-5h34v157l-5 8-5 3h-9l-6-3-4-5-1-3v-109l-4 4-12 17-26 36-11 15h-8l-10-13-16-23-13-18-11-16-2-1v93l-1 16-4 7-6 3h-9l-8-5-3-7z" fill="#072650"/>
<path transform="translate(1814,306)" d="m0 0h31l16 4 16 8 14 10 8 9 2 5v7l-4 6-5 3h-10l-18-14-12-6-12-3-13-1-16 3-12 5-11 9-7 10-4 8-4 14v23l3 12 6 12 7 9 11 7 10 4 11 2h17l13-3 14-7 3-3 1-30h-36l-6-3-4-7v-9l4-6 7-3h63l1 1v68l-3 5-11 10-14 8-12 5-12 3h-32l-15-3-13-5-12-7-10-9-6-7-8-14-5-13-3-14v-27l3-15 5-13 7-13 9-11 10-9 11-7 13-5z" fill="#062750"/>
<path transform="translate(583,310)" d="m0 0h29l16 4 16 8 8 7 7 12 3 13-1 12-3 9-7 9-8 6-3 3 9 3 8 7 5 7 3 9v16l-4 13-4 6-7 8-9 6-11 5-18 4h-28l-16-3-12-5-11-8-7-8-5-11-1-4v-14l3-6 6-4h9l6 4 3 6 1 9 4 8 6 5 14 5 10 1h9l15-3 11-6 5-6 2-7v-7l-3-7-5-6-8-4-8-2-37-1-6-4-3-6 1-6 3-5 7-2 30-1 12-3 9-5 4-5 2-9-2-8-2-5-4-2-6-4-12-3h-20l-12 3-10 7-3 5-3 12-4 5-4 2h-8l-6-4-3-4-1-9 3-12 6-11 8-7 10-6 16-5z" fill="#072750"/>
<path transform="translate(253,316)" d="m0 0 3 1-5 5-13 10-10 9-11 14-8 13-6 13-4 13-3 21 1 16 4 16 7 20 10 19 12 17 9 11 8 8 1 5-5-1-4-1v-2l-4-1-3-2-12 5-6 1h-8l-1-2-7-1 2 4v5l-3 3v-3h-2l-3-6v-2l-5-2-7-1-8 6h-2l-1-4-7-6-10-5v-3h-2l-1-8v-58l4-20 7-19 8-16 9-14 8-10 11-12 3-3h2l2-4 13-10 13-8 19-9z" fill="#F04E30"/>
<path transform="translate(395,411)" d="m0 0 8 2 5 1 6 1 9 1 7-1 6 2h19l7 3 3 2 1 28v19l-2 23-5 22-10 24-11 18-10 13-12 13-14 12-19 12-13 6-10 4-2-1 20-16 10-10 10-13 7-11 7-17 3-11 2-14v-14l-3-18-4-15-8-18-9-16-14-19-3-3v-2l4 2 6 7 4 1-4-5v-2h-2v-4l-2-1h2l-1-3 5-1z" fill="#184B9D"/>
<path transform="translate(876,334)" d="m0 0h11l13 4 11 7 6 8 5 12 2 12v32l-3 17-6 11-5 6-9 6-8 3-6 1h-11l-13-4-6-4-5-5-6-9-4-10-2-15v-23l2-18 5-12 9-10 10-6z" fill="#FDFDFD"/>
<path transform="translate(1031,340)" d="m0 0h41l10 2 12 5 10 8 8 11 5 16v23l-4 13-6 11-6 7-9 6-11 4-6 1h-44z" fill="#FDFDFD"/>
<path transform="translate(1408,310)" d="m0 0h122l6 5 2 4v10l-9 8-7 1h-37v125l-4 10-5 4-2 1h-10l-6-4-4-6-1-129-40-1-7-3-5-6-1-2v-8l4-6z" fill="#072852"/>
<path transform="translate(360,263)" d="m0 0 7 1 6 5 1 2v94h-1l-1-7-8 6-6 1-3-2-14 1-6 2-11-1v2l4 2 5 5-1 3h-6l-9-3-15-7-15-5-20-4h-20l-15 3-7 1 2-4 6-7h2l2-4 9-9 8-7 14-10 13-6 13-4 6-1h28l18 3h4l1-43 4-5z" fill="#1D86C7"/>
<path transform="translate(148,452)" d="m0 0h1l1 92 5 3 3 13 1 12h4v-2l8-7 4-1h14l7 3 1 4h2l1 2 8-2 1-5 3-3h6v134l-4 6-5 4h-6l-8-6-2-5-1-119-5-5h-8l-5 4-1 2-1 54-7 8-7 1-6-3-4-7z" fill="#F8A633"/>
<path transform="translate(403,228)" d="m0 0h9l6 5 2 5v116l2 6 5 3h7l6-5 1-4 1-53 4-5 4-2h7l6 5 3 6v76l-1 21h-1l-1-23-3-9-6 2-1 1h-9l-6 3-11 2-10-2-7-2-4-4-4-8-4-2-1 6h-1v-115l1-16z" fill="#1E87C7"/>
<path transform="translate(149,501)" d="m0 0h1v8h2v3h5l5 4 8 7 1 2-1 2 10-7 7 1 5 3 3 5v3h4l-1-9h7l1 3 14-2 6-3h5l1-2 7 4v2l5 1 4 1-1-4 21 18 15 10 18 10-1 2-4-2v2h-3v-2l-7-2v2l-7-2-6-2v1l-7 2-3 2-15-1v-2l-3 1-1-2h-9l-2-1h-9l-4 2-1 2-8 1-3 7-8 2-1 2v-4h-2l-1-4-4-1-3-1h-14l-5 2-5 5h-2v2h-4l-4-22v-3l-4-1-1 6h-1z" fill="#F29032"/>
<path transform="translate(149,443)" d="m0 0h1l1 20 2 5h10l9 3h10l15-4 4 1 5 4 3 1 1-2 10 18 10 14 9 11 8 8 1 5-5-1-4-1v-2l-4-1-3-2-12 5-6 1h-8l-1-2-7-1 2 4v5l-3 3v-3h-2l-3-6v-2l-5-2-7-1-8 6h-2l-1-4-7-6-10-5v-3h-2l-1-8z" fill="#EE822F"/>
<path transform="translate(737,394)" d="m0 0 16 1 10 3 11 7 5 7 2 6v12l-4 9-7 7-12 5-11 2h-10l-12-2-12-5-7-6-4-8-1-11 3-10 7-8 14-7z" fill="#FDFDFD"/>
<path transform="translate(1266,381)" d="m0 0 12 1 10 4 10 9 4 7 1 4v18l-5 10-7 7-10 5-4 1h-17l-11-4-9-7-6-12-1-5v-9l3-10 6-9 9-6 8-3z" fill="#FDFDFD"/>
<path transform="translate(1173,351)" d="m0 0 9 1 6 5 2 5v106l-3 6-6 4h-9l-7-4-2-3-1-87v-22l4-7z" fill="#F8A532"/>
<path transform="translate(1364,351)" d="m0 0 8 1 6 7 1 2 1 32v51l-1 22-3 6-4 3-3-7-3-1-2 7v2l-5-1-4-4-2-7-1-23 1-80 4-6 4-3z" fill="#1D86C7"/>
<path transform="translate(395,411)" d="m0 0 8 2 5 1 6 1 9 1 7-1 6 2h19l7 3 3 2 1 28v19l-1 16h-1l-2-26v-2l-3-1-1-4-3 2-4-1-5-4-4-2h-18l-9 5-5 2v10l-3-1-2-4-3-1-9-16-14-19-3-3v-2l4 2 6 7 4 1-4-5v-2h-2v-4l-2-1h2l-1-3 5-1z" fill="#205EAB"/>
<path transform="translate(193,576)" d="m0 0h1l1 7 1 32 1 7 1 2h2l1 2 8-1 1-2 3 3v2h3v-32h1l1 62v37l-4 6-5 4h-6l-8-6-2-5z" fill="#FDBD34"/>
<path transform="translate(202,720)" d="m0 0h6l6 4 4 8v46l-4 6-6 3-7-1-6-4-2-5v-48l7-8z" fill="#FDD12D"/>
<path transform="translate(404,147)" d="m0 0h8l6 5 1 2v51l-4 5-6 3-6-1-5-4-1-2v-53z" fill="#55BFD9"/>
<path transform="translate(157,694)" d="m0 0 7 1 6 5 2 3v42l-3 5-5 4h-8l-7-6-1-4v-41l7-8z" fill="#FDD22D"/>
<path transform="translate(450,179)" d="m0 0h7l6 5 3 7v36l-5 8-4 3h-7l-6-4-2-4v-43l3-5z" fill="#56C0D9"/>
<path transform="translate(1188,424)" d="m0 0h1l1 44-3 6-6 4h-9l-7-4-2-3v-46h1l1 9h23z" fill="#FDD22D"/>
<path transform="translate(1364,351)" d="m0 0 8 1 6 7 1 2v32l-1 3-10-1-9 4-4 1-1-1-1-7v-31l4-6 4-3z" fill="#166BB6"/>
<path transform="translate(403,228)" d="m0 0h9l6 5 2 5v17l-1 26h-2l-2-5-6-1-10-9-1 8-1 92h-1v-115l1-16z" fill="#12ADDB"/>
<path transform="translate(239,566)" d="m0 0h1l1 44 2 16 5 3v3l4-2h4v-2l6 1-1-9 2-1v42l-3 5-5 3h-8l-6-4-2-4z" fill="#FDBD33"/>
<path transform="translate(1173,351)" d="m0 0 9 1 6 5 1 2v22l-1 11-21-3-2-2-2-13v-15l4-5z" fill="#F04C30"/>
<path transform="translate(1172,311)" d="m0 0h9l8 6 4 6 1 8-5 8-5 4-2 1h-11l-6-4-5-6-1-9 3-7 7-6z" fill="#F8A733"/>
<path transform="translate(610,589)" d="m0 0h15l1 3v28l-2 7-4 4-10 1-6-3-2-2v-3l10 3 5-1 3-4 2-5-7 4h-6l-6-4-3-7v-10l3-8z" fill="#0D3869"/>
<path transform="translate(1340,589)" d="m0 0 7 1 3 2v-3h5l1 32-4 8-5 3h-8l-6-3-2-4 3-1 7 3 7-1 2-6v-3l-5 4h-7l-7-6-1-3v-15l4-6z" fill="#0C3666"/>
<path transform="translate(1363,308)" d="m0 0h7l7 4 6 8v10l-6 7-6 3h-9l-7-4-4-5-1-2v-8l3-6 7-6z" fill="#1D86C7"/>
<path transform="translate(1379,393)" d="m0 0h1v51l-1 22-3 6-4 3-3-7-3-1-2 7v2l-5-1-4-4-2-7v-21h3l16-2 5 3 1-6z" fill="#56C0D9"/>
<path transform="translate(1182,579)" d="m0 0h7l5 10 8 21v3h2l1-6 7-19 4-8 1-1h6v42l-5-1v-35l-7 21-6 14-5-1-5-12-8-21 1 12v22h-6z" fill="#0E3A6C"/>
<path transform="translate(1082,589)" d="m0 0h7l5 3 4 5 1 9-2 8-6 5-9 2-6-3-4-6-1-10 3-8 5-4z" fill="#0B3363"/>
<path transform="translate(909,589)" d="m0 0 9 1 5 5 2 4v11l-4 7-5 3-8 1-8-5-2-5v-12l3-5 5-4z" fill="#0A3260"/>
<path transform="translate(1626,589)" d="m0 0 9 1 6 6 1 3v11l-4 6-3 3-6 2-7-1-6-7-1-3v-10l4-8z" fill="#0B3160"/>
<path transform="translate(360,222)" d="m0 0 7 1 8 7 2 5-1 7-5 6-8 4-7-2-5-4-3-6v-7l4-6 5-4z" fill="#0EACDB"/>
<path transform="translate(155,653)" d="m0 0h9l6 4 4 5 1 7-3 6-8 6-5 1-7-4-6-7v-9l4-6z" fill="#FDBE33"/>
<path transform="translate(247,681)" d="m0 0h7l6 4 4 5 1 2v9l-6 7-4 2h-8l-7-5-3-7 1-9 7-7z" fill="#FDD12D"/>
<path transform="translate(452,251)" d="m0 0 6 1 8 7 2 4v6l-4 6-7 5h-8l-8-7-2-5v-6l4-6 5-4z" fill="#0DABDB"/>
<path transform="translate(555,583)" d="m0 0h8l6 3 4 8v10l-4 8-6 4h-9l-1-2v-29z" fill="#FDFDFD"/>
<path transform="translate(954,589)" d="m0 0 8 1 9-1 4 2v2l5-2 7-2 6 1 3 3 1 3v24h-5l-1-24-1-1h-8l-3 3-1 22h-5v-25l-9-1-4 1-1 25h-5z" fill="#0E3A6D"/>
<path transform="translate(1307,589)" d="m0 0h8l5 5 2 5 1 21-4 1-1-4-7 4-9-2-4-5 1-7 3-4 7-2h8l-3-6-5-1-7 4-4 1 1-4 4-4z" fill="#0C3566"/>
<path transform="translate(428,386)" d="m0 0 8 1 7 6 1 8-3 6-4 4-3 1h-7l-5-3-4-5-1-7 3-6 5-4z" fill="#FDFDFD"/>
<path transform="translate(679,589)" d="m0 0h7l5 3 2 6 1 22-4 1-1-4-8 4-8-2-3-4v-8l4-4 8-2h6l-3-7-7 1-6 4h-3l2-5 5-4z" fill="#0B3261"/>
<path transform="translate(792,589)" d="m0 0h7l4 2 3 7 1 21-5 1v-4l-4 4-7 1-6-3-2-2-1-6 3-5 5-3 4-1h7l-2-6-6-1-8 5h-3l2-5 5-4z" fill="#0C3768"/>
<path transform="translate(180,520)" d="m0 0 7 1 5 3 4 8-1 7-5 6-5 2-8-1-6-6-1-3v-7l4-6z" fill="#FDFDFD"/>
<path transform="translate(1773,589)" d="m0 0 9 1 4 6 1 24h-4v-2l-5 2h-10l-5-5v-8l4-4 7-2h8l-3-6-5-1-9 5h-2l1-5 5-4z" fill="#0C3565"/>
<path transform="translate(1397,589)" d="m0 0h17l5 4 8-4h7l4 3 1 3v25l-3 1-2-1-1-26-9 1-3 1-1 24h-4l-2-25-2-1h-10l-1 27-4-1z" fill="#092F5C"/>
<path transform="translate(1243,589)" d="m0 0 9 1 4 6 1 12v12h-4l-1-3-5 3-5 1-7-3-2-3v-7l4-5 7-2h8l-3-6-6-1-8 5h-2l1-5 5-4z" fill="#0C3666"/>
<path transform="translate(1374,589)" d="m0 0 9 1 5 6 1 3v7l-7 1h-12v5l3 3 5 1 7-3 3-1 1 2-4 5-6 2-8-1-6-5-2-6v-8l3-7 5-4z" fill="#0D3C6D"/>
<path transform="translate(1458,589)" d="m0 0 9 1 5 6 1 9-7 2h-13l3 7 1 1h8l5-3h2l-1 5-7 4-9-1-6-5-2-5v-10l3-6 5-4z" fill="#0C3767"/>
<path transform="translate(1687,589)" d="m0 0 9 1 5 6 1 10-16 1h-3v5l1 3h11l4-3h2l-1 5-4 3-9 1-5-2-5-6-1-3v-9l4-8 4-3z" fill="#0C3666"/>
<path transform="translate(553,579)" d="m0 0h11l7 3 5 6 2 8v8l-2 7-5 6-7 3h-16v-40zm2 4-2 2v29l1 2h9l6-4 4-8v-10l-4-8-6-3z" fill="#0C3868"/>
<path transform="translate(1869,589)" d="m0 0h7l5 3 3 5 1 8-1 1-17 1-3-1 3 8 2 1h8l5-3h2l-1 5-4 3-10 1-6-3-4-8v-9l4-8z" fill="#0C3565"/>
<path transform="translate(1016,589)" d="m0 0 8 1 4 5 1 4 1 21h-4l-1-4-5 4-7 1-6-4-1-2v-8l4-4 7-2h7l-2-6-6-1-9 5-1-4 4-4z" fill="#0B3363"/>
<path transform="translate(1589,578)" d="m0 0 8 1 5 3 3 3 1 7-4-1-4-6-5-2-6 1-5 5-1 3v13l3 7 3 3 8 1 5-3 2-9h-10l-1-4h15l1 4v9l-4 5-7 3h-7l-8-4-4-5-2-7v-12l3-9 5-4z" fill="#0B3363"/>
<path transform="translate(1188,424)" d="m0 0h1v11l-1 13h-5v2l-6 4-12-2-1-1v-19l1 2h23z" fill="#FDBD34"/>
<path transform="translate(1378,422)" d="m0 0h1v16l-1 7-6-3-16 2-2 1-2-4v-14l2-4v5l5-1 2 1 10-1 7-2z" fill="#09AADB"/>
<path transform="translate(1364,351)" d="m0 0 8 1 6 7 1 2v12l-8-4-6-1v2l-8 1v2l-3-1v-13l5-6z" fill="#184B9E"/>
<path transform="translate(360,263)" d="m0 0 7 1 6 5 1 2v94h-1l-1-92-5-1v11l-2 5-4-1v-2h-2l-2-7-1-6h-3l-1 31h-1v-33l4-5z" fill="#23B1DA"/>
<path transform="translate(1730,589)" d="m0 0 6 1 12-1 5 3 2 11v17h-6l-1-26-9 1-2 1-1 6v18h-6z" fill="#113F76"/>
<path transform="translate(1795,589)" d="m0 0 5 1v2l8-3h6l4 3 1 3v26l-4-1-1-6-1-19-4-1-7 2-1 24-4 1-2-1z" fill="#0B3766"/>
<path transform="translate(1480,589)" d="m0 0 5 1 2 1 6-2 8 1 3 5 1 19-2 7-4-1v-16l-1-9h-12v14l-1 11-3 1-2-1z" fill="#0E3D70"/>
<path transform="translate(815,589)" d="m0 0 5 1 1 2 3-2h12l3 5v25h-4l-1-7-1-18h-8l-4 1v24l-4 1-2-2z" fill="#0E3B6E"/>
<path transform="translate(1188,381)" d="m0 0h1v17l-1 7h-15l-7-3-2-5v-14l2 4 5 2 14 2 3 1z" fill="#EE822F"/>
<path transform="translate(1265,589)" d="m0 0 6 1h2l10-1 5 3 2 9v19l-4 1-1-1-1-23-1-2h-8l-3 1-1 11v13l-4 1-1-1z" fill="#0C3969"/>
<path transform="translate(1107,589)" d="m0 0 20 1 3 4 1 25-5 1-1-26-13 1v25h-5l-1-30z" fill="#0C3566"/>
<path transform="translate(1625,594)" d="m0 0h7l5 5 1 9-4 6-3 2h-6l-5-5-1-9 3-6z" fill="#FDFDFD"/>
<path transform="translate(908,594)" d="m0 0h7l5 5 1 9-4 6-5 3-5-2-4-5-1-8 3-6z" fill="#FDFDFD"/>
<path transform="translate(1081,594)" d="m0 0h8l4 4 1 2v9l-4 6-9 1-4-4-1-3v-8l3-5z" fill="#FDFDFD"/>
<path transform="translate(857,589)" d="m0 0h6l5 3 2 6h-4l-5-4-6 1-2 5 10 3 6 3 1 1v8l-5 5-7 1-7-3-3-3v-6l7 6 6 1 4-4-1-3-11-4-5-4 1-6 5-5z" fill="#0B3363"/>
<path transform="translate(1838,589)" d="m0 0 9 1 5 6v6l-7-7h-8l-3 3-1 3v7l3 6 5 2 6-3 5-4 1 3-4 6-7 3-7-1-5-4-3-8 1-10 4-6z" fill="#0C3666"/>
<path transform="translate(194,628)" d="m0 0h1l1 56 6 8 4 1 7-1 1 2h2v5l-7 6h-6l-8-6-1-2z" fill="#FDD12D"/>
<path transform="translate(1189,362)" d="m0 0h1v42l-2 11h-10l-6 1-2-1v-2l-4-1-2 1v-16l2 3v2l7 2 15 1z" fill="#F39632"/>
<path transform="translate(1353,361)" d="m0 0h1l1 11 2 1v-2l8-1v-2l9 1 5 4v8h-14l-9 3h-2l-1-5z" fill="#205EAB"/>
<path transform="translate(1172,311)" d="m0 0h9l8 6 3 4v3l-6-1-6 1h-18l-1-4 5-6z" fill="#F04F30"/>
<path transform="translate(1339,594)" d="m0 0h6l5 5 1 9-3 5-4 3h-5l-4-5-1-9 3-6z" fill="#FDFDFD"/>
<path transform="translate(610,594)" d="m0 0h6l4 4 1 3v10l-6 5h-5l-4-4-1-3v-9l3-5z" fill="#FDFDFD"/>
<path transform="translate(888,577)" d="m0 0h8l-1 3-8 2-1 7h6l1 4-4 1-2-1-1 27h-4l-1-3v-24l-5-1v-2l5-1 2-9z" fill="#0D3669"/>
<path transform="translate(1646,589)" d="m0 0h5l4 10 4 14 7-22 2-2h4l-3 10-6 17-3 4h-3l-5-12-5-15z" fill="#0B3160"/>
<path transform="translate(464,222)" d="m0 0h1v7l-4 6-4 3h-7l-6-4-1-1v-10h7l7 1z" fill="#0CABDB"/>
<path transform="translate(1160,322)" d="m0 0 2 1h21l5-1 5 1v5l-10 4-10 1-12-1-2-2z" fill="#F29232"/>
<path transform="translate(728,580)" d="m0 0h33v2l-2 1h-12l-1 37h-4l-1-36-13-1z" fill="#082A55"/>
<path transform="translate(1041,581)" d="m0 0 4 1-1 8-1 2h2l1-3h5v4l-5 1-1 21 6 2 1 3-5 1-5-3-2-5v-20h-5v-4h5v-7z" fill="#0A315F"/>
<path transform="translate(653,581)" d="m0 0 4 1v7l7 1-1 3h-5v23l6 1-2 4-8-2-2-9v-17h-5v-4h6l-1-7z" fill="#082B56"/>
<path transform="translate(1458,589)" d="m0 0 9 1 5 6 1 9-7 2h-12l-1-4 15-1-2-7h-9l-5 6-2-1-1 9-2-2v-7l3-6 5-4z" fill="#0C3565"/>
<path transform="translate(1363,308)" d="m0 0h7l7 4 5 6-1 4-3-2-4-1h-12l-9 1-2 1 1-5 8-7z" fill="#166CB6"/>
<path transform="translate(1368,329)" d="m0 0 13 2-2 4-5 4-3 1h-9l-7-4-2-3 2-3z" fill="#56C0D9"/>
<path transform="translate(1517,581)" d="m0 0 3 1v8l-1 2 3-2h5v3h-7l1 23 6 1v3h-8l-3-5v-22l-7-1v-2l7-1v-7z" fill="#0B3362"/>
<path transform="translate(679,589)" d="m0 0h7l5 3 2 6 1 22-4 1-1-5v-11l-1-3h-6v-1h6l-3-7-7 1-6 4h-3l2-5 5-4z" fill="#0C3565"/>
<path transform="translate(548,580)" d="m0 0 4 3 3 1-1 1v31h8v1l-8 1 10 1v1h-16z" fill="#1E5DA6"/>
<path transform="translate(1709,589)" d="m0 0h4l2 3 4-2 4-1 1 5-9 1v25h-6z" fill="#0A3361"/>
<path transform="translate(1221,579)" d="m0 0h2v42l-5-1v-40z" fill="#0A3260"/>
<path transform="translate(762,589)" d="m0 0 5 1 1 3 6-4 3 1v4l-9 3-1 23h-5z" fill="#1E5CA6"/>
<path transform="translate(1795,589)" d="m0 0 5 1v2l3 1-1 1-1 26-4 1-2-1z" fill="#0E4274"/>
<path transform="translate(610,589)" d="m0 0h15l1 3-1 6-5 3-3-5-1-1h-6l-3 3-2 10-3-4-1-8 3-5z" fill="#0E3B6D"/>
<path transform="translate(703,576)" d="m0 0h4v44h-4z" fill="#072851"/>
<path transform="translate(1307,589)" d="m0 0h8l5 5 2 5 1 21-4 1v-17l-4-8-2-2-7 1-5 4h-3l1-4 4-4z" fill="#0B3361"/>
<path transform="translate(934,589)" d="m0 0 4 1v2l9-3 2 3-2 3h-8l-1 25-2 1-2-1-1-30z" fill="#082A55"/>
<path transform="translate(163,626)" d="m0 0h2v2h3l2 2v3l-7 6-8-1-5-5v-3l8-2z" fill="#FCBB33"/>
<path transform="translate(1730,589)" d="m0 0 4 1v5h2v25h-6z" fill="#0D3668"/>
<path transform="translate(587,589)" d="m0 0 5 1v30l-4 1-1-1z" fill="#0B3A68"/>
<path transform="translate(1176,335)" d="m0 0 9 1 3 4-6 4h-11l-6-4v-3l1-1z" fill="#FCBC33"/>
<path transform="translate(1363,601)" d="m0 0 1 4 4-1 1 7 4 4 5 1 7-3 3-1 1 2-4 5-6 2-8-1-6-5-2-6z" fill="#0C3667"/>
<path transform="translate(1265,589)" d="m0 0 6 1 3 2-2 2-1 13v13l-4 1-1-1z" fill="#0A3360"/>
<path transform="translate(147,670)" d="m0 0 20 4 3 1-1 3-8 4-6-2-7-6z" fill="#FDD02D"/>
<path transform="translate(1480,589)" d="m0 0 5 1-1 4h-1v7l1-5h1v24l-3 1-2-1z" fill="#0C3566"/>
<path transform="translate(1374,324)" d="m0 0 7 2 2 4-5 1-10-1-13 1-1 2h-2l-2-4 1-3h17z" fill="#0DABDB"/>
<path transform="translate(1015,605)" d="m0 0h9v6l-5 5h-7l-2-3 1-6z" fill="#FDFDFD"/>
<path transform="translate(1773,605)" d="m0 0h8l1 2-2 7-4 2h-6l-3-4 1-4z" fill="#FDFDFD"/>
<path transform="translate(1308,605)" d="m0 0h9v6l-4 4-2 1h-6l-2-2v-6z" fill="#FDFDFD"/>
<path transform="translate(636,589)" d="m0 0 5 1-1 30h-4z" fill="#062750"/>
<path transform="translate(1243,605)" d="m0 0h8l1 2-2 6-4 3h-6l-3-4 1-4z" fill="#FDFDFD"/>
<path transform="translate(680,605)" d="m0 0h8v7l-5 4h-6l-3-3 1-5z" fill="#FDFDFD"/>
<path transform="translate(1059,589)" d="m0 0h4v31l-2 1-2-1z" fill="#072852"/>
<path transform="translate(793,605)" d="m0 0h8v6l-5 5h-6l-3-3 1-5z" fill="#FDFDFD"/>
<path transform="translate(1871,593)" d="m0 0 5 1 4 5v3l-2 1h-14l1-5 4-4z" fill="#FDFDFD"/>
<path transform="translate(1686,594)" d="m0 0h7l4 4v5h-16l1-5z" fill="#FDFDFD"/>
<path transform="translate(1457,594)" d="m0 0h7l3 3 1 5-6 1h-10l1-5z" fill="#FDFDFD"/>
<path transform="translate(1373,594)" d="m0 0h7l3 3 1 6h-16l2-6z" fill="#FDFDFD"/>
<path transform="translate(1186,594)" d="m0 0 2 4v22h-5v-19h2v-6z" fill="#0A3865"/>
<path transform="translate(653,581)" d="m0 0 4 1v7l7 1-1 3-9-1-1 18h-1v-17h-5v-4h6l-1-7z" fill="#134C86"/>
<path transform="translate(1363,308)" d="m0 0h7l7 4v3l-14-1-10 3 2-4 5-4z" fill="#1E5FAB"/>
<path transform="translate(857,589)" d="m0 0h6l5 3 2 6h-4l-5-4-6 1-2 5-3-1-1-4 5-5z" fill="#0E3A6C"/>
<path transform="translate(1182,579)" d="m0 0 4 2 1 5v8l-2 7h-2v19h-1z" fill="#13538B"/>
<path transform="translate(1186,322)" d="m0 0 6 2-4 2-10 2h-11l-5-2-1-2 22-1z" fill="#EE822F"/>
<path transform="translate(888,577)" d="m0 0h8l-1 3-8 2-2 7h-4l2-9z" fill="#0C3565"/>
<path transform="translate(1721,589)" d="m0 0 3 1v4l-9 1v25h-1v-28l4-1z" fill="#1E7BBF"/>
<path transform="translate(1751,603)" d="m0 0h4v17l-2-1-2-6z" fill="#1F6AB3"/>
<path transform="translate(805,598)" d="m0 0h1l1 21-5 1v-7l2-2z" fill="#164D8A"/>
<path transform="translate(763,600)" d="m0 0 3 1v19h-3z" fill="#06244C"/>
<path transform="translate(1046,589)" d="m0 0h5v4l-5 1-1 19h-1l-1-21h2z" fill="#155993"/>
<path transform="translate(1041,581)" d="m0 0 4 1-1 8-2 2-7-2v-1h5v-7z" fill="#124981"/>
<path transform="translate(774,589)" d="m0 0 3 1v4l-9 3-2 2v-4z" fill="#0F4073"/>
<path transform="translate(688,598)" d="m0 0 2 4 2 3v11l-2 2-1-4v-9l-1-3h-6v-1h6z" fill="#1F68B2"/>
<path transform="translate(1317,599)" d="m0 0 2 3 1 2v13l-2 3v-3l-2-1 2-6v-5l-1-3h-8v-1h8z" fill="#2063AF"/>
<path transform="translate(622,589)" d="m0 0 4 1-1 8-5-3-2-5z" fill="#1D5997"/>
<path transform="translate(885,586)" d="m0 0 1 3h6l1 4-4 1-7-2z" fill="#1B518B"/>
<path transform="translate(1266,592)" d="m0 0 3 1-1 6-1 21h-1z" fill="#215EAB"/>
<path transform="translate(946,589)" d="m0 0 3 3-2 3h-8l2-4z" fill="#0F4174"/>
<path transform="translate(1591,600)" d="m0 0h11l-1 3-9 1z" fill="#082B56"/>
<path transform="translate(1517,581)" d="m0 0 3 1v8l-2 1-2-3v-6z" fill="#0B3665"/>
<path transform="translate(174,546)" d="m0 0 9 3-4 3-6-2z" fill="#F8A533"/>
<path transform="translate(1450,599)" d="m0 0 3 4-1 5-2 3-1-7z" fill="#1F5DA8"/>
<path transform="translate(1721,589)" d="m0 0 3 1v4h-8z" fill="#0C3565"/>
<path transform="translate(1350,589)" d="m0 0h5v6l-2 2-4-7z" fill="#0A315E"/>
<path transform="translate(1750,603)" d="m0 0h1l1 15 2 1-4 1z" fill="#06244C"/>
<path transform="translate(635,579)" d="m0 0h5l1 4-5 1z" fill="#104176"/>
<path transform="translate(1059,579)" d="m0 0 5 1-1 4-5-1z" fill="#13447D"/>
</svg>
