<?xml version="1.0" encoding="UTF-8"?>
<svg version="1.1" xmlns="http://www.w3.org/2000/svg" width="256" height="256">
<path d="M0 0 C1.00909424 0.27287842 1.00909424 0.27287842 2.03857422 0.55126953 C33.61153011 9.36397535 61.41934431 31.32474939 77.6875 59.6875 C94.21371751 89.55237494 99.12459647 124.95801426 90 158 C89.72712158 159.00909424 89.72712158 159.00909424 89.44873047 160.03857422 C80.48299194 192.15979475 58.1111044 219.9459791 29.1875 236.25 C-0.36415764 252.39905867 -35.4023424 257.00189455 -68 248 C-69.00909424 247.72712158 -69.00909424 247.72712158 -70.03857422 247.44873047 C-101.61153011 238.63602465 -129.41934431 216.67525061 -145.6875 188.3125 C-162.21371751 158.44762506 -167.12459647 123.04198574 -158 90 C-157.81808105 89.32727051 -157.63616211 88.65454102 -157.44873047 87.96142578 C-148.48299194 55.84020525 -126.1111044 28.0540209 -97.1875 11.75 C-67.63584236 -4.39905867 -32.5976576 -9.00189455 0 0 Z " fill="#11181D" transform="translate(162,4)"/>
<path d="M0 0 C3.79259576 2.04216695 7.00344184 4.11780358 9 8 C9.33710093 13.01049464 8.76625799 16.36422627 6.60546875 20.875 C5.80556519 22.56858643 5.80556519 22.56858643 4.98950195 24.29638672 C4.38914909 25.53107743 3.78847048 26.76560979 3.1875 28 C2.55780584 29.31868085 1.92917293 30.6378689 1.30151367 31.95751953 C-0.77809106 36.31521957 -2.88729601 40.65827278 -5 45 C-5.74057927 46.52440465 -6.48113899 48.0488188 -7.22167969 49.57324219 C-10.34515819 55.99831819 -13.47532888 62.42010424 -16.61425781 68.83764648 C-22.33756505 80.54461214 -27.97920009 92.28814811 -33.5625 104.0625 C-34.14806168 105.29666153 -34.14806168 105.29666153 -34.74545288 106.55575562 C-38.7141077 114.92242775 -42.67057477 123.294748 -46.60952759 131.67544556 C-61.18503631 162.6861007 -61.18503631 162.6861007 -67.3125 174.6875 C-67.72628906 175.51854248 -68.14007813 176.34958496 -68.56640625 177.20581055 C-70.76109996 181.40727731 -72.42899277 184.11565563 -77 186 C-81.47715964 186.3997464 -85.09397224 186.32250299 -89 184 C-92.69282732 179.27200638 -94.28186127 174.61141938 -95.875 168.875 C-96.38913009 167.09629842 -96.903459 165.3176543 -97.41796875 163.5390625 C-97.67755371 162.62801758 -97.93713867 161.71697266 -98.20458984 160.77832031 C-99.49849379 156.25879086 -100.84203213 151.75439242 -102.1875 147.25 C-102.4251709 146.44159668 -102.6628418 145.63319336 -102.90771484 144.80029297 C-104.40199388 139.77370143 -106.07433138 134.87905257 -108 130 C-108.27393585 129.29693726 -108.5478717 128.59387451 -108.83010864 127.86950684 C-110.35047421 125.43993608 -111.43330564 125.17270835 -114.16748047 124.41601562 C-115.02953094 124.16895874 -115.89158142 123.92190186 -116.77975464 123.6673584 C-117.71610748 123.41619263 -118.65246033 123.16502686 -119.6171875 122.90625 C-120.58471954 122.6328479 -121.55225159 122.3594458 -122.54910278 122.07775879 C-125.65377639 121.20355439 -128.76393283 120.35114102 -131.875 119.5 C-135.93631829 118.36965512 -139.99553308 117.23183825 -144.0546875 116.09375 C-145.51158241 115.68634331 -145.51158241 115.68634331 -146.99790955 115.27070618 C-167.72863959 109.44966673 -167.72863959 109.44966673 -172 104 C-172.33 103.67 -172.66 103.34 -173 103 C-173.2734375 100.671875 -173.2734375 100.671875 -173.375 97.75 C-173.42398438 96.79609375 -173.47296875 95.8421875 -173.5234375 94.859375 C-172.78022525 90.79943945 -171.19044978 89.59659199 -168 87 C-165.0590739 85.05824424 -162.01827957 83.33414976 -158.9375 81.625 C-157.56525269 80.85289185 -157.56525269 80.85289185 -156.1652832 80.06518555 C-143.8776263 73.19208133 -131.43703332 66.59749585 -119 60 C-118.01371613 59.47672119 -118.01371613 59.47672119 -117.00750732 58.94287109 C-114.96206928 57.8576849 -112.91658377 56.77258821 -110.87109375 55.6875 C-108.80920302 54.59364678 -106.74733458 53.4997516 -104.68551636 52.40576172 C-103.31164827 51.67681949 -101.93772654 50.94797837 -100.56375122 50.21923828 C-91.35140491 45.33197908 -82.16732482 40.39783145 -73.02197266 35.38598633 C-64.93964161 30.9574258 -56.82404613 26.59184337 -48.70556641 22.22998047 C-40.57476797 17.85783889 -32.46565129 13.4472737 -24.37890625 8.99414062 C-20.14951257 6.67490213 -15.9002378 4.39901391 -11.609375 2.1953125 C-10.81499023 1.78684082 -10.02060547 1.37836914 -9.20214844 0.95751953 C-5.91407298 -0.47217359 -3.51584068 -0.60851089 0 0 Z " fill="#00E4B2" transform="translate(182,54)"/>
<path d="M0 0 C3.27987965 0.73797292 4.28860653 2.05237723 6.5 4.5625 C8.04882812 7.13012695 8.04882812 7.13012695 9.53125 10.05078125 C10.3680127 11.68370117 10.3680127 11.68370117 11.22167969 13.34960938 C11.80852539 14.51298828 12.39537109 15.67636719 13 16.875 C13.61536263 18.08051152 14.23158381 19.28558516 14.84863281 20.49023438 C16.1124478 22.95889618 17.37288762 25.42923474 18.63085938 27.90087891 C21.47021447 33.47223864 24.35904775 39.01778581 27.25 44.5625 C27.75080078 45.52841064 28.25160156 46.49432129 28.76757812 47.48950195 C29.23099609 48.37984131 29.69441406 49.27018066 30.171875 50.1875 C30.5750293 50.96351563 30.97818359 51.73953125 31.39355469 52.5390625 C32.57509934 54.76993657 32.57509934 54.76993657 34.5 57.5625 C35.04965884 61.10315953 35.09252033 64.41231348 33.4375 67.625 C30.37980005 69.10453223 27.67352584 68.37408907 24.5 67.5625 C20.48282905 66.04900552 16.59198352 64.28138729 12.6875 62.5 C10.45965191 61.49866121 8.2317872 60.49735941 6.00390625 59.49609375 C4.9070752 58.99964355 3.81024414 58.50319336 2.68017578 57.99169922 C-0.21524029 56.69047354 -3.12043654 55.41741298 -6.03515625 54.16015625 C-6.85975342 53.80252197 -7.68435059 53.4448877 -8.53393555 53.07641602 C-10.05556881 52.417396 -11.57908017 51.76268967 -13.10473633 51.11303711 C-20.05940249 48.06979949 -20.05940249 48.06979949 -21.5 45.5625 C-22.09299039 39.62641909 -21.21725612 36.01705512 -18.5 30.625 C-17.85740192 29.32715493 -17.21550365 28.02896318 -16.57421875 26.73046875 C-16.23567871 26.05677246 -15.89713867 25.38307617 -15.54833984 24.68896484 C-14.45571739 22.47267664 -13.41923074 20.23672942 -12.39453125 17.98828125 C-12.04712891 17.2295874 -11.69972656 16.47089355 -11.34179688 15.68920898 C-10.67152715 14.22291446 -10.00468077 12.75504867 -9.34179688 11.28540039 C-4.58833305 1.03237494 -4.58833305 1.03237494 0 0 Z " fill="#83F5E8" transform="translate(181.5,125.4375)"/>
<path d="M0 0 C3.22875977 1.09814453 3.22875977 1.09814453 6.69140625 2.6328125 C7.31796616 2.90713104 7.94452606 3.18144958 8.59007263 3.46408081 C10.58557624 4.34083834 12.57391114 5.23268759 14.5625 6.125 C15.87000967 6.70150396 17.1779497 7.2770329 18.48632812 7.8515625 C25.80447428 11.07597667 33.07606042 14.39702039 40.32666016 17.77050781 C42.47632021 18.75915512 44.63083551 19.7103251 46.8125 20.625 C57.03448276 25.03448276 57.03448276 25.03448276 60 28 C60.75 31.25 60.75 31.25 60 35 C56.92972761 37.51680773 53.52707064 39.20814513 50 41 C49.154375 41.52722656 48.30875 42.05445313 47.4375 42.59765625 C44.03130948 44.55730752 40.82499068 45.15720544 37 46 C37 46.66 37 47.32 37 48 C32.01921616 51.65257482 25.53275437 54.4130027 19.4375 55.42578125 C15.87065479 54.80272656 15.08256438 52.89098705 13 50 C11.89300097 48.07197111 10.83790688 46.11348986 9.828125 44.1328125 C9.24949707 43.00633301 8.67086914 41.87985352 8.07470703 40.71923828 C7.46622647 39.52128321 6.85799503 38.32320157 6.25 37.125 C5.00466948 34.68644111 3.75633249 32.24942711 2.5078125 29.8125 C1.90743164 28.63945313 1.30705078 27.46640625 0.68847656 26.2578125 C-0.73842139 23.50469996 -2.19588477 20.77652208 -3.6953125 18.0625 C-4.07204102 17.37913574 -4.44876953 16.69577148 -4.83691406 15.99169922 C-5.79785601 14.26372129 -6.76956043 12.54174032 -7.7421875 10.8203125 C-9.04337759 7.9027372 -9.37505047 6.14932082 -9 3 C-6.6961599 -0.71174238 -4.0824579 -0.29529205 0 0 Z " fill="#82F7E9" transform="translate(58,35)"/>
<path d="M0 0 C0.33 0 0.66 0 1 0 C1 2.64 1 5.28 1 8 C1.66 8 2.32 8 3 8 C3.66 10.64 4.32 13.28 5 16 C4.34 16 3.68 16 3 16 C3 15.34 3 14.68 3 14 C2.34 14 1.68 14 1 14 C-0.75417412 9.50492881 -1.28362108 5.8215583 -1 1 C-0.67 0.67 -0.34 0.34 0 0 Z " fill="#0D1113" transform="translate(6,146)"/>
</svg>
