<?xml version="1.0" encoding="UTF-8"?>
<svg version="1.1" viewBox="0 0 1600 1325" width="1280" height="1280" xmlns="http://www.w3.org/2000/svg">
<path transform="translate(0)" d="m0 0h1600v1325h-1600z" fill="#11181D"/>
<path transform="translate(875,473)" d="m0 0h7l10 3 11 7 7 12 2 5v13l-6 18-12 24-9 20-22 45-13 28-7 14-11 23-14 28-11 23-12 25-13 28-17 35-13 28-5 10-13 28-8 16-16 34-10 19-8 16-6 8-10 6-6 2h-11l-10-3-9-6-6-8-10-28-15-49-12-39-11-32-5-5-19-6-42-12-65-18-29-9-8-4-7-7-4-8-2-8v-14l4-8 6-7 14-9 30-16 22-12 28-15 22-12 27-14 16-9 18-10 22-11 16-9 38-20 29-16 44-24 23-12 44-24 19-10 19-11 23-11z" fill="#00E6B4"/>
<path transform="translate(1494,394)" d="m0 0h3l-2 12-3 10h-2l-1 5-7 10-1 11 10 3 15 1 7-1 18-1 6-4h2l1-3 7-3 2 4-1 2h-2v2l-7 2-1 4-7 6-3 1-1 4-1 5-3 1 2 6v4h17l9-1 1-3-11 1-7-1 1-4 3-1 3-4 9 3 5 4 4-1 1 4v6l-3 1-1 4h4l8-16 5-7 3-5 7-8 5-6 4 1 2 4 2 17 3 5 1 1v225l-233 1h-98l-1-1v-261l1-19 9 2 4 1 9 2 11 3 9 4 2 1v3l-5 1 1 4 20 1 12 1 8-1 20 1 25 1 6 2 18-1 10 5 1-3 6-5 10-1 13-2 9-3 7-9 7-10 7-11z" fill="#617788"/>
<path transform="translate(0,243)" d="m0 0h12l15 1 31 1 1 1 48 3 21 1 1 203v214l-1 26-1 1-10 1h-117z" fill="#617788"/>
<path transform="translate(497)" d="m0 0h306l-1 11-1 5-5 1 5 1 1 8v9l-1 5v14l-3 14-3 20-1 25-1 5-5 3-20 1-28-1-9-1-1-28-2-1-1-6-4 2-1 2-2 20-2 10-1 1-52 1-12 1-66 1-78-1-18-1h-92v-65l9 3 19 10 18 8 15 7 11 3 20 3 10-1 1-3h2v-2h6l1-4 2-9 5 1 19 10 8 5 17 8 12 2h26l29-5 5-8 4-8 6-1v-2h4l2 5 5 1 2 1v-5l5-3h2l4-8v-8l-1-2-11-1v3l-10 1-1-6 17-9 6 2 3-4-2-5-8 5-16 6-17 5-5 2-30 6h-26l-4-2-1 2h-7l-3-1-7-1-20-10v-2l-4-1-3-3-6-2v-2l-5-2-4-5-3-9-3-10z" fill="#445564"/>
<path transform="translate(284)" d="m0 0h213l1 11 3 10 4 11 5 4 2 1v2l6 1 1 3 6 2v2l4 1 16 8 9 1 1 1 7 1 1-3 4 2h26l22-4 20-6 15-5 15-6 4-3 3 4-2 4-2 3-6-2-16 8v6l10-1v-3l6-1 6 2 1 2v8l-3 5-4 4-4 2-1 5-7-2-2-5h-4v2l-6 1-2 5-5 10-2 2-29 5h-26l-15-3-20-10-8-5-15-8-3-1-1 9-2 4-4 1-2-1v2l-5 4-8 1-20-3-14-4-8-4-28-13-17-9-5-2 1 17v42h-2l-1 5-2 1h-22l-4-1-39-1-2-1-1-13-1-41-1-9-4-1-5-6-1-9 6-8-14-5-10-9v-2l-3-1-7-8-3-4z" fill="#11181D"/>
<path transform="translate(1599,63)" d="m0 0h1v124l-3 1v3l-7 1v2l-6 1v2h-7l-2 10-3-4 2-1-3-4 1-2h-2l1-8-2-1 1-2h-2l-8-17-6-8-2-4v-3h-2l-3-7-5-5-1-3h-3l1-5h-2l-1 3h-4l1 4-4 4-5 3-2 2 1 3 6-3 4-5 3 1 1 3-1 3 3 3 3 9 5 3 10 15 9 14 6 10 4 10-1 3-4 1-4 8 7-1 6 3 4 5 3 9-1 12-5 3-17 5-15 2-10 2-5-2-2-5v-9l1-8-1-4v-6l-2-5-1-8h-3l-2 4-8 1 2 9 1-2 6-3 3 2-2 9 1 2v8l-1 7-5 4h-2l-1 4-5 6-11 2-3 1-1-1-8-1-3-7 3-1 1-3-4-2-1-5 4-5 6 1 5-3 2-6-4-2-3 1v-7l2-6-10-4-3-2v-4h-3l1-12 5-6 2-5 11-1 2-4-8 4v-3l-7-1-2 5-3 6-5 4-1-12-2-1 1-5 4-2v-5l2-3h-3l-2 5-2 3-5 2-7 9h-6l-5-4-10-15 1-2 8 4 5 5 2-5h2v-2l3-1-2 4v3l2-3h2l2-4 10-13 5-7 3-5 3-7 1 4 1 1 1-1v-11l-3 2h-3l-2 3h-3l-1 2-5 2h-16l1 2 10 1 6-3 6 1-1 3-5 3-3 3h-2l-1 4-4 5-3 1-5 5-2-2-10-1-2-1v-2h-9l-5-4-4-8 1-4-4-2-2-10-3-8v-21l3-7 13-9 7-2h23l6 2 6 4v2l5 1 4 6 3 1 1 4-1 1 4 1v-20l-7-19-5-6 4 1 7 5 16 6 10 4 21 3 51 4 7 1 1-2-1-7 2-13z" fill="#3D4753"/>
<path transform="translate(1234,1176)" d="m0 0h1v53l-461 1h-461l-142-1v-2h-7l-3 1v-24l2 2 3-5 1-6 1-2h2v-4l8-3 5-1h7l6 3 3 4 5 2 1 3h6l3 1 1-1h6l2 4 11-3h17l7-1 2 2-1 6 4-2h7l2 2 8 2h9l7 1 7-1 6 2v1l14 1 16 1 32-1 7-1h18l13 2h12l6 1 5-1h28l14 1 23 1 4 1h52l3 1 19 1h10l1-3 5-2-1 5h4l1-4-2-1 4-2 4 4v3l5-3 1-3 4-1v2h4v-2h4v2l8-2 1-2h12l2 1v2l2-1h9l5 1v2h2l1-2 11-1h7l7 1h5l7 3 8-2h6l2-5 5-1 2 2v3h2l1-3h5l8 4v2h6l2-2 8-2 7 1 3-4 11-2 7 1h5l6 5v2h4l2-5h5l5 2v-3l5-1h10l4-1 12 3 9 4 14-1 8-4 13-2 11 2 2 1 6 1h18l3 2 2-1 2 1h6l4-3 16-3 7-1 12 3 4 4 3-1v2l10 1 12-9 2 2 1 3 6-1 2-2 5 1 3 1 7-1v2l6 2 11-1 2-5 5 1v4h-2l1 2 3 1 1-3h7l5 4 6 2 2-5h7l3 3 4-1 1-2 9-1 4 4 15-1 28 1h6l1-2 1 1h12l13-3h13l3-3 4-1 3-5h2l2-5 2-2 9 2 2-7 4 3 2 4h2l3 5v3l3 1h1z" fill="#0B0B0D"/>
<path transform="translate(882,674)" d="m0 0h9l8 4 5 8 6 11 2 2 3 8 3 5 5 9 3 7 17 33 7 13 4 9 10 20 4 6 3 7 6 11 5 8 2 5v8l-3 6-7 7-3 1h-7l-29-12-32-14-15-7-33-15-18-8-8-6-3-6v-8l4-12 3-5 3-7 5-10 5-12 6-14 4-7 3-7 6-13 7-14 6-8z" fill="#86FAED"/>
<path transform="translate(529,421)" d="m0 0h10l18 6 31 14 16 7 36 16 29 13 34 16 6 4 2 3 1 12-3 6-5 4-15 9-23 11-12 7-16 8-23 12-9 4-8 2-9-4-7-8-12-23-8-16-4-7-9-19-12-22-8-16-8-15-2-7 1-7 6-8z" fill="#86FBED"/>
<path transform="translate(0)" d="m0 0h272l-4 3-13 5-19 6-22 6-43 9-22 3 1 3v13l-4 2 2 2-1 9v19l-1 4-3 2-2 29-1 2h2v2h-7l-1-4-1-14v-53l-63-3-68-2-2-1z" fill="#64666D"/>
<path transform="translate(399,56)" d="m0 0 9 3 19 10 18 8 15 7 11 3 20 3 10-1 1-3h2v-2h6l1-4 2-9 5 1 19 10 8 5 17 8 12 2h26l29-5 5-8 3-6 4-1 5 4 10 15 5 10 4 12v3l-12 1-66 1-78-1-18-1h-92z" fill="#54606B"/>
<path transform="translate(284)" d="m0 0h109l2 65 2 30 1 3v19l-1 3-2 1h-22l-4-1-39-1-2-1-1-13-1-41-1-9-4-1-5-6-1-9 6-8-14-5-10-9v-2l-3-1-7-8-3-4z" fill="#3E4854"/>
<path transform="translate(497)" d="m0 0h180v2l-4 2-1 9 1 5-2 9-5 4h-4l-1 3-11 5-4 4-13 3-14 5-14 4-16 3-22 1-4-2-1 2h-7l-3-1-7-1-20-10v-2l-4-1-3-3-6-2v-2l-5-2-4-5-3-9-3-10z" fill="#9A9291"/>
<path transform="translate(1569,264)" d="m0 0h18l5 5 2 12-2 11v10h-2v7l-5 5-15 7-16 5h-4v-2h-4l-2 4-10 5-12 5-12 7-21 9-6 2-10 9-6 8-1 13-3 12-2 4-3 2-7-1-2-2-5-13-5-9v-11l8-16 6-9 13-13 2-5 8-7 11-6 5-3 8-1 2-4 12-6 12-2 4-5 12-6 1-2 1-14 5-3 3-1z" fill="#455563"/>
<path transform="translate(1421,156)" d="m0 0 5 1 4 7-1 7-4 4h-3l2 3h5v4l-5 5-6 2-1 5 10-1 8-3 3 2 1 5v25l-5 25-7 30-2 1v-2h-4l-1-3 1-6h2v-7l1-3-3 3-5-1-8-4v3l-12-3-17-7h-6l6 4 7 5 13 5 9 5 2 4-5 3-12 3v3l17 3 4-1 6-2 5-1-1 5-4 7h-7-4l-18-3-9-4-16-6-5-4v-8l4-16 2-4h2l-2-6v-8l3-22 6-18 8-11 7-7 14-8 12-7z" fill="#3D4854"/>
<path transform="translate(1262)" d="m0 0h156l-1 4-8 2-13 2-6 2-12 2-2 1-32 2-9 1h-10l4 27 4 21 1 2v7h-18l-55-4-16-2-1-1-1-16v-27h2l1-3 4 1v2l10-4 4-1-2-11z" fill="#535F6A"/>
<path transform="translate(740)" d="m0 0h63l-1 11-1 5-5 1h4v20l-1 19-3 9-1 1-1 14h-2l-2 29-2 1-2 5-4 1-3 4h-21v-4l-8-2-3-7-1-10-5-25-4-16-5-12-2-9v-4l16-5h7v-2h-12l-1-3 2-2v-3l4-4v-5l-4-1z" fill="#535F6A"/>
<path transform="translate(1368,284)" d="m0 0 3 1h-2l-1 5-2 3h-2v2l5-2 2-5 1-3 10 3 19 7 9 3-2 1v3l2 1-2 5-2 7h-2l1 6 1 2 4 1 3 7-1 19 5 1 10 16 10 17 7 17 2 12 3 1-1 9h-19l-15-2v2l-5-1-3-2-3-9-1-16h-2l-5-27-7-7-3-5-8-6-5-8v-6l3-1 2-12 1-1h-7l-15 4-14 8-9 5-2 2-1-5 4-2v-2l5-2v-2l10-8 3-4-37-2-44-2-1-1v-7l87 5 7-1 3 1 4-3 1-2h2l-8-3-4-1-1-5 2-7z" fill="#455664"/>
<path transform="translate(1269,414)" d="m0 0 9 2 4 1 9 2 11 3 9 4 2 1v3l-5 1 1 4 20 1 12 1 8-1 20 1 25 1 6 2 18-1 10 5 1-2v5l-2 1-1 5v6l6 1 2 5 1 2-6 1-13-4-5 1-10-1v-2l-60 1-10 1-5 4-5 3 1 2-5-1-1-2-16-1-2-1h-14l-7 1-7-3-1 125h-1v-158z" fill="#373C44"/>
<path transform="translate(1579,94)" d="m0 0h11l10 1v92l-3 1v3l-7 1v2l-6 1v2h-7l-2 10-3-4 2-1-3-4 1-2h-2l1-8-2-1 1-2h-2l-8-17-6-8-2-4v-3h-2l-3-7-5-5-1-3h-3v-3h2v-3l-10-1-6 1 1-3h2l-1-4 1-1-2-1v-2h-2v-5l-5-2-2-1v-2l-2-1 2-4 5-2 7 3 9 1v-3-2l5 1 3 1 1 4 2-1 1-4 3-2 18-2 5-2v-2l5 1z" fill="#3E4854"/>
<path transform="translate(1173,26)" d="m0 0h46l4 1 3 6 1 23 7-1 2 1-1 8-2 15-5-1v7l-2 6-3-1 1 16-3 10 14-1 4 1v2l-9 1h-87l3-2 27-2 2-4v-7l4-1v-2h-2v-9l-8-7-4-6-3-10v-11h3l2 1 23 1 6 1 1-5 2 2 1 3h24v-9l-1-1h-27l-3-1-25-1 1-6 3-16z" fill="#3E4955"/>
<path transform="translate(1440,89)" d="m0 0h23l6 2 6 4 2 4 2 9-1 5-1 2-5-1h-21l-2 1 1 6-1 2h8l16-3h6l1 12-2 5-1 5-17 2-2 2 6 2 8-1 3-2 6 1-1 3-5 3-3 3h-2l-1 4-4 5-3 1-5 5-2-2-10-1-2-1v-2h-9l-5-4-4-8 1-4-4-2-2-10-3-8v-21l3-7 13-9z" fill="#9C9797"/>
<path transform="translate(513,71)" d="m0 0 5 1 19 10 8 5 17 8 11 3 6 1h14l15-2 17-3h3l5 16 1 9-1 1-21 1-85-1h-21l-1-4 2-9 3-26 2-5z" fill="#B0E0E1"/>
<path transform="translate(1599,63)" d="m0 0h1v32h-20v2l-4 1-6 3-18 2-3 1-1 5h-2l-1-4-8-2 3 4-3 2h-6l-11-4-4 1-1 4 1 3 5 2 3 3-1 3h2v2l3 1-1 5h-2l-1 3-10-1h-3l-3 1v-2l-3 1-6-1h-4v-7l-2-6-1 17-4 4h-3l-2 3h-3l-1 2-5 2-14-1v-1l17-2v-6l2-5-1-9-13 1-8 2h-6l-2-1-1-8 3-2h21l5 2 1-7-2-9v-2l5 2 3 5 3 1 1 4-1 1 4 1v-20l-7-19-5-6 4 1 7 5 16 6 10 4 21 3 51 4 7 1 1-2-1-7 2-13z" fill="#535F6A"/>
<path transform="translate(368)" d="m0 0h25l2 65 2 30 1 3v19l-1 3-2 1h-22l-4-1-2-18-1-16v-57z" fill="#9B9291"/>
<path transform="translate(642)" d="m0 0h35v2l-4 2-1 9 1 5-2 9-5 4h-4l-1 3-11 5-4 4-13 3-14 5-14 4-16 3-22 1-4-4v-6l4-6 15-6 17-5 21-9 13-7 5-4 3-6z" fill="#9B9291"/>
<path transform="translate(399,56)" d="m0 0 9 3 19 10 18 8 15 7 13 4 1 3-4 1-4-2-6 4-2 4-3 1-1 4 3 10-2 4 1 2-2 1h-54l-1-47z" fill="#617788"/>
<path transform="translate(1421,156)" d="m0 0 5 1 4 7-1 7-4 4h-3l2 3h5v4l-5 5-6 2-1 5 10-1 8-3 3 2 1 5v25l-1 2h-2l-1-3-4 2 1-9-2 1-2 4-4-2-3 3-4 2-1 4h-4v2l-10-1-14-6-3-2-2-5-4-2v-5h-6v-7l4-10 8-10 9-8 22-12z" fill="#535F6B"/>
<path transform="translate(1588,441)" d="m0 0 4 1 2 4 2 17 3 5 1 1v65h-7l-14-4-1-3-12-6-4-1-5-9-1-15 5-15 9-17 6-9 7-8z" fill="#B0E0E1"/>
<path transform="translate(740)" d="m0 0h63l-1 11-1 5-5 1h4v20l-1 19-3 9-5 1-2-7-11 1-7-4-8-11-7-11-5-5 2-5h-12l-1-3 2-2v-3l4-4v-5l-4-1z" fill="#627687"/>
<path transform="translate(721,48)" d="m0 0 6 1 5 5 2 5 1 15 1 7 1 13v22l-1 4h-5l-1-28-2-1-1-6-4 2-1 2-2 20-2 10-1 1h-52l-7-19-7-11-7-10-6-3 4-2h2v-2h4l2 5 9 1 2 5 5 5 3 4 2 3 3-15h-3l1-9 8-4h3l1 12 3 9 9 4 1 5-2 3 1 10 6-2v-2l4 1 7 2 3-3-2-6v-11l2-9v-26l3-5z" fill="#3D4854"/>
<path transform="translate(140)" d="m0 0h132l-4 3-13 5-19 6-22 6-43 9-22 3 1 3v13l-1 1h-6l-2-3 6-1-1-5-1 1-4 2v-6l4-2-3-2v-2l2-2-3-2z" fill="#9B9291"/>
<path transform="translate(1569,264)" d="m0 0 5 2v4h5l1 3 5 2 2 5 1 4-5 2-13 2-19 1v4l3 4h5l2-2 5 1 5 4-2 11 5 2 1 3-3 2-9 1-4 3-9-2-1-3h-2l-2-3-11-1-2 2-1 4h10v2h2v5h-2v2l-9 4h-6v-3h-4v-15h-14l-2-1v-2l-4-1-1-5 6-4 7-3 12-2 4-5 12-6 1-2 1-14 5-3 3-1z" fill="#535F6A"/>
<path transform="translate(1413,350)" d="m0 0 4 1 10 16 10 17 7 17 2 12 3 1-1 9h-19l-15-2v2l-5-1-3-2-3-9-1-16h-2l-3-15v-15l7-6 10-5z" fill="#999190"/>
<path transform="translate(1197,56)" d="m0 0 2 2 1 3 24 1 1 8-8 4-24 1-3 1 2 2-1 2 24-1 7 2-3 3-5 1 1 4-4 9-8 5-7 1h-7l2 5v2l-2 1 24 3h22l4 1v2l-9 1h-87l3-2 27-2 2-4v-7l4-1v-2h-2v-9l-8-7-4-6-3-10v-11h3l2 1 23 1 6 1z" fill="#64666B"/>
<path transform="translate(1290,447)" d="m0 0h8l13 3 7 2h17l5-1 5 1 12-1 8-1 9 1 5-1 33 1h9l5 2v6l6 1 2 5 1 2-6 1-13-4-5 1-10-1v-2l-60 1-10 1-5 4-5 3 1 2-5-1-1-2-16-1-2-1h-14l-7 1-8-4v-15l18-2z" fill="#455665"/>
<path transform="translate(1540,462)" d="m0 0 9 2 6 5 4-1 1 4v6l-3 1-1 4h3l1 3-3 10 1 15 4 7v2l6 1 10 6 3 3 12 3 7 1v15l-4 1-9-2v2l-10 1-8-2-10 1-13 1v-2h-11l-7-2-3-4 10 1h11l6-2 1-4-6-4v-5h-2l-2-5 1-4-2-7-3-1v-6l2-2-1-5-3-1-1-7 4-6 10-3-1-7 2-1 1-3-11 1-7-1 1-4 3-1z" fill="#627889"/>
<path transform="translate(678)" d="m0 0h62l3 6 3 1 1 5-3 1-2 4v3l-1 4h12v2l-9 2-11 3-20 4-13 1-6-4-12-13-3-3-1-3z" fill="#12191E"/>
<path transform="translate(0)" d="m0 0h81l1 24-1 1h-35l-24-2-4-1h-18z" fill="#11181D"/>
<path transform="translate(1493,115)" d="m0 0h1v7l2 1-1 7 7-1 6 1v2l2-1-1-2 5 1 4 1h8l8-1 6 2-1 3v-2h-2l-1 3h-4l1 4-4 4-9 5-6 5-4 4-5 4-3 1-3 5-5 6-3 3-6 4-4-1 1-4h-3l-2 5-2 3-5 2-7 9h-6l-5-4-10-15 1-2 8 4 5 5 2-5h2v-2l3-1-2 4v3l2-3h2l2-4 10-13 5-7 3-5 3-7 1 4 1 1 1-1-1-12 1-1 1-17z" fill="#3E4854"/>
<path transform="translate(1371,209)" d="m0 0h1l-1 15 5-1 2 3 8 2 1 5 2 1 1 7 4 3v3h2l1 3h-2v2h-6l-11-4h-5l6 4 7 5 13 5 9 5 2 4-5 3-12 3v3l17 3 4-1 6-2 5-1-1 5-4 7h-7-4l-18-3-9-4-16-6-5-4v-8l4-16 2-4h2l-2-6v-8l3-22z" fill="#455563"/>
<path transform="translate(0,212)" d="m0 0 62 3 65 2 1 1v25l-2-1-3-8-4-1-6 1-24-2-13-1-9-2-9-1-58-1z" fill="#445463"/>
<path transform="translate(1270,25)" d="m0 0h22l6 5 4 14 2 12v15h-13l-30-2-16-2-1-1 1-9 5 1 2 4 5 4h3v-13l3-13 2-2 2-9z" fill="#445564"/>
<path transform="translate(1485,424)" d="m0 0v3l-3 4-1 11 10 3 15 1 7-1 18-1 6-4h2l1-3 7-3 2 4-1 2h-2v2l-7 2-1 4-7 6-3 1-1 4-1 5-3 1 2 6v4h10v1l-12 1-1 1v15h-3v-4l-8-2-5-2-1-3-5-2 1-3 16-3 1-3h-12l-7-2-7-3-12-2-8-2v-8l-4-4v-8h5l4-6 2-6z" fill="#455665"/>
<path transform="translate(1465,331)" d="m0 0 5 1 5 8 8 9v7l-10 9-6 8-1 13-3 12-2 4-3 2-7-1-2-2-5-13-5-9v-11l8-16 6-9z" fill="#999090"/>
<path transform="translate(1301)" d="m0 0h117l-1 4-8 2-13 2-6 2-12 2-2 1-32 2-9 1h-10l2 13v8l-3-2v-2h-2l-2-7-8-4-12-2z" fill="#3B4551"/>
<path transform="translate(1490,194)" d="m0 0h8l-3 4-1 4h-2l-2 4-4 2-1 6 1 6h11l-1 3 5-1 4-3 2 1v3l13-4 3 2 2-5 2-10h3l2 2-1 6v2 12h-1l-1-8h-3l-2 4-8 1 2 9 1-2 6-3 3 2-2 9 1 2v8l-1 7-5 4h-2l-1 4-5 6-11 2-3 1-1-1-8-1-3-7 3-1 1-3-4-2-1-5 4-5 6 1 5-3 2-6-4-2-3 1v-7l2-6-10-4-3-2v-4h-3l1-12 5-6z" fill="#363B43"/>
<path transform="translate(1354,343)" d="m0 0 7 2 2 3v9l-3 6-2 1-2 12-4 4h-2v7l-16 2v4h2v2h-7l-2-3v-3l-8-1-2-4v-10l3-3 6-14 1-5h2v2l5-1v-2l4-1v-3l8-3z" fill="#373C44"/>
<path transform="translate(1269,437)" d="m0 0h5v2l12 1h15l6 2 9 1 2-1h20l16-1 9 1h14l20 3h20l11-1 1-2v5l-2 1-2 4h-24l-22-1-10 1-9-1-3 1-16 1-5-1-4 1h-14l-11-3-9-2h-8l-11 2-9 1-1 140h-1v-146z" fill="#3F4A56"/>
<path transform="translate(1275,79)" d="m0 0h29l24 5v2l5 2 4 4v6l-10 1-58-2-21-1-6-1 1-2h2l-2-6 6-4 12-2 3-1z" fill="#3D4854"/>
<path transform="translate(638,77)" d="m0 0 4 1 5 5 9 13 5 10 4 12v3l-12 1-66 1-78-1-3-2 31-1 82 1 14-1-1-9-4-16-25 5-10 1h-14l-14-3 4-1 5 1h26l29-5 5-8 3-6z" fill="#637787"/>
<path transform="translate(1587,96)" d="m0 0 6 1 2 1 5-1v90l-3 1v3l-7 1v2l-6 1v2h-7l-2 10-3-4 2-1-3-4 1-2h-2l1-8-2-1 1-2h-2l-8-17-6-8-2-4 1-3 3 5 7 11 3 2v3h2l3 6 6 2 2 1 2-6 5-1 1-7 2-13v-2h2l1-6-2-4 1-10 1-2-2-9 3-1-3-9-3-7v-6l-1-3z" fill="#363B43"/>
<path transform="translate(746,26)" d="m0 0h6l1 4 7 8 6 10 5 6v2l4 2 4 1h10l2 3v4l3 1-8 11-1 10-4 6h-5l-5-4-3-4-3-1-6-15-2-9-3-4v-2l-4-2-4-6-2-5-5-7 1-5 5-2z" fill="#65666C"/>
<path transform="translate(325,36)" d="m0 0 2 2-7 4 4 3-1 6h4v3h2v-2l6 1v28l6 1 5-2 1-4 2-4h-2l1-3 6-3 5-5 1 2-1 6h-2l-2 4-5 3-1 3 4-1v4h2v2l-6 2-7 1-4 1-3-1 2 6 13 2h8v-6l3 1 2 8 2 5h-3l-1 5h-3v2l-3 1-1 4-7 3h-19l-1-13-1-41-1-9-4-1-5-6-1-9 7-1z" fill="#958E8F"/>
<path transform="translate(1471,460)" d="m0 0 1 2 20 3 7 3 7 2 12 1-1 4-16 2 1 3 5 3 4 3 8 3v4h3l-1 4h-8l-8 2h-6l-3-2v-5h-7l-3-1-16-2-4-1-7-8 2-6v-7l9-6z" fill="#54606B"/>
<path transform="translate(1542,475)" d="m0 0h7l1 7-10 4-3 5v7l4 1 1 5-2 2v6l2 1v2l2 1 1 7-1 2 1 4h2l1 5 5 3 1 2-2 4-6 2h-11l-7-2-3-5 1-9v-12l-2-11h-2v-29l1-1z" fill="#9B9291"/>
<path transform="translate(1576,322)" d="m0 0h6v5h2l3 3v2l5 1 1 9 1 10-2 6-5 4-7 2h-6v-2l-6-1-3-5-3-4v-2h-6l-3-2v-2h-2l-1-8 3-8 6-4 6-2z" fill="#373C44"/>
<path transform="translate(1419,102)" d="m0 0 3 1 1 6 12 4 2 7 4 3-1 5-3 1-16-4 1 3-1 5 2 10 4-1 14 1 17 1 1 3 10 1 6-3 6 1-1 3-5 3-3 3h-2l-1 4-4 5-3 1-5 5-2-2-10-1-2-1v-2h-9l-5-4-4-8 1-4-4-2-2-10-3-8v-21z" fill="#444C56"/>
<path transform="translate(141,27)" d="m0 0 4 2-1 2h-2l3 3 2 1-5 2-1 6 5-5 2 3v5l-6 1 6 5-1 9v19l-1 4-3 2-2 29-1 2h2v2h-7l-1-4-1-14v-53l-42-2-6-2v-1l18-4 9-1h10l8-2 4 1 1-3h2l1-5z" fill="#687987"/>
<path transform="translate(1297)" d="m0 0h4v17l-1 3 12 1 9 5 1 7h2l4 4 5 27 1 2v7h-18l-4-3v-2h-4l-2-4 1-6v-8l-3-3v-7l-5-8-2-14-2-6 1-11z" fill="#617687"/>
<path transform="translate(1447)" d="m0 0h30l-1 18-3 21-3 20-1 1h-11l-1-1-3-18-5-25-2-11z" fill="#63656A"/>
<path transform="translate(1574,264)" d="m0 0h13l5 5 2 12-2 11v10h-2v7l-5 5-15 7-16 5h-4v-2h-4l-2 4-10 5-3-1 8-4h2v-2h2v-5h-2v-2h-10l1-5 4-2 9 1 2 4h2l1 2 10 2 3-3 9-1 3-1-4-4-2-1v-8-4l-4-3-5 1-1 1h-5l-5-6 2-4 19-1 13-2 5-1-4-8-5-5-5-1-2-5z" fill="#3D4854"/>
<path transform="translate(1440,89)" d="m0 0h23l6 2 6 4 2 4 2 9-1 5-1 2-5-1h-30l-5 1-9-3-6-3v-6h-2v-3l13-9z" fill="#999090"/>
<path transform="translate(609,26)" d="m0 0 3 1-8 4-17 6-13 4-8 4-2 4v7l-2 3h-7l-3-1-7-1-20-10v-2l-4-1-4-4v-3l-5-2 4-3h16l11 1h28l14-3 14-1z" fill="#65676D"/>
<path transform="translate(1270,304)" d="m0 0 87 5 7-1 3 1 2-1h13v-2l4-2 7 1 3 3v2l-8 3-5 2-4 2-2 2h-3v2l-18 5-14 8-9 5-2 2-1-5 4-2v-2l5-2v-2l10-8 3-4-37-2-44-2-1-1z" fill="#465665"/>
<path transform="translate(1173,26)" d="m0 0h46l4 1 3 6v9l-4 1 2-6-3 3-5 3-9 7h-14l-25-1 1-6 3-16z" fill="#67686D"/>
<path transform="translate(1554,229)" d="m0 0h14l3 2v2h2v2l4-1 2 4-3 3 2 6 2 2-1 2h2l-2 4-9 3-11 4-4 1h-18l-3-6v-13l6-4 8-3z" fill="#535F6A"/>
<path transform="translate(221)" d="m0 0h51l-4 3-13 5-19 6-22 6-43 9-9 1-1-3 5-3 18-7 9-6 10-4 9-4 8-2z" fill="#63656A"/>
<path transform="translate(1421,156)" d="m0 0 5 1 4 7-1 7-4 4h-3l2 3h5v4l-5 5-6 2-1 5 10-1 8-3 3 2 1 5v25h-1l-1-8-1-3-1-5 1-2v-6l-3-2 1 5 1 3h-4v2l-4-2-1-4-4-1-9 4-4-1-1-2-7-2-3 3-8-2 1-6 3-3 8-5h4v-3l2-2-3-7 1-5 5-5z" fill="#3D4854"/>
<path transform="translate(740)" d="m0 0h62v5l-5 5-1 5-13 3-11 2h-8l-3 2-11 2h-9l-1-3 2-2v-3l4-4v-5l-4-1z" fill="#9A9292"/>
<path transform="translate(1479,66)" d="m0 0 4 1 7 5 16 6 10 4 21 3 51 4v3l-2 1-15 1-6 2h-8l-6 2h-3l-2 2h-6l-2-2-11-2h-8l-8-3-5-2v3l-3-1v-3l-6-3v-2l-4-1-1-2v5h-2l-6-15z" fill="#65676C"/>
<path transform="translate(1269,454)" d="m0 0 18 2 13 2 3 5h12l12-2 2-1 6-1 14-2h6l2 2 2-2h34l3 2 9-1 2 1h14l5-2v2l6 1 2 5 1 2-6 1-13-4-5 1-10-1v-2l-60 1-10 1-5 4-5 3 1 2-5-1-1-2-16-1-2-1h-14l-7 1-8-4z" fill="#54606B"/>
<path transform="translate(1561,295)" d="m0 0 5 1 5 4-2 11 5 2 1 3-3 2-9 1-4 3-9-2-1-3h-2l-2-3-11-1-2 2-1 4h10v2h2v5h-2v2l-9 4h-6v-3h-4v-15h-14l-2-1v-2l-4-1-1-5 6-4 7-3 13-2 2 5-1 3h3l2 4 6 2v2h15l5-1 4-1 1-4 3-3h-6l1-3h-2l-1-3z" fill="#455665"/>
<path transform="translate(1368,284)" d="m0 0 3 1h-2l-1 5-2 3h-2v2l5-2 2-5 1-3 10 3 19 7 9 3-2 1v3l2 1-2 5-2 7h-2l1 6 1 2 4 1 3 7-1 19 3 4-4 2h-4l2-10v-2l-6-2v-8l-1-4-3-1-4-1-1-4 4-1-2-5-6 2h-8l2-2 8-2 3-1v-2l6-3v-3l-1-3-3-1v-2l-17 3-4 2-3-3-11-3-1-5 2-7z" fill="#3D4853"/>
<path transform="translate(642)" d="m0 0h13l-1 4-8 12-4 3-5 2-10 8-10 6-18 6-8 6-16 7-7 2-5-1v-6l4-6 15-6 17-5 21-9 13-7 5-4 3-6z" fill="#B0DEDF"/>
<path transform="translate(380)" d="m0 0h13l2 65 2 30 1 3v19l-1 3h-2l-2-6-1-18-1-3-2-32-4-20-6-18-2-5v-8l2-1z" fill="#616369"/>
<path transform="translate(927,9)" d="m0 0h17l3 7 3 3-4 2 7 3v2h-3v2l9 2v4l-51-1-1-3-4 3 2-6 4-6h2l2-4 10-7z" fill="#373D45"/>
<path transform="translate(1498,194)" d="m0 0h5 4l10 1 10 7-2 9-2 3-1 5-9 1-8 5 1-5-6 4-4-1v-2h-8l-2-1-2-9 2-4 5-3 3-3 1-5z" fill="#445564"/>
<path transform="translate(1571,208)" d="m0 0h2l3 7-1 3-4 1-4 8 7-1 6 3 4 5 3 9-1 12-5 3-17 5-15 2-10 2-5-2-2-5v-9l1-6h1l1 13 2 2v3l6-1h12l10-3 13-4 3-4h-2l-2-4-2-6 3-3-1-3h-4v-2h-2l-3-3h-14l-7 9-9 3-4 2-2-4 1-7 1 4h2l2-5 9-4 5-2h3l1-2 2 1v-7h-3l2-5 4-1 7-3z" fill="#3D4854"/>
<path transform="translate(365,33)" d="m0 0h1l1 53 2 24v9h-39v-1l17-1 3-2h4l1-5h3v-2h3l1-5h3l-4-7-1-6-2-1v6l-8 1-13-2-2-4v-3h6l1-1 13-2v-2h-2v-4l-4 1 1-4 6-4 1-2h2v-7l-1-4 4-2 2-2z" fill="#586671"/>
<path transform="translate(530)" d="m0 0h112v6l-3 5-5 1-10-1-3-1-37-2-24-1-5-1-21-2-4-2z" fill="#11181D"/>
<path transform="translate(451,695)" d="m0 0 2 1v3l-26 14-13 9-6 8-2 5v14l4 13 5 6v5l-2 2-5-1v-3l-4-2-4-7-2-7v-7l-2-4v-10l4-8v-4l11-9 5-4 5-2 5-4 9-2 5-4 10-1z" fill="#0C0D0F"/>
<path transform="translate(1562,522)" d="m0 0 4 1 3 3 11 5 7 2 13 1v15l-4 1-9-2v2l-10 1-8-2-10 1-13 1v-2h-11l-7-2-3-4 10 1h11l20-4h2l-2-12-4-5z" fill="#53606B"/>
<path transform="translate(1550,193)" d="m0 0 8 2 3 1v5l2 4v6l-4 3h-2l-2 4 4-1v6l-1 2-10 3-2 2-9 1-3-1-1-5 2-3-1-7h-2l1-6 4-7 2-4h6v-2z" fill="#455665"/>
<path transform="translate(1432,195)" d="m0 0 5 3v6l-1 4 1 5h1v11h-2l-1-3-4 2 1-9-2 1-2 4-4-2-3 3-4 2-1 4h-4v2l-10-1-2-2 4-1-1-4-3-1-2-4 2-3h2l-3-3-1 4-4 1-1-5 2-4 11-3h2l1-2v2l7-1 5-1 1-2 4 2 3 5 2 1v-2h4l-3-5z" fill="#445563"/>
<path transform="translate(87)" d="m0 0h35l-4 13v11h6v1h-37v-2h3v-2l-3-1z" fill="#11181D"/>
<path transform="translate(45)" d="m0 0h36l1 24-1 1h-18l-14-1 2-1-2-1v-2h2v-2l-3-1h2v-4h2v-6l-3 1v-2h-1l-1 3h-1z" fill="#11181D"/>
<path transform="translate(1489,136)" d="m0 0h2l1 11-4 3v-6l-3 7-9 14-11 14h-2l-2 4-2 1 1-5 2-3h-2v2l-3 3-1 2-4-2-2-3-10-4-7-9 1-2h7l2 1v2l13 1 1 2 5-5 3-1 4-5 1-3 4-1 2-4 4-1-1-3-5 1-5 2-10-1-1-1-12-1v-1l12-1h16l5-1 1-4v2l3-1 2-3z" fill="#131A1F"/>
<path transform="translate(1372,205)" d="m0 0 1 2h6l1 5 4 2 2 5 7 4v3l6 1 4 2 15 3-1 5-7 1-9-3 4 9 4 1 1 3-1 3h-2v2l4 2h-3v3l-12-3-4-3h3l1-5h-2l-2-4-3-3v-6l-3-1-1-3 1-2-8-1-2-4-5 1v-16z" fill="#3D4753"/>
<path transform="translate(1546,434)" d="m0 0 3 2-1 4h-2v2l-7 2-1 4-7 6-3 1-1 4-1 5-3 1 2 6v4h10v1l-12 1-3 2 1-4 1-1-2-1-1-7 1-5-4 1-4-5-9-3-4-1h-8l-5 1-9-3 1 3-1 2-3-1 1-8 3-3 2-3 9 4 17 1 7-1 18-1 6-4h2l1-3z" fill="#373C44"/>
<path transform="translate(911,36)" d="m0 0 2 1v3h-2v2h19l3 2 6-2 4-2-2 5 1 8-1 1h-9v2h-2v-3l-19-2-4 1h-2l1 3 6 4v2l5 1v3l12-2h12l9 3 1 4-4 2h-24l-3-1v-2l-6-2-3-3-7-4-3-6v-14z" fill="#3F454D"/>
<path transform="translate(1056,29)" d="m0 0h9l14 1h17l21-1-1 9-5 4-2 1-28 2-7-3h-10v-2l-7-1-1-2z" fill="#626369"/>
<path transform="translate(22,26)" d="m0 0h14l33 1h9l7 1 37 1 2 3h-2v2l-5 2-7-2-7 1-13 3-14 1-23-3-15-2-13-3-3-3z" fill="#54606B"/>
<path transform="translate(1500,306)" d="m0 0 3 4 3 1v2l16 1-1 9-10 5-3 3h-6l-3 1-7-3-2-2-15-1-5 3-1 2-3-1 2-5 8-7 11-6 5-3 8-1z" fill="#3D4753"/>
<path transform="translate(0,243)" d="m0 0h12l15 1 31 1 1 1 48 3 21 1v7l-2 1-10-2-44-3-40-3-22-1-10-1z" fill="#AFDEDF"/>
<path transform="translate(675,37)" d="m0 0h5l3 2 1 6-1 17-1 4-3 4-7 2v7l-1 2h3l-1 13-3 4-4-8-1-3-4-2-2-2v-4h-2l1-5 6-2 5-10 5-24z" fill="#525F6A"/>
<path transform="translate(1080,5)" d="m0 0h16l8 6 4 5v2l-4 1-8 4h-17l-8-3-9-1-1-5 5-5 5-3z" fill="#958D8D"/>
<path transform="translate(1521,147)" d="m0 0 2 1v4l3 1-4 3h-3v2l-3 1-4 5-6 4v2l-3 1-1 2h-2l-2 5-2 3 1 4-3 1v2l7-1 14 2 7 3-2 1v2l-8-1-7 1-2 1v-2l-2-1 2-4-8 4v-3l-7-1-2 5-3 6-5 4-1-12-2-1 1-5 4-2v-5l6 1 5-4 2-2 6-7 3-5 5-3 4-3h2l2-4z" fill="#363B43"/>
<path transform="translate(334,58)" d="m0 0h1v23l6 1 5-2 1-4 2-4h-2l1-3 6-3 5-5 1 2-1 6h-2l-2 4-5 3-1 3 4-1v4h2v2l-6 2-7 1-4 1-3-1 2 6 13 2h8v-6l3 1 2 8 2 5h-3l-1 5h-3v2l-3 1-1 4-7 3h-5l1-3v2l3-1 1-4-3-4 2-2 3-1h-5l-1-3 8-3v-2h-4v2l-9-3-5-3v-4h-3v-4h2l-1-18z" fill="#676E76"/>
<path transform="translate(1351)" d="m0 0h67l-1 4-8 2-13 2-6 2-12 2-2 1h-17l-2-2-1-4h-3l-2-4z" fill="#AEDCDD"/>
<path transform="translate(1476,97)" d="m0 0 5 2 3 5 3 1 1 4-1 1 3 1-4 1v26l-3 3h-3l-1 2-5 2-14-1v-1l17-2v-6l2-5-1-9-13 1-8 2h-6l-2-1-1-8 3-2h21l5 2 1-7-2-9z" fill="#64656B"/>
<path transform="translate(1504,246)" d="m0 0 4 5 2 3 5 1 3 4v6l-5 6-11 2-3 1-1-1-8-1-3-7 3-1 1-3-4-2-1-5 4-5 6 1z" fill="#3D4854"/>
<path transform="translate(1588,441)" d="m0 0 4 1 2 4 2 17 3 5 1 1v11l-3 1-2-1 1-5-2-3 1-2h-5l-3 5-4 2h-5l-1-3 2-3h2l-4-4-3-2v-3l-2-1 4-6 7-8z" fill="#9B9392"/>
<path transform="translate(1270,304)" d="m0 0 87 5 2 1-5 4h-2v2l-37-2-44-2-1-1z" fill="#3D4854"/>
<path transform="translate(1579,94)" d="m0 0 4 2-2 3 3 1-6 4h-6v6l3 2 6 2 2 8-4 7-7-1-6-3h-8l-5-6 2-5 4-2 2-4 3-3h2v-2h-8v-1l12-2 5-2v-2l5 1z" fill="#445564"/>
<path transform="translate(1492,101)" d="m0 0h5v6l5-1 3-3 4 4 4 2-1 4-4 1-2 6v2l3 1v2l3 2v2l-2 1 1 2h-3v-2l-3 1-6-1h-4v-7l-2-6-1 17-4 4h-2l-1-23 1-3 5-1z" fill="#485766"/>
<path transform="translate(1552,102)" d="m0 0h5l-1 2h-2v2l-7 6-1 5-5 12-6-1v-2h-9l1-2-2-1v-2h-2v-5l-5-2-2-1v-2l-2-1 2-4 5-2 7 3 9 1v-3-2l5 1 3 1 1 4 2-1 1-4z" fill="#445564"/>
<path transform="translate(1443,151)" d="m0 0h9l1 1 14-1 4 2-2 6-4 5-3 1-5 5-2-2-10-1-2-1v-2h-9l-5-4-1-7 11-1z" fill="#9A9291"/>
<path transform="translate(1528,156)" d="m0 0 8 2 2 6-5 2 2 4 3 1-1 5-3 3-4 5h-8l-5 2h-6v-2l-4-2v-2l3-1 3-3 6-3 1-3h-4l1-5 2-2 5-6z" fill="#455665"/>
<path transform="translate(1319)" d="m0 0h32l3 7 3-1 2 7-15 2-9 1h-11l-4-2v-9z" fill="#63656A"/>
<path transform="translate(1446,349)" d="m0 0h2l-1 5-7 14v11l8 16 3 7 9 2-4 14h-3l-1-10 1-2-6 2-2 1-4-13-6-13-10-18-5-7 1-3 5 3 1 3 4 2 2 2 4-1 6-12z" fill="#0D0E11"/>
<path transform="translate(1320,26)" d="m0 0 2 3v4h2l4 4 5 27 1 4-6 1-4-2 1-4-2-5h-2l-2-9-3-6-1-3-5-2-5-5 2-4 12-1z" fill="#65666B"/>
<path transform="translate(133,48)" d="m0 0h1v50l2-1 1-9 2-13 1-17 2-2h5v24l-1 4-3 2-2 29-1 2h2v2h-7l-1-4-1-14z" fill="#4C5661"/>
<path transform="translate(1383,327)" d="m0 0h7v3l-4 2-1 4h-6v6l2 4-2 4 5 1 10-3h2v-2l5 1 5 4 1 7-9 7-1 9h-1l-2-7-8-9-4-4-6-5-4-7v-6l5-1v-2l5-5z" fill="#55606A"/>
<path transform="translate(1485,150)" d="m0 0h2l-1 8-9 15-2 4h-2l-2 6-3 6-5 6h-6l-5-4-10-15 1-2 8 4 5 5 2-5h2v-2l3-1-2 4v3l2-3h2l2-4 10-13 5-7z" fill="#6A6E74"/>
<path transform="translate(1371,209)" d="m0 0h1l-1 15 5-1 2 3 8 2 1 5 2 1 1 7 4 3v3h2l1 3h-2v2h-3v-2l-6-1-9-4-8-5-2-3 1-10 2-17z" fill="#535E69"/>
<path transform="translate(1249,29)" d="m0 0 4 2v2l6 2 1 2v9l-1 7v10l-2 4-6-5-2-4h-3l-2 2v-27z" fill="#65686E"/>
<path transform="translate(1181,38)" d="m0 0h27l3 2 1 6-5 4h-14l-24-1 2-6 6-4z" fill="#9C9392"/>
<path transform="translate(1443,401)" d="m0 0 2 4 1 8 3 1-1 9h-19l-15-2v2l-5-1-3-2v-2l4-2 14-1 2 1v-2l6-3 9-8h2z" fill="#606268"/>
<path transform="translate(352,50)" d="m0 0h6v6l-4 7-5 1 1 5-3 3h2l-2 5-1 3-5 3-6-1-1-1v-12l3-5 1-4 5-2 2-5z" fill="#373D45"/>
<path transform="translate(1180,106)" d="m0 0 5 2v2l4 2 24 3h22l4 1v2l-9 1h-87l3-2 27-2 3-8 3 1z" fill="#9DA0A0"/>
<path transform="translate(923,10)" d="m0 0h5l1 2-2 2 4 1v3h-8l-1-1-1 2h-2v2h5l2 2 1-2 6-1-1 3-5 2h-4v3l13 1h10l2 1v2l-6 1h-34l-1-3-4 3 2-6 4-6h2l2-4z" fill="#454F5A"/>
<path transform="translate(1476,450)" d="m0 0 9 2 5 1 1-1h8l9 2 6 4 2 3h4l-1 9-3-2v-5l-3 1h-14l-17-1-6-2v-2h-2l1-4 2 1z" fill="#3D4854"/>
<path transform="translate(362,68)" d="m0 0h2l1 2v8l-1 2h-3l-1-2h-2l-1 3h2v3l4 1 2 5v10l-4-4-1-6-2-1v6l-8 1-13-2-2-4v-3h6l1-1 13-2v-2h-2v-4l-4 1 1-4 7-5z" fill="#161D23"/>
<path transform="translate(677)" d="m0 0h1v8l-3 15-3 7-7 8-15 6-27 9-30 6h-20v-1l16-1 21-4 21-7 10-3 7-2 3-4 10-4 3-3 5-2 2-4 1-8-1-7 2-6 4-1z" fill="#64686F"/>
<path transform="translate(27,225)" d="m0 0h45l19 1h6l2 1 26 3 2 1 1 4v8l-2-1-3-8-4-1-6 1-24-2-13-1-9-2-9-1-58-1v-1z" fill="#3D4752"/>
<path transform="translate(1453,100)" d="m0 0 11 3 3 1 1 4 8 3v3h-34l-5 1-6-2v-2l-3-1v-2l7-1 4 1-1-5 9-1z" fill="#AEDADB"/>
<path transform="translate(1569,264)" d="m0 0 5 2v4h5l1 3 5 2 2 5 1 4-5 2-13 2h-18v-1l17-1 1-2h-11l-3-3 3-3 5-1v-2l3-2 1-6-2-2z" fill="#445564"/>
<path transform="translate(1432,195)" d="m0 0 5 3v6l-1 4 1 5h1v11h-2l-1-3-4 2 1-9-2 1-2 4-4-2-2 2h-4l-2-5-2-2-2-6 4-5 5-1 1-2 4 2 3 5 2 1v-2h4l-3-5z" fill="#445564"/>
<path transform="translate(1368,238)" d="m0 0 1 2 6 2 5 4 12 4v2l-5-1-10-3h-4l6 4 7 5 13 5 9 5 2 4-5 3-6 1 2-1-2-3-7 1-3-3h9v-2h-3v-2l-11-1-2-4-7-3-1-2-8-2-2-1 3-6h2l-2-6z" fill="#3C4752"/>
<path transform="translate(1197,56)" d="m0 0 2 2 1 3 6 2-1 6-4 2-17 1h-11l-3-1-3-6 1-3 2-1h26z" fill="#9B9291"/>
<path transform="translate(497)" d="m0 0h10l3 9 2 11 3 4 1 4 2 2-1 1h-8-3l-3-4v-2h-2l-3-11-1-3z" fill="#ADD9DA"/>
<path transform="translate(1538,287)" d="m0 0h9l2 6 3 5v6h-2l-1-2-5 1-2 4-7 1-4-1v-3h-3v-5l-1-5 5-4z" fill="#65676D"/>
<path transform="translate(1389,274)" d="m0 0 7 1-3 3v2l17 3 4-1 6-2 5-1-1 5-4 7h-7-4l-18-3-6-3v-3l-5-3-1-2 4-2z" fill="#44525F"/>
<path transform="translate(0,607)" d="m0 0h101l20 1 3 2-105 1-19-1z" fill="#535F6A"/>
<path transform="translate(1465,375)" d="m0 0h1v11l-3 12-2 4-3 2-7-1-2-2-5-13-1-4 6-1h7l2-1h4z" fill="#63646A"/>
<path transform="translate(1557,198)" d="m0 0h2l-1 5-3 1v2l2 1h-2l-1 6-3 1 1 4-3 4-2 5-5 3-5-1-1-4 6-2-1-1v-12l1-5-4 1 1-4 4-2 10-1 1 2-1 2h3z" fill="#55606B"/>
<path transform="translate(1427,142)" d="m0 0 14 1 17 1 1 3 10 1 6-3 6 1-1 3-5 3-3 3-5-3h-14l-1 2v-3l-20 3-4-1-1 3-1-5 9 1v-3l-5-1v-3l-5 1-2-2z" fill="#3F444C"/>
<path transform="translate(1562,522)" d="m0 0 4 1 3 3 11 5 16 4 2 2-1 2-3 1h-7v2l-25 2-2 1h-9l3-2 12-3h2l-2-12-4-5z" fill="#3E4955"/>
<path transform="translate(1593,279)" d="m0 0 1 2-2 11v10h-2v7l-5 5-5 1 4-3 3-3-3-1 1-9-4-2-18-4-4-1-5 1v-4l29-2 8 3v-8z" fill="#373C44"/>
<path transform="translate(1407,165)" d="m0 0 3 1-4 4v4l2 2v3 3l-2 2 1 2-7 1-6 4h-2l-2 8-5 2v-3l-3-2v-2l7-3h-1-3v-3h2v-2h2l2-6 3-1 1-2 2 1-1-3 1-5z" fill="#455665"/>
<path transform="translate(713)" d="m0 0h27l3 7-7 1h-6l-7 2-2 3h-3l-2 4-6 2-1-1v-5l2-4v-8z" fill="#373C44"/>
<path transform="translate(1540,462)" d="m0 0 9 2 6 5 4-1 1 4v6l-3 1-1 4h3l1 3-3 10-2 7-2-4-2-7-1-8-1-2v-7l2-1 1-3-11 1-7-1 1-4 3-1z" fill="#373C44"/>
<path transform="translate(721,57)" d="m0 0 5 1 3 12 2 18 1 3 1 29h-2l-1-28-2-1-1-6-4 2-1 2-2 20-1 7h-1l1-34z" fill="#373C44"/>
<path transform="translate(1574,264)" d="m0 0h13l5 5 1 3v8l-2 10-12-2-24 2v2l2 1 1 4-4-2-5-3 2-4 19-1 13-2 5-1-4-8-5-5-5-1-2-5z" fill="#3D4853"/>
<path transform="translate(1378,215)" d="m0 0 7 3 8 5v3l6 1 4 2 15 3-1 5-7 1-9-3 4 10-5-1-2-3v-6l-4-1-4-5-11-4-2-4 1-2-1-3z" fill="#11181D"/>
<path transform="translate(796)" d="m0 0h6v5l-5 5-1 5-13 3-11 2-9-1 4-2 5-8 6-1h15v-6z" fill="#B1E1E2"/>
<path transform="translate(1222,84)" d="m0 0 3 4 2-1-2 4-2-1 1 16-3 10-19-1 4-2 4-3 1-7h-3v-2l8-7 4-6z" fill="#373C45"/>
<path transform="translate(672,28)" d="m0 0h2v13l-4 21h-1l-2-8-11-1v3l-10 1-1-6 17-9 6 2 3-4-2-5v-3z" fill="#3D4854"/>
<path transform="translate(1222,37)" d="m0 0h2l-2 6 4-1 1 14 7-1 2 1-1 8-4 3h-3v5l-4 2-5-1 2-2 3-1v-18l-1-1h-27v-1l11-1 9-7 2-2h3z" fill="#3A414B"/>
<path transform="translate(1056,29)" d="m0 0h9l14 1h9v2h-5l-2 2 1 5 1 3 2 1-3 1-8-2h-10v-2l-7-1-1-2z" fill="#66676C"/>
<path transform="translate(1078,49)" d="m0 0 4 3 1 5 6 1 1 3 5 1v3l-9 6-8 1-3-1-3-7 1-10z" fill="#3B4149"/>
<path transform="translate(668,64)" d="m0 0h1v8h2l2-5 7 1-1 2-7 2v7l-1 2h3l-1 13-3 4-4-8-1-3-4-2-2-2v-4h-2l1-5 6-2 2-4z" fill="#475867"/>
<path transform="translate(325,36)" d="m0 0 2 2-7 4 4 3-1 6h4v3h2v-2l6 1-1 9-2 5v18h-2v4h3l-1 4-4-1v-16l-2-12-1-9-4-1-5-6-1-9 7-1z" fill="#9E9B9B"/>
<path transform="translate(1513,111)" d="m0 0h3v2l5 2 3 3-1 3h2v2l3 1-1 5h-2l-1 3-10-1-5-5-1-3-3-3 2-6z" fill="#535F6A"/>
<path transform="translate(1597)" d="m0 0h3v58l-2-2-2-8v-15l-5-6v-10l3-1 1-10z" fill="#6A7884"/>
<path transform="translate(38)" d="m0 0h7l1 1 1 4 4-1 2 2h-4l3 1v6h-2l1 7-1 1 1 2 12 1v1h-17l-8-1z" fill="#373C44"/>
<path transform="translate(1490,194)" d="m0 0h8l-3 4-1 4h-2l-2 4-4 2-1 6 1 6h11l-1 3 5-1 4-3 2 1v3l4-1-1 2h-2l1 4-2 1 2 4-5 5-3-1-2-6v-5h-5l-8-4-1-5h-3l1-12 5-6z" fill="#3E4955"/>
<path transform="translate(1555,230)" d="m0 0 5 1-2 4 1 10 3 1v9l-3 5-3 1-8-3-2-5 4-4h2v-7l-2-1 3-10z" fill="#627889"/>
<path transform="translate(527,119)" d="m0 0 85 1h53v1l-12 1-66 1-78-1-3-2z" fill="#64707B"/>
<path transform="translate(942,40)" d="m0 0v3l-1 6 1 4-1 1h-9v2h-2v-3l-16-2-1-5h-2v-3h12l7-1 3 2 6-2z" fill="#606369"/>
<path transform="translate(1421,125)" d="m0 0 10 2 4 5 3 5v2l5-2 2 1v4l3 1-1 1-20-1-4 1-1-1-2-12z" fill="#B0DDDE"/>
<path transform="translate(1490,249)" d="m0 0 5 1 1 2-1 2 4 2 5 5-1 4h-7v3l4 1h9l7-3-2 4-1 1-11 2-3 1-1-1-8-1-3-7 3-1 1-3-4-2-1-5z" fill="#373C44"/>
<path transform="translate(1447,91)" d="m0 0 2 1-1 2h12l1 2-13 4-12 3-10 4h-2l-1-6 5-7z" fill="#B0DFE0"/>
<path transform="translate(1386,304)" d="m0 0 7 1 3 3v2l-8 3-5 2-4 2-2 2-9 1-3-1 2-10 2-1h13v-2z" fill="#54606B"/>
<path transform="translate(1506,79)" d="m0 0 14 4 40 4 14 1v2l-2 1h-34l-7-1h-7l-18-9z" fill="#717E8A"/>
<path transform="translate(134,48)" d="m0 0h6l1 3-1 3h3l-2 4-2 25-2 11-1 4h-2z" fill="#687A89"/>
<path transform="translate(122)" d="m0 0h9v20l-1 2-11 1v-5l2-1-3-2v-7z" fill="#9A9291"/>
<path transform="translate(1451,113)" d="m0 0h21l3 1v2h3l-1 4-6 1-14 3h-6l-2-1-1-8z" fill="#3E444C"/>
<path transform="translate(1534,312)" d="m0 0 11 1 2 4h2l1 2 10 2 3-3h11l-4 3-16 5h-4v-2h-4l-2 4-10 5-3-1 8-4h2v-2h2v-5h-2v-2h-10l1-5z" fill="#3C4752"/>
<path transform="translate(38,216)" d="m0 0 5 1 2-1 33 1 17 1 2 1-1 3-6 1h-3l-40-2-11-1-1-2z" fill="#535F6A"/>
<path transform="translate(1428,168)" d="m0 0 1 3-4 4h-3l2 3h5v4l-5 5-6 2-1 5 10-1v2l-12 3-5-1 2-5h-4v-2h-3v-2l10-2 5-8-8-1 1-2 12-3h2z" fill="#373D45"/>
<path transform="translate(1507,301)" d="m0 0h13l5 5v2h-2l1 5-16 1-2-1v-2l-4-1-1-5z" fill="#515C67"/>
<path transform="translate(1395,300)" d="m0 0 3 1v2l5 5-3 4-5 1v2l-5 3-8 1-2 4-2 5h-1v-5l1-1-4-1v-2l4-2 1-2 8-2 2-2 7-1-1-4-9-1-4 1v2h-11l1-4 1 1h5l2-2z" fill="#445462"/>
<path transform="translate(908,84)" d="m0 0 5 2 9 9 2 1v2l4 2 1 5-1 1h-7l-11-7-3-7v-2-5z" fill="#5B6067"/>
<path transform="translate(1284,47)" d="m0 0 4 2 1 10 2 6-1 5h-14l1-2-1-10 2-4h2l2-5z" fill="#3D4854"/>
<path transform="translate(929,63)" d="m0 0h12l9 3 1 4-4 2h-24l-3-1 1-5z" fill="#898384"/>
<path transform="translate(142,56)" d="m0 0h5v24l-1 4-3 2-2 29-2 2-1-13 2-17 1-30z" fill="#373D46"/>
<path transform="translate(1442,174)" d="m0 0 9 4 5 7 7-1 6-2v-4l5-3-2 5-4 9-5 6h-6l-5-4-10-15z" fill="#999"/>
<path transform="translate(131)" d="m0 0h9l1 1v27l-7-5-1-11-1 11h-11v-1h9z" fill="#5F666E"/>
<path transform="translate(476,101)" d="m0 0h2l2 10-1 3h9l3 2 1-3h3v3l-3 3h12l2 2h-25l-10-1 2-1-1-12z" fill="#3D4853"/>
<path transform="translate(1519,470)" d="m0 0 1 3 3 1-2 2 1 17h-3v-4l-8-2-5-2-1-3-5-2 1-3 16-3z" fill="#445564"/>
<path transform="translate(1437,370)" d="m0 0h1l2 15 3 4 1 2h2l5 11 9 2-4 14h-3l-1-10 1-2-6 2-2 1-4-13-5-12z" fill="#0C0D10"/>
<path transform="translate(362,103)" d="m0 0 4 1 3 6v9h-39v-1l17-1 3-2h4l1-5h3v-2h3z" fill="#5E636B"/>
<path transform="translate(1555,197)" d="m0 0h5l3 8v6l-4 3h-2l-2 4 4-1v6l-1 2-10 3-2 2-4-1 5-3 3-7 1-5 2-1 2-9 3-2 1-4h-2l-1 5h-3v-3l-2-2z" fill="#545F6A"/>
<path transform="translate(524,44)" d="m0 0 5 1 6 1v2l7-2 9 1 5-1-2 10-2 2-7-1-20-10z" fill="#AEDADB"/>
<path transform="translate(18,21)" d="m0 0 4 1 24 2 40 2-1 2h-26l-40-2-6-1-13-1v-2z" fill="#6E7D89"/>
<path transform="translate(1207,102)" d="m0 0 4 1v8l-5 3-17-1-1-2 2-2-2-6h13z" fill="#181F24"/>
<path transform="translate(800,18)" d="m0 0h1l1 8v9l-1 5v14l-3 14-3 20-1 25-1 5-5 3h-8l3-2 6-1 2-2 1-29 2-21 2-2 2-8z" fill="#3D4752"/>
<path transform="translate(665,34)" d="m0 0 3 1-5 4-18 7-17 5-5 2-30 6h-20v-1l16-1 21-4 21-7 10-3 10-2 12-5h2z" fill="#5D6066"/>
<path transform="translate(327,37)" d="m0 0 4 3 5 2 2 4v6l-2 6h-1v-5l-3 1-3-2v2h-2v-3h-4l1-6-5-2 4-4z" fill="#525E6A"/>
<path transform="translate(362,68)" d="m0 0h2l1 2v8l-1 2h-3l-1-2h-2l-1 3h2v3l4 1 2 5v10l-4-4-2-7-1-6-5-1v-4l-4 1 1-4 7-5z" fill="#3B424B"/>
<path transform="translate(466,89)" d="m0 0 6 3-4 1-1 4-2 3-1 4-5 10-5 3 2-6-3-10 2-3 4-2 2-4z" fill="#65666B"/>
<path transform="translate(1502,312)" d="m0 0 20 2v2l-2 1-3 6-10 1-3 1-1-2v-4h-6l-1-4 5-1z" fill="#373C44"/>
<path transform="translate(1375,264)" d="m0 0h18l2 1v2h3v2l-7 1 4 1 4-1 2 4-2 1h-15l-3-1v-5l-7-2z" fill="#535F6A"/>
<path transform="translate(1588,441)" d="m0 0 4 1 2 4v11h-12l-2-1-5 2 2-4 6-7z" fill="#A9D5D7"/>
<path transform="translate(70,225)" d="m0 0 21 1h6l2 1 26 3 2 1 1 4v8l-2-1-3-8-2-2h-9l-2-1h-17l-11-2h-7l-6-2z" fill="#3E4955"/>
<path transform="translate(934,22)" d="m0 0h15l4 2v2h-3v2l9 2v4h-10l-7-1v-1h6v-2h-7l-10-3 1-2 3-1z" fill="#39414B"/>
<path transform="translate(356)" d="m0 0h12v16l-2 7-4-4-3-5-3-10z" fill="#393E46"/>
<path transform="translate(1523,476)" d="m0 0h13v3l-5 2h-3l-1 11-1 2 2 1-1 12-5-1v-29z" fill="#B0DEDF"/>
<path transform="translate(581,36)" d="m0 0 3 1-17 7-3 5v7l-2 3h-7l-2-3 2-9 4-4 6-3 8-1z" fill="#414A55"/>
<path transform="translate(742,14)" d="m0 0 2 1-2 2v3l-1 4h8v1l-14 3h-8v-2l-6-2v-2l16-6z" fill="#3D4853"/>
<path transform="translate(1433,163)" d="m0 0h8l2 1v2l13 1-1 7-2 2-6 1-7-3-7-9z" fill="#373D45"/>
<path transform="translate(805,49)" d="m0 0 3 1 2 22v16l-4-2-2-12v-7l-1-6 1-11z" fill="#373C44"/>
<path transform="translate(140)" d="m0 0h10l1 6-3 9-4 8-3 1z" fill="#B1E1E2"/>
<path transform="translate(351,97)" d="m0 0 5 2-1 5h5l-1 4-1 2-3 1-1 4-7 3h-5l1-3v2l3-1 1-4-3-4 2-2 3-1h-5l-1-3 8-3z" fill="#6E7B87"/>
<path transform="translate(358,61)" d="m0 0 2 2-1 6h-2l-2 4-5 3-1 3 4-1v4h2v2l-6 2-10 1v-3l5-4h2l1-4 2-4h-2l1-3 6-3z" fill="#7C7D82"/>
<path transform="translate(0,46)" d="m0 0h7l2 4-1 4v9l-2 5-6 1z" fill="#373C44"/>
<path transform="translate(380,2)" d="m0 0h1l1 14 3 13 3 9 3 21-2 2-4-20-6-18-2-5v-8l2-1z" fill="#627889"/>
<path transform="translate(1173,26)" d="m0 0h46v1l-9 1v2l-38 1z" fill="#64656A"/>
<path transform="translate(1364,255)" d="m0 0h4v2l3 1v2l3 1-1 3-5-1-1-2v3l6 1-1 4h-2v2l-4 1 2 3v3l-5-2-2-2v-8z" fill="#3D4854"/>
<path transform="translate(1509,196)" d="m0 0h9l3 2 1 5-3 1 2 3-1 4 1 1-2 4-2-1v2l-4 1 2-4h2l-1-3-2-1-2-3-1-2h2l-5-6-3-2z" fill="#535F6A"/>
<path transform="translate(81)" d="m0 0h6l1 20 2 1v2h-3v2h-6z" fill="#575D66"/>
<path transform="translate(1424,279)" d="m0 0 1 3-5 9h-7-4l-8-2v-4l10-1 4-3z" fill="#3C4752"/>
<path transform="translate(1368,284)" d="m0 0 3 1h-2l-1 5-2 3h-2v2l5-2 2-5 1-3 5 1-3 6 1 6 8 2v2l-9-1-6-3h-4l2 2h-4l-1-5 2-7z" fill="#343941"/>
<path transform="translate(1222,37)" d="m0 0h2l-2 6 4-1v9h-30v-1l11-1 9-7 2-2h3z" fill="#414A55"/>
<path transform="translate(1233,64)" d="m0 0h1v8l-1 7-5-1v7l-2 2-1-5h-2l-1-2-5-2v-3h2v-2l4-1h3 2v-5z" fill="#373D46"/>
<path transform="translate(1526,532)" d="m0 0 3 1 2 3 12 1 2 2-1 2h2l-1 3-10 1-7-2-3-5z" fill="#B1E1E2"/>
<path transform="translate(1383,327)" d="m0 0h7v3l-4 2-1 4h-6v6l2 4-4 4-5-8v-6l5-1v-2l5-5z" fill="#525D68"/>
<path transform="translate(1390,229)" d="m0 0 5 5 3 1 2 8 1 1 8 1 1 3-1 3h-2v2l4 2h-3v3l-10-2 3-2-1-7-3-5-5-2v-6z" fill="#363B43"/>
<path transform="translate(1189,81)" d="m0 0h19v5l-4 3h-10l-9-3z" fill="#9C9392"/>
<path transform="translate(662,42)" d="m0 0h2l-1 5-3 6h-4v3l-10 1-1-6z" fill="#465462"/>
<path transform="translate(690,981)" d="m0 0 2 1 1 4-2 7-4 2-3 4h-7l-2-1 2-4 11-11h2z" fill="#0B0B0D"/>
<path transform="translate(1585,514)" d="m0 0h8l7 1v11l-18-6 1-5z" fill="#9C9392"/>
<path transform="translate(325,36)" d="m0 0 2 2-7 4 4 3-1 6h4v3h2v-2l6 1-1 9-2 2v-7l-10-2-6-7-1-9 7-1z" fill="#948D8E"/>
<path transform="translate(1526,296)" d="m0 0 3 3-1 5h3l2 4 6 2v2l-5-1h-11v-3h2l-3-4v-2h-10l-2-2 4-2z" fill="#515E69"/>
<path transform="translate(1303)" d="m0 0h13l4 9-1 2-6-5v2l-6 2-3 6h-2l1-8z" fill="#363B42"/>
<path transform="translate(1552,231)" d="m0 0 1 4-2 6 1 1v7l-4 2-1 3 1 3 8 3v1h-9l-4-2v-8l1-3-2-4h3l1-3h2l3-9z" fill="#65666B"/>
<path transform="translate(693,526)" d="m0 0 2 1-9 5-20 10-12 7-16 8-23 12-3-1 40-21 20-11z" fill="#04E1B2"/>
<path transform="translate(1350,319)" d="m0 0h2l-1 5h-2v2l4-1-1 3-10 6-9 5-2 2-1-5 4-2v-2l5-2v-2l10-8z" fill="#5B6E7D"/>
<path transform="translate(1386,228)" d="m0 0h4l3 6-1 6 5 1 5 8v6h-6l-4-3h3l1-5h-2l-2-4-3-3v-6l-3-1-1-3z" fill="#3D4854"/>
<path transform="translate(1273,92)" d="m0 0h15l9 2 7 2v1h-35l-6-2v-1z" fill="#445463"/>
<path transform="translate(1302,36)" d="m0 0 3 4v7l3 3v9l-1 5 1 4 4-1 3 5h-10l-2-6v-10l-1-5z" fill="#60666E"/>
<path transform="translate(1568,230)" d="m0 0 3 1v2h2v2l4-1 2 4-3 3 2 6 2 2-1 2h2l-2 4-4-4v-2l-4-2-3-5 2-5z" fill="#445564"/>
<path transform="translate(1490,194)" d="m0 0h8l-3 4-1 4h-2l-2 4-4 2-1 6 1 6h6l2 2-1 3-7-3-1-5h-3l1-12 5-6z" fill="#373C44"/>
<path transform="translate(1190,95)" d="m0 0 15 1 3 2-1 3-6 3-11-1-3-3 1-4z" fill="#9C9695"/>
<path transform="translate(132,8)" d="m0 0 2 4v11l5 2 1 3-8-1-41-1v-1l27-1-1-3v-8l4 2 1 3h-3v5h13z" fill="#444C57"/>
<path transform="translate(1549,266)" d="m0 0h16l-4 6-6 3-3 2-6-2v-6z" fill="#62686F"/>
<path transform="translate(913,24)" d="m0 0 8 1-2 4h27l2 1v2l-6 1h-23l-5-2 1-5z" fill="#555A62"/>
<path transform="translate(1533,245)" d="m0 0h1l1 13 2 2v3l6-1h12l12-3h7l-3 2-7 2-15 2-10 2-5-2-2-5v-9z" fill="#3B444F"/>
<path transform="translate(1502,250)" d="m0 0 4 1 4 6 7 3-2 5-2 2h-3v-4l-8-4-3-4v-3z" fill="#4F5D69"/>
<path transform="translate(792,80)" d="m0 0h1l-1 36-5 4-10 1 5-6h4l2-6h2v-19z" fill="#455665"/>
<path transform="translate(1488,111)" d="m0 0h3v24l-3 3h-2l-1-23 1-3z" fill="#908A8A"/>
<path transform="translate(1540,240)" d="m0 0 4 1-4 4-1 6h2l1 5-1 4 2 2-6 1-3-6v-13z" fill="#455664"/>
<path transform="translate(1271,137)" d="m0 0 5 5 1 4v13h-6l-1-2v-15z" fill="#445462"/>
<path transform="translate(653,91)" d="m0 0 7 4h4l4 4v6l-2 1-4-4 4 15 6 1v1l-7 1-7-19-5-8z" fill="#455665"/>
<path transform="translate(1594,534)" d="m0 0h6v9l-16 2h-13l-6 1-3-3 10-1h15v-2h7l1-2 2 1-1-3z" fill="#455665"/>
<path transform="translate(1551,474)" d="m0 0 3 1v10h4l1-2 1 3-3 10-2 7-2-4-2-7-1-8-1-2v-7z" fill="#455361"/>
<path transform="translate(1270,167)" d="m0 0h2l2 3 4 2 1 11-3 3-5-1-1-2z" fill="#445360"/>
<path transform="translate(949,44)" d="m0 0h8l8 4v3 3l-9-1h-6l-2-3z" fill="#66676D"/>
<path transform="translate(1214,101)" d="m0 0 3 4 4 6v5l-19-1 4-2 4-3v-4l2-2z" fill="#585C62"/>
<path transform="translate(330,94)" d="m0 0 8 1 9 4v-2l-2-1 6 1 1 3-9 3h-6l-8-2v-6z" fill="#B1E1E2"/>
<path transform="translate(1366,252)" d="m0 0 9 3 3 3 7 3-1 3-9 1-2 2v-2l-3 1-4-2 1-4 1 3h5v-2l-2-1v-2l-4-1-3-2v-2z" fill="#475766"/>
<path transform="translate(1341)" d="m0 0h10l3 7 3-1 2 7h-6l-9-6-3-1-1-5z" fill="#627788"/>
<path transform="translate(1417,202)" d="m0 0 3 2v6l6-2h3l-3 4h-3v2l2 1-3 4h-4l-2-5-2-2-2-6z" fill="#535F6A"/>
<path transform="translate(1572,529)" d="m0 0 5 1 10 3 9 2 2 2-1 2-3 1h-8l-6-1v-4l-6-2z" fill="#2F353D"/>
<path transform="translate(1271,305)" d="m0 0h16l33 2 3 2-20 1-31-3z" fill="#435260"/>
<path transform="translate(390,61)" d="m0 0h1l1 7v8h2l1 20v21l-2-3-1-18-1-3-2-30z" fill="#616F7B"/>
<path transform="translate(1206,27)" d="m0 0h11l-2 1 1 4-44 1v-2l2-1h36v-2z" fill="#9C9392"/>
<path transform="translate(1599,20)" d="m0 0h1v38l-2-2-2-8v-15l-4-6h2v-2l3 1v2h2z" fill="#5F7281"/>
<path transform="translate(722)" d="m0 0h18l3 7-7 1h-8l-3-2 1-4z" fill="#383D45"/>
<path transform="translate(1599,63)" d="m0 0h1v32l-6-1 1-4 1-2-1-7 2-13z" fill="#677885"/>
<path transform="translate(1417,107)" d="m0 0h1l1 8 1 3h2v4h-2v-2h-2l2 6 3 17v2h7l1 3 4 1v3h-10l1-4-4-2-2-10-3-8z" fill="#404750"/>
<path transform="translate(394,65)" d="m0 0h1l2 30 1 3v19l-1 3h-2l-1-24z" fill="#3B424C"/>
<path transform="translate(299,15)" d="m0 0h8l7 1 6 2 1 4-6 1-8-1h-5l-3-3z" fill="#485866"/>
<path transform="translate(923,10)" d="m0 0h5l1 2-2 2 4 1v3h-8-2l-6 1-1 4-4 2-5 4 2-5 2-3h2l2-4z" fill="#5E636A"/>
<path transform="translate(1440,365)" d="m0 0v3 11l5 9-1 3h-2l-3-6-1-5-3 3-6-12 7-2z" fill="#141B20"/>
<path transform="translate(1562,325)" d="m0 0h8l-3 7-8 8h-3l1-5 1-4-1-4z" fill="#3D4854"/>
<path transform="translate(1497,187)" d="m0 0h9l9 2 7 3-2 1v2l-8-1-7 1-2 1v-2l-2-1 2-4-8 4v-5z" fill="#373C44"/>
<path transform="translate(1078,49)" d="m0 0 3 2 1 7-3 1-1 9v2h-2v-3h-3l-1-7 2-7z" fill="#696A6E"/>
<path transform="translate(1530,130)" d="m0 0 6 1 4 1-1 3v-2h-2l-1 3h-4l1 4-4 4-2-1 2-3v-5l-3 2h-5l-3-3v-2z" fill="#373C44"/>
<path transform="translate(563,82)" d="m0 0 7 1 8 2v2h2l2 5h-11l-5-3-2-5z" fill="#373C44"/>
<path transform="translate(1571,208)" d="m0 0h2l3 7-1 3-4 1-5 9-3-1 3-3 1-4-1-5v-2l-4 1 2-4z" fill="#373C44"/>
<path transform="translate(363,103)" d="m0 0 3 1 3 6v9h-16l3-1v-3l8-2v2h2l-3-5z" fill="#3E4751"/>
<path transform="translate(149,33)" d="m0 0 2 1 2 21 1 6-2 16-2 2-1-3z" fill="#393F48"/>
<path transform="translate(1480,108)" d="m0 0 4 5 2 3v22l-4 3 1-8-3 4 2-10 3-8h-2l-1 4-2-4-1-3 4 1-3-5z" fill="#373D46"/>
<path transform="translate(365,33)" d="m0 0h1v34l-5 1-1 2-3-1h2v-7l-1-4 4-2 2-2z" fill="#646D76"/>
<path transform="translate(360,47)" d="m0 0h2v2h2l1-2v7l-5 5-2-1-1 5-4 5-4-1v-4h5l2-6z" fill="#525E69"/>
<path transform="translate(1427,453)" d="m0 0h3l1 5 6 1 1 2 7-1 2 6-4 1-7-1-5-5-4-2z" fill="#9C9392"/>
<path transform="translate(1557,198)" d="m0 0h2l-1 5-3 1v2l2 1h-2l-1 6-5 2 1-7-4-1v-4h3l2-4 3 1-1 3h3z" fill="#65696F"/>
<path transform="translate(1524,317)" d="m0 0h5l1 4h3v3l5-1v5h-2v2h-5l-1-3-5-1 1-4h-2l-1-4z" fill="#646A72"/>
<path transform="translate(1415,186)" d="m0 0 1 3h2l-1 5 10-1v2l-12 3-5-1 2-5h-4v-2h-3v-2z" fill="#363B43"/>
<path transform="translate(1457,114)" d="m0 0h18v2h2l-1 3-11 1-9-2-2-3z" fill="#12191E"/>
<path transform="translate(1207,86)" d="m0 0 3 1-1 3h2v8l-3 2-3-3-4-1v-4l-3-1v-2l8-2z" fill="#61646A"/>
<path transform="translate(68,227)" d="m0 0 14 1 11 2h17l3 1h8l-1 2-7 1-24-2-13-1-9-2z" fill="#373C44"/>
<path transform="translate(135)" d="m0 0h5l1 1v23h-1l-1-10h-1l-1 8h-2z" fill="#71767E"/>
<path transform="translate(1485,424)" d="m0 0v3l-3 4-1 9-4 6-1 1-1 7-2-3v-9l4-6 2-6z" fill="#3E4955"/>
<path transform="translate(1044,21)" d="m0 0 2 1 1 10h2l1-2 1 3h-2l1 6h-6l-2-1v-14z" fill="#4D5057"/>
<path transform="translate(1521,198)" d="m0 0 6 4-2 9-2 3-1 5h-8l1-2h2v-2h2v-3l1-5-1-3 2-1z" fill="#455665"/>
<path transform="translate(1379,238)" d="m0 0 4 1 2 4 4 1v2l4 2-1 3-7-3-6-2-3-2 1-4z" fill="#5C626A"/>
<path transform="translate(1418,230)" d="m0 0 3 1h-2v7l-6 5-1-3h-4l-1 4 2 1-5-1-3-6v-3l9 2 7-1 1-4-4-1z" fill="#3A434D"/>
<path transform="translate(327,37)" d="m0 0 3 3v7l-4 1v2l5 1-2 1v2h-2v-3h-4l1-6-5-2 4-4z" fill="#646970"/>
<path transform="translate(1389,274)" d="m0 0 7 1-3 3v6l-5-1-7-3-2-3 4-2z" fill="#3D4854"/>
<path transform="translate(1555,214)" d="m0 0 1 2-1 2 4-1v6l-1 2-10 3-2 2-4-1 5-3 2-5z" fill="#505D69"/>
<path transform="translate(1414,254)" d="m0 0 7 1 5 1v7l-3 6 2 6h2l-1 3-1-2h-4l-1-3 1-6h2v-7l1-3-3 3-5-1-5-3z" fill="#373C44"/>
<path transform="translate(918,81)" d="m0 0 8 1h15l7-1-3 3-12 3-10-1-5-3z" fill="#3A424C"/>
<path transform="translate(1468,442)" d="m0 0 5 1 1 8v8h2v2l6 1 4 2-3 1-11-3v-8l-4-4z" fill="#455665"/>
<path transform="translate(1502,259)" d="m0 0 5 2 3 2v4l2 1-5 2h-7l-4-2v-3l7-1z" fill="#3E4955"/>
<path transform="translate(1081,52)" d="m0 0 2 3 2 15-7 2-3-1-2-4h3v3h2l-1-7 2-4 2-1z" fill="#3B434D"/>
<path transform="translate(559,46)" d="m0 0 2 1 3 9-2 3h-7l-2-3 2-9h3z" fill="#5C626A"/>
<path transform="translate(1112,29)" d="m0 0h5l-1 9-5 4-2 1h-8l2-2h3l2-4 3 1-4-6 5 2z" fill="#484E57"/>
<path transform="translate(1542,183)" d="m0 0h5v2h2v2h-4v2l-8 1h-10l-1-2 9-3 6-1z" fill="#455665"/>
<path transform="translate(492,113)" d="m0 0h3v3l-3 3h12l2 2h-12l-9-1-5-4 1-2h7l3 2z" fill="#425260"/>
<path transform="translate(1535,86)" d="m0 0h13l26 2v2h-16l-21-1-2-1z" fill="#858285"/>
<path transform="translate(1503,312)" d="m0 0 11 1 8 1v2l-2 1-3 5-3-3h-5l-6-4z" fill="#11181D"/>
<path transform="translate(1435,113)" d="m0 0 6 1 1-1h9l-2 2 1 6-1 2 5 1-4 2v-2h-2v-2h-3l-2-3-7-1z" fill="#999090"/>
<path transform="translate(1549,236)" d="m0 0v3l-4 5h-3l3 5-1 6v4l5 2-3 1-5-1-1-2 1-8h-2v-6l5-6z" fill="#535F6A"/>
<path transform="translate(1492,202)" d="m0 0h2l-2 5-2 1 2 9-1 4-5-1-2-9 2-4 5-3z" fill="#3E4955"/>
<path transform="translate(681,67)" d="m0 0h1v7l-2 6-4 1v-2l-3 1v-7l3-3z" fill="#11181D"/>
<path transform="translate(123,218)" d="m0 0h5v12l-11-2v-2l3-1z" fill="#617788"/>
<path transform="translate(1421,125)" d="m0 0 7 1-2 7-3-1 4 8 4 2-5 2-4-1-2-12z" fill="#98908F"/>
<path transform="translate(1484,409)" d="m0 0 1 3-5 12-9 3 2-4 8-12z" fill="#969090"/>
<path transform="translate(1570,226)" d="m0 0 7 1 6 5 3 6 1 6-1 11-5 3-6 1 3-2 4-3h2l-1-16-3-5-3-2v-2l-7-2z" fill="#373C44"/>
<path transform="translate(1278,79)" d="m0 0h26l24 5v2l5 2 1 2-4-1-7-4-21-4h-22z" fill="#373C44"/>
<path transform="translate(1368,238)" d="m0 0 1 2 6 2 5 4 12 4v2l-5-1-10-3-10-1 2-1-2-6z" fill="#394049"/>
<path transform="translate(525,42)" d="m0 0h16l2 3 11 1-4 2-9-1-6 1v-2h-6l-5-1h-2v-2z" fill="#9A9291"/>
<path transform="translate(1562,520)" d="m0 0 6 1 10 6 3 3 12 3v1l-10-1-12-5-5-3z" fill="#8C8B8F"/>
<path transform="translate(1376,287)" d="m0 0 6 1 2 8h-3l-1 2-1-1-4 1-2-7z" fill="#445463"/>
<path transform="translate(1245,57)" d="m0 0 5 1 2 4 5 5h-12l-1-1z" fill="#515E69"/>
<path transform="translate(530)" d="m0 0h22v3h-4v2h-8l-7-2-3-1z" fill="#171D22"/>
<path transform="translate(407,727)" d="m0 0 2 1-3 7v14l2 9h-2l-4-12v-10l-1-4 4-3h2z" fill="#1E282F"/>
<path transform="translate(1523,315)" d="m0 0h6v2l-5 1v4h2l-1 4h5l1 4 4 1-9 1v-3h-4v-13z" fill="#55606A"/>
<path transform="translate(1479,66)" d="m0 0 4 1 7 5 10 4v2h-9l-5-1-3-6z" fill="#969595"/>
<path transform="translate(1396,263)" d="m0 0 1 2h3v2l3-1 1 4 3 1v2l-5 2-3-1h2l-2-3-7 1-3-3h9v-2h-3v-2l-2-1z" fill="#435361"/>
<path transform="translate(1476,143)" d="m0 0m-18 1h18l-4 4-8 1-6-2-12-1v-1z" fill="#11181D"/>
<path transform="translate(1427,142)" d="m0 0 14 1v1l-8 1 9 1 1 3-8 1-5-2v-3l-5 1-2-2z" fill="#6C6C70"/>
<path transform="translate(609,26)" d="m0 0 3 1-8 4-17 6h-2v-2l2-2 4-3 12-2z" fill="#70757D"/>
<path transform="translate(1562,522)" d="m0 0 4 1 3 3 4 3-2 6 1 5-5 2h-7v-1l8-1-2-12-4-5z" fill="#505D69"/>
<path transform="translate(697,495)" d="m0 0 5 1 6 3 1 4-7 1-5-1z" fill="#B1E1E2"/>
<path transform="translate(1231,115)" d="m0 0 8 1v2l-9 1h-34v-1h24v-2z" fill="#8B8889"/>
<path transform="translate(1212,79)" d="m0 0 10 2-3 3-5 1 1 4-3 7h-1v-6h-2l-1-5 2-2h4v-3z" fill="#4E5A65"/>
<path transform="translate(1529,317)" d="m0 0h2v2h10v2h2v5h-2v2l-5 2v-2h2v-5l-6 2 1-4h-3z" fill="#525E69"/>
<path transform="translate(1533,144)" d="m0 0 3 1 1 3-1 3 3 3 1 8-3-3-2-4h-4l1-3-4-1 4-6z" fill="#373C44"/>
<path transform="translate(911,22)" d="m0 0 2 1v2l3 1-2 5 3 1-9 1-1-3-4 3 1-5 4-2z" fill="#424B55"/>
<path transform="translate(669,478)" d="m0 0 6 2 28 13 6 4 2 3-1 3-2-2v-3l-5-2-14-7-19-9z" fill="#0EE0B5"/>
<path transform="translate(1507,301)" d="m0 0h13l5 5v2l-5-1 1-3-3 1h-12l-4 1 1-3z" fill="#66676C"/>
<path transform="translate(1442,123)" d="m0 0h6l4 4-1 2h-2l1 7-5-1-2-7h3l1-2h-6z" fill="#B1E1E2"/>
<path transform="translate(1524,310)" d="m0 0h10l6 2-4 1-4 2-1 2h-2v-2l-7 1v-2h-8v-1h10z" fill="#42515F"/>
<path transform="translate(1386,233)" d="m0 0 3 1 1 7 4 3v3h2l1 3h-2v2l-3-1-1-4-2-1v-2l-3-1-1-5z" fill="#455665"/>
<path transform="translate(1081,30)" d="m0 0h7v2h-5l-2 2 1 5 1 3 2 1-3 1-6-3-1-1v-5z" fill="#9C9392"/>
<path transform="translate(502,25)" d="m0 0 4 4 10 2v2l-2 2 3 2v3l-5-1v-2l-5-2-4-5z" fill="#948E8E"/>
<path transform="translate(1485,150)" d="m0 0h2l-1 8-5 8-3-1-1-3 5-7z" fill="#4C5863"/>
<path transform="translate(1544,130)" d="m0 0 2 2v5l2 1 1 4h-2l1 4-4-2-3-4v-2h-3l1-3h2v-2h2z" fill="#373C44"/>
<path transform="translate(358,61)" d="m0 0 2 2-1 6h-2l-2 4-5 1v-2h-3l1-3 6-3z" fill="#939597"/>
<path transform="translate(677,8)" d="m0 0h1l3 9v4l-2 6-4 1-1-5z" fill="#4B5762"/>
<path transform="translate(1518,304)" d="m0 0h3v3l2 1 1 5-10-1-1-4h3v-2l-4 1v-2z" fill="#54606B"/>
<path transform="translate(1476,97)" d="m0 0 5 2 3 5 3 1 1 4-1 1 3 1-5 2-3-5-4-5-2-1z" fill="#3B424B"/>
<path transform="translate(807,65)" d="m0 0 2 3 1 4v16l-4-2v-20z" fill="#3C4651"/>
<path transform="translate(1215,43)" d="m0 0 2 2-5 4h5l4-5 4 1-2 1v4l-5 1h-22v-1l11-1z" fill="#3A414B"/>
<path transform="translate(927,9)" d="m0 0h7l4 4h-6v2h4l-1 4h-9v-1h5v-3l-5-1 2-3z" fill="#3D4854"/>
<path transform="translate(802)" d="m0 0h1l-1 11-1 5-11 2h-7l4-2 9-2 1-5 4-4z" fill="#6F7B87"/>
<path transform="translate(1232,56)" d="m0 0h4l-1 8-4 3h-3v4l-2-1 3-11z" fill="#5D6168"/>
<path transform="translate(1591,17)" d="m0 0h7v11l-4-3v2h-3z" fill="#A2C1C3"/>
<path transform="translate(1303)" d="m0 0h10v4h-6l-1 5-3 6-1-4 1-3z" fill="#11181D"/>
<path transform="translate(1270,214)" d="m0 0 4 2-1 4 5 1v2l-3 2h-3l2 5h-3l-1-3z" fill="#404E5B"/>
<path transform="translate(1246,20)" d="m0 0 4 1v2l2 1-6 4h-2v22h-1v-27h2z" fill="#414F5C"/>
<path transform="translate(1594,454)" d="m0 0h6v15l-4-3z" fill="#4C5B69"/>
<path transform="translate(1433,163)" d="m0 0h8l2 1v2h2v2l-3 1 1 5h-3l-7-9z" fill="#66676C"/>
<path transform="translate(1187,101)" d="m0 0 3 1v3l1 6-4 1-4-3-2-6 5-1z" fill="#454A53"/>
<path transform="translate(122)" d="m0 0h6v7l-2 5h-3l1-6-5 1 2-6z" fill="#485460"/>
<path transform="translate(1546,267)" d="m0 0 2 1-2 6v5l3 1 2 4-2 2h-7l1-3 1-14z" fill="#404D5A"/>
<path transform="translate(1057,30)" d="m0 0 1 2 4 1v4l7 1-1 3-8-1-3-1-1-2v-6z" fill="#958D8D"/>
<path transform="translate(1418)" d="m0 0h24l-1 2-10 1h-14z" fill="#7A7F86"/>
<path transform="translate(1233,1212)" d="m0 0h1v16h-7l2-1 2-14z" fill="#11181D"/>
<path transform="translate(1428,120)" d="m0 0 8 1 1 2 2-2 2 2-1 5-3 1-6-1-1-4h2v-2l-4-1z" fill="#50545C"/>
<path transform="translate(1271,174)" d="m0 0 6 4 2 5-3 3-5-1z" fill="#5B6F80"/>
<path transform="translate(1483,132)" d="m0 0 1 3-2 6h-2l-1 2-5 2-14-1v-1l17-2v-5l3-2 1 1z" fill="#595B61"/>
<path transform="translate(362,68)" d="m0 0h2l1 2v8l-1 2h-3l-3-4h2l-3-6z" fill="#3E4955"/>
<path transform="translate(334,58)" d="m0 0h1v23l3 2-2 1-3-1-2-9v-7z" fill="#5C6873"/>
<path transform="translate(1540,171)" d="m0 0h10l1 7-3 2v-2h-4l-4-4z" fill="#455665"/>
<path transform="translate(1463,90)" d="m0 0h5l7 5 2 4-2 2-4-2-6-6v-2z" fill="#717074"/>
<path transform="translate(930,23)" d="m0 0h5l1 2-4 1 4 2v2l-11-1-2-1v-3z" fill="#353B43"/>
<path transform="translate(1579,342)" d="m0 0 6 2 2 4-1 4-4-1-3-1-1-7z" fill="#3E4955"/>
<path transform="translate(648,49)" d="m0 0 4 1-1 2 4 1v3l-9 1-1-6z" fill="#607585"/>
<path transform="translate(1534,300)" d="m0 0 6 2 1 4-2 2-7-1v-4l-3-1z" fill="#627788"/>
<path transform="translate(1557,235)" d="m0 0 3 3 1 3 2 1 2 9 2 2-1 3h-3l-2 2v-12l-2-1z" fill="#66676C"/>
<path transform="translate(1490,114)" d="m0 0h1v21l-4 1 1-17z" fill="#B0DEDF"/>
<path transform="translate(356,71)" d="m0 0 3 1 1 4h-2v2h-2v2h-3v-2l-4 1 1-4z" fill="#2B3138"/>
<path transform="translate(1520,240)" d="m0 0h5l1 6-2 3-4-1-4-5v-2z" fill="#3D4853"/>
<path transform="translate(1526,206)" d="m0 0h1v9l-2 2-1 5-5-2-5 2-3-1 5-3h5l3-7z" fill="#3E4955"/>
<path transform="translate(1488,154)" d="m0 0 4 3v4l-5 1-3 4h-2l-1 4-2 1 1-5z" fill="#373D46"/>
<path transform="translate(327,55)" d="m0 0 5 2v8l-3 2-3-3-1-8z" fill="#AFDCDD"/>
<path transform="translate(1535,289)" d="m0 0 2 1v2l5 2-1 4-5-2v2h-2l-3-4-4 2 2-4z" fill="#535E68"/>
<path transform="translate(1478,117)" d="m0 0h2l2 5 1-3h2l-1 4-3 11h-2l-1-13-1-2z" fill="#68686D"/>
<path transform="translate(913,24)" d="m0 0 8 1-2 4h9l-1 3h-10l-3-1 1-5z" fill="#64676D"/>
<path transform="translate(1102,11)" d="m0 0 3 1 3 4v2l-4 1-8 4h-13v-1l11-1 5-3h4z" fill="#4D5259"/>
<path transform="translate(139,3)" d="m0 0h1l1 25-7-5 3-1v-11h1z" fill="#54606B"/>
<path transform="translate(1574,277)" d="m0 0 7 2 4 2-5 4-5-1-2-3z" fill="#54606B"/>
<path transform="translate(1549,215)" d="m0 0h2l1 3-3 4-1 4-5 2 1-4 2-4h-4l2-4 5 1z" fill="#66676C"/>
<path transform="translate(1342,326)" d="m0 0 2 1-4 6-7 6-2 2-1-5 4-2v-2l5-2v-2z" fill="#878B8F"/>
<path transform="translate(1475,145)" d="m0 0 6 1-1 3-5 3-3 3-5-4h4l1-4z" fill="#626469"/>
<path transform="translate(911,43)" d="m0 0 7 1 6 1v2h-2l-1 3-7-1-1-3h-2z" fill="#9C9392"/>
<path transform="translate(778,18)" d="m0 0h12l-4 2-13 3h-9l3-2h5v-2z" fill="#414A53"/>
<path transform="translate(882,674)" d="m0 0h9l8 4 2 4-9-5h-9l-6 4-2 1 2-4z" fill="#06DDB0"/>
<path transform="translate(1525,543)" d="m0 0 10 1 5 1 2 3-7 1-7-2z" fill="#566370"/>
<path transform="translate(1408,240)" d="m0 0h4l1 2 5-2v6l-7 2 2-4-4 1-2-1z" fill="#455665"/>
<path transform="translate(118,218)" d="m0 0h5l-2 7-4 1v2h-4l2-5z" fill="#54606B"/>
<path transform="translate(1162,60)" d="m0 0 2 1v12l6 2v2h2v2h-5l-1 2-3-7-1-5z" fill="#3C4550"/>
<path transform="translate(1440,365)" d="m0 0v3 11l5 9-1 3h-2l-3-6-2-16 1-3z" fill="#171D22"/>
<path transform="translate(1551,199)" d="m0 0 3 1-2 4h2v5h-3v-2l-4 1-1-5h3z" fill="#627889"/>
<path transform="translate(140,87)" d="m0 0h1l1 14-1 14-2 2-1-13z" fill="#3C4550"/>
<path transform="translate(1249,83)" d="m0 0h7l-4 2-3 1v6l-1 2-6 1 1-2h2l-2-6z" fill="#373C44"/>
<path transform="translate(908,60)" d="m0 0 8 1 1 4 8-1-5 5-6-2-3-3-3-1z" fill="#54585F"/>
<path transform="translate(1521,507)" d="m0 0 4 1 1 3v8l-4-2-2-4z" fill="#525F6B"/>
<path transform="translate(1357,316)" d="m0 0 5 1-1 2-5 1-1 7-6-1v-2h2v-6z" fill="#525E69"/>
<path transform="translate(362,113)" d="m0 0h2v2l2 1 1 3h-14l3-1v-3z" fill="#3D4753"/>
<path transform="translate(1328,43)" d="m0 0 2 4 3 19-4-1z" fill="#485460"/>
<path transform="translate(1301)" d="m0 0h2l1 9-1 7 7 2v1l-10 1z" fill="#434F5B"/>
<path transform="translate(299,15)" d="m0 0h5v2h4l1 4-7 1-3-3z" fill="#525E69"/>
<path transform="translate(1538,232)" d="m0 0h3l-2 4-3 7h-3l-1-4 1-6 1 4h2z" fill="#373C44"/>
<path transform="translate(1438,197)" d="m0 0h1v25h-1l-1-8-1-3-1-5z" fill="#3B434E"/>
<path transform="translate(1442,146)" d="m0 0 4 1v2l-3 3-11 2-4-1-1 3-1-5 9 1v-2l8-1z" fill="#4C525A"/>
<path transform="translate(1574,89)" d="m0 0h14v3l-5 1-11-1v-2z" fill="#617281"/>
<path transform="translate(1510,258)" d="m0 0 6 1v4l-3 4h-3v-4l-3-1v-1h5v-2z" fill="#455665"/>
<path transform="translate(1371,209)" d="m0 0h1l-1 15 2 1h-2l2 5-4-1-1 2 2-21z" fill="#445361"/>
<path transform="translate(1507,188)" d="m0 0 8 1 7 3-2 1v2l-10-3-5-1v-2z" fill="#11181D"/>
<path transform="translate(139,87)" d="m0 0h1v10l-1 8v11h-1l-1-5v-19z" fill="#485866"/>
<path transform="translate(759,18)" d="m0 0 4 1 1 2-11 2h-6l1-3 7-1 4 1z" fill="#B1E1E2"/>
<path transform="translate(1462,175)" d="m0 0v3l-2 2v3l4-4v3l-1 3-7 1-1-3 3-5h2v-2z" fill="#464D55"/>
<path transform="translate(135,105)" d="m0 0 2 1 2 10 3 1v2h-7l-1-7z" fill="#687986"/>
<path transform="translate(476,99)" d="m0 0h3l-1 4v-2h-2l-3 6v12h-2v-2l-2-1 3-13z" fill="#455665"/>
<path transform="translate(123,5)" d="m0 0 2 1-1 4-2 5-3 1-1-1v-7z" fill="#717B86"/>
<path transform="translate(1521,297)" d="m0 0h5v2l-3 2-11 1-2-2 4-2z" fill="#48545F"/>
<path transform="translate(1395,261)" d="m0 0 6 2 7 4 2 4-3 2-3-3-2-3h-2v-2h-3z" fill="#3A434D"/>
<path transform="translate(1390,229)" d="m0 0 5 5 3 1 1 8-7-3v-6z" fill="#373C44"/>
<path transform="translate(0,213)" d="m0 0 10 1v2l-6 2 2 1-6 2z" fill="#54606B"/>
<path transform="translate(1491,136)" d="m0 0 1 2 4 1-1 7h-2l-1 5-4 1 2-4 1-1z" fill="#373C44"/>
<path transform="translate(1457,36)" d="m0 0 3 4v6h-2v13h-1l-2-13v-5h1z" fill="#3C4652"/>
<path transform="translate(1554,289)" d="m0 0h17l-2 3h-10l-5 1z" fill="#11181D"/>
<path transform="translate(1500,201)" d="m0 0 4 1-1 2h-2v6l-7-2-1-3 6-3z" fill="#3E4955"/>
<path transform="translate(1493,108)" d="m0 0h4l1 3 2 1-2 6-3 1-2-4z" fill="#535F6A"/>
<path transform="translate(923,68)" d="m0 0h16l1 3h-15z" fill="#B1E1E2"/>
<path transform="translate(327,37)" d="m0 0 2 2-1 4-4 3-5-4z" fill="#666E77"/>
<path transform="translate(1083,5)" d="m0 0h13l5 4-6 1-12-4z" fill="#66676C"/>
<path transform="translate(1498,194)" d="m0 0h5l1 3-8 5-2-1 1-5z" fill="#3E4955"/>
<path transform="translate(1588,90)" d="m0 0 6 1v3l2 1h-15l-2-2 9-1z" fill="#515D69"/>
<path transform="translate(1324,24)" d="m0 0h2l1 5v8l-3-2v-2h-2l-1-6h2z" fill="#434E5A"/>
<path transform="translate(922,16)" d="m0 0 4 1v2h7l-3 2h-3l-1 3-2-2h-6l1-3h2z" fill="#383F48"/>
<path transform="translate(1551,474)" d="m0 0 3 1v9l-3 3-2-5v-7z" fill="#4B5A68"/>
<path transform="translate(1396,358)" d="m0 0 5 1-1 4-4 4-3-3 2-5z" fill="#627889"/>
<path transform="translate(141,48)" d="m0 0 5 2 2 2-1 4h-4v-2h-3z" fill="#4D5B68"/>
<path transform="translate(1456,35)" d="m0 0h3l3 6-1 8-4 1v-5l3 1-2-8-2 4-2-1z" fill="#4E5B67"/>
<path transform="translate(1330,631)" d="m0 0 7 4-2 2-1-1h-11l-1-3z" fill="#151C21"/>
<path transform="translate(1414,254)" d="m0 0 7 1 3 2-3 3-5-1-5-3z" fill="#343941"/>
<path transform="translate(121,230)" d="m0 0 6 1 1 4v8l-2-1-3-8z" fill="#3D4753"/>
<path transform="translate(350,115)" d="m0 0 6 1v2l-3 1h-23v-1l17-1z" fill="#4C5661"/>
<path transform="translate(644,73)" d="m0 0h4l1 5-3 3-8-4 4-2h2z" fill="#435261"/>
<path transform="translate(1164,54)" d="m0 0 8 2v2l4 2h-9l-4-3z" fill="#373C44"/>
<path transform="translate(927,49)" d="m0 0 5 1v3h8l1-4 1 4-1 1h-9v2h-2v-3l-6-1z" fill="#3A414A"/>
<path transform="translate(942,40)" d="m0 0v3l-2 3-8 2-3-4-4-2h5l3 2 6-2z" fill="#3B414A"/>
<path transform="translate(1417,107)" d="m0 0h1l1 8 1 3h2v4h-2v-2h-2l1 7-2 1z" fill="#383E47"/>
<path transform="translate(1322,15)" d="m0 0 3 1 1 8h-2l-1 4-4-4h2z" fill="#2C333C"/>
<path transform="translate(1373,200)" d="m0 0 1 2 3-1 1 4h3v7l2 1-4-1v-5h-6z" fill="#445564"/>
<path transform="translate(1421,125)" d="m0 0 7 1-2 7-5-2z" fill="#9E9A9A"/>
<path transform="translate(1210,107)" d="m0 0h2l1 2 5 2-1 3h-10v-2l3-2z" fill="#9B9393"/>
<path transform="translate(356,57)" d="m0 0h1v6l-4 5-4-1v-4h5z" fill="#444E5A"/>
<path transform="translate(949,44)" d="m0 0h8l4 3-3 2-5-1-3-1-2 3z" fill="#4A4F57"/>
<path transform="translate(1519,470)" d="m0 0 1 3 3 1-2 2v11l-2-2 1-3h-2l-2-4 2-3z" fill="#3E4955"/>
<path transform="translate(1561,202)" d="m0 0 2 3v6l-4 3h-3l2-6 2-2z" fill="#465765"/>
<path transform="translate(908,84)" d="m0 0 4 2-3 2 3 3v8l-3-1-2-6v-2-5z" fill="#3C434C"/>
<path transform="translate(509,84)" d="m0 0 1 3-1 7h-7v-3l4-2z" fill="#6D7D8A"/>
<path transform="translate(556,51)" d="m0 0 3 1 1 6 2 1h-7l-2-3z" fill="#414A54"/>
<path transform="translate(1074,41)" d="m0 0 2 1v3l7 1v2l-5 2-1-4-4-1v-2h-6v-1z" fill="#383E47"/>
<path transform="translate(665,34)" d="m0 0 3 1-5 4-13 5-3-1 16-7h2z" fill="#3C444F"/>
<path transform="translate(1049,30)" d="m0 0 2 1v2h-2v5l-6-1 1-5 3-1 2 1z" fill="#68686C"/>
<path transform="translate(1598,2)" d="m0 0 2 1v13l-3-2-1-6z" fill="#A0A5A4"/>
<path transform="translate(1562,522)" d="m0 0 4 1 3 3 4 3-3 8-1-4-1-6-4-1z" fill="#475664"/>
<path transform="translate(1110,116)" d="m0 0h5v2l-3 1h-15v-2z" fill="#516675"/>
<path transform="translate(1419,102)" d="m0 0 3 1 1 6 5 2-1 3-5-2-1-3h-2z" fill="#66676C"/>
<path transform="translate(504,84)" d="m0 0h5l-2 5-6 2h-5l3-2h2l1-3h2z" fill="#404954"/>
<path transform="translate(923,84)" d="m0 0h17l-1 2-11 1-5-1z" fill="#585C63"/>
<path transform="translate(332,80)" d="m0 0 1 3h7l-2 3-5 1 1 1v5l-1-4h-3v-4h2z" fill="#707C87"/>
<path transform="translate(329,52)" d="m0 0 6 1-1 9-2 2v-7l-4-2z" fill="#9C9594"/>
<path transform="translate(719,33)" d="m0 0 3 1-5 5-3-2-11-1v-1z" fill="#3B444F"/>
<path transform="translate(18,21)" d="m0 0 4 1 15 1v1h-20l-12-1v-1z" fill="#525F6C"/>
<path transform="translate(917,14)" d="m0 0m-1 1m-2 1 2 1-2 6-4 2-5 4 2-5 2-3h2l2-4z" fill="#565E67"/>
<path transform="translate(1536,314)" d="m0 0 7 1 2 5-10-2z" fill="#11181D"/>
<path transform="translate(1551,288)" d="m0 0h6l-2 4 2 1 1 4-4-2-5-3z" fill="#383F48"/>
<path transform="translate(1555,214)" d="m0 0 1 2-1 2 4-1v6l-1 2-3-1-2-4 1-5z" fill="#455665"/>
<path transform="translate(1376,212)" d="m0 0h2v2l5 1-1 2-4-1 1 4-4 2-1-7z" fill="#373C44"/>
<path transform="translate(366,86)" d="m0 0h1l1 21-2-1v-2l-2-1v-7l1-1z" fill="#57626D"/>
<path transform="translate(953,29)" d="m0 0 7 2-1 3-9-1v-3z" fill="#3D454E"/>
<path transform="translate(1319)" d="m0 0h4l1 3v7l-3 1z" fill="#4D5B68"/>
<path transform="translate(1552,487)" d="m0 0 1 4h2l2 2-2 10-2-4-2-7z" fill="#56626D"/>
<path transform="translate(1410,347)" d="m0 0 4 5v3l-7 1z" fill="#444D58"/>
<path transform="translate(1366,252)" d="m0 0 8 2-1 4h-6v-2l-3-1v-2z" fill="#495966"/>
<path transform="translate(345,89)" d="m0 0h10v2l-5 2-2-1-6 1-2-2z" fill="#373C44"/>
<path transform="translate(346,79)" d="m0 0 1 4-3 3-5 1v-3z" fill="#AEDBDC"/>
<path transform="translate(1553,472)" d="m0 0h2l2 4-1 7 1 2h-3l-1-10z" fill="#3D4753"/>
<path transform="translate(529,421)" d="m0 0h10v1l-10 2-9 9 2-5 5-6z" fill="#08DDB1"/>
<path transform="translate(1564,318)" d="m0 0h10l-4 3-10 2z" fill="#3B444F"/>
<path transform="translate(1404,310)" d="m0 0h2l1 4-3 1-1 3-5-5z" fill="#363C45"/>
<path transform="translate(1534,312)" d="m0 0 6 1-3 3h-2v2l4 1h-8l1-5z" fill="#383E47"/>
<path transform="translate(1372,285)" d="m0 0 5 1-3 6 1 5h-3l1-4h-2z" fill="#3D4753"/>
<path transform="translate(1499,214)" d="m0 0 7 1 1 3-8 2-1-5z" fill="#54606B"/>
<path transform="translate(1421,156)" d="m0 0 5 1v3l-2 1h-8z" fill="#53616E"/>
<path transform="translate(330,40)" d="m0 0 6 2 2 4-1 4-1-4h-5z" fill="#455665"/>
<path transform="translate(127,432)" d="m0 0h1v9h-2v-5l-7 3-1-3 8-3z" fill="#485663"/>
<path transform="translate(1540,287)" d="m0 0h7l-2 5-8-1z" fill="#627889"/>
<path transform="translate(1556,186)" d="m0 0 3 2v2h2v2l-8 1 1-6z" fill="#373C44"/>
<path transform="translate(1485,150)" d="m0 0h2l-1 8-2 1v-2h-2l-1 3-1-3z" fill="#5C646D"/>
<path transform="translate(353,67)" d="m0 0h3l-1 4-4 1-1 2v-2h-3l1-3z" fill="#B0DEDF"/>
<path transform="translate(132,8)" d="m0 0 2 4 1 13h-5l2-1z" fill="#414F5C"/>
<path transform="translate(1594,534)" d="m0 0h6v6l-5 1h-8v-1h7l1-2 2 1-1-3z" fill="#4C555F"/>
<path transform="translate(1468,442)" d="m0 0 4 2v6l1 4-3-1-2-3z" fill="#54606B"/>
<path transform="translate(1270,423)" d="m0 0 5 1 3 3-2 1h-7z" fill="#3E4955"/>
<path transform="translate(1524,310)" d="m0 0h10l6 2-4 1-5 2-1-3-5 1z" fill="#3E4955"/>
<path transform="translate(401,116)" d="m0 0 13 2-1 2h-13z" fill="#9C9594"/>
<path transform="translate(1213,85)" d="m0 0 2 4-3 7h-1v-6h-2v-4z" fill="#54606B"/>
<path transform="translate(401,72)" d="m0 0h5l1 4-7 2v-5z" fill="#65676D"/>
<path transform="translate(936,46)" d="m0 0h4v7l-6-1v-3h2z" fill="#7C797C"/>
<path transform="translate(1215,43)" d="m0 0 2 2-8 6h-13v-1l11-1z" fill="#404751"/>
<path transform="translate(129,23)" d="m0 0 6 2 1-2 4 3v2l-8-1-7-1 1-2z" fill="#3E4A56"/>
<path transform="translate(552)" d="m0 0h3l1 4 2 1h-10v-2l-3-1h7z" fill="#0B0B0D"/>
<path transform="translate(7)" d="m0 0h8l-1 5h-5l-2-1z" fill="#2B323A"/>
<path transform="translate(1368,284)" d="m0 0 3 1h-2l-1 5-2 2-4-1 2-4z" fill="#3B444E"/>
<path transform="translate(1432,234)" d="m0 0 3 1-2 4-5 3-3-1v-3l6-1z" fill="#455665"/>
<path transform="translate(961,47)" d="m0 0 4 1v3 3l-6-1-3-2h4z" fill="#3C434C"/>
<path transform="translate(534,42)" d="m0 0h7l2 3 11 1-4 2-12-2v-2z" fill="#79828C"/>
<path transform="translate(742,14)" d="m0 0 2 1-2 2v3l-1 4h8v1h-10l-2-3z" fill="#5B6874"/>
<path transform="translate(1517,308)" d="m0 0 7 3v2l-10-1-1-3z" fill="#64666B"/>
<path transform="translate(325,47)" d="m0 0 5 1 6 4v6h-1v-5l-3 1-1-3-5-1z" fill="#4A5763"/>
<path transform="translate(148,42)" d="m0 0 2 1v5l-1 1h-6l-2-3 6-1z" fill="#8D8C8F"/>
<path transform="translate(122)" d="m0 0h4l-1 6-6 1 2-6z" fill="#56606A"/>
<path transform="translate(1309,474)" d="m0 0h11l1 2-6 1h-5z" fill="#535F6A"/>
<path transform="translate(1596,456)" d="m0 0 4 1v10l-1-3h-2l-1-2z" fill="#192127"/>
<path transform="translate(1567,258)" d="m0 0m-2 1h9l-3 2-7 2h-6l1-2z" fill="#3A424B"/>
<path transform="translate(1418,120)" d="m0 0h2v2l5 2 1 2-5-1 1 3-2 3-2-7z" fill="#66676C"/>
<path transform="translate(502,104)" d="m0 0 4 2-1 5-5-1-1-4z" fill="#65666B"/>
<path transform="translate(356,99)" d="m0 0h3v3l3 2-1 4-2-1v-2l-5-1z" fill="#627280"/>
<path transform="translate(1218,43)" d="m0 0h2l-1 4-2 3h-6l5-5z" fill="#69696E"/>
<path transform="translate(723,21)" d="m0 0 5 2 1 3 6 1v1h-8v-2l-6-2v-2z" fill="#373C44"/>
<path transform="translate(1254)" d="m0 0h3v11l-2 1-1-5z" fill="#3E4955"/>
<path transform="translate(1449,417)" d="m0 0 1 2h6v3l-4 1-4-1z" fill="#373C45"/>
<path transform="translate(1477,176)" d="m0 0h2l-2 5-2 3-6 2 2-4 5-5z" fill="#3D444E"/>
<path transform="translate(1447,114)" d="m0 0 2 1 1 6-1 2 5 1-4 2v-2h-2v-2h-3v-3h2z" fill="#6B6B6F"/>
<path transform="translate(1431,116)" d="m0 0 4 1 3 4-1 3-1-3h-4v-2h-4v-2z" fill="#2D323A"/>
<path transform="translate(364,90)" d="m0 0h1v10l-4-4v-5z" fill="#3F4A56"/>
<path transform="translate(1535,86)" d="m0 0h13l-2 2-9 1-2-1z" fill="#898588"/>
<path transform="translate(331,83)" d="m0 0 1 2h-2v4h3l-1 4-4-1v-7z" fill="#A3B0B0"/>
<path transform="translate(1467,51)" d="m0 0h2v9l-4-2v-6z" fill="#627788"/>
<path transform="translate(1078,51)" d="m0 0h3v6l-4 1-2-4z" fill="#968E8E"/>
<path transform="translate(934,22)" d="m0 0h15l2 3-14-1z" fill="#606268"/>
<path transform="translate(1351)" d="m0 0 5 1v6h-3l-2-4z" fill="#A1A5A5"/>
<path transform="translate(1504,343)" d="m0 0h8l-2 2-7 3-4 1 2-5z" fill="#3C4651"/>
<path transform="translate(1550,322)" d="m0 0 9 1-3 2-6 1v-2l-4-1z" fill="#373C44"/>
<path transform="translate(1524,317)" d="m0 0h5l2 5-7-1z" fill="#627889"/>
<path transform="translate(1533,306)" d="m0 0 7 1v2h7v2h-7l-8-3z" fill="#66676C"/>
<path transform="translate(1499,253)" d="m0 0h7l-1 5-4-1z" fill="#626972"/>
<path transform="translate(1552,153)" d="m0 0 3 2 7 14-5-5-5-8z" fill="#373C44"/>
<path transform="translate(1081,60)" d="m0 0 3 3 1 7h-4z" fill="#66676C"/>
<path transform="translate(646,50)" d="m0 0 2 1-1 1 3 1v2l3 1-1 1h-6l-1-6z" fill="#4D5B68"/>
<path transform="translate(1431)" d="m0 0h11l-1 2-10 1-3-1z" fill="#555D66"/>
<path transform="translate(1389,274)" d="m0 0 7 1-3 3-1 4-1-4h-4z" fill="#373E47"/>
<path transform="translate(1393,223)" d="m0 0 7 2 1 3 4 1-3 1-5-3-4-1z" fill="#3A424C"/>
<path transform="translate(1500,198)" d="m0 0h3l-1 3-6 4-3-1 3-3z" fill="#475765"/>
<path transform="translate(1555,197)" d="m0 0h5l-1 4v-3h-2l-1 5h-3v-3l-2-2z" fill="#55606B"/>
<path transform="translate(1401,197)" d="m0 0 7 2-4 1v2h-5v-4z" fill="#455665"/>
<path transform="translate(1214,101)" d="m0 0 3 4-2 4h-3v-2l-2-1 2-2z" fill="#454F5A"/>
<path transform="translate(1500,77)" d="m0 0 6 1v3h-5l-1-1-7-1v-1z" fill="#707C87"/>
<path transform="translate(364,66)" d="m0 0 2 1v18h-1l-1-17-4 1 1-2z" fill="#5F646B"/>
<path transform="translate(805,49)" d="m0 0 3 1-1 8-3-3v-5z" fill="#3A414B"/>
<path transform="translate(944,29)" d="m0 0 4 1v2h-18v-1l11-1z" fill="#7A787B"/>
<path transform="translate(1485,424)" d="m0 0v3l-6 9h-1v-5z" fill="#495662"/>
<path transform="translate(1507,301)" d="m0 0h5l-1 3-9 2 1-3z" fill="#5C707F"/>
<path transform="translate(909,86)" d="m0 0 5 1v4l-5-1-1-3z" fill="#5F666E"/>
<path transform="translate(1310,67)" d="m0 0 4 2 1 3h-10l3-3z" fill="#595E66"/>
<path transform="translate(322,33)" d="m0 0 4 2-4 4-4 1-2-2 6-1-1-3z" fill="#5E666E"/>
<path transform="translate(1112,29)" d="m0 0 3 1-1 8h-2v-2l-4-2-1-2 5 2z" fill="#343B44"/>
<path transform="translate(722)" d="m0 0h7v4 3l-4-1 1-4z" fill="#3E4955"/>
<path transform="translate(1316)" d="m0 0h3l2 5v8l-2-4z" fill="#3E4A56"/>
</svg>
