<?xml version="1.0" encoding="UTF-8"?>
<svg version="1.1" xmlns="http://www.w3.org/2000/svg" width="900" height="900">
<path d="M0 0 C297 0 594 0 900 0 C900 297 900 594 900 900 C603 900 306 900 0 900 C0 603 0 306 0 0 Z " fill="#002B50" transform="translate(0,0)"/>
<path d="M0 0 C0 -2.97 0 -5.94 0 -9 C7.26 -9 14.52 -9 22 -9 C22.06965558 7.33420748 22.12309018 23.66835302 22.15543652 40.00267315 C22.17085936 47.58817816 22.19186041 55.1735888 22.22631836 62.7590332 C22.25636195 69.37591092 22.27560824 75.99272023 22.28226548 82.60966426 C22.28615262 86.10840476 22.29519032 89.60694968 22.31719017 93.10562706 C22.34163685 97.02577562 22.34196048 100.94573853 22.34057617 104.8659668 C22.351362 106.006772 22.36214783 107.14757721 22.3732605 108.32295227 C22.31938146 122.51741418 19.14460024 135.67448991 9.3125 146.3125 C-2.40553764 157.10368721 -18.11172889 160.79959906 -33.6953125 160.3984375 C-43.88335839 159.64430115 -54.38869766 157.45260375 -64 154 C-64 153.34 -64 152.68 -64 152 C-65.0828125 151.8453125 -65.0828125 151.8453125 -66.1875 151.6875 C-69.24491993 150.94013068 -71.38329635 149.71954811 -74 148 C-73.39733215 143.49272353 -71.63400206 140.1412037 -69.4375 136.1875 C-69.10814453 135.59001953 -68.77878906 134.99253906 -68.43945312 134.37695312 C-67.63226733 132.91466002 -66.81695083 131.4568601 -66 130 C-63.04380425 131.12927681 -60.5335829 132.28350843 -57.8125 133.9375 C-46.76933071 140.41358177 -32.35627801 141.6066336 -19.90625 139.46875 C-14.16929919 137.87899255 -9.84671933 136.00946854 -6.62890625 130.765625 C-1.56595041 121.29947528 -1.86846084 112.53774856 -2 102 C-3.23363281 102.81404297 -3.23363281 102.81404297 -4.4921875 103.64453125 C-17.23159851 111.89050228 -29.21883771 115.30587428 -44.47265625 112.3203125 C-47.02129935 111.62971243 -49.51302426 110.88519475 -52 110 C-52 109.34 -52 108.68 -52 108 C-53.2375 107.7215625 -53.2375 107.7215625 -54.5 107.4375 C-63.77141462 103.62959757 -71.30933949 94.47434159 -75.1875 85.375 C-75.81551292 83.59155205 -76.41784344 81.79893873 -77 80 C-77.37253906 78.96875 -77.74507813 77.9375 -78.12890625 76.875 C-84.64993249 56.51667417 -82.48428836 31.12321185 -73 12 C-66.91602383 2.17437848 -57.89572809 -5.96390358 -47 -10 C-29.46176648 -13.86185507 -14.68574686 -9.7904979 0 0 Z " fill="#F7F9FA" transform="translate(544,284)"/>
<path d="M0 0 C12.54 0 25.08 0 38 0 C38 53.13 38 106.26 38 161 C30.41 161 22.82 161 15 161 C14.67 116.78 14.34 72.56 14 27 C10.1687314 38.38912624 10.1687314 38.38912624 6.86279297 49.83691406 C5.0002817 56.66506799 2.90739031 63.42903824 0.86645508 70.20556641 C0.06645133 72.86188009 -0.731605 75.5187725 -1.52929688 78.17578125 C-4.05272948 86.5738238 -6.58967164 94.96665685 -9.19775391 103.33886719 C-10.00143563 106.00476214 -10.73208996 108.68159239 -11.4375 111.375 C-12.59334989 115.71571888 -13.97841967 119.93926307 -15.4375 124.1875 C-17.47358704 130.12621391 -19.08133281 136.0936645 -20.54394531 142.19628906 C-24.50132078 158.50132078 -24.50132078 158.50132078 -27 161 C-29.86267567 161.07325168 -32.700719 161.09238205 -35.5625 161.0625 C-36.36880859 161.05798828 -37.17511719 161.05347656 -38.00585938 161.04882812 C-40.00393756 161.03700518 -42.00197783 161.01906914 -44 161 C-44.19110352 160.26475098 -44.38220703 159.52950195 -44.57910156 158.77197266 C-45.46274307 155.38787024 -46.35630237 152.00646002 -47.25 148.625 C-47.55035156 147.46871094 -47.85070312 146.31242188 -48.16015625 145.12109375 C-49.79454033 138.96607285 -51.65450286 133.11449304 -54.11621094 127.24316406 C-55.43311427 123.90070334 -56.20301557 120.56709672 -57 117.0625 C-58.04014937 112.49791595 -59.24625452 108.23090968 -60.90234375 103.8515625 C-63.28530166 97.45708977 -64.9254522 90.93058761 -66.5625 84.3125 C-68.96563875 74.5405891 -68.96563875 74.5405891 -72.23852539 65.04125977 C-73.91143259 60.55675285 -75.12528927 55.91251144 -76.4375 51.3125 C-78.86730031 42.84369038 -81.4082342 34.42323884 -84 26 C-84.33 70.55 -84.66 115.1 -85 161 C-92.26 161 -99.52 161 -107 161 C-107 108.2 -107 55.4 -107 1 C-94.13 1 -81.26 1 -68 1 C-65.1875 12.5625 -65.1875 12.5625 -64.32104492 16.16625977 C-62.95108716 21.71853827 -61.29142664 26.7501007 -59 32 C-58.09543304 35.16155543 -57.3639446 38.35877011 -56.625 41.5625 C-55.2015796 47.51144546 -53.66717124 53.26858171 -51.5 59 C-49.04575035 65.50106882 -47.42097038 72.08363595 -45.8046875 78.828125 C-44.75234135 83.16326166 -43.6317862 87.33861753 -42 91.5 C-39.94836888 96.73838601 -38.60686347 102.11204843 -37.25 107.5625 C-37.02699219 108.45710938 -36.80398437 109.35171875 -36.57421875 110.2734375 C-35 116.7188237 -35 116.7188237 -35 119 C-34.34 119 -33.68 119 -33 119 C-32.896875 117.700625 -32.79375 116.40125 -32.6875 115.0625 C-32.22702808 110.85904914 -31.17688054 107.20726899 -29.75 103.2421875 C-29.01419441 101.04243536 -28.51550222 98.89810044 -28.0625 96.625 C-27.36612368 93.26155234 -26.3687272 90.17720329 -25.13671875 86.97265625 C-22.93384625 81.00988886 -21.29893106 74.97266205 -19.75 68.8125 C-19.481875 67.76513672 -19.21375 66.71777344 -18.9375 65.63867188 C-18.28672121 63.09366197 -17.6409681 60.54749495 -17 58 C-16.34 58 -15.68 58 -15 58 C-14.89429688 56.91847656 -14.78859375 55.83695312 -14.6796875 54.72265625 C-13.98323513 49.17180867 -12.55434778 43.83764563 -11.125 38.4375 C-10.86847656 37.43525391 -10.61195313 36.43300781 -10.34765625 35.40039062 C-9.26496534 31.26821098 -8.15845921 27.36960308 -6.47265625 23.4375 C-4.53837678 18.92247099 -3.44900344 14.32985966 -2.3125 9.5625 C-1.549375 6.406875 -0.78625 3.25125 0 0 Z " fill="#F6F8F9" transform="translate(209,234)"/>
<path d="M0 0 C1.40668945 -0.01740234 1.40668945 -0.01740234 2.84179688 -0.03515625 C9.12575477 -0.0089549 14.24468802 1.03648977 20.0625 3.375 C20.8978125 3.67921875 21.733125 3.9834375 22.59375 4.296875 C34.25262408 9.20100457 42.77112005 17.60584398 47.82421875 29.25390625 C55.3203697 47.76742934 57.94453588 71.35697378 50.0234375 90.2578125 C49.70632813 90.95648438 49.38921875 91.65515625 49.0625 92.375 C48.46308594 93.76332031 48.46308594 93.76332031 47.8515625 95.1796875 C42.07789388 107.71588512 33.23463509 117.42145762 20.16796875 122.5 C13.40633659 124.40516428 6.72307352 124.58495363 -0.25 124.625 C-1.13623047 124.645625 -2.02246094 124.66625 -2.93554688 124.6875 C-16.39593382 124.76604347 -27.18552514 119.4768432 -36.9375 110.375 C-50.89584817 94.09924268 -53.14420309 73.99426475 -51.9375 53.375 C-50.38691513 37.54023935 -44.76885027 22.20232698 -33.05078125 11.00390625 C-28.76833519 7.70301899 -23.8835377 5.502591 -18.9375 3.375 C-18.35137939 3.10284668 -17.76525879 2.83069336 -17.16137695 2.55029297 C-11.44298426 0.09591605 -6.16619314 -0.07596953 0 0 Z " fill="#F7F9FA" transform="translate(321.9375,272.625)"/>
<path d="M0 0 C7.77865011 5.47912216 11.81852555 12.53900966 14.05677795 21.72994995 C14.597873 25.00574233 14.66338853 28.13265684 14.68920898 31.45361328 C14.695896 32.13227448 14.70258301 32.81093567 14.70947266 33.51016235 C14.72346608 34.97625095 14.73537802 36.44236061 14.74542046 37.9084816 C14.76189917 40.22852583 14.78513598 42.54841255 14.81031799 44.86837769 C14.88092976 51.46181344 14.94134325 58.05531016 14.99243164 64.64892578 C15.02419716 68.68777476 15.06545503 72.7264359 15.11262703 76.7651329 C15.1286483 78.30329904 15.14096931 79.84150831 15.14953423 81.37973404 C15.16167013 83.5269511 15.18580843 85.67372441 15.21264648 87.82080078 C15.22810768 89.65350021 15.22810768 89.65350021 15.24388123 91.52322388 C15.29304659 94.6906623 15.29304659 94.6906623 17.515625 97.5078125 C19.71017181 98.08774949 19.71017181 98.08774949 22.140625 98.1953125 C23.584375 98.2984375 25.028125 98.4015625 26.515625 98.5078125 C26.515625 103.7878125 26.515625 109.0678125 26.515625 114.5078125 C18.8025145 117.07884933 11.19451777 117.57936961 3.515625 114.5078125 C-0.54742718 111.67831132 -3.73873044 108.62627933 -6.484375 104.5078125 C-7.01804687 104.88292969 -7.55171875 105.25804687 -8.1015625 105.64453125 C-22.13877137 115.28600516 -35.07357013 119.84099043 -52.35546875 117.04296875 C-61.49211047 114.63408817 -68.1687165 109.93004223 -73.1953125 101.94921875 C-76.27349318 96.1193311 -78.02164414 91.25987756 -77.921875 84.6328125 C-77.91502686 83.93099854 -77.90817871 83.22918457 -77.90112305 82.50610352 C-77.72120895 76.67809972 -76.56535548 72.40473512 -73.484375 67.5078125 C-73.15695312 66.9096875 -72.82953125 66.3115625 -72.4921875 65.6953125 C-64.2266253 52.18081664 -46.69670728 46.71190365 -32.17504883 43.20166016 C-24.00150249 41.31479904 -15.76648163 39.82737094 -7.484375 38.5078125 C-7.82817552 25.62578947 -7.82817552 25.62578947 -14.484375 15.0703125 C-21.22727909 10.45871451 -30.74578495 11.20440207 -38.484375 12.5078125 C-46.86912806 15.32008992 -53.21153821 20.56267345 -59.4609375 26.6875 C-61.484375 28.5078125 -61.484375 28.5078125 -64.484375 29.5078125 C-67.11328125 27.7421875 -67.11328125 27.7421875 -70.046875 25.2578125 C-71.01753906 24.44828125 -71.98820313 23.63875 -72.98828125 22.8046875 C-75.484375 20.5078125 -75.484375 20.5078125 -77.484375 17.5078125 C-69.64346546 6.89952313 -57.88310037 -0.36501123 -45.484375 -4.4921875 C-44.4325 -4.85441406 -43.380625 -5.21664063 -42.296875 -5.58984375 C-28.124936 -8.94406292 -12.53217702 -7.52718809 0 0 Z " fill="#F8FAFB" transform="translate(663.484375,279.4921875)"/>
<path d="M0 0 C6.02361164 5.6828416 9.97117196 12.36035478 10.61940002 20.71878052 C10.63486122 22.65260086 10.63486122 22.65260086 10.65063477 24.62548828 C10.6590741 25.34170349 10.66751343 26.0579187 10.6762085 26.7958374 C10.70185001 29.14645098 10.71409432 31.49693926 10.7265625 33.84765625 C10.74275031 35.48860654 10.75993165 37.1295473 10.77806091 38.77047729 C10.82363454 43.07936188 10.85849855 47.38825947 10.89025879 51.69726562 C10.94223925 58.60078074 11.00737216 65.50415555 11.07847404 72.40749741 C11.10126311 74.81601466 11.11756025 77.22451419 11.13319397 79.63308716 C11.14660277 81.10972286 11.16021776 82.5863567 11.17407227 84.06298828 C11.18358414 85.35061066 11.19309601 86.63823303 11.20289612 87.96487427 C11.24673201 91.37533741 11.24673201 91.37533741 12.34765625 95.21484375 C15.64765625 95.54484375 18.94765625 95.87484375 22.34765625 96.21484375 C22.34765625 101.49484375 22.34765625 106.77484375 22.34765625 112.21484375 C19.12395798 113.82669288 15.63576914 113.44105812 12.09765625 113.46484375 C11.34613281 113.48546875 10.59460938 113.50609375 9.8203125 113.52734375 C4.00838073 113.5679157 -0.14257231 112.53354205 -4.55078125 108.4609375 C-5.03804688 107.86410156 -5.5253125 107.26726562 -6.02734375 106.65234375 C-6.53007812 106.05292969 -7.0328125 105.45351563 -7.55078125 104.8359375 C-8.65234375 103.21484375 -8.65234375 103.21484375 -8.65234375 101.21484375 C-9.39484375 101.73046875 -10.13734375 102.24609375 -10.90234375 102.77734375 C-12.14906498 103.59486587 -13.3997193 104.4063957 -14.65234375 105.21484375 C-15.51472656 105.78203125 -16.37710938 106.34921875 -17.265625 106.93359375 C-29.83966307 114.79444934 -43.63752439 117.36954424 -58.17578125 114.0234375 C-67.68086311 110.92004327 -74.08899278 104.89612682 -78.74609375 96.1640625 C-82.24103436 87.57233351 -82.26610193 75.83585224 -78.73046875 67.25390625 C-71.78093116 54.11021558 -59.37311154 47.64086078 -45.65234375 43.21484375 C-41.8390027 42.08888543 -38.00484787 41.07246626 -34.15234375 40.08984375 C-32.71955078 39.71279297 -32.71955078 39.71279297 -31.2578125 39.328125 C-24.767674 37.65070084 -18.26237644 36.32565168 -11.65234375 35.21484375 C-11.24196565 27.77624275 -11.30708363 21.54215235 -15.65234375 15.21484375 C-20.6761946 10.23861234 -25.83050437 9.09934367 -32.77734375 8.90234375 C-47.12087748 9.11384358 -57.40971709 18.11028672 -67.65234375 27.21484375 C-69.45106687 25.8071474 -71.24109343 24.38833372 -73.02734375 22.96484375 C-74.02507812 22.1759375 -75.0228125 21.38703125 -76.05078125 20.57421875 C-78.38326393 18.4588741 -79.55084708 17.10793139 -80.65234375 14.21484375 C-75.15567067 6.95318391 -67.02873855 0.01897065 -58.65234375 -3.78515625 C-57.33234375 -3.78515625 -56.01234375 -3.78515625 -54.65234375 -3.78515625 C-54.65234375 -4.44515625 -54.65234375 -5.10515625 -54.65234375 -5.78515625 C-35.73034088 -11.22565979 -16.36325045 -12.94118629 0 0 Z " fill="#F8FAFB" transform="translate(375.65234375,513.78515625)"/>
<path d="M0 0 C1.0209375 -0.02449219 2.041875 -0.04898437 3.09375 -0.07421875 C15.12480749 -0.12002227 26.99584779 4.22204766 35.6640625 12.75 C43.26882575 21.49929284 48.63602888 31.82567419 50.25 43.375 C50.41435547 44.48681641 50.41435547 44.48681641 50.58203125 45.62109375 C51.52430801 53.27238107 51.25 60.55951751 51.25 68.375 C24.85 68.375 -1.55 68.375 -28.75 68.375 C-25.45703642 89.4413752 -25.45703642 89.4413752 -12.015625 104.60546875 C-4.94908174 107.93549909 5.591619 107.52980874 13.0390625 105.68359375 C21.56493724 102.18241838 27.10898508 95.79463325 32.25 88.375 C36.59863652 88.93944825 39.42827655 90.52927964 43.0625 92.9375 C44.03832031 93.57816406 45.01414062 94.21882812 46.01953125 94.87890625 C46.75558594 95.37261719 47.49164062 95.86632812 48.25 96.375 C47.27519885 104.07730203 41.22496069 110.08414246 35.3125 114.75 C31.22662234 117.59724545 26.86169033 119.5391925 22.25 121.375 C20.9196875 121.9628125 20.9196875 121.9628125 19.5625 122.5625 C9.27801264 126.17596853 -7.55563158 126.30711353 -17.75 122.375 C-32.50109591 115.26583753 -42.22699924 105.87153819 -47.88671875 90.234375 C-52.83975248 72.54842043 -53.74279363 48.57912472 -46.75 31.375 C-46.42257812 30.48941406 -46.09515625 29.60382812 -45.7578125 28.69140625 C-40.67777564 16.80708643 -30.39387937 7.57427234 -18.75 2.375 C-12.51160357 0.06679332 -6.56831041 0.00816954 0 0 Z " fill="#F7F9FA" transform="translate(640.75,504.625)"/>
<path d="M0 0 C1.14251221 0.00539795 2.28502441 0.0107959 3.4621582 0.01635742 C15.15035565 0.22597775 24.64692284 2.75537871 35.3125 7.4375 C35.3125 8.0975 35.3125 8.7575 35.3125 9.4375 C36.01375 9.664375 36.715 9.89125 37.4375 10.125 C46.0536417 14.05845599 53.29923153 23.06257028 56.578125 31.81640625 C56.82046875 32.68136719 57.0628125 33.54632813 57.3125 34.4375 C45.24414495 41.80730575 45.24414495 41.80730575 41.3125 43.4375 C37.73933033 42.24644344 37.53029752 41.51637706 35.6875 38.375 C29.83588498 29.35376017 21.9218775 22.8583569 11.3125 20.4375 C7.74684538 20.049387 4.21030238 19.91763738 0.625 19.875 C-0.25381836 19.86017578 -1.13263672 19.84535156 -2.03808594 19.83007812 C-8.98077787 19.93965838 -15.3076229 21.42579655 -20.60375977 26.14501953 C-23.97077443 29.69006503 -25.49982692 32.46416334 -25.6875 37.4375 C-25.77128906 38.34886719 -25.85507813 39.26023437 -25.94140625 40.19921875 C-26.24601161 45.36454801 -26.29686297 49.44103874 -23.3125 53.8125 C-15.4815792 62.5035677 -4.71193987 65.32933816 6.09375 68.7265625 C10.45347971 70.11452491 14.67764511 71.72856789 18.91113281 73.46044922 C22.55863305 74.94451753 26.24692702 76.31491498 29.9375 77.6875 C30.65550781 77.955625 31.37351562 78.22375 32.11328125 78.5 C33.84596765 79.14686959 35.57917556 79.79234202 37.3125 80.4375 C37.3125 81.0975 37.3125 81.7575 37.3125 82.4375 C38.18648437 82.60765625 38.18648437 82.60765625 39.078125 82.78125 C46.44920173 84.94618163 53.130356 92.27531437 57.3125 98.4375 C62.91924233 110.43844848 62.8645369 123.14797048 58.5703125 135.53515625 C56.72568276 139.79155344 54.42952235 143.02984619 51.3125 146.4375 C50.74917969 147.11425781 50.18585938 147.79101562 49.60546875 148.48828125 C44.16887326 154.56582274 37.78987205 157.43123262 30.3125 160.4375 C29.15814453 160.95183594 29.15814453 160.95183594 27.98046875 161.4765625 C21.04961916 163.97288607 14.33420581 164.77717127 7 164.6875 C6.16750732 164.67855713 5.33501465 164.66961426 4.47729492 164.66040039 C-15.83944131 164.2799667 -33.16351464 156.70958638 -47.37890625 142.1171875 C-50.74457764 138.21050295 -53.30183707 133.99547389 -55.6875 129.4375 C-48.9375 125.4375 -48.9375 125.4375 -46.6875 125.4375 C-46.6875 124.7775 -46.6875 124.1175 -46.6875 123.4375 C-45.39836513 122.76595067 -44.10609796 122.10041141 -42.8125 121.4375 C-42.09320313 121.06625 -41.37390625 120.695 -40.6328125 120.3125 C-38.6875 119.4375 -38.6875 119.4375 -36.6875 119.4375 C-36.6875 120.0975 -36.6875 120.7575 -36.6875 121.4375 C-36.0275 121.4375 -35.3675 121.4375 -34.6875 121.4375 C-33.42578125 123.1953125 -33.42578125 123.1953125 -32 125.5625 C-26.16259496 134.55830777 -17.10927798 140.77064772 -6.6875 143.4375 C5.09342335 144.57127024 17.71978652 145.43501932 28.17578125 139.23828125 C33.99803512 134.33140916 36.47129492 129.54088616 37.125 122.0625 C37.61806413 114.19108338 35.34063465 110.30964297 30.3125 104.4375 C22.41650307 98.09275202 12.99417623 95.53544924 3.41088867 92.83447266 C-1.60722981 91.4190518 -6.06062708 89.88514134 -10.6875 87.4375 C-13.45431842 86.30709858 -16.25614265 85.27764442 -19.0625 84.25 C-19.79855469 83.97736328 -20.53460938 83.70472656 -21.29296875 83.42382812 C-23.09002541 82.75868378 -24.88860765 82.09766358 -26.6875 81.4375 C-26.6875 80.7775 -26.6875 80.1175 -26.6875 79.4375 C-27.26757812 79.32664062 -27.84765625 79.21578125 -28.4453125 79.1015625 C-35.29612671 77.07257571 -40.45301344 70.90860652 -44.6875 65.4375 C-45.203125 64.81230469 -45.71875 64.18710937 -46.25 63.54296875 C-51.61517401 55.68473834 -51.51707873 45.2168985 -50.21875 36.171875 C-48.27840999 26.2391821 -44.21393283 19.21128955 -36.6875 12.4375 C-35.759375 11.591875 -34.83125 10.74625 -33.875 9.875 C-24.07071739 1.9168164 -12.30447762 -0.11117687 0 0 Z " fill="#F8FAFA" transform="translate(148.6875,464.5625)"/>
<path d="M0 0 C7.59 0 15.18 0 23 0 C26.79410593 8.50799511 29.71320424 17.08338961 32.41235352 25.99267578 C33.99477923 31.14072392 35.81852689 35.991733 38.07397461 40.88061523 C39.50277597 44.15069817 40.50126523 47.51648294 41.5 50.9375 C43.10139752 56.24940768 44.87968355 61.37354151 47.03125 66.4921875 C48.61220588 70.58482329 49.77549432 74.80120531 50.97265625 79.01953125 C51.99490079 81.98520647 53.29045517 84.37998936 55 87 C55.38671875 85.74445313 55.7734375 84.48890625 56.171875 83.1953125 C60.93190131 67.86051598 60.93190131 67.86051598 64.00390625 60.58203125 C65.60876566 56.42198392 66.84688448 52.1453151 68.14477539 47.88208008 C69.28349393 44.17938844 70.50157523 40.57688493 72 37 C74.08413343 32.02170558 75.63149354 26.91427656 77.21044922 21.75976562 C78.64477201 17.09070555 80.21469462 12.5444137 82 8 C82.99 5.36 83.98 2.72 85 0 C92.26 0 99.52 0 107 0 C104.53071159 9.38329597 101.83590652 18.64799378 98.125 27.625 C96.18493577 32.34531375 94.5891253 37.15351394 93 42 C91.19468777 47.50536392 89.29165881 52.90001885 87.0625 58.25 C85.26607061 62.89958194 83.77017556 67.65102461 82.2175293 72.38647461 C80.60093189 77.28558152 78.8429294 82.08183663 76.86328125 86.84765625 C75.69157514 89.76896877 74.74331719 92.74911791 73.7734375 95.7421875 C72.97344134 98.07752982 72.06634704 100.34317477 71.125 102.625 C69.39701952 106.85921172 67.92002654 111.1549245 66.5 115.5 C64.8538719 120.52109494 63.11589537 125.46763754 61.0859375 130.34765625 C60.24397205 132.40411142 59.44505926 134.47821933 58.6640625 136.55859375 C53.596176 149.98252071 48.06957986 160.10876698 35 167 C30.35306495 168.45124543 25.63709674 168.22317806 20.8125 168.25 C19.4502832 168.2809375 19.4502832 168.2809375 18.06054688 168.3125 C11.83489081 168.34815157 6.76547194 167.34978202 1 165 C2.12959819 158.69350888 3.57928588 152.94175283 6 147 C7.093125 147.33 8.18625 147.66 9.3125 148 C15.26529762 149.47231116 21.984869 150.43641197 27.6484375 147.73828125 C34.04394954 143.01070175 36.75648153 134.65795259 39.5 127.4375 C39.779646 126.74188965 40.05929199 126.0462793 40.34741211 125.32958984 C43.87975637 115.46860656 38.77386898 106.2152879 35.25 96.9375 C34.80043945 95.73883301 34.35087891 94.54016602 33.88769531 93.30517578 C32.59750901 89.86793 31.30000278 86.43354295 30 83 C28.91510651 80.12558577 27.83199206 77.25050746 26.75 74.375 C26.29367187 73.16328125 25.83734375 71.9515625 25.3671875 70.703125 C23.55659566 65.79900767 21.83282127 60.86607706 20.10839844 55.93115234 C18.5445413 51.47755918 16.86228158 47.09617406 15.06640625 42.73046875 C13.31623602 38.24926367 11.75885654 33.69896114 10.19335938 29.15039062 C8.64106416 24.67661756 6.87838692 20.34994865 5 16 C4.08335654 13.57024932 3.18709875 11.13269951 2.3125 8.6875 C1.65701172 6.86798828 1.65701172 6.86798828 0.98828125 5.01171875 C0 2 0 2 0 0 Z " fill="#F8FAFB" transform="translate(698,507)"/>
<path d="M0 0 C1.4082605 -0.01546875 1.4082605 -0.01546875 2.8449707 -0.03125 C12.52584855 0.09204056 19.54096404 3.02238938 26.8125 9.4375 C32.8125 16.22697368 32.8125 16.22697368 32.8125 21.4375 C33.4725 21.4375 34.1325 21.4375 34.8125 21.4375 C36.3366275 28.0160312 37.0990666 34.18085147 37.03955078 40.92626953 C37.03984283 41.81530472 37.04013489 42.7043399 37.04043579 43.62031555 C37.03905709 46.52041845 37.02356561 49.42025522 37.0078125 52.3203125 C37.00407717 54.34626119 37.00123265 56.37221169 36.99923706 58.39816284 C36.99164158 63.70158982 36.97202861 69.00490531 36.9498291 74.30828857 C36.9292822 79.73155205 36.92021651 85.15483373 36.91015625 90.578125 C36.8887785 101.19797325 36.85363009 111.81770986 36.8125 122.4375 C29.2225 122.4375 21.6325 122.4375 13.8125 122.4375 C13.79791748 119.71749756 13.78333496 116.99749512 13.76831055 114.19506836 C13.71792635 105.19840008 13.65132436 96.20190419 13.57678509 87.20540524 C13.53209765 81.75194215 13.49283778 76.29855349 13.46606445 70.8449707 C13.44001549 65.57989347 13.39960141 60.31510289 13.34931374 55.05020332 C13.33265587 53.04365167 13.32113488 51.03705044 13.31488609 49.03043938 C13.30523338 46.21521986 13.27715977 43.40073193 13.24487305 40.58569336 C13.24630814 39.75994308 13.24774323 38.93419281 13.2492218 38.0834198 C13.15492907 32.25272057 12.24944997 27.26791585 8.3125 22.6953125 C1.72256014 17.718535 -4.14016074 17.80218374 -12.1875 18.4375 C-20.48094689 20.30293146 -27.24800166 25.49800166 -33.1875 31.4375 C-33.31273079 34.26710718 -33.37359228 37.07349337 -33.39282227 39.90454102 C-33.40767166 41.23612244 -33.40767166 41.23612244 -33.42282104 42.59460449 C-33.45453484 45.54351082 -33.47923234 48.49243329 -33.50390625 51.44140625 C-33.52446726 53.4802239 -33.54546349 55.51903721 -33.56687927 57.55784607 C-33.6221881 62.93529755 -33.67155838 68.31278806 -33.71972656 73.69030762 C-33.76987742 79.17313121 -33.82559689 84.65589784 -33.88085938 90.13867188 C-33.98854867 100.90490115 -34.08945526 111.67117857 -34.1875 122.4375 C-41.7775 122.4375 -49.3675 122.4375 -57.1875 122.4375 C-57.1875 82.8375 -57.1875 43.2375 -57.1875 2.4375 C-49.5975 2.4375 -42.0075 2.4375 -34.1875 2.4375 C-33.8575 5.7375 -33.5275 9.0375 -33.1875 12.4375 C-32.52105469 11.90640625 -31.85460937 11.3753125 -31.16796875 10.828125 C-20.81328281 2.89194613 -12.96824635 0.11978916 0 0 Z " fill="#F8FAFA" transform="translate(474.1875,504.5625)"/>
<path d="M0 0 C1.38977051 -0.02211548 1.38977051 -0.02211548 2.80761719 -0.04467773 C12.42749599 0.09871032 20.92814039 3.77959412 27.8125 10.5625 C34.31313951 19.15314556 36.12871382 27.55701703 36.03955078 38.09960938 C36.03984283 39.01761322 36.04013489 39.93561707 36.04043579 40.88143921 C36.03905201 43.88980852 36.02353588 46.89792441 36.0078125 49.90625 C36.00407898 52.00231796 36.00123361 54.09838767 35.99923706 56.19445801 C35.99162728 61.69190348 35.97200169 67.18924206 35.9498291 72.68664551 C35.92931335 78.30410313 35.92022311 83.92157815 35.91015625 89.5390625 C35.8887532 100.54692934 35.85359279 111.55468903 35.8125 122.5625 C28.5525 122.5625 21.2925 122.5625 13.8125 122.5625 C13.79791748 119.83726074 13.78333496 117.11202148 13.76831055 114.30419922 C13.71795208 105.29554979 13.65135466 96.28707299 13.57678509 87.27859306 C13.53207586 81.81725416 13.49282079 76.35598996 13.46606445 70.89453125 C13.44003723 65.62297443 13.39963855 60.35170498 13.34931374 55.08032608 C13.33264117 53.07015688 13.32112932 51.05993797 13.31488609 49.04970932 C13.30524939 46.23188979 13.2771949 43.41480607 13.24487305 40.59716797 C13.24630814 39.76782242 13.24774323 38.93847687 13.2492218 38.08399963 C13.1690762 33.13689147 12.36710791 29.92616807 9.8125 25.5625 C9.3175 24.0775 9.3175 24.0775 8.8125 22.5625 C6.97965557 21.43733915 6.97965557 21.43733915 4.8125 20.5625 C4.21566406 20.21703125 3.61882813 19.8715625 3.00390625 19.515625 C-3.22102774 16.80816708 -11.64317609 18.57467752 -18.1875 19.5625 C-18.1875 20.2225 -18.1875 20.8825 -18.1875 21.5625 C-19.92 22.3359375 -19.92 22.3359375 -21.6875 23.125 C-23.19508064 23.92334632 -24.69483514 24.73660178 -26.1875 25.5625 C-26.89841797 25.91002823 -27.60933594 26.25755646 -28.34179688 26.61561584 C-31.5404786 28.67018537 -33.73395841 30.66190604 -34.64477539 34.47874069 C-35.42361156 40.60105608 -35.25200321 46.77483329 -35.1875 52.93359375 C-35.19502239 54.9414273 -35.20605973 56.9492505 -35.22045898 58.95704651 C-35.2488449 64.22636345 -35.22963384 69.49446275 -35.20037842 74.76373291 C-35.17895779 80.14660526 -35.20273083 85.52925937 -35.22265625 90.91210938 C-35.25507215 101.46263768 -35.23300754 112.01201973 -35.1875 122.5625 C-42.4475 122.5625 -49.7075 122.5625 -57.1875 122.5625 C-57.1875 82.9625 -57.1875 43.3625 -57.1875 2.5625 C-49.9275 2.5625 -42.6675 2.5625 -35.1875 2.5625 C-35.1875 6.5225 -35.1875 10.4825 -35.1875 14.5625 C-34.5275 14.5625 -33.8675 14.5625 -33.1875 14.5625 C-33.1875 13.9025 -33.1875 13.2425 -33.1875 12.5625 C-23.26468975 3.84711135 -13.02806566 0.13755939 0 0 Z " fill="#FAFCFC" transform="translate(766.1875,272.4375)"/>
<path d="M0 0 C10.45843544 6.27506126 16.08100711 12.90470364 19.125 24.875 C22.63459271 40.61942287 22.19559708 61.89766706 13.8125 75.9375 C9.57148802 81.99227811 4.61451897 87.21207291 -2.875 88.875 C-12.09299359 89.83039569 -20.33858009 89.72600237 -27.875 83.875 C-35.85647312 76.18628361 -39.46119313 65.73607649 -40.03613281 54.81396484 C-40.0819416 51.29254739 -40.11024947 47.77169007 -40.125 44.25 C-40.145625 43.04214844 -40.16625 41.83429688 -40.1875 40.58984375 C-40.24040144 28.30348363 -38.49706908 15.84623272 -29.7265625 6.61328125 C-21.50543272 -0.99331225 -11.06698753 -4.32944651 0 0 Z " fill="#022C50" transform="translate(332.875,291.125)"/>
<path d="M0 0 C0.721875 0.42023438 1.44375 0.84046875 2.1875 1.2734375 C4.16202552 2.47121952 6.09313447 3.6974516 8 5 C8.68596756 5.39068161 9.37193512 5.78136322 10.07868958 6.18388367 C12 8 12 8 12.52812195 10.82600403 C12.54035294 11.97372787 12.55258392 13.12145172 12.56518555 14.30395508 C12.58747726 15.60573196 12.60976898 16.90750885 12.63273621 18.24873352 C12.63553266 19.67233064 12.63682295 21.09593139 12.63671875 22.51953125 C12.64703463 23.98061147 12.65809785 25.44168658 12.6698761 26.90275574 C12.68931804 29.96696289 12.69272757 33.03071362 12.6862793 36.0949707 C12.68029145 40.01315331 12.72445332 43.9289597 12.78216839 47.84665394 C12.81923317 50.86573905 12.82406542 53.88425553 12.81989479 56.90353966 C12.82276027 58.34722121 12.83678466 59.7909269 12.86237144 61.23438454 C13.04109882 72.50428097 13.04109882 72.50428097 10.46427917 76.20632935 C8.70677109 77.74121088 7.05036671 78.89828136 5 80 C3.89978516 80.68835938 3.89978516 80.68835938 2.77734375 81.390625 C2.17019531 81.67421875 1.56304688 81.9578125 0.9375 82.25 C0.32777344 82.54390625 -0.28195312 82.8378125 -0.91015625 83.140625 C-8.79222155 86.38184812 -17.05462716 87.58860362 -25.44140625 85.34765625 C-34.2160613 81.34668829 -39.62541949 73.80929818 -43 65 C-45.36523721 57.91258744 -45.37231353 50.84742613 -45.37060547 43.4387207 C-45.37495565 41.33395983 -45.41129297 39.23134146 -45.44921875 37.12695312 C-45.54879698 25.27897211 -43.86890947 14.20780718 -35.93359375 4.94140625 C-25.7545138 -5.27880129 -12.83214131 -7.53402236 0 0 Z " fill="#032C50" transform="translate(531,294)"/>
<path d="M0 0 C7.26 0 14.52 0 22 0 C22 10.89 22 21.78 22 33 C29.26 33 36.52 33 44 33 C44 38.61 44 44.22 44 50 C36.74 50 29.48 50 22 50 C22.01773072 60.34465799 22.05645741 70.68865349 22.13209057 81.0330534 C22.16637261 85.83647078 22.19147243 90.63956972 22.19555664 95.44311523 C22.199837 100.07940881 22.22827767 104.71498386 22.27343178 109.35105324 C22.28641522 111.11921821 22.29071145 112.88746913 22.28615379 114.65567589 C22.28125358 117.13411281 22.30731118 119.61044497 22.34057617 122.08862305 C22.32763771 123.1837471 22.32763771 123.1837471 22.31443787 124.30099487 C22.40281428 128.23208603 22.89176577 129.8675848 25.41394043 132.95324707 C27.92127076 134.93768925 28.88171535 135.63126135 31.98828125 135.70703125 C32.62548096 135.73514893 33.26268066 135.7632666 33.91918945 135.79223633 C34.70898193 135.79892334 35.49877441 135.80561035 36.3125 135.8125 C38.849375 135.874375 41.38625 135.93625 44 136 C44 141.28 44 146.56 44 152 C32.68161558 154.82959611 19.59136613 153.86977836 9 149 C6 146.875 6 146.875 4 144 C3.5802742 143.40998199 3.1605484 142.81996399 2.72810364 142.21206665 C-2.51296682 133.56424295 -1.63215609 124.40594548 -1.48828125 114.6484375 C-1.47894127 112.77943879 -1.47183077 110.91042774 -1.46684265 109.04141235 C-1.44786603 104.15197203 -1.3988471 99.26328914 -1.34332275 94.37414551 C-1.29192748 89.37323245 -1.26928553 84.3721955 -1.24414062 79.37109375 C-1.19071789 69.58034496 -1.1028598 59.79035434 -1 50 C-7.27 50 -13.54 50 -20 50 C-20 44.39 -20 38.78 -20 33 C-13.4 33 -6.8 33 0 33 C0 22.11 0 11.22 0 0 Z " fill="#F8FAFB" transform="translate(237,474)"/>
<path d="M0 0 C7.59 0 15.18 0 23 0 C23.01213028 2.49482689 23.01213028 2.49482689 23.02450562 5.04005432 C23.10197405 20.7106403 23.18959836 36.38113504 23.28752708 52.05160618 C23.33761355 60.10803396 23.38405688 68.16445178 23.421875 76.22094727 C23.45485292 83.2443413 23.49471607 90.26765703 23.54279006 97.29096454 C23.56799748 101.0085181 23.58979563 104.7260201 23.60334396 108.44363594 C23.61861089 112.59738509 23.64925171 116.75088629 23.68115234 120.90454102 C23.68331253 122.13237305 23.68547272 123.36020508 23.68769836 124.62524414 C23.34010697 133.88956627 23.34010697 133.88956627 27 142 C29.52793394 142.23671983 32.02934966 142.4214325 34.5625 142.5625 C37.016875 142.706875 39.47125 142.85125 42 143 C42 148.61 42 154.22 42 160 C37.63041839 161.4565272 33.3908797 161.26542961 28.8125 161.3125 C27.89146484 161.34150391 26.97042969 161.37050781 26.02148438 161.40039062 C18.61402541 161.46873482 13.51983731 159.90931686 7.79296875 155.17578125 C7.26316406 154.56089844 6.73335937 153.94601562 6.1875 153.3125 C5.37345703 152.40951172 5.37345703 152.40951172 4.54296875 151.48828125 C-0.41301828 143.49596798 -0.4180979 135.30315328 -0.34057617 126.12670898 C-0.33972845 124.74608885 -0.34020787 123.36546737 -0.34190369 121.98484802 C-0.34275942 118.26223862 -0.32520272 114.53992312 -0.30418181 110.81738162 C-0.28534408 106.91766294 -0.28365901 103.01793648 -0.28010559 99.11817932 C-0.27080587 91.74481014 -0.24622038 84.37157546 -0.21605712 76.99826533 C-0.18244832 68.59920279 -0.16601086 60.20013361 -0.15097082 51.8010205 C-0.11966879 34.53393386 -0.06633993 17.26698633 0 0 Z " fill="#F3F5F7" transform="translate(538,466)"/>
<path d="M0 0 C3.6196875 0.0309375 3.6196875 0.0309375 7.3125 0.0625 C7.3125 6.6625 7.3125 13.2625 7.3125 20.0625 C5.229375 20.10375 3.14625 20.145 1 20.1875 C-10.11745606 21.01682636 -17.09941363 25.86133425 -24.71484375 33.71875 C-29.29980573 39.16622958 -31.28234232 43.0197229 -31.23339844 50.17919922 C-31.24373611 50.97011459 -31.25407379 51.76102997 -31.26472473 52.57591248 C-31.2940693 55.17321402 -31.2956501 57.76973347 -31.296875 60.3671875 C-31.31186233 62.17466714 -31.32859064 63.98213312 -31.34698486 65.7895813 C-31.39060865 70.53406414 -31.41064643 75.27836226 -31.42572021 80.02301025 C-31.44530923 84.86961772 -31.48727724 89.71602621 -31.52734375 94.5625 C-31.60259225 104.06247224 -31.65084653 113.56230037 -31.6875 123.0625 C-38.9475 123.0625 -46.2075 123.0625 -53.6875 123.0625 C-53.6875 83.4625 -53.6875 43.8625 -53.6875 3.0625 C-46.0975 3.0625 -38.5075 3.0625 -30.6875 3.0625 C-30.3575 8.0125 -30.0275 12.9625 -29.6875 18.0625 C-27.4909375 15.525625 -27.4909375 15.525625 -25.25 12.9375 C-17.84029475 4.61628339 -11.28190084 -0.13589754 0 0 Z " fill="#FBFCFC" transform="translate(451.6875,271.9375)"/>
<path d="M0 0 C0.19853527 4.73201173 0.34326787 9.46157717 0.43945312 14.19677734 C0.47956057 15.80527995 0.53406573 17.41349308 0.60351562 19.02099609 C1.16348384 32.3202413 1.16348384 32.3202413 -1.59887695 36.30834961 C-3.66890907 37.89762239 -5.6109885 38.96243068 -8 40 C-9.59908203 40.92232422 -9.59908203 40.92232422 -11.23046875 41.86328125 C-12.20628906 42.34152344 -13.18210937 42.81976562 -14.1875 43.3125 C-15.17105469 43.80363281 -16.15460938 44.29476562 -17.16796875 44.80078125 C-23.39631332 47.43816302 -30.68838502 48.24258348 -37.25 46.3515625 C-41.36240205 44.52902068 -44.70988238 42.14108211 -47.15234375 38.32421875 C-49.45997843 31.99683335 -49.15637282 24.59027513 -46.4375 18.5 C-45.633125 17.675 -44.82875 16.85 -44 16 C-43.53722656 15.50371094 -43.07445312 15.00742187 -42.59765625 14.49609375 C-32.83526865 4.97239534 -13.36057862 0 0 0 Z " fill="#042C51" transform="translate(365,566)"/>
<path d="M0 0 C0.24850467 4.71356013 0.42920182 9.42326446 0.54931641 14.1418457 C0.59940142 15.74375842 0.66749983 17.3452185 0.75439453 18.94555664 C1.45662739 32.21775761 1.45662739 32.21775761 -2.09912109 36.56835938 C-4.67460764 38.39892569 -7.10716549 39.74046734 -10 41 C-10.86931152 41.42611572 -11.73862305 41.85223145 -12.63427734 42.29125977 C-20.79016388 46.23590788 -29.63910102 47.75447603 -38.4375 44.875 C-42.97562098 41.55442367 -46.61948805 37.52204781 -48 32 C-48.14928287 28.65915224 -48.11678634 25.34138683 -48 22 C-47.34 22 -46.68 22 -46 22 C-45.90332031 21.25492187 -45.80664062 20.50984375 -45.70703125 19.7421875 C-44.34261745 14.45037265 -40.48303991 11.83478452 -36 9 C-24.75933462 3.92246378 -12.39082743 -0.19290436 0 0 Z " fill="#042C50" transform="translate(656,335)"/>
<path d="M0 0 C6.83506263 5.13573767 9.76506635 10.86837701 12 19 C12.29583984 19.90492188 12.29583984 19.90492188 12.59765625 20.828125 C13.21575032 24.1646328 13 27.60672362 13 31 C-5.81 31 -24.62 31 -44 31 C-42.12176016 18.79144103 -40.35363157 10.0896273 -31 2 C-30.54625 1.443125 -30.0925 0.88625 -29.625 0.3125 C-22.36887091 -5.54821965 -7.61221804 -4.78389924 0 0 Z " fill="#042C50" transform="translate(656,525)"/>
<path d="M0 0 C7.59 0 15.18 0 23 0 C23.495 8.415 23.495 8.415 24 17 C23.34 17.33 22.68 17.66 22 18 C22 12.39 22 6.78 22 1 C15.07 1 8.14 1 1 1 C1.33 2.65 1.66 4.3 2 6 C2.33 6 2.66 6 3 6 C3 40.32 3 74.64 3 110 C2.67 110 2.34 110 2 110 C1.67 113.3 1.34 116.6 1 120 C0.67 120 0.34 120 0 120 C0 80.4 0 40.8 0 0 Z " fill="#DBE3EB" transform="translate(398,275)"/>
<path d="M0 0 C3.41950268 5.92713797 3.1422924 12.39879597 3.11352539 19.03466797 C3.11367142 19.92311905 3.11381744 20.81157013 3.1139679 21.72694397 C3.11327406 24.64871709 3.10550647 27.57042559 3.09765625 30.4921875 C3.09579019 32.52385422 3.09436717 34.55552139 3.09336853 36.58718872 C3.08955815 41.92351533 3.07974051 47.25981455 3.06866455 52.59613037 C3.05841861 58.04585398 3.05386409 63.49558203 3.04882812 68.9453125 C3.03811689 79.63022228 3.02053208 90.31510457 3 101 C-4.59 101 -12.18 101 -20 101 C-20 72.29 -20 43.58 -20 14 C-19.67 14 -19.34 14 -19 14 C-19 41.72 -19 69.44 -19 98 C-12.4 98 -5.8 98 1 98 C1.02260643 87.28176902 1.04094723 76.56355393 1.05181217 65.84530449 C1.0570272 60.8682148 1.06409981 55.8911423 1.07543945 50.9140625 C1.08631734 46.10949663 1.09228724 41.30494726 1.09487724 36.50037003 C1.09672265 34.66879135 1.10032625 32.83721357 1.10573006 31.00564194 C1.11300551 28.43717253 1.11398819 25.86877105 1.11352539 23.30029297 C1.11712067 22.54575333 1.12071594 21.79121368 1.12442017 21.0138092 C1.1141763 15.74812315 0.66716561 11.00149683 -1 6 C-0.72428861 3.99124558 -0.39764263 1.98821313 0 0 Z " fill="#E5EEF3" transform="translate(508,526)"/>
<path d="M0 0 C0.33 0 0.66 0 1 0 C1 45.21 1 90.42 1 137 C0.67 137 0.34 137 0 137 C0 94.76 0 52.52 0 9 C-0.66 9 -1.32 9 -2 9 C-1.34 6.03 -0.68 3.06 0 0 Z " fill="#113250" transform="translate(223,258)"/>
<path d="M0 0 C3.41950268 5.92713797 3.1422924 12.39879597 3.11352539 19.03466797 C3.11367142 19.92311905 3.11381744 20.81157013 3.1139679 21.72694397 C3.11327406 24.64871709 3.10550647 27.57042559 3.09765625 30.4921875 C3.09579019 32.52385422 3.09436717 34.55552139 3.09336853 36.58718872 C3.08955815 41.92351533 3.07974051 47.25981455 3.06866455 52.59613037 C3.05841861 58.04585398 3.05386409 63.49558203 3.04882812 68.9453125 C3.03811689 79.63022228 3.02053208 90.31510457 3 101 C-4.59 101 -12.18 101 -20 101 C-20 100.67 -20 100.34 -20 100 C-12.74 100 -5.48 100 2 100 C1.89184394 89.02094295 1.779726 78.0419459 1.66066074 67.06300163 C1.60553002 61.96487413 1.55212597 56.8667408 1.50268555 51.76855469 C1.45489646 46.84723162 1.40254878 41.9259761 1.34705925 37.00473404 C1.32670148 35.12851777 1.30797778 33.25228302 1.29092598 31.37603378 C1.26673587 28.74525032 1.23670195 26.11459291 1.20532227 23.48388672 C1.19668907 22.32402504 1.19668907 22.32402504 1.18788147 21.14073181 C1.11625658 15.84723216 0.67668467 11.03005401 -1 6 C-0.72428861 3.99124558 -0.39764263 1.98821313 0 0 Z " fill="#8A9CB0" transform="translate(508,526)"/>
<path d="M0 0 C7.26 0 14.52 0 22 0 C22 10.89 22 21.78 22 33 C20.515 32.505 20.515 32.505 19 32 C19 21.77 19 11.54 19 1 C12.73 1 6.46 1 0 1 C0 0.67 0 0.34 0 0 Z " fill="#E0E8F0" transform="translate(237,474)"/>
<path d="M0 0 C0.66 0.33 1.32 0.66 2 1 C1.35125916 2.13655029 0.70251831 3.27310059 0.03411865 4.4440918 C-2.24471042 9.02576884 -2.57830254 12.83939409 -2.54589844 17.89453125 C-2.55623611 18.7442601 -2.56657379 19.59398895 -2.57722473 20.46946716 C-2.60649135 23.25067526 -2.60814846 26.0311505 -2.609375 28.8125 C-2.62436757 30.75164159 -2.64109697 32.69077045 -2.65948486 34.62988281 C-2.70304963 39.71299855 -2.72313336 44.79594204 -2.73822021 49.87921143 C-2.75783054 55.07452533 -2.79979613 60.2696543 -2.83984375 65.46484375 C-2.91502806 75.64317197 -2.96539082 85.82145856 -3 96 C-3.33 96 -3.66 96 -4 96 C-4.24653906 84.22186281 -4.46579752 72.44356423 -4.65021229 60.66428089 C-4.73670125 55.19469458 -4.83259027 49.72560971 -4.94995117 44.2565918 C-5.06286037 38.97891449 -5.15109099 33.701349 -5.22220421 28.42294884 C-5.25367802 26.40896603 -5.29405154 24.39510205 -5.34345436 22.38147926 C-5.4111302 19.56116461 -5.44717482 16.74208605 -5.47583008 13.92114258 C-5.5031572 13.08820175 -5.53048431 12.25526093 -5.55863953 11.39707947 C-5.56748317 6.96294487 -5.41486946 5.50143229 -2.47026062 1.94242859 C-1.65507462 1.30142715 -0.83988861 0.66042572 0 0 Z " fill="#123358" transform="translate(737,299)"/>
<path d="M0 0 C0.66 0 1.32 0 2 0 C2.09886835 4.78712933 2.17146623 9.57366475 2.21972656 14.36157227 C2.23984381 15.99025829 2.26714137 17.61887208 2.30175781 19.24731445 C2.35027429 21.58823458 2.37296632 23.92820018 2.390625 26.26953125 C2.41127014 26.99775589 2.43191528 27.72598053 2.45318604 28.47627258 C2.45410156 30.53833008 2.45410156 30.53833008 2 34 C-0.02441406 35.9831543 -0.02441406 35.9831543 -2 37 C-1.88205478 31.89118974 -1.75782953 26.78258636 -1.62768555 21.67407227 C-1.58427427 19.93485712 -1.54260388 18.19559765 -1.50268555 16.45629883 C-1.44513232 13.96161512 -1.3813958 11.4671559 -1.31640625 8.97265625 C-1.29969376 8.19036148 -1.28298126 7.40806671 -1.26576233 6.60206604 C-1.11387171 1.11387171 -1.11387171 1.11387171 0 0 Z " fill="#25405B" transform="translate(363,566)"/>
<path d="M0 0 C7.26 0 14.52 0 22 0 C22 0.99 22 1.98 22 3 C14.74 3 7.48 3 0 3 C0 2.01 0 1.02 0 0 Z " fill="#E9F2F8" transform="translate(780,392)"/>
<path d="M0 0 C2.31 0 4.62 0 7 0 C7.02684679 2.64590014 7.04676357 5.29153096 7.0625 7.9375 C7.07087891 8.69224609 7.07925781 9.44699219 7.08789062 10.22460938 C7.09652441 12.14994313 7.05224333 14.07535581 7 16 C6 17 6 17 3.4375 17.0625 C2.633125 17.041875 1.82875 17.02125 1 17 C1.33 16.01 1.66 15.02 2 14 C2.66 14 3.32 14 4 14 C4 9.71 4 5.42 4 1 C2.68 0.67 1.36 0.34 0 0 Z " fill="#D0DBE3" transform="translate(683,378)"/>
<path d="M0 0 C1.48831242 0.00667405 2.97660807 0.01863442 4.46484375 0.03515625 C5.22345703 0.03966797 5.98207031 0.04417969 6.76367188 0.04882812 C8.64326246 0.06064945 10.52281274 0.07858547 12.40234375 0.09765625 C12.40234375 1.08765625 12.40234375 2.07765625 12.40234375 3.09765625 C5.47234375 3.09765625 -1.45765625 3.09765625 -8.59765625 3.09765625 C-7.27765625 2.43765625 -5.95765625 1.77765625 -4.59765625 1.09765625 C-3.59765625 0.09765625 -3.59765625 0.09765625 0 0 Z " fill="#E7F1F8" transform="translate(233.59765625,391.90234375)"/>
<path d="M0 0 C-1.34715071 3.0944452 -2.7517211 4.89221259 -5.375 7 C-8.06678085 9.21905074 -10.57113222 11.49016996 -13 14 C-14.66666667 15.66666667 -16.33333333 17.33333333 -18 19 C-16.60501079 14.82995203 -14.6536642 12.162892 -11.6875 8.9375 C-10.92824219 8.10089844 -10.16898437 7.26429688 -9.38671875 6.40234375 C-3.02601626 0 -3.02601626 0 0 0 Z " fill="#E5F0F6" transform="translate(489,279)"/>
<path d="M0 0 C2 2 2 2 2.13525391 5.16455078 C2.09292823 6.50851258 2.0392693 7.85214734 1.9765625 9.1953125 C1.95153656 9.90275604 1.92651062 10.61019958 1.90072632 11.33908081 C1.8184671 13.60153719 1.7219031 15.86312806 1.625 18.125 C1.56676631 19.65751658 1.5094629 21.19006881 1.453125 22.72265625 C1.31288005 26.4822698 1.15980243 30.241169 1 34 C0.67 34 0.34 34 0 34 C-0.16749457 29.47954554 -0.32806608 24.95891882 -0.48217773 20.43798828 C-0.53560391 18.89950922 -0.59093379 17.36109506 -0.64819336 15.82275391 C-0.73008748 13.61374914 -0.80517099 11.40460276 -0.87890625 9.1953125 C-0.90594131 8.50567413 -0.93297638 7.81603577 -0.96083069 7.10549927 C-1.11387171 2.22774341 -1.11387171 2.22774341 0 0 Z " fill="#435D79" transform="translate(589,544)"/>
<path d="M0 0 C0.33 0 0.66 0 1 0 C1 6.6 1 13.2 1 20 C0.34 20 -0.32 20 -1 20 C-1.33 20.66 -1.66 21.32 -2 22 C-2.05401695 19.08308475 -2.09368066 16.16717276 -2.125 13.25 C-2.14175781 12.425 -2.15851563 11.6 -2.17578125 10.75 C-2.18222656 9.95078125 -2.18867188 9.1515625 -2.1953125 8.328125 C-2.20578613 7.5949707 -2.21625977 6.86181641 -2.22705078 6.10644531 C-1.96777544 3.70103924 -1.19225925 2.08748506 0 0 Z " fill="#E0E7ED" transform="translate(355,325)"/>
<path d="M0 0 C2.64 0 5.28 0 8 0 C8 6.6 8 13.2 8 20 C6.68 19.67 5.36 19.34 4 19 C4.66 19 5.32 19 6 19 C6 13.72 6 8.44 6 3 C3.36 3 0.72 3 -2 3 C-1.34 2.01 -0.68 1.02 0 0 Z " fill="#274461" transform="translate(392,607)"/>
<path d="M0 0 C2 2 2 2 2.3125 4.9375 C1.96071821 8.38496151 1.53392479 8.85590979 -1 11 C-2.17574711 13.09989652 -2.17574711 13.09989652 -3 15 C-4.57156655 11.8568669 -3.11705576 9.634536 -2.0625 6.375 C-1.68222656 5.18648438 -1.30195313 3.99796875 -0.91015625 2.7734375 C-0.60980469 1.85820312 -0.30945313 0.94296875 0 0 Z " fill="#2F4C69" transform="translate(220,267)"/>
<path d="M0 0 C1.90001676 2.79414229 1.99542768 4.05121003 1.6875 7.5 C1.19359016 10.0144501 0.62149754 12.51400984 0 15 C-1.32 10.38 -2.64 5.76 -4 1 C-3.01 1.33 -2.02 1.66 -1 2 C-0.67 1.34 -0.34 0.68 0 0 Z " fill="#20415E" transform="translate(732,526)"/>
<path d="M0 0 C0.33 0 0.66 0 1 0 C1.33 5.28 1.66 10.56 2 16 C2.66 16 3.32 16 4 16 C4.33 18.97 4.66 21.94 5 25 C0.47646164 19.44838474 -0.28899955 14.74578839 -0.125 7.6875 C-0.11597656 6.94693359 -0.10695313 6.20636719 -0.09765625 5.44335938 C-0.07424213 3.62876533 -0.03837615 1.81433929 0 0 Z " fill="#BECBD7" transform="translate(586,356)"/>
<path d="M0 0 C0.66 0 1.32 0 2 0 C1.6875 1.875 1.6875 1.875 1 4 C0.01 4.66 -0.98 5.32 -2 6 C-2.309375 6.825 -2.61875 7.65 -2.9375 8.5 C-4 11 -4 11 -6.125 12.3125 C-7.053125 12.6528125 -7.053125 12.6528125 -8 13 C-6.44759763 8.03231242 -3.48945219 3.82132943 0 0 Z " fill="#DCE8EF" transform="translate(110,478)"/>
<path d="M0 0 C1.32 0 2.64 0 4 0 C4 0.66 4 1.32 4 2 C3.01 2.66 2.02 3.32 1 4 C0.42006301 6.19454681 0.42006301 6.19454681 0.3125 8.625 C0.21388672 9.85089844 0.21388672 9.85089844 0.11328125 11.1015625 C0.05720703 12.04128906 0.05720703 12.04128906 0 13 C-0.66 12.67 -1.32 12.34 -2 12 C-2 8.7 -2 5.4 -2 2 C-1.34 2 -0.68 2 0 2 C0 1.34 0 0.68 0 0 Z " fill="#294461" transform="translate(610,355)"/>
<path d="M0 0 C0.66 0.33 1.32 0.66 2 1 C2.8013619 3.85741085 3.49708506 6.66711443 4.125 9.5625 C4.30675781 10.36880859 4.48851562 11.17511719 4.67578125 12.00585938 C5.12467118 14.00223825 5.56329743 16.0009198 6 18 C4 17 4 17 3.21875 14.85546875 C2.9815625 13.97503906 2.744375 13.09460938 2.5 12.1875 C1.78598323 9.56038396 1.1412135 7.26095873 -0.15625 4.86328125 C-1 3 -1 3 0 0 Z " fill="#3F5870" transform="translate(157,368)"/>
<path d="M0 0 C0.66 0.33 1.32 0.66 2 1 C4.38056989 8.64288227 4.38056989 8.64288227 3 13 C1.5 11.8125 1.5 11.8125 0 10 C-0.125 7.4375 -0.125 7.4375 0 5 C-0.33 4.34 -0.66 3.68 -1 3 C-0.67 2.01 -0.34 1.02 0 0 Z " fill="#C9D4DE" transform="translate(147,261)"/>
<path d="M0 0 C2.97 0 5.94 0 9 0 C9 0.33 9 0.66 9 1 C13.29 1.33 17.58 1.66 22 2 C22 2.33 22 2.66 22 3 C19.4580411 3.05434116 16.91726318 3.0938339 14.375 3.125 C13.66214844 3.14175781 12.94929687 3.15851562 12.21484375 3.17578125 C7.7387836 3.21684602 4.22050722 2.69086567 0 1 C0 0.67 0 0.34 0 0 Z " fill="#284461" transform="translate(629,609)"/>
<path d="M0 0 C0.66 0.33 1.32 0.66 2 1 C1.67 2.32 1.34 3.64 1 5 C1.66 5 2.32 5 3 5 C5.09230769 9.43076923 5.09230769 9.43076923 4.625 12.3125 C4.41875 12.869375 4.2125 13.42625 4 14 C3.34 13.01 2.68 12.02 2 11 C1.46375 10.21625 0.9275 9.4325 0.375 8.625 C-1.11839738 5.77396864 -1.35190455 4.16714098 -1 1 C-0.67 0.67 -0.34 0.34 0 0 Z " fill="#24405D" transform="translate(749,581)"/>
<path d="M0 0 C0.66 0.33 1.32 0.66 2 1 C0.35 1.66 -1.3 2.32 -3 3 C-3 3.66 -3 4.32 -3 5 C-6.13498292 6.85776765 -8.37471432 7.20140476 -12 7 C-8.18660874 3.64883798 -4.7349034 1.6974182 0 0 Z " fill="#C6D4DD" transform="translate(324,559)"/>
<path d="M0 0 C1.98 0.99 1.98 0.99 4 2 C3.67 3.65 3.34 5.3 3 7 C8.28 7 13.56 7 19 7 C19 7.33 19 7.66 19 8 C13.39 8 7.78 8 2 8 C1.34 5.36 0.68 2.72 0 0 Z " fill="#CADAE9" transform="translate(163,387)"/>
<path d="M0 0 C0.66 0 1.32 0 2 0 C1.54857225 1.77260631 1.08859477 3.5430368 0.625 5.3125 C0.24214844 6.79169922 0.24214844 6.79169922 -0.1484375 8.30078125 C-1 11 -1 11 -3 14 C-3 11.03 -3 8.06 -3 5 C-2.34 5 -1.68 5 -1 5 C-0.67 3.35 -0.34 1.7 0 0 Z " fill="#193856" transform="translate(765,554)"/>
<path d="M0 0 C1.57035335 2.49409061 2.0274945 3.70443416 1.75 6.6875 C1.5025 7.450625 1.255 8.21375 1 9 C0.01 9.495 0.01 9.495 -1 10 C-1.65555119 12.52733235 -1.65555119 12.52733235 -2 15 C-2.66 15 -3.32 15 -4 15 C-3.52396226 12.87429688 -3.04407402 10.74945573 -2.5625 8.625 C-2.29566406 7.44164062 -2.02882812 6.25828125 -1.75390625 5.0390625 C-1 2 -1 2 0 0 Z " fill="#3F5973" transform="translate(202,327)"/>
<path d="M0 0 C0.28875 0.639375 0.5775 1.27875 0.875 1.9375 C1.82823451 4.15206079 1.82823451 4.15206079 4 5 C3.67 8.3 3.34 11.6 3 15 C1.33407905 11.66815811 0.51283174 9.37734654 -0.1875 5.8125 C-0.36667969 4.93207031 -0.54585937 4.05164063 -0.73046875 3.14453125 C-0.81941406 2.43683594 -0.90835938 1.72914063 -1 1 C-0.67 0.67 -0.34 0.34 0 0 Z " fill="#24415E" transform="translate(144,244)"/>
<path d="M0 0 C1.26328125 0.02707031 2.5265625 0.05414062 3.828125 0.08203125 C4.79234375 0.11683594 5.7565625 0.15164063 6.75 0.1875 C1.14004157 3.92747229 -4.72300069 3.30156407 -11.25 3.1875 C-7.67487951 -0.25219926 -4.83224625 -0.13422906 0 0 Z " fill="#3C576F" transform="translate(341.25,609.8125)"/>
<path d="M0 0 C0.99 0.495 0.99 0.495 2 1 C2 1.99 2 2.98 2 4 C2.99 3.67 3.98 3.34 5 3 C5 5.64 5 8.28 5 11 C4.34 11 3.68 11 3 11 C2.49632243 9.54293274 1.99717444 8.08429904 1.5 6.625 C1.2215625 5.81289063 0.943125 5.00078125 0.65625 4.1640625 C0 2 0 2 0 0 Z " fill="#425A70" transform="translate(171,342)"/>
<path d="M0 0 C2.95327501 1.4766375 3.6228876 2.99539113 5 6 C5.24772413 9.01818987 5.17769468 11.97919037 5 15 C2.32449708 12.32449708 2.16790611 10.05120106 1.375 6.375 C0.98441406 4.59222656 0.98441406 4.59222656 0.5859375 2.7734375 C0.39257812 1.85820312 0.19921875 0.94296875 0 0 Z " fill="#CCD7E2" transform="translate(143,319)"/>
<path d="M0 0 C0.66 0.33 1.32 0.66 2 1 C0.70700306 3.88437779 -0.65941363 5.87219421 -3 8 C-3.99 7.67 -4.98 7.34 -6 7 C-4.02 4.69 -2.04 2.38 0 0 Z " fill="#22405E" transform="translate(317,532)"/>
<path d="M0 0 C0.66 0.33 1.32 0.66 2 1 C-0.77611933 4.59867321 -3.61248087 7.95991873 -7 11 C-7.99 11 -8.98 11 -10 11 C-8.52116808 9.35386588 -7.04192523 7.70810092 -5.5625 6.0625 C-4.73878906 5.14597656 -3.91507813 4.22945312 -3.06640625 3.28515625 C-1 1 -1 1 0 0 Z " fill="#DCE7F0" transform="translate(610,514)"/>
<path d="M0 0 C-4.66713252 3.833716 -8.02828335 4.13572083 -14 4 C-13.67 3.34 -13.34 2.68 -13 2 C-10.68925595 1.25881795 -8.35188447 0.59793673 -6 0 C-5.236875 -0.226875 -4.47375 -0.45375 -3.6875 -0.6875 C-2 -1 -2 -1 0 0 Z " fill="#354F6B" transform="translate(665,626)"/>
<path d="M0 0 C0.33 0 0.66 0 1 0 C1.05447047 1.41623216 1.09300508 2.83308191 1.125 4.25 C1.14820313 5.03890625 1.17140625 5.8278125 1.1953125 6.640625 C0.97533435 9.2979611 0.53509841 10.81803622 -1 13 C-3.125 13.75 -3.125 13.75 -5 14 C-4.72285156 13.49210938 -4.44570312 12.98421875 -4.16015625 12.4609375 C-1.9665317 8.2922702 -0.47586845 4.75868447 0 0 Z " fill="#D3DCE4" transform="translate(186,587)"/>
<path d="M0 0 C2.17766075 4.35532149 2.03039555 5.46625958 1 10 C0.01 10 -0.98 10 -2 10 C-1.34 6.7 -0.68 3.4 0 0 Z M2 0 C3 4 3 4 3 4 Z " fill="#173757" transform="translate(209,590)"/>
<path d="M0 0 C0.99 0.33 1.98 0.66 3 1 C3.33 1.99 3.66 2.98 4 4 C-0.455 5.485 -0.455 5.485 -5 7 C-5 6.01 -5 5.02 -5 4 C-3.35 3.34 -1.7 2.68 0 2 C0 1.34 0 0.68 0 0 Z " fill="#183755" transform="translate(128,463)"/>
<path d="M0 0 C-0.99 0.33 -1.98 0.66 -3 1 C-3 1.66 -3 2.32 -3 3 C-8.28 2.67 -13.56 2.34 -19 2 C-19 1.67 -19 1.34 -19 1 C-16.95857606 0.83038614 -14.91684689 0.66444404 -12.875 0.5 C-11.16957031 0.36078125 -11.16957031 0.36078125 -9.4296875 0.21875 C-6.27402851 0.0174779 -3.16078835 -0.03842904 0 0 Z " fill="#3A536C" transform="translate(338,396)"/>
<path d="M0 0 C2.475 0.495 2.475 0.495 5 1 C4.67 3.31 4.34 5.62 4 8 C2.68 7.34 1.36 6.68 0 6 C0 4.02 0 2.04 0 0 Z " fill="#133356" transform="translate(173,340)"/>
<path d="M0 0 C2.97 1.98 2.97 1.98 6 4 C5.01 4.495 5.01 4.495 4 5 C4 5.66 4 6.32 4 7 C2.35 6.67 0.7 6.34 -1 6 C-0.67 4.02 -0.34 2.04 0 0 Z " fill="#0E3253" transform="translate(337,294)"/>
<path d="M0 0 C3.67420866 0.30618405 4.78135513 0.75771784 7.3125 3.5625 C8.1478125 4.7690625 8.1478125 4.7690625 9 6 C8.34 6.66 7.68 7.32 7 8 C5.66666667 6.66666667 4.33333333 5.33333333 3 4 C2.4225 3.443125 1.845 2.88625 1.25 2.3125 C0 1 0 1 0 0 Z " fill="#193553" transform="translate(475,523)"/>
<path d="M0 0 C0.33 0 0.66 0 1 0 C1 1.98 1 3.96 1 6 C2.65 6 4.3 6 6 6 C4.3545622 7.68762851 2.68711423 9.3540349 1 11 C0.67 11 0.34 11 0 11 C0 7.37 0 3.74 0 0 Z " fill="#102A49" transform="translate(440,507)"/>
<path d="M0 0 C0.33 0.66 0.66 1.32 1 2 C-0.4726862 5.27263601 -1.42695432 6.72014048 -4.6875 8.3125 C-5.450625 8.539375 -6.21375 8.76625 -7 9 C-2.85714286 2.57142857 -2.85714286 2.57142857 0 0 Z " fill="#183854" transform="translate(429,303)"/>
<path d="M0 0 C1.52593049 2.83202353 2.51690246 5.4936262 3.25 8.625 C3.44078125 9.40101563 3.6315625 10.17703125 3.828125 10.9765625 C3.91320312 11.97816406 3.91320312 11.97816406 4 13 C3.34 13.66 2.68 14.32 2 15 C0.05909174 13.05909174 0.60080565 9.52706098 0.4375 6.9375 C0.35371094 5.64714844 0.26992187 4.35679687 0.18359375 3.02734375 C0.12300781 2.02832031 0.06242187 1.02929688 0 0 Z " fill="#1B3451" transform="translate(124,256)"/>
<path d="M0 0 C0.66 0.33 1.32 0.66 2 1 C1.01 3.97 0.02 6.94 -1 10 C-3 7 -3 7 -2.75 3.875 C-2.37875 2.451875 -2.37875 2.451875 -2 1 C-1.34 0.67 -0.68 0.34 0 0 Z " fill="#E9F2F7" transform="translate(765,614)"/>
<path d="M0 0 C1.15957207 3.47871621 0.77456651 4.34219645 -0.4375 7.6875 C-0.72496094 8.49574219 -1.01242187 9.30398438 -1.30859375 10.13671875 C-1.53675781 10.75160156 -1.76492188 11.36648438 -2 12 C-2.99 11.34 -3.98 10.68 -5 10 C-4.67 9.34 -4.34 8.68 -4 8 C-3.34 8 -2.68 8 -2 8 C-2.226875 7.4225 -2.45375 6.845 -2.6875 6.25 C-3 4 -3 4 -1.5625 1.75 C-1.046875 1.1725 -0.53125 0.595 0 0 Z " fill="#D6E2EA" transform="translate(773,593)"/>
<path d="M0 0 C0.33 0.66 0.66 1.32 1 2 C0.67 2.66 0.34 3.32 0 4 C0.66 4.33 1.32 4.66 2 5 C0.33333333 6.66666667 -1.33333333 8.33333333 -3 10 C-3.75 7.8125 -3.75 7.8125 -4 5 C-2.0625 2.1875 -2.0625 2.1875 0 0 Z " fill="#173754" transform="translate(127,491)"/>
<path d="M0 0 C0.33 0 0.66 0 1 0 C1.24927162 2.58281438 1.47499275 5.16412228 1.6875 7.75 C1.76033203 8.47960937 1.83316406 9.20921875 1.90820312 9.9609375 C2.28849464 14.88235706 2.11981749 15.84024334 -1 20 C-0.67 13.4 -0.34 6.8 0 0 Z " fill="#C4D1DF" transform="translate(543,385)"/>
<path d="M0 0 C0.99 0.33 1.98 0.66 3 1 C1.76302083 2.46484375 0.52604167 3.9296875 -0.7109375 5.39453125 C-1.89201099 6.8655046 -2.95358529 8.43037794 -4 10 C-4.66 10 -5.32 10 -6 10 C-4.6302836 6.00499382 -2.74277578 3.19990508 0 0 Z " fill="#D0DCE5" transform="translate(595,340)"/>
<path d="M0 0 C0 4.29525524 -2.23382207 5.83865379 -5 9 C-5.99 10.485 -5.99 10.485 -7 12 C-7.66 12 -8.32 12 -9 12 C-7.55575365 8.76138697 -5.74227753 6.38030837 -3.375 3.75 C-2.74335938 3.04359375 -2.11171875 2.3371875 -1.4609375 1.609375 C-0.97882813 1.07828125 -0.49671875 0.5471875 0 0 Z " fill="#D6E2EC" transform="translate(431,280)"/>
<path d="M0 0 C2.02558881 3.34939881 2.21738987 5.86962551 2.125 9.75 C2.10695313 10.73484375 2.08890625 11.7196875 2.0703125 12.734375 C2.04710937 13.48203125 2.02390625 14.2296875 2 15 C1.67 15 1.34 15 1 15 C0.7834375 13.6078125 0.7834375 13.6078125 0.5625 12.1875 C0.07899889 8.99274889 0.07899889 8.99274889 -1 6 C-0.72428861 3.99124558 -0.39764263 1.98821313 0 0 Z " fill="#BECAD5" transform="translate(508,526)"/>
<path d="M0 0 C0.66 0 1.32 0 2 0 C3.2077558 3.62326739 2.54311128 4.64146369 1 8 C0.01 8 -0.98 8 -2 8 C-1.34 5.36 -0.68 2.72 0 0 Z " fill="#223D59" transform="translate(563,411)"/>
<path d="M0 0 C4.92307692 4.18461538 4.92307692 4.18461538 5.3125 8.3125 C5.209375 9.199375 5.10625 10.08625 5 11 C4.34 10.67 3.68 10.34 3 10 C3 8.68 3 7.36 3 6 C2.34 6 1.68 6 1 6 C0.67 4.02 0.34 2.04 0 0 Z " fill="#DCE5E9" transform="translate(667,542)"/>
<path d="M0 0 C-2.8125 2.0625 -2.8125 2.0625 -6 4 C-6.99 3.67 -7.98 3.34 -9 3 C-6.27596221 -1.08605669 -4.4643819 -1.38549783 0 0 Z " fill="#213F5A" transform="translate(635,524)"/>
<path d="M0 0 C0.33 1.32 0.66 2.64 1 4 C1.99 5.485 1.99 5.485 3 7 C1.02 8.32 -0.96 9.64 -3 11 C-2.01 7.37 -1.02 3.74 0 0 Z " fill="#2A4663" transform="translate(804,509)"/>
<path d="M0 0 C-6.625 4 -6.625 4 -10 4 C-9 1 -9 1 -6.6875 -0.25 C-3.90126985 -1.0275526 -2.66561622 -0.98726527 0 0 Z " fill="#153450" transform="translate(610,331)"/>
<path d="M0 0 C1.32 0.33 2.64 0.66 4 1 C1.31158141 3.25245881 -0.64641875 4.88213958 -4 6 C-4.66 5.34 -5.32 4.68 -6 4 C-4.68 4 -3.36 4 -2 4 C-2 3.34 -2 2.68 -2 2 C-1.34 2 -0.68 2 0 2 C0 1.34 0 0.68 0 0 Z " fill="#1B3957" transform="translate(177,600)"/>
<path d="M0 0 C0.66 0.33 1.32 0.66 2 1 C-2.296875 5.00390625 -2.296875 5.00390625 -4 6 C-6.203125 5.65234375 -6.203125 5.65234375 -8 5 C-6.71475739 4.13619741 -5.42157581 3.28419631 -4.125 2.4375 C-3.04605469 1.72400391 -3.04605469 1.72400391 -1.9453125 0.99609375 C-1.30335938 0.66738281 -0.66140625 0.33867187 0 0 Z " fill="#D9E5EC" transform="translate(608,331)"/>
<path d="M0 0 C0.99 0 1.98 0 3 0 C3.625 3.375 3.625 3.375 4 7 C3.34 7.66 2.68 8.32 2 9 C1.34 6.03 0.68 3.06 0 0 Z " fill="#1F3C5C" transform="translate(371,305)"/>
<path d="M0 0 C0.66 0.33 1.32 0.66 2 1 C-0.31 3.97 -2.62 6.94 -5 10 C-5.33 9.34 -5.66 8.68 -6 8 C-4.02 5.36 -2.04 2.72 0 0 Z " fill="#D4DFE8" transform="translate(477,288)"/>
<path d="M0 0 C0.6875 2.0625 0.6875 2.0625 1 4 C-4.75 2.25 -4.75 2.25 -7 0 C-3.98968256 -0.93423645 -3.13349732 -1.04449911 0 0 Z " fill="#24415F" transform="translate(343,273)"/>
<path d="M0 0 C0.66 0.33 1.32 0.66 2 1 C2 1.66 2 2.32 2 3 C-0.8125 4.5625 -0.8125 4.5625 -4 6 C-4.99 5.67 -5.98 5.34 -7 5 C-4.69 3.35 -2.38 1.7 0 0 Z " fill="#25415C" transform="translate(326,526)"/>
<path d="M0 0 C-4.625 4 -4.625 4 -8 4 C-7.67 3.01 -7.34 2.02 -7 1 C-4.53721199 -0.231394 -2.7204945 -0.07159196 0 0 Z " fill="#E4EEF1" transform="translate(544,384)"/>
<path d="M0 0 C0.66 0 1.32 0 2 0 C1.34 2.97 0.68 5.94 0 9 C-2 6 -2 6 -1.6875 3.375 C-1 1 -1 1 0 0 Z " fill="#103454" transform="translate(188,301)"/>
<path d="M0 0 C1.90318884 2.85478326 2.4619099 4.41941308 3.125 7.6875 C3.29257813 8.49574219 3.46015625 9.30398438 3.6328125 10.13671875 C3.75398437 10.75160156 3.87515625 11.36648438 4 12 C2.68 11.34 1.36 10.68 0 10 C0 6.7 0 3.4 0 0 Z " fill="#446078" transform="translate(131,279)"/>
<path d="M0 0 C0.33 0 0.66 0 1 0 C1 1.65 1 3.3 1 5 C2.98 5.495 2.98 5.495 5 6 C3.625 7.5 3.625 7.5 2 9 C1.34 9 0.68 9 0 9 C0 6.03 0 3.06 0 0 Z " fill="#1A365A" transform="translate(733,276)"/>
<path d="M0 0 C0 4.38968456 -2.12805101 5.76905739 -5 9 C-5.66 8.67 -6.32 8.34 -7 8 C-3.375 2.25 -3.375 2.25 0 0 Z " fill="#1C3955" transform="translate(625,527)"/>
<path d="M0 0 C-0.33 0.66 -0.66 1.32 -1 2 C-4.96 1.67 -8.92 1.34 -13 1 C-13 0.67 -13 0.34 -13 0 C-11.58456585 -0.19658808 -10.16755969 -0.38187546 -8.75 -0.5625 C-7.96109375 -0.66691406 -7.1721875 -0.77132813 -6.359375 -0.87890625 C-3.99467126 -1.00027349 -2.2488963 -0.69633257 0 0 Z " fill="#D4DFE9" transform="translate(637,381)"/>
<path d="M0 0 C0.33 0 0.66 0 1 0 C1 2.97 1 5.94 1 9 C0.01 9 -0.98 9 -2 9 C-1.34 6.03 -0.68 3.06 0 0 Z " fill="#1D3651" transform="translate(223,258)"/>
<path d="M0 0 C1.98 1.65 3.96 3.3 6 5 C5.34 5.66 4.68 6.32 4 7 C2.35 5.35 0.7 3.7 -1 2 C-0.67 1.34 -0.34 0.68 0 0 Z " fill="#143354" transform="translate(603,613)"/>
<path d="M0 0 C0.33 0 0.66 0 1 0 C1 1.98 1 3.96 1 6 C0.01 6.33 -0.98 6.66 -2 7 C-2.33 7.99 -2.66 8.98 -3 10 C-3.33 9.34 -3.66 8.68 -4 8 C-3.22265625 6.0546875 -3.22265625 6.0546875 -2.0625 3.875 C-1.49208984 2.78832031 -1.49208984 2.78832031 -0.91015625 1.6796875 C-0.60980469 1.12539063 -0.30945313 0.57109375 0 0 Z " fill="#1D3B59" transform="translate(206,600)"/>
<path d="M0 0 C0 0.66 0 1.32 0 2 C0.66 2 1.32 2 2 2 C2.33 3.32 2.66 4.64 3 6 C2.01 6 1.02 6 0 6 C-0.103125 5.360625 -0.20625 4.72125 -0.3125 4.0625 C-0.539375 3.381875 -0.76625 2.70125 -1 2 C-1.99 1.67 -2.98 1.34 -4 1 C-2 0 -2 0 0 0 Z " fill="#DBE6ED" transform="translate(112,584)"/>
<path d="M0 0 C4.875 4.625 4.875 4.625 6 8 C5.34 8 4.68 8 4 8 C4 7.34 4 6.68 4 6 C3.01 5.67 2.02 5.34 1 5 C0.67 3.35 0.34 1.7 0 0 Z " fill="#D1DCE7" transform="translate(678,521)"/>
<path d="M0 0 C0.66 0.99 1.32 1.98 2 3 C1.125 5.6875 1.125 5.6875 0 8 C-0.99 8 -1.98 8 -3 8 C-1.125 2.25 -1.125 2.25 0 0 Z " fill="#C3D0DB" transform="translate(473,423)"/>
<path d="M0 0 C2.97 0.33 5.94 0.66 9 1 C8.67 1.99 8.34 2.98 8 4 C5.64828869 3.40138258 3.3140622 2.73075648 1 2 C0.67 1.34 0.34 0.68 0 0 Z " fill="#C9D5E0" transform="translate(295,390)"/>
<path d="M0 0 C1.65 0 3.3 0 5 0 C2.63707344 2.52588702 1.33537489 3.88820837 -2 5 C-1.34 3.35 -0.68 1.7 0 0 Z " fill="#DDE8EE" transform="translate(651,384)"/>
<path d="M0 0 C-0.66 0 -1.32 0 -2 0 C-2 0.66 -2 1.32 -2 2 C-4.97 2 -7.94 2 -11 2 C-7.72338241 -1.27661759 -4.29690696 -1.43230232 0 0 Z " fill="#566D83" transform="translate(649,337)"/>
<path d="M0 0 C0.99 0.33 1.98 0.66 3 1 C2.67 2.65 2.34 4.3 2 6 C1.67 5.34 1.34 4.68 1 4 C0.01 3.67 -0.98 3.34 -2 3 C-1.34 2.01 -0.68 1.02 0 0 Z " fill="#173A59" transform="translate(178,331)"/>
<path d="M0 0 C0.66 0.99 1.32 1.98 2 3 C0.625 6.6875 0.625 6.6875 -1 10 C-1.66 9.67 -2.32 9.34 -3 9 C-2.01 6.03 -1.02 3.06 0 0 Z " fill="#1E3B56" transform="translate(298,305)"/>
</svg>
