<?xml version="1.0" encoding="UTF-8"?>
<svg version="1.1" viewBox="0 0 1520 1524" width="1280" height="1280" xmlns="http://www.w3.org/2000/svg">
<path transform="translate(0)" d="m0 0h1520v1524h-1520z" fill="#01303B"/>
<path transform="translate(776,423)" d="m0 0h7l13 4 12 7 10 9 9 12 8 15 8 24 2 10 1 1 19 3 37 7 30 8 35 12 27 11 24 11 22 12 16 9 19 12 16 11 16 12 22 18 13 11-1 5-8 8-13 10-15 10-27 14-19 7-14 4-23 4-13 1h-11l-25-4-21-6-26-11-16-9 9 21 14 38 6 17 1 5v16l-5 10-9 10-8 6-9 3h-14l-11-4-9-7-7-10-8-19-15-41-6-20-2-1-2 5h-3l-1 11-5 35-6 31-3 17-5 24-4 18-4 9-7 8-7 4-4 1h-13l-8-3-8-7-4-9-5-19-5-24-5-27-8-45-3-15-1-7h1v-14l-1 2h-2l-1 3-1-2 2-6 5-2v-2l3-2v-19l2-4 1 3-1 2v10l2 12 39 1h39l10-1 2-11v-12l-5-11-10-25-7-20-10-27-5-12-1-4v-8l2-1 3 3 1 4 5 2 3 3 10 25 13 38 3 5v2l2-1 2-25 1-9-12-16-10-16-6-9-2-13-4-1-4-7-8-4-1-1v-11l3-5 7-2-3-7h-4l-2 5-4 4-5 1-5-2-1-3h-2l-1-4-4-2-3 9 8 1 3 3v9l-2 5-4 2-1 2-4 1-5 7h-3v11l-5 7h-2l-1 5h-7l1-7 18-27 5-4v-8l-1-4h-2v-2l-3 1-13-4-4-3-11-1-4 1-2 9v59l2 9 2-2 2 3-1 5-4 10-6 4-6 5h-2v3l-8 7-4 1h-2v-5l11-13 7-7 1-2v-9l-1-7-1-43-3 3-10 25-3 10-4 9-7 20-8 20-2 7v5l6-1-1 4-4 2 1 5-12 12-3 4-7 2-4-1-3-2 2-5 6-5h2l2-13 7-19 17-46 14-37 7-16 1-5-27 4-36 8-31 9-25 9-19 8-24 11-27 14-23 14-22 15-12 9-13 10-14 12-1 4 14 11 13 8 23 12 20 7 15 4 28 4h16l27-4 19-6 17-7 2 1-4 4-10 5-3 3 2 2 6-2h4l1-3 7-2v-2l13-5 4-2h5l1 3-5 7-1-2 2-6-16 8-17 8-21 7-26 5-11 1h-13l-21-3-27-7-24-10-19-10-17-12-14-11-6-6 1-4 9-8 11-9 12-10 16-12 27-18 20-12 24-13 22-11 29-12 22-8 26-8 32-8 35-7 12-1 3-16 7-19 9-17 9-11 7-7 11-7 10-4z" fill="#D8534F"/>
<path transform="translate(765,510)" d="m0 0 5 2v4h2l2 3 6 1 5-2 4-7 4-1 3 5 1 4-2 1h-6l-2 5v11l8 4 3 4 2 4 3 1 4 15 18 27 9 12-1 9-2 25-3 1-6-12-12-36-9-22v-2l-5-2-3-3-1-4h-3v8l5 14 10 26 7 19 5 14 9 22 2 4v12l-2 11-1 1-10 1h-39l-39-1-2-7-1-6v-10-1 20l-4 1v2l-5 2-2 9-4 8-7 23-6 17-7 20-8 16-8 10-9 6-8 3h-15l-12-5-10-9-7-11-2-7v-9l3-13 14-36 10-27 5-5 1-4h-5l-12 5-5 1v2l-7 3-1 2-11 3v-2l-2-1v-3l7-2 4-3 5-2v-2l-22 9-14 4-27 4h-16l-28-4-19-5-20-8-23-12-14-10-10-8 1-4 10-9 14-11 13-10 30-20 15-9 24-13 25-12 19-8 30-11 23-7 39-9 23-4h9l-1 8-8 18-26 70-8 22-3 8-2 10-8 6-1 4 5 2 4-1 5-2 7-8 6-7v-4l4-3 1-3-6 2-1-1 1-8 15-40 4-12 3-7 6-17 6-13 3-3 1 1 1 43 1 7v9l-7 8-10 11-2 5-1 3 6-2 4-2 2-4h2v-3l12-9h2l1-6 3-6-1-4-3 1-1-6-1-5v-58l2-9 5-2 11 1 6 4 12 3h2v2h2l2 4v8l-6 5-11 17-6 9-1 6 5-1 7-8 1-6 1-7h3l2-5 5-4 2 1 2-4 3-1 1-4v-9l-5-3-5-1z" fill="#D8534E"/>
<path transform="translate(658,973)" d="m0 0h26l17 3 12 4 16 8 11 8 10 9 6 7 8 13 7 16 4 19 1 18-2 16-4 16-9 19-10 13-11 11-10 7-17 8-13 4-15 2h-31l-14-3-16-6-14-8-12-11-8-8-10-16-7-16-3-14-1-9v-18l3-19 3-9 6-14 10-15 9-10 14-10 14-7 10-4z" fill="#EC5859"/>
<path transform="translate(698,519)" d="m0 0h9l-1 8-8 18-26 70-8 22-3 8-2 10-12 9-16 9-15 7-20 7-18 4-16 2h-16l-28-4-19-5-20-8-23-12-14-10-10-8 1-4 10-9 14-11 13-10 30-20 15-9 24-13 25-12 19-8 30-11 23-7 39-9z" fill="#01303B"/>
<path transform="translate(852,519)" d="m0 0 14 1 22 4 30 7 30 9 25 9 32 14 28 14 19 11 24 15 20 14 16 12 17 14-2 4-18 13-15 9-16 8-18 7-23 6-21 3h-15l-18-2-19-4-21-7-19-9-17-10-4-5-4-10-13-36-14-38-11-30-8-19z" fill="#01303B"/>
<path transform="translate(421,977)" d="m0 0h45l18 1 15 3 14 7 12 11 6 8 5 11 2 9v20l-5 13-6 9-9 10-15 9-7 2 1 4 10 12 8 11 28 38 10 12 1 3-2 1h-41l-5-2-26-39-22-32-4-4-3-1 1 54v22l-1 1-22 1-16-1v-192z" fill="#EC5859"/>
<path transform="translate(788,525)" d="m0 0 1 2 3-1v2h2v2h2l2 4 5 5 8 13 19 28 6 8 1-8v-24l3-3 2 3v13l1 4v13l-2 5 3 9 3 6-6-1-4 3-1-1 1 33 2 4 2-4-1 11-1 5v12l8 22 12 31 16 44 5 12 5 6 10 6 2 1h9l12-6 5-5 5-7 1-10-3-10 1-3 4 8v14l-6 10-4 4v6h-2v2l4-1 2-4 5-6 3-3h2l3-10v-11l-4-15-2-5 1-4 6 17 1 5v16l-5 10-9 10-8 6-9 3h-14l-11-4-9-7-7-10-8-19-15-41-6-20-2-1-2 5h-3l-1 11-5 35-6 31-3 17-5 24-4 18-4 9-7 8-7 4-4 1h-13l-8-3-8-7-4-9-5-19-5-24-5-27-8-45-3-15-1-7h1v-14l-1 2h-2l-1 3-1-2 2-6 5-2v-2l3-2v-19l2-4 1 3-1 2v10l2 12 39 1h39l10-1 2-11v-12l-5-11-10-25-7-20-10-27-5-12-1-4v-8l2-1 3 3 1 4 5 2 3 3 10 25 13 38 3 5v2l2-1 2-25 1-9-3-4 1-2 3 2-1-5-7-9 2-1-3-2v-2l-4-4v-2l-2-2-2-4-4-4v-3l-2-1-4-6-2-1-3-9-2-1v-3h-2l-2-6-8-1-1-7z" fill="#C8514E"/>
<path transform="translate(811,977)" d="m0 0h53l19 1 14 3 14 7 11 10 7 11 5 12 3 10v15l-5 17-5 10-8 10-9 7-10 5-12 3-18 2-22 1v68l-1 1-14 1h-21l-4-1v-191z" fill="#EC5859"/>
<path transform="translate(108,977)" d="m0 0h43l22 1 16 3 14 7 11 10 7 11 5 11 2 11v17l-4 16-6 11-10 11-12 7-16 5-23 2-17 1v67l-1 2h-38l-1-136v-55l1-1z" fill="#EC5859"/>
<path transform="translate(1294,977)" d="m0 0h40l5 3 8 13 13 23 9 16h5l2-4 30-50 2-1h41l2 1-2 5-13 20-14 22-21 32-7 10 1 4 7 11 10 15 13 20 14 22 18 27v4l-14 1h-26l-5-3-9-15-14-23-10-16-6-9-4-1-8 14-9 14-22 34-3 4-5 1h-40l1-5 11-15 44-66 9-13 1-7-9-13-15-24-12-19-13-20-6-9z" fill="#EC5859"/>
<path transform="translate(287,977)" d="m0 0h27l52 1 3 1 1 12v17l-1 1-17 1h-52v13l1 29h46l20 1v31l-4 1h-63v52h35l33 1 1 1 1 11v19l-1 1-24 1h-80l-3-1v-191l1-1z" fill="#EB5859"/>
<path transform="translate(660,1008)" d="m0 0h24l11 3 16 8 9 8 9 14 5 12 3 13v13l-3 14-3 10-7 12-9 10-10 7-11 5-10 3h-23l-14-4-13-7-10-9-7-10-5-11-4-13v-24l6-18 7-12 13-13 14-8z" fill="#01303B"/>
<path transform="translate(1104,977)" d="m0 0h38l5 3 7 10 16 26 10 16 4 7v2l4-1 7-10 7-11 13-21 12-19 3-2h37l4 1-1 5-11 17-9 14-13 20-10 15-13 21-7 10-2 3v86l-1 1h-37l-1-89-11-18-16-25-15-24-22-34v-2z" fill="#EB5859"/>
<path transform="translate(776,423)" d="m0 0h7l13 4 12 7 10 9 9 12 5 9 1 6-4-1v-2l-2-1 1-2-5-2-1-4-4-1-1-4-3-3-4-2-4-4-13-6-6-2h-13l-11 4-6 4-10 9-5 7-8 20-3 9h-2l-2 10-2 6 12-1h58l-1 5-5 2-2 5-4 4-5 1-5-2-1-3h-2l-1-4-4-2-3 9 8 1 3 3v9l-2 5-4 2-1 2-4 1-5 7h-3v11l-5 7h-2l-1 5h-7l1-7 18-27 5-4v-8l-1-4h-2v-2l-3 1-13-4-4-3-11-1-4 1-2 9v59l2 9 2-2 2 3-1 5-4 10-6 4-6 5h-2v3l-8 7-4 1h-2v-5l11-13 7-7 1-2v-9l-1-7-1-43-3 3-10 25-3 10-4 9-7 20-8 20-2 7v5l6-1-1 4-4 2 1 5-12 12-3 4-7 2-4-1-3-2 2-5 6-5h2l2-13 7-19 17-46 14-37 7-16 1-5-27 4-36 8-31 9-25 9-19 8-24 11-27 14-23 14-22 15-12 9-13 10-14 12-1 4 14 11 13 8 23 12 20 7 15 4 28 4h16l27-4 19-6 17-7 2 1-4 4-10 5-3 3 2 2 6-2h4l1-3 7-2v-2l13-5 4-2h5l1 3-5 7-1-2 2-6-16 8-17 8-21 7-26 5-11 1h-13l-21-3-27-7-24-10-19-10-17-12-14-11-6-6 1-4 9-8 11-9 12-10 16-12 27-18 20-12 24-13 22-11 29-12 22-8 26-8 32-8 35-7 12-1 3-16 7-19 9-17 9-11 7-7 11-7 10-4z" fill="#D7534F"/>
<path transform="translate(765,510)" d="m0 0 5 2v4h2l2 3 6 1 5-2 4-7 4-1 3 5 1 4-2 1h-6l-2 5v11l8 4 3 4 2 4 3 1 4 15 18 27 9 12-1 9-2 25-3 1-6-12-12-36-9-22v-2l-5-2-3-3-1-4h-3v8l5 14 10 26 7 19 5 14 9 22 2 4v12l-2 11-1 1-10 1h-39l-39-1-2-7-1-6v-10l6-15 8-22 6-17 13-35 3-10 1-11-3-2-2 6-8 19-3 10h-2l-1 5h-2l-3 10-4 11-6 18-4 6-4 1-1-2v-23l-2-10 13-19 8-11 8-13 3-8 4-7 7-9 3-1 1-4v-9l-5-3-5-1z" fill="#01303B"/>
<path transform="translate(964,977)" d="m0 0h103l16 1 1 15v16l-12 1h-31v159l-1 1-14 1h-22l-1-2-1-158-42-1-1-1v-30z" fill="#EB5859"/>
<path transform="translate(802,701)" d="m0 0h19l-1 14-6 35-5 27-4 20-9 44-4 6-9 3h-7l-8-3-3-4-5-22-7-34-10-52-4-24v-9z" fill="#01303B"/>
<path transform="translate(714,616)" d="m0 0 2 1 3 27 4 16-1 10-11 27-7 19-18 49-4 11-6 7-10 6-5 2h-9l-11-6-6-7-4-9v-11l8-24 5-14 11-30 6-17 5-9 11-11 11-9 8-8 7-8z" fill="#01303B"/>
<path transform="translate(844,617)" d="m0 0 4 2 7 7 7 8 9 9 11 9 10 9 6 10 14 40 8 21 10 30-1 10-8 11-12 7-3 1h-9l-9-5-7-6-6-12-10-28-16-43-8-20-3-9v-12l4-24 1-12z" fill="#01303B"/>
<path transform="translate(836,475)" d="m0 0 2 3 6 20 2 7 19 3 37 7 30 8 35 12 27 11 24 11 22 12 16 9 19 12 16 11 16 12 22 18 13 11-1 5-8 8-13 10-15 10-27 14-19 7-14 4-23 4-13 1h-11l-25-4-21-6-26-11-11-6 4-2 8 4 6 4 13 2 5-1-3-3 9 2 21 5 12 2 11 1h15l26-4 18-5 21-8 17-9 15-10 15-11-2-4-14-11-13-10-20-14-22-14-21-12-23-12-21-10-27-11-33-11-22-6-31-7-20-3h-6l2 8-2-1-5-14-6-7-2-2 1-6-4-16z" fill="#D7534E"/>
<path transform="translate(774,435)" d="m0 0h13l13 5 10 9 7 10 8 16 7 23v5l-104 1-1-3 6-21 6-15 4-8 9-10 9-7 9-4z" fill="#01303B"/>
<path transform="translate(776,423)" d="m0 0h7l13 4 12 7 10 9 9 12 5 9 1 6-4-1v-2l-2-1 1-2-5-2-1-4-4-1-1-4-3-3-4-2-4-4-13-6-6-2h-13l-11 4-6 4-10 9-5 7-8 20-3 9h-2l-2 10-2 6 12-1h58l-1 5-5 2-2 5-4 4-5 1-5-2-1-3h-2l-1-4-4-2-3 9 8 1 3 3v9l-2 5-4 2-1 2-4 1-5 7h-3v11l-5 7h-2l-1 5h-7l1-7 18-27 5-4v-8l-1-4h-2v-2l-3 1-13-4-4-3-11-1-4 1-2 9v59l2 9 2-2 2 3-1 5-4 10-6 4-6 5h-2v3l-8 7-4 1h-2v-5l11-13 7-7 1-2h2v-9l-1-3-1-28v-24l-8-1-1-6 4-14h2l2-6 1-1 2-16 6-17 8-17 7-10 9-10 10-8 10-5z" fill="#DB544F"/>
<path transform="translate(765,510)" d="m0 0 5 2v4h2l2 3 6 1 5-2 4-7 4-1 3 5 1 4-2 1h-6l-2 5v11l8 4 3 4 2 4 3 1 4 15 18 27 9 12-1 9-2 25-3 1-6-12-12-36-9-22v-2l-5-2-3-3-1-4h-3l-1 5-2-4-4-9v-2l-3 1-1-2-4 9-3 12-2 2 1-14-3-2-2 6-8 19-3 10h-2l-1 5h-2l-3 10-4 11-6 18-4 6-4 1-1-2v-23l-2-10 13-19 8-11 8-13 3-8 4-7 7-9 3-1 1-4v-9l-5-3-5-1z" fill="#BF4F4D"/>
<path transform="translate(140,1010)" d="m0 0h27l12 6 7 8 3 7v15l-4 8-9 8-11 4-5 1h-21v-56z" fill="#01303B"/>
<path transform="translate(848,1010)" d="m0 0h25l11 4 8 7 4 9 1 4v8l-3 10-8 9-9 4-11 2h-18l-1-1v-53z" fill="#01303B"/>
<path transform="translate(788,525)" d="m0 0 1 2 3-1v2h2v2h2l2 4 5 5 8 13 19 28 6 8 1-8v-24l3-3 2 3v13l1 4v13l-2 5 3 9 3 6-6-1-4 3-1-1 1 33 2 4 2-4-1 11-1 5v12l2 6v8l-3-2h-4l-1 6-1 2-5 1-1-1 1-11 1-9v-4h-2l-5-11-10-25-7-20-10-27-5-12-1-4v-8l2-1 3 3 1 4 5 2 3 3 10 25 13 38 3 5v2l2-1 2-25 1-9-3-4 1-2 3 2-1-5-7-9 2-1-3-2v-2l-4-4v-2l-2-2-2-4-4-4v-3l-2-1-4-6-2-1-3-9-2-1v-3h-2l-2-6-8-1-1-7z" fill="#D8534E"/>
<path transform="translate(454,1008)" d="m0 0h14l12 2 10 6 7 9 2 6v13l-4 8-4 5-10 6-12 3-17 1-1-2v-55z" fill="#01303B"/>
<path transform="translate(468,612)" d="m0 0 2 1-18 14-11 9-8 7 1 4 13 10 13 8 23 12 20 7 15 4 28 4h16l27-4 19-6 17-7 2 1-4 4-10 5-3 3 2 2 6-2h4l1-3 7-2v-2l13-5 4-2h5l1 3-5 7-1-2 2-6-16 8-17 8-21 7-26 5-11 1h-13l-21-3-27-7-24-10-19-10-17-12-14-11-2-3 4 2 10 7 4-1 1 5 5 2 14 4-10-7-11-8-5-2-5 1-3-4h2l-1-3 5-5 13-10 11-9z" fill="#C8514E"/>
<path transform="translate(823,712)" d="m0 0h3v4h2v9l-1 4-1 14-3 11-1 3-2 16-1 16-7 33-4 18-4 9-7 8-7 4-4 1h-13l-8-3-8-7-3-6v-9l9 3 3 6 4 2 13 1 9-3 3-5 9-44 6-31 3-16 4-23 3-1 1-7z" fill="#C8514E"/>
<path transform="translate(1137,639)" d="m0 0 4 2 1 5-9 9-13 10-15 10-27 14-19 7-14 4-23 4-13 1h-11l-25-4-21-6-26-11-11-6 4-2 8 4 6 4 13 2 5-1-3-3 9 2 21 5 12 2 11 1h15l26-4 18-5 21-8 17-9 15-10 11-8 2 1-5 4-4 4-5 4-7 5-3 3-5 2-6 3-3 3-4 2v3l12-5 13-8 10-7 5-3 5-5 5-2 2-4 3-3-1-4z" fill="#C8514E"/>
<path transform="translate(836,475)" d="m0 0 2 3 6 20 2 7 19 3 37 7 30 8 35 12 2 2-6-1-8-2-1 2 4 1 2 2 7 2 10 5v2h6l5 3 8 4 9 4 6 4 7 3 6 4 14 7 1 3 5 1 7 4 1 3-5-2-24-13-22-11-33-14-36-12-22-6-31-7-20-3h-6l2 8-2-1-5-14-6-7-2-2 1-6-4-16z" fill="#C8514E"/>
<path transform="translate(845,694)" d="m0 0 4 1 11 29 15 41 5 12 5 6 10 6 2 1h9l12-6 5-5 5-7 1-10-3-10 1-3 4 8v14l-6 10-4 4v6h-2v2l4-1 2-4 5-6 3-3h2l3-10v-11l-4-15-2-5 1-4 6 17 1 5v16l-5 10-9 10-8 6-9 3h-14l-11-4-9-7-7-10-8-19-6-16-1-8-3-7v-5h-2l-1-5 1-1-1-7-2-4 1-7z" fill="#D8534E"/>
<path transform="translate(827,514)" d="m0 0h6l2 2 1 5v63h-4l-10-14-12-18-12-19-1-5 5-5 20-8z" fill="#01303B"/>
<path transform="translate(726,514)" d="m0 0h7l10 3 17 7 3 3-1 7-10 14-7 11-12 18-6 8-3-1v-62l1-7z" fill="#01303B"/>
<path transform="translate(712,540)" d="m0 0 2 1 1 43 1 7v9l-7 8-10 11-7 8-14 14-3-1 1-8 15-40 4-12 3-7 6-17 6-13z" fill="#01303B"/>
<path transform="translate(549,559)" d="m0 0h2l-1 3-1 4-20 10-21 12-19 12-16 11-8 4-12 9-9 7-15 12h-2v5 2h4l5 1 6 4 10 7 9 6-3 1-11-4-4-1-6-6-2 1-11-8-6-4-1-4 10-9 11-9 12-10 16-12 27-18 20-12 16-9h11l1-3 7-1z" fill="#E75757"/>
<path transform="translate(846,539)" d="m0 0 3 3 6 15 4 9 20 55 6 14v5l-4-1-10-9-11-11-7-8-9-11v-12l1-16z" fill="#01303B"/>
<path transform="translate(767,553)" d="m0 0 4 2-1 11-3 10-11 30-7 18-7 20-6 16-2 1-1 3v20l-4 1v2l-5 2-2 4-2-2-2-10 1-7 3-3 1-2v-21l2-4 4-4 1-2h2l6-15 5-15 6-15h2l1-5h2l1-7 8-20z" fill="#D9534F"/>
<path transform="translate(776,423)" d="m0 0h7l13 4 12 7 10 9 9 12 5 9 1 6-4-1v-2l-2-1 1-2-5-2-1-4-4-1-1-4-3-3-4-2-4-4-13-6-6-2h-13l-11 4-6 4-10 9-5 7-8 20-3 9-1-4 1-5-2-5h-5l3-9 9-16 12-13 11-8 8-4z" fill="#D8534E"/>
<path transform="translate(721,513)" d="m0 0 4 1-2 9v59l2 9 2-2 2 3-1 5-4 10-6 4-6 5h-2v3l-8 7-4 1h-2v-5l11-13 7-7 1-2h2v-9l-1-3-1-28v-24l-8-1-1-6 4-12 8-1v-2z" fill="#DB544F"/>
<path transform="translate(761,551)" d="m0 0h2l-1 11-11 27-6 17-3 8-6 18-4 6-4 1-1-2v-23l-2-10 13-19 8-11 13-21z" fill="#01303B"/>
<path transform="translate(1058,582)" d="m0 0 9 3 11 7 20 14 15 12 14 11 10 9 3 4-1 4-5 6-8 5-4 4-10 7-11 7-14 7h-3v-5l6-1 1-3 6-3 7-2 1-3 7-5h2l1-3 4-2 5-5 4-5-2-4-14-11-3-5-2-1v-2l-5-2-2-4-1-3-6-2-7-7-4-3v-2l-3 1-5-4v-2h-2v-2l-7-2-5-5z" fill="#E85758"/>
<path transform="translate(798,553)" d="m0 0h4l6 12 12 19 9 12 5 7-1 9-2 25-3 1-6-12-12-36-9-22-3-6z" fill="#01303B"/>
<path transform="translate(715,505)" d="m0 0 1 3-4 7h-2l-1 7-3 9-4 8-6 15-2 1 3-10 9-21 1-5-27 4-36 8-8 1 3-3 11-2v-4h-9l-7 2h-6l-1 2-9 2-4-1 15-5 31-8 37-8z" fill="#C8514E"/>
<path transform="translate(729,512)" d="m0 0 11 1 6 4 12 3h2v2h2l2 4v8l-4 3 2-5v-5l-4-3-20-8-5-1h-7l-1 7v62l2 1 2-4 10-14 1 4 5-1 7-8 1-6 1-7h3l2-5 5-4v3l-6 10-4 10-14 21-10 14-4 6 2 10v25l2 1-3 4h-2l-1 4v21l-3 5-1-2 2-6-1-12-3-10v-7h5l1-5 1-15-2-1h2l-1-13 4-8-1-4-3 1-1-6-1-5v-58l2-9z" fill="#D9534E"/>
<path transform="translate(679,612)" d="m0 0h1l1 6-2 8-3 9v5l6-1-1 4-4 2 1 5-12 12-3 4-7 2-4-1-3-2 2-5 6-5h2l2-13 7-19 2-6 1 4 3-1z" fill="#D8534F"/>
<path transform="translate(468,612)" d="m0 0 2 1-18 14-11 9-8 7 1 4 13 10 13 8 23 12v2l10 3 5 4-2 1h-8l-17-3-17-9-17-12-14-11-2-3 4 2 10 7 4-1 1 5 5 2 14 4-10-7-11-8-5-2-5 1-3-4h2l-1-3 5-5 13-10 11-9z" fill="#D8534E"/>
<path transform="translate(722,607)" d="m0 0 3 1v24l-1 7-7-2-2-20-5 4-7 8-15 16-14 12-8 8-5 10h-1v-5l7-10 10-10v-5l4-3 1-3-2-1 15-15 2 2-1 2 6-2 4-2 2-4h2v-3l8-6z" fill="#CA514E"/>
<path transform="translate(788,525)" d="m0 0 1 2 3-1v2h2v2h2l2 4 5 5 8 13 19 28 6 8 1-8v-24l3-3 2 3v13l1 4v13l-2 5 3 9 3 6-6-1-4 3-4-9 1-3-8-12-1-1v-3l-4-4v-2l-2-2-2-4-4-4v-3l-2-1-4-6-2-1-3-9-2-1v-3h-2l-2-6-8-1-1-7z" fill="#EA5858"/>
<path transform="translate(809,978)" d="m0 0 2 1v189h33l1-1v-57l1-11 5-2h37v1l-18 2-22 1v68l-1 1-14 1h-21l-4-1v-191z" fill="#C9514E"/>
<path transform="translate(823,712)" d="m0 0h3v4h2v9l-1 4-1 14-3 11-1 3-4 27-1 3h-2v-5l-4-2v-9l2-6 1-13 3-5 2-21 3-13z" fill="#DB544F"/>
<path transform="translate(825,637)" d="m0 0h2l8 11 2 3v16l4 10v5l-3-2h-4l-1 6-1 2-5 1-1-1 1-11 1-9v-4h-2l-3-9 1-3 2 1v-2l2-2-2-9z" fill="#ED5859"/>
<path transform="translate(1137,639)" d="m0 0 4 2 1 5-9 9-13 10-15 10-17 9-10 3-15 6-12 3-11 1 4-2 5-2 2-2 6-4h3v-2l9-3 12-5 8-4 2 1-3 3-4 2v3l12-5 13-8 10-7 5-3 5-5 5-2 2-4 3-3-1-4z" fill="#DB544F"/>
<path transform="translate(724,650)" d="m0 0h5l2 3h2l1 8-1 3v20l-4 1v2l-5 2-2 4-2-2-2-10 1-7 3-3 1-2z" fill="#ED5859"/>
<path transform="translate(764,519)" d="m0 0 6 1 3 3v9l-2 5-4 2-1 2-4 1-5 7h-3v11l-5 7h-2l-1 5h-7l1-7 18-27 5-4z" fill="#ED5859"/>
<path transform="translate(723,587)" d="m0 0 2 1v3l2-2 2 3-1 5-4 10-6 4-6 5h-2v3l-8 7-4 1h-2v-5l11-13 7-7 1-2h2l2-8 3-1z" fill="#EB5859"/>
<path transform="translate(666 1e3)" d="m0 0h16v2l11 2-4 1-5-1h-24l-12 3-11 6-10 9-7 8-7 14-4 13v24l6 18 7 12 3 5-3-1-7-10-5-10-4-13-1-6v-17l2-9 4-9 5-9 3-6h2l2-5 13-10 13-7 15-3z" fill="#CB514E"/>
<path transform="translate(845,534)" d="m0 0 5 2 3 5 6 11 2 13 2 4 2 9 3 8-1 4-6-15-6-17-4-8-4-10-1 32-2 28-2-1-2-9 2-4h2l-1-27 1-24z" fill="#C8514E"/>
<path transform="translate(679,639)" d="m0 0h3l-1 4-4 2 1 5-12 12-3 4-7 2-4-1-3-2 2-5 6-5 3-1 1-6h2l1-2 4 3 6-4z" fill="#EC5859"/>
<path transform="translate(830,597)" d="m0 0 5 4 1 10 1 29 2 4 2-4-1 11-1 5v12l2 9-2-2-3-8v-16l-7-10-4-5-4-8-2-7 1-4 5 14 3 5v2l2-1 2-25 1-9-3-4z" fill="#C9514E"/>
<path transform="translate(796,430)" d="m0 0 9 2 10 8 10 12 7 12 1 6-4-1v-2l-2-1 1-2-5-2-1-4-4-1-1-4-3-3-4-2-6-5 1-3-2-4-4-2z" fill="#E75758"/>
<path transform="translate(750,435)" d="m0 0h3l2 4-1 5-7 6-2 3h-2l-2 4-4 7h-2l-2 4-3 4-2-5 3-9 7-10 9-10z" fill="#E95758"/>
<path transform="translate(721,513)" d="m0 0 4 1-2 9-2 12-4-2v-2h-2l-3 5-5-1-1-6 4-12 8-1v-2z" fill="#EE595A"/>
<path transform="translate(859,619)" d="m0 0 4 2 15 15 7 8 5 5 3 5-2 4-8-6v-2l-5-2-5-3-2-4v-3-3h-2v-2h-2l-2-4 1-2-4-1v-3l-4-1z" fill="#EA5858"/>
<path transform="translate(736,585)" d="m0 0h2l-2 5-10 14 2 10v25l2 1-3 4h-2l-1 4v21l-3 5-1-2 2-6-1-12-3-10v-7h5l1-5 1-15-2-1h2l-1-13 3-6 5-5z" fill="#C8514E"/>
<path transform="translate(468,612)" d="m0 0 2 1-18 14-11 9-8 7 1 4 13 10 13 8 21 11-3 1-19-9-10-7-11-8-5-2-5 1-3-4h2l-1-3 5-5 13-10 11-9z" fill="#CD514E"/>
<path transform="translate(695,623)" d="m0 0 2 2-1 2 6-2 4-2-12 14-4 4h-2l-2 4-7 5-2-1v-4l4-3 1-3-2-1z" fill="#D9534E"/>
<path transform="translate(760,1020)" d="m0 0 3 3 7 15 5 22 1 18-2 16-4 16-9 19-7 9v-3l7-11 6-13 4-16 1-9v-25l-2-14-5-15-5-10z" fill="#CC514E"/>
<path transform="translate(729,512)" d="m0 0 11 1 6 4 12 3h2v2h2l2 4v8l-4 3 2-5v-5l-4-3-20-8-5-1h-7l-1 7v62l2 2-1 2h-2l-2-7v-58l2-9z" fill="#C9514E"/>
<path transform="translate(601,1148)" d="m0 0 4 2 10 7 16 8 14 4 18 3h11l22-2 3-1h7l-3 2-9 2-9 1h-31l-14-3-16-6-14-8-9-8z" fill="#CB514E"/>
<path transform="translate(587,1014)" d="m0 0 1 2-6 11-7 16-2 11-1 24 1 19 5 15 6 13-1 2-8-16-4-12-2-16v-18l3-19 3-9 6-14z" fill="#CC514E"/>
<path transform="translate(754,837)" d="m0 0 9 3 3 6 8 5 2 2-7 2h-4-5l-4-5-2-4z" fill="#D9534F"/>
<path transform="translate(1338,980)" d="m0 0 4 4 11 20 11 19 5 9h5l2-4 18-30 7-11 1 2-10 17-11 19-6 8-4 2-4-2-5-8-5-10-6-10-13-23z" fill="#CA514E"/>
<path transform="translate(758,538)" d="m0 0 1 2-5 9v11l-5 7h-2l-1 5h-7l1-7z" fill="#E55757"/>
<path transform="translate(932,734)" d="m0 0 2 2 5 15 1 5v16l-5 10-9 10-8 6-9 3h-14l-9-3v-1h7l7 2 12-1 8-4 1-2h2l2-4 5-6 3-3h2l3-10v-11l-4-15-2-5z" fill="#CA514E"/>
<path transform="translate(849,1097)" d="m0 0h39v1l-18 2-22 1-1 55-2 1v-47l1-11z" fill="#CF524E"/>
<path transform="translate(1421,1023)" d="m0 0v3l-10 16-10 15-7 10 1 4 7 11 10 15 13 20-1 2-7-10-10-15-7-11-9-13 1-5 6-8 20-30z" fill="#CB514E"/>
<path transform="translate(649,704)" d="m0 0 1 3-12 32-6 19v11l5 10-1 2-4-5-4-9 1-9 2-6 2-4 1-12 4-6 1-3h2l1-8z" fill="#C8514E"/>
<path transform="translate(800,829)" d="m0 0 2 2 4 8-5 11-3 3-4 1v-2l-4-2 3-3 2-6h2l1-9z" fill="#DA534E"/>
<path transform="translate(729,489)" d="m0 0 1 4-2 10h104v-5l2 3v4h-109l2-10z" fill="#C8514E"/>
<path transform="translate(666 1e3)" d="m0 0h16v2l11 2-4 1-5-1h-24l-12 3-11 6-10 9-7 6-1-2h2l2-5 13-10 13-7 15-3z" fill="#CE514E"/>
<path transform="translate(713,716)" d="m0 0 1 4-9 26-7 20-8 16-8 10-5 4-2-1 5-5 4-2 2-5 3-3 8-18 1-7h2l-1-4 4-6 2-5 2-10 4-8z" fill="#C8514E"/>
<path transform="translate(712,535)" d="m0 0 4 1v34l1 18 1 3v7l-2 2-2-16-1-43-3 3-4 10-1-3 3-10h2z" fill="#C8514E"/>
<path transform="translate(1137,639)" d="m0 0 4 2 1 5-9 9-13 10-15 10-17 9-2-1 1-2 16-8 21-14 5-5 5-2 2-4 3-3-1-4z" fill="#CD514E"/>
<path transform="translate(841,677)" d="m0 0 2 3 2 5v5h-10l-5-1-1 3-6-1 2-3 7-1 1-7 5-1 2 2z" fill="#D9534E"/>
<path transform="translate(733,728)" d="m0 0 4 3 5 2v10l-3 4-1 9-2-2-1-8-1-1z" fill="#DB544F"/>
<path transform="translate(823,513)" d="m0 0h12l2 5 1 44v18l-1 9-4-4 2-1v-63l-2-6-11 1-6 1 4-3z" fill="#CB514E"/>
<path transform="translate(532,1011)" d="m0 0 3 4 3 12v20l-5 13-3 5-1-2 4-9 1-15v-19z" fill="#CE524E"/>
<path transform="translate(708,621)" d="m0 0v3l-10 10-7 8-12 11-8 7-6 7-4 8h-1v-5l7-10 10-10 6-4 7-6 2-3h2l2-4z" fill="#C8514E"/>
<path transform="translate(931,770)" d="m0 0 2 4 1 5-3 1-2 5-6 7-4 1 1-8 7-8z" fill="#ED5859"/>
<path transform="translate(786,529)" d="m0 0 3 1v2l7 2 2 6h2v3l3 1 2 5-1 4-1-4-4-1-4-7-8-4-1-1z" fill="#DB544F"/>
<path transform="translate(1449,1156)" d="m0 0 5 5 3 5v4l-14 1h-26l-5-3 1-2 3 2h38l-3-7z" fill="#CB514E"/>
<path transform="translate(742,505)" d="m0 0h33l-5 4-5 2h-3v-2l-7-1-6 2-2-1v-2h-6z" fill="#EE595A"/>
<path transform="translate(541,1154)" d="m0 0 5 4 8 11-2 2h-41l-5-2 1-2 2 1h41l-3-5-6-7z" fill="#C9514E"/>
<path transform="translate(1286,1162)" d="m0 0v3l-1 2 7 1h33l5-4-2 5-6 2h-40l1-5z" fill="#CA514E"/>
<path transform="translate(724,617)" d="m0 0h1v15l-1 7-6-2v-13l5-4z" fill="#DB544F"/>
<path transform="translate(658,973)" d="m0 0h26l17 3 12 4 2 2-6-1-9-3-24-3h-15l-6 1-12 1 4-2z" fill="#CD514E"/>
<path transform="translate(1369,1100)" d="m0 0 5 2 6 8 7 13 5 8-1 2-11-17-6-10-2-2-4 1-7 13-2 1 2-6 6-11z" fill="#CC514E"/>
<path transform="translate(680,602)" d="m0 0 1 4 1 8-2 3-1-4-5 8h-3l1-9 3-3 2-6 3 1z" fill="#EB5859"/>
<path transform="translate(699,1169)" d="m0 0h7l-3 2-9 2-9 1h-31v-2l-9-1v-1h7l11 2h11l22-2z" fill="#D0524E"/>
<path transform="translate(1124,648)" d="m0 0 2 1-5 4-4 4-5 4-7 5-3 3-5 2-3 2-3-1 4-2 4-5 14-9z" fill="#D4524E"/>
<path transform="translate(777,430)" d="m0 0h7l6 3 3 4-6-1h-13l-11 4-2-1 5-3 4-1v-2l7-1z" fill="#C8514E"/>
<path transform="translate(800,566)" d="m0 0 3 4 10 26 4 11-1 3-5-12-7-14-2-9-2-3z" fill="#C8514E"/>
<path transform="translate(1408,977)" d="m0 0h41l2 1-1 3-3-1-15-1h-17l-7 1-5 7-1-2 4-7z" fill="#CD514E"/>
<path transform="translate(1294,977)" d="m0 0h40l4 2-2 1-15-1-15 1h-13z" fill="#CD514E"/>
<path transform="translate(900,654)" d="m0 0 7 6 8 5v2l-9 1-2-3-4-2-1-5z" fill="#E85758"/>
<path transform="translate(719,546)" d="m0 0 2 1 2 39-2-2-2-7z" fill="#EE595A"/>
<path transform="translate(637,781)" d="m0 0 11 7 4 2h9l12-6h3l-9 8-3 1h-8l-8-2-10-7z" fill="#C8514E"/>
<path transform="translate(435,649)" d="m0 0 4 2 14 10 18 10 10 5-3 1-19-9-10-7-11-8-3-2z" fill="#CB514E"/>
<path transform="translate(882,781)" d="m0 0 11 7 4 2h9l10-5 2 1-7 6-3 1h-8l-9-3-9-7z" fill="#C9514E"/>
<path transform="translate(738,756)" d="m0 0h2v2l3 1 2-2 1 6-1 2h-2l-2 13h-1l-1-11-1-1z" fill="#DB544F"/>
<path transform="translate(926,749)" d="m0 0 2 2 3 6v14l-6 10-4 4-3-1 5-5 5-7 1-10-3-10z" fill="#CB514E"/>
<path transform="translate(878,619)" d="m0 0 3 3 5 10 1 4 2 7-5 1-6-7 4 2 3 1-4-13-3-6z" fill="#C9514E"/>
<path transform="translate(722,607)" d="m0 0 3 1v8h-8l-3-3 4-3z" fill="#DB544F"/>
<path transform="translate(763,540)" d="m0 0 2 2-3 4-4 7-3 6-2-1 1-9h3l2-5z" fill="#DB544F"/>
<path transform="translate(677,650)" d="m0 0 1 2-7 8-6 7-4 8h-1v-5l7-10z" fill="#CE524E"/>
<path transform="translate(674,635)" d="m0 0h1l1 5 2 2-6 6h-3v-7l1-2h3z" fill="#C9514E"/>
<path transform="translate(917,796)" d="m0 0 1 2-9 3h-14l-9-3v-1h7l7 2 12-1z" fill="#C8514E"/>
<path transform="translate(746,607)" d="m0 0 3 1-3 11-1 7-3-2v-8l2-1z" fill="#EE595A"/>
<path transform="translate(843,615)" d="m0 0 6 1 3 4-1 3-7-6-2 23h-1l1-21z" fill="#C8514E"/>
<path transform="translate(754,559)" d="m0 0 1 2-12 19-5 5 2-5 5-7 2-6 5-5z" fill="#CC514E"/>
<path transform="translate(742,457)" d="m0 0v3l-8 20-3 9-1-4 1-7 3-5 7-15z" fill="#C8514E"/>
<path transform="translate(601,1148)" d="m0 0 4 2 10 7 11 6-4 1-13-8-8-7z" fill="#CF524E"/>
<path transform="translate(669,625)" d="m0 0 4 8-4 1-2 3h-2l1-9z" fill="#E65757"/>
<path transform="translate(846,514)" d="m0 0h3l3 8v2l-5-1-3-7z" fill="#EE595A"/>
<path transform="translate(699,1169)" d="m0 0h7l-3 2-9 2-13 1 1-2z" fill="#CC514E"/>
<path transform="translate(570,1065)" d="m0 0h1l1 13-1 11h-1l-1-6v-17z" fill="#C8514E"/>
<path transform="translate(813,517)" d="m0 0 3 1-16 7-2 1-1-6h7z" fill="#C8514E"/>
<path transform="translate(744,633)" d="m0 0 1 3-8 22-2 2 1-5 3-12z" fill="#C8514E"/>
<path transform="translate(776,423)" d="m0 0h7l4 2-14 1-4 2h-6l4-3z" fill="#C8514E"/>
<path transform="translate(757,441)" d="m0 0 2 1-13 12-3 3v-4l5-5h2l2-4z" fill="#CD514E"/>
<path transform="translate(638,784)" d="m0 0 14 8v1l-9-1-2-1v-3h-2z" fill="#EE595A"/>
<path transform="translate(772,526)" d="m0 0h1l-1 10-5 3-2 2 1-4 3-1-1-4 3-3z" fill="#DB544F"/>
<path transform="translate(765,510)" d="m0 0 5 2-1 2-3-1 2 6h-6z" fill="#C9514E"/>
<path transform="translate(427,643)" d="m0 0 6 5 2 2-7 2-3-4h2l-1-3z" fill="#DB544F"/>
<path transform="translate(842,563)" d="m0 0 2 2v21h-1l-1-13-1-9z" fill="#DB544F"/>
<path transform="translate(537,560)" d="m0 0h4l-1 5h-7l-2-2z" fill="#D6534F"/>
<path transform="translate(823,513)" d="m0 0h12l1 5-3-3-11 1-6 1 4-3z" fill="#C8514E"/>
<path transform="translate(732,684)" d="m0 0 2 1-1 5h-4l-3-2 3-1v-2z" fill="#DB544F"/>
<path transform="translate(736,712)" d="m0 0 2 2v7l-4 1-1-3z" fill="#DB544F"/>
<path transform="translate(1124,648)" d="m0 0 2 1-5 4-4 4-5 1 5-5z" fill="#CE524E"/>
<path transform="translate(421,649)" d="m0 0 4 2 11 8v2l-4-2-10-8z" fill="#CE524E"/>
<path transform="translate(842,586)" d="m0 0 2 4v10l-2-1-2-9z" fill="#CF524E"/>
<path transform="translate(506,1084)" d="m0 0 2 1-8 4-4 1-2 3-2-4 12-4z" fill="#CC514E"/>
<path transform="translate(1447,981)" d="m0 0h2l-2 5-6 9-1-2 5-9z" fill="#CD514E"/>
<path transform="translate(926,749)" d="m0 0 2 2 3 6v9l-2-4-3-10z" fill="#C8514E"/>
<path transform="translate(791,505)" d="m0 0h4l-1 4-5 1-3-4z" fill="#EE595A"/>
<path transform="translate(1100,620)" d="m0 0 5 1 2 1v2l4 2v2l-4-2-7-5z" fill="#D1524E"/>
</svg>
