<?xml version="1.0" encoding="UTF-8"?>
<svg version="1.1" xmlns="http://www.w3.org/2000/svg" width="256" height="256">
<path d="M0 0 C1.00909424 0.27287842 1.00909424 0.27287842 2.03857422 0.55126953 C33.61153011 9.36397535 61.41934431 31.32474939 77.6875 59.6875 C94.21371751 89.55237494 99.12459647 124.95801426 90 158 C89.72712158 159.00909424 89.72712158 159.00909424 89.44873047 160.03857422 C80.48299194 192.15979475 58.1111044 219.9459791 29.1875 236.25 C-0.36415764 252.39905867 -35.4023424 257.00189455 -68 248 C-69.00909424 247.72712158 -69.00909424 247.72712158 -70.03857422 247.44873047 C-101.61153011 238.63602465 -129.41934431 216.67525061 -145.6875 188.3125 C-162.21371751 158.44762506 -167.12459647 123.04198574 -158 90 C-157.81808105 89.32727051 -157.63616211 88.65454102 -157.44873047 87.96142578 C-148.48299194 55.84020525 -126.1111044 28.0540209 -97.1875 11.75 C-67.63584236 -4.39905867 -32.5976576 -9.00189455 0 0 Z " fill="#01303B" transform="translate(162,4)"/>
<path d="M0 0 C8.91971503 4.01387176 12.43198213 10.7740393 15.92578125 19.58203125 C16.72492245 21.83936634 17.34847024 24.02887696 17.90625 26.3515625 C18.45337646 26.44655029 19.00050293 26.54153809 19.56420898 26.6394043 C36.06583448 29.54273926 51.77690448 32.9387908 66.90625 40.3515625 C68.20012355 40.93606809 69.49584697 41.51648868 70.79296875 42.09375 C88.08716299 49.85849027 104.41983079 59.86514329 117.90625 73.3515625 C117.8984375 75.19921875 117.8984375 75.19921875 116.90625 77.3515625 C114.96922466 79.00721565 113.1417027 80.39375895 111.03125 81.7890625 C110.44988281 82.18230713 109.86851562 82.57555176 109.26953125 82.98071289 C104.08218242 86.40433486 98.67823949 89.0483167 92.90625 91.3515625 C92.07351562 91.70089844 91.24078125 92.05023438 90.3828125 92.41015625 C77.19983866 97.42134978 62.18291928 96.35346264 49.34765625 90.81640625 C46.49098959 89.39312003 43.68354354 87.92332752 40.90625 86.3515625 C41.65032582 88.66612623 42.39992879 90.97849161 43.15625 93.2890625 C43.38078857 93.97621338 43.60532715 94.66336426 43.83666992 95.37133789 C45.0916283 99.13976188 46.4644108 102.71750456 48.21875 106.2890625 C50.21189727 110.64294567 50.60070169 113.56756197 49.90625 118.3515625 C47.85966949 122.31974151 45.62193397 124.87443985 41.90625 127.3515625 C36.7482252 128.11009556 32.34901873 128.33387312 27.96875 125.3515625 C25.52110359 121.79134955 23.60003346 118.32179092 21.90625 114.3515625 C21.54273438 113.51367188 21.17921875 112.67578125 20.8046875 111.8125 C18.07921554 105.00862395 17.16120011 98.65588303 16.90625 91.3515625 C17.56625 91.3515625 18.22625 91.3515625 18.90625 91.3515625 C19.46892578 92.85783203 19.46892578 92.85783203 20.04296875 94.39453125 C21.10741656 97.24262 22.17752867 100.08851773 23.25 102.93359375 C24.28992242 105.69528588 25.31164707 108.46220859 26.3125 111.23828125 C26.7353125 112.38941406 27.158125 113.54054688 27.59375 114.7265625 C28.15642578 116.28503906 28.15642578 116.28503906 28.73046875 117.875 C29.78379859 120.64096271 29.78379859 120.64096271 32.90625 122.3515625 C36.45208171 122.67391084 38.93389533 122.88540428 42.09765625 121.1484375 C44.09705812 119.48324905 44.09705812 119.48324905 44.4375 117.00390625 C44.36931865 111.08065177 43.56175146 106.55238261 41.109375 101.1640625 C39.1301873 96.53738995 37.7932892 91.68260598 36.34765625 86.8671875 C34.08056951 81.33770765 30.44746667 77.59025894 25.90625 73.7265625 C25.225625 73.14519531 24.545 72.56382812 23.84375 71.96484375 C21.55673605 70.06053577 19.25148823 68.18377987 16.90625 66.3515625 C16.9475 67.2384375 16.98875 68.1253125 17.03125 69.0390625 C17.05535219 74.8717924 15.87193978 80.61777942 14.90625 86.3515625 C13.91625 86.3515625 12.92625 86.3515625 11.90625 86.3515625 C11.24625 87.3415625 10.58625 88.3315625 9.90625 89.3515625 C6.9128418 89.67626953 6.9128418 89.67626953 3.10546875 89.609375 C2.43207962 89.60275848 1.75869049 89.59614197 1.06489563 89.58932495 C-1.09261384 89.56588818 -3.24910581 89.52221889 -5.40625 89.4765625 C-7.55256228 89.4413968 -9.69880968 89.4105529 -11.84526062 89.38522339 C-13.80101925 89.36055451 -15.75660868 89.32341239 -17.7121582 89.28564453 C-20.66881916 89.34327925 -23.23104491 89.65267654 -26.09375 90.3515625 C-26.07054688 89.37316406 -26.04734375 88.39476562 -26.0234375 87.38671875 C-25.92282769 80.07813497 -26.10419085 73.43936699 -28.09375 66.3515625 C-28.75375 67.0115625 -29.41375 67.6715625 -30.09375 68.3515625 C-31.08375 68.3515625 -32.07375 68.3515625 -33.09375 68.3515625 C-32.68825419 65.5130918 -32.26463435 64.50483505 -30.08496094 62.54980469 C-27.63143657 59.84118117 -27.5644675 58.53384992 -27.484375 54.9296875 C-27.45214844 53.90488281 -27.41992188 52.88007812 -27.38671875 51.82421875 C-27.37253906 50.76074219 -27.35835938 49.69726562 -27.34375 48.6015625 C-27.31410156 47.52261719 -27.28445312 46.44367188 -27.25390625 45.33203125 C-27.18328064 42.67180006 -27.13054804 40.01244148 -27.09375 37.3515625 C-28.08375 37.3515625 -29.07375 37.3515625 -30.09375 37.3515625 C-30.09375 35.7015625 -30.09375 34.0515625 -30.09375 32.3515625 C-61.98984168 37.69406123 -92.09711093 48.69345602 -117.17578125 69.7578125 C-119.09375 71.3515625 -119.09375 71.3515625 -122.09375 73.3515625 C-120.73096578 77.43991516 -118.0572943 78.39149518 -114.46875 80.3515625 C-113.86417969 80.69445312 -113.25960937 81.03734375 -112.63671875 81.390625 C-98.76881588 89.13772639 -84.05058388 91.87258568 -68.46875 87.9140625 C-67.56898437 87.64722656 -66.66921875 87.38039063 -65.7421875 87.10546875 C-62.87759854 86.29003266 -60.03660513 85.79601129 -57.09375 85.3515625 C-57.09375 88.3515625 -57.09375 88.3515625 -58.2265625 89.9375 C-60.70181182 91.8120612 -62.9485855 92.29118851 -65.96875 92.9765625 C-66.99742188 93.21632813 -68.02609375 93.45609375 -69.0859375 93.703125 C-70.07851562 93.91710937 -71.07109375 94.13109375 -72.09375 94.3515625 C-72.92261719 94.53847656 -73.75148437 94.72539062 -74.60546875 94.91796875 C-90.20132407 97.63561387 -104.80540345 92.22672275 -118.09375 84.3515625 C-121.57995653 81.84447947 -124.88210066 79.20060627 -128.09375 76.3515625 C-127.24568116 70.25093829 -121.62189852 66.96276094 -117.09375 63.3515625 C-93.1660057 45.65557991 -57.83563672 25.5070493 -27.09375 27.3515625 C-27.0525 26.2790625 -27.01125 25.2065625 -26.96875 24.1015625 C-25.78090561 14.94051604 -20.96075764 7.23981859 -13.828125 1.55859375 C-9.53889947 -1.42647537 -4.9084197 -1.52014491 0 0 Z " fill="#C9504F" transform="translate(132.09375,72.6484375)"/>
<path d="M0 0 C0 1.65 0 3.3 0 5 C0.99 5 1.98 5 3 5 C3.14560195 8.72875388 3.23417043 12.45677434 3.3125 16.1875 C3.35439453 17.24259766 3.39628906 18.29769531 3.43945312 19.38476562 C3.56428882 27.29934885 3.56428882 27.29934885 0.54296875 31.05078125 C-0.29621094 31.69402344 -1.13539062 32.33726562 -2 33 C-2.33 33.99 -2.66 34.98 -3 36 C-1.02 35.01 0.96 34.02 3 33 C5.00594372 41.57899146 5.78388925 49.30353992 4 58 C6.47266765 57.65555119 6.47266765 57.65555119 9 57 C9.495 56.01 9.495 56.01 10 55 C10 55.66 10 56.32 10 57 C19.9 56.67 29.8 56.34 40 56 C40.33 53.69 40.66 51.38 41 49 C41.33 49 41.66 49 42 49 C42 50.65 42 52.3 42 54 C42.99 54 43.98 54 45 54 C44.97679687 53.39414063 44.95359375 52.78828125 44.9296875 52.1640625 C44.79371922 45.85124971 45.53788034 40.13568071 47 34 C50.06715595 35.35945995 52.07741042 36.88007535 54.375 39.3125 C56.58640185 41.61860857 58.60149115 43.44816987 61.1875 45.375 C67.58907811 51.34980624 69.36226991 60.83427503 71.98242188 68.9675293 C72.95349703 72.77979318 72.95349703 72.77979318 75 76 C76.10598477 85.55886834 76.10598477 85.55886834 72.9375 89.6875 C69.30519315 91.31044561 66.94107612 91.50159151 63 91 C58.74375462 88.96367868 57.80172165 85.56526738 56.30664062 81.37304688 C56.01982422 80.52806641 55.73300781 79.68308594 55.4375 78.8125 C54.85299481 77.1522979 54.26836061 75.4921412 53.68359375 73.83203125 C53.40499512 73.02459473 53.12639648 72.2171582 52.83935547 71.38525391 C52.02719462 69.07728081 51.16446034 66.79481505 50.28515625 64.51171875 C49 61 49 61 49 59 C48.34 59 47.68 59 47 59 C47.33 61.97 47.66 64.94 48 68 C46 65 46 65 46 61 C45.01 61.66 44.02 62.32 43 63 C42.39664793 66.05027991 41.96790792 68.98080749 41.625 72.0625 C40.53530707 80.57736203 39.18941603 89.00818867 37.5625 97.4375 C37.36930176 98.49654541 37.17610352 99.55559082 36.97705078 100.64672852 C35.86104466 106.31285102 34.74420365 110.54119685 31 115 C28.71273777 116.14363112 27.17147573 116.26501932 24.625 116.375 C23.85414062 116.42398438 23.08328125 116.47296875 22.2890625 116.5234375 C20 116 20 116 17.84375 113.953125 C15.71300495 110.54032148 14.73153431 107.25547281 13.875 103.375 C13.64103516 102.40240234 13.64103516 102.40240234 13.40234375 101.41015625 C11.06937272 91.4805688 9.53793296 81.37016491 7.875 71.3125 C7.69324219 70.21744141 7.51148437 69.12238281 7.32421875 67.99414062 C6.88205976 65.32955091 6.44066508 62.6648371 6 60 C4.638723 64.05343027 3.2786954 68.10466361 2.0078125 72.1875 C-0.74730517 80.96486601 -3.69837764 90.14433409 -12 95 C-16.84927639 95.8731816 -20.63092669 95.78648892 -24.9375 93.3125 C-28.0404167 89.83347219 -29.87781947 87.57671063 -30.24609375 82.82421875 C-29.96483479 78.45354381 -28.876205 75.14736037 -27.25 71.125 C-26.97849121 70.42826172 -26.70698242 69.73152344 -26.42724609 69.01367188 C-24.43248901 63.94125587 -22.29544151 58.94402786 -20 54 C-20.7425 54.350625 -21.485 54.70125 -22.25 55.0625 C-25.1322726 56.04509293 -26.21176345 56.0326802 -29 55 C-28.67 54.67 -28.34 54.34 -28 54 C-30.56408457 54.47585714 -33.04848219 55.01432935 -35.55078125 55.75390625 C-52.3476519 60.6718019 -67.63024918 58.18704996 -82.83813477 50.04492188 C-86.51669547 47.99748181 -89.7913415 45.72157562 -93 43 C-91.73461295 39.20383884 -89.52040532 37.75227555 -86.4375 35.4375 C-85.86104736 35.00131348 -85.28459473 34.56512695 -84.69067383 34.11572266 C-61.48092452 16.85615971 -29.73499261 -0.72524372 0 0 Z " fill="#BA4E4C" transform="translate(102,105)"/>
<path d="M0 0 C-1.80500193 5.62958643 -3.78945394 11.1747934 -5.8828125 16.703125 C-6.14398865 17.39329712 -6.40516479 18.08346924 -6.67425537 18.79455566 C-7.76748747 21.67921851 -8.86294929 24.56301459 -9.96240234 27.4453125 C-10.77263355 29.57163356 -11.57802661 31.69973809 -12.3828125 33.828125 C-12.6307254 34.47404602 -12.87863831 35.11996704 -13.13406372 35.78546143 C-14.1438217 38.46323704 -15.00268243 41.0142347 -15.53344727 43.83081055 C-16 46 -16 46 -18.08203125 47.87890625 C-32.95720173 57.05086401 -49.78853729 60.65636117 -67.0625 57 C-76.39021749 54.3294617 -85.62581023 49.25476817 -93 43 C-91.73461295 39.20383884 -89.52040532 37.75227555 -86.4375 35.4375 C-85.86104736 35.00131348 -85.28459473 34.56512695 -84.69067383 34.11572266 C-61.48092452 16.85615971 -29.73499261 -0.72524372 0 0 Z " fill="#03303B" transform="translate(102,105)"/>
<path d="M0 0 C33.69636819 0.85013773 67.80340648 19.68850997 93 41 C90.97771227 47.06686318 81.98417848 50.3855312 76.5234375 53.33984375 C64.15127445 59.30097686 48.05328584 60.11923299 34.9375 56.25 C18.81123208 50.54533272 18.81123208 50.54533272 15.85913086 44.7668457 C15.41645874 43.4842688 15.41645874 43.4842688 14.96484375 42.17578125 C14.63033203 41.22896484 14.29582031 40.28214844 13.95117188 39.30664062 C13.61666016 38.31857422 13.28214844 37.33050781 12.9375 36.3125 C12.25933695 34.37101606 11.58095511 32.42960853 10.90234375 30.48828125 C10.57838623 29.54952148 10.25442871 28.61076172 9.9206543 27.64355469 C7.50538496 20.70838196 4.7801616 13.90692938 1.98632812 7.1171875 C0 2.21857378 0 2.21857378 0 0 Z " fill="#03303B" transform="translate(152,105)"/>
<path d="M0 0 C8.91620345 4.01229155 12.44481127 10.81552233 16.0234375 19.58203125 C16.90625 22.3515625 16.90625 22.3515625 16.90625 26.3515625 C13.91711833 25.31516167 13.04203545 24.62232274 11.59765625 21.7421875 C11.22511719 20.70578125 10.85257813 19.669375 10.46875 18.6015625 C8.21220439 12.82868201 6.12065848 8.70879539 1.03125 4.9765625 C-3.28209274 3.70793228 -6.84374595 3.69815129 -10.84375 5.7890625 C-11.58625 6.3046875 -12.32875 6.8203125 -13.09375 7.3515625 C-14.08375 7.6815625 -15.07375 8.0115625 -16.09375 8.3515625 C-18.38673733 11.88731396 -19.42263636 16.11603455 -20.71875 20.1015625 C-21.894375 23.6903125 -21.894375 23.6903125 -23.09375 27.3515625 C-15.50375 27.3515625 -7.91375 27.3515625 -0.09375 27.3515625 C-1.41375 29.0015625 -2.73375 30.6515625 -4.09375 32.3515625 C-5.08375 32.3515625 -6.07375 32.3515625 -7.09375 32.3515625 C-7.1865625 33.74375 -7.1865625 33.74375 -7.28125 35.1640625 C-8.09375 38.3515625 -8.09375 38.3515625 -10.65625 40.2265625 C-11.460625 40.5978125 -12.265 40.9690625 -13.09375 41.3515625 C-12.76375 39.0415625 -12.43375 36.7315625 -12.09375 34.3515625 C-13.145625 33.8771875 -14.1975 33.4028125 -15.28125 32.9140625 C-15.87292969 32.64722656 -16.46460937 32.38039062 -17.07421875 32.10546875 C-19.38526486 31.2427378 -21.67396508 30.81322053 -24.09375 30.3515625 C-23.95480043 34.43516066 -23.80640062 38.51836206 -23.65625 42.6015625 C-23.61693359 43.76042969 -23.57761719 44.91929688 -23.53710938 46.11328125 C-23.49521484 47.22832031 -23.45332031 48.34335938 -23.41015625 49.4921875 C-23.37349854 50.51860352 -23.33684082 51.54501953 -23.29907227 52.60253906 C-23.12012623 54.99841584 -22.6890181 57.0393641 -22.09375 59.3515625 C-22.17810679 61.60470504 -22.32914199 63.85591789 -22.53125 66.1015625 C-22.63308594 67.27203125 -22.73492187 68.4425 -22.83984375 69.6484375 C-22.96552734 70.98648438 -22.96552734 70.98648438 -23.09375 72.3515625 C-20.84498475 71.50731933 -20.84498475 71.50731933 -20.1640625 68.953125 C-19.53583306 66.97498106 -18.91081098 64.99581553 -18.2890625 63.015625 C-16.97643882 60.09010425 -15.7898042 59.00980504 -13.09375 57.3515625 C-13.65577323 62.7610361 -15.04199602 67.21143256 -17.09375 72.2265625 C-19.3715108 78.0031242 -20.86998479 83.08613665 -21.09375 89.3515625 C-22.74375 89.6815625 -24.39375 90.0115625 -26.09375 90.3515625 C-26.07054688 89.37316406 -26.04734375 88.39476562 -26.0234375 87.38671875 C-25.92282769 80.07813497 -26.10419085 73.43936699 -28.09375 66.3515625 C-28.75375 67.0115625 -29.41375 67.6715625 -30.09375 68.3515625 C-31.08375 68.3515625 -32.07375 68.3515625 -33.09375 68.3515625 C-32.68825419 65.5130918 -32.26463435 64.50483505 -30.08496094 62.54980469 C-27.63143657 59.84118117 -27.5644675 58.53384992 -27.484375 54.9296875 C-27.45214844 53.90488281 -27.41992188 52.88007812 -27.38671875 51.82421875 C-27.37253906 50.76074219 -27.35835938 49.69726562 -27.34375 48.6015625 C-27.31410156 47.52261719 -27.28445312 46.44367188 -27.25390625 45.33203125 C-27.18328064 42.67180006 -27.13054804 40.01244148 -27.09375 37.3515625 C-28.08375 37.3515625 -29.07375 37.3515625 -30.09375 37.3515625 C-30.09375 35.7015625 -30.09375 34.0515625 -30.09375 32.3515625 C-61.98984168 37.69406123 -92.09711093 48.69345602 -117.17578125 69.7578125 C-119.09375 71.3515625 -119.09375 71.3515625 -122.09375 73.3515625 C-120.73096578 77.43991516 -118.0572943 78.39149518 -114.46875 80.3515625 C-113.86417969 80.69445312 -113.25960937 81.03734375 -112.63671875 81.390625 C-98.76881588 89.13772639 -84.05058388 91.87258568 -68.46875 87.9140625 C-67.56898437 87.64722656 -66.66921875 87.38039063 -65.7421875 87.10546875 C-62.87759854 86.29003266 -60.03660513 85.79601129 -57.09375 85.3515625 C-57.09375 88.3515625 -57.09375 88.3515625 -58.2265625 89.9375 C-60.70181182 91.8120612 -62.9485855 92.29118851 -65.96875 92.9765625 C-66.99742188 93.21632813 -68.02609375 93.45609375 -69.0859375 93.703125 C-70.07851562 93.91710937 -71.07109375 94.13109375 -72.09375 94.3515625 C-72.92261719 94.53847656 -73.75148437 94.72539062 -74.60546875 94.91796875 C-90.20132407 97.63561387 -104.80540345 92.22672275 -118.09375 84.3515625 C-121.57995653 81.84447947 -124.88210066 79.20060627 -128.09375 76.3515625 C-127.24568116 70.25093829 -121.62189852 66.96276094 -117.09375 63.3515625 C-93.1660057 45.65557991 -57.83563672 25.5070493 -27.09375 27.3515625 C-27.0525 26.2790625 -27.01125 25.2065625 -26.96875 24.1015625 C-25.78090561 14.94051604 -20.96075764 7.23981859 -13.828125 1.55859375 C-9.53889947 -1.42647537 -4.9084197 -1.52014491 0 0 Z " fill="#C44F4D" transform="translate(132.09375,72.6484375)"/>
<path d="M0 0 C2.63594163 0.36289382 3.74898251 0.7117441 5.52392578 2.75 C5.9929834 3.4925 6.46204102 4.235 6.9453125 5 C7.46480469 5.804375 7.98429688 6.60875 8.51953125 7.4375 C9.04933594 8.283125 9.57914063 9.12875 10.125 10 C11.18608116 11.66923079 12.250999 13.33603086 13.3203125 15 C13.78711426 15.7425 14.25391602 16.485 14.73486328 17.25 C15.89643445 19.14106681 15.89643445 19.14106681 18 20 C18 16.37 18 12.74 18 9 C18.33 9 18.66 9 19 9 C19.01417969 10.08539063 19.02835938 11.17078125 19.04296875 12.2890625 C19.08989582 13.73441613 19.13814305 15.17972731 19.1875 16.625 C19.19330078 17.33785156 19.19910156 18.05070312 19.20507812 18.78515625 C19.4412055 24.50468588 20.95011871 26.96189162 25 31 C26.23802077 32.12068418 27.50407472 33.21238169 28.8125 34.25 C30.64453125 35.703125 30.64453125 35.703125 32 37 C32 37.66 32 38.32 32 39 C32.99 38.67 33.98 38.34 35 38 C35.2475 38.78375 35.495 39.5675 35.75 40.375 C37.22982194 43.48262608 37.96660177 43.63199688 41 45 C42.44066322 45.80687792 43.87804705 46.61963251 45.3125 47.4375 C54.44048879 52.50860488 62.95476678 55.37836861 73.375 55.1875 C74.11161865 55.18105469 74.8482373 55.17460937 75.60717773 55.16796875 C81.11741106 55.09057274 86.53053173 54.69453565 92 54 C90.68 55.32 89.36 56.64 88 58 C89.485 58.495 89.485 58.495 91 59 C74.10373165 63.10495023 59.14418726 60.57061147 44 52 C44.74407582 54.31456373 45.49367879 56.62692911 46.25 58.9375 C46.47453857 59.62465088 46.69907715 60.31180176 46.93041992 61.01977539 C48.1853783 64.78819938 49.5581608 68.36594206 51.3125 71.9375 C53.30564727 76.29138317 53.69445169 79.21599947 53 84 C50.95341949 87.96817901 48.71568397 90.52287735 45 93 C39.8419752 93.75853306 35.44276873 93.98231062 31.0625 91 C28.61485359 87.43978705 26.69378346 83.97022842 25 80 C24.63648438 79.16210938 24.27296875 78.32421875 23.8984375 77.4609375 C21.17296554 70.65706145 20.25495011 64.30432053 20 57 C20.66 57 21.32 57 22 57 C22.37511719 58.00417969 22.75023437 59.00835937 23.13671875 60.04296875 C24.20116656 62.8910575 25.27127867 65.73695523 26.34375 68.58203125 C27.38367242 71.34372338 28.40539707 74.11064609 29.40625 76.88671875 C29.8290625 78.03785156 30.251875 79.18898438 30.6875 80.375 C31.06261719 81.41398437 31.43773437 82.45296875 31.82421875 83.5234375 C32.87754859 86.28940021 32.87754859 86.28940021 36 88 C39.54583171 88.32234834 42.02764533 88.53384178 45.19140625 86.796875 C47.19080812 85.13168655 47.19080812 85.13168655 47.53125 82.65234375 C47.46306865 76.72908927 46.65550146 72.20082011 44.203125 66.8125 C42.2239373 62.18582745 40.8870392 57.33104348 39.44140625 52.515625 C37.17431951 46.98614515 33.54121667 43.23869644 29 39.375 C27.9790625 38.50294922 27.9790625 38.50294922 26.9375 37.61328125 C24.65048605 35.70897327 22.34523823 33.83221737 20 32 C20.04125 32.886875 20.0825 33.77375 20.125 34.6875 C20.14910219 40.5202299 18.96568978 46.26621692 18 52 C17.01 52 16.02 52 15 52 C14.773125 51.236875 14.54625 50.47375 14.3125 49.6875 C13.20742124 46.5827549 11.96353618 43.72509189 10.5625 40.75 C8.54443991 36.389338 7.03881694 32.10777033 5.7578125 27.484375 C4.68999954 23.98370984 3.24603478 20.6698541 1.76953125 17.32421875 C0.92022211 14.75904647 0.86221555 12.68442118 1 10 C1.66 10.33 2.32 10.66 3 11 C3 11.66 3 12.32 3 13 C3.99 13.33 4.98 13.66 6 14 C7.28125 16.40625 7.28125 16.40625 8.5 19.5 C8.92667969 20.57765625 9.35335937 21.6553125 9.79296875 22.765625 C11.30432834 26.81548178 12.69503879 30.87906987 14 35 C15.38484263 30.10977446 15.76801714 26.49129541 13.390625 21.875 C11.99632065 19.8395192 10.56017361 17.83188574 9.078125 15.859375 C7.01228359 13.01690148 5.56710544 10.13421088 4 7 C3.278125 6.46375 2.55625 5.9275 1.8125 5.375 C1.214375 4.92125 0.61625 4.4675 0 4 C0 2.68 0 1.36 0 0 Z " fill="#C24F4C" transform="translate(129,107)"/>
<path d="M0 0 C9.24 0 18.48 0 28 0 C28 2.31 28 4.62 28 7 C27.67 7.33 27.34 7.66 27 8 C26.66587115 9.70860912 26.3828027 11.42724732 26.12109375 13.1484375 C24.96751232 20.35165178 23.5528879 27.48465295 22.0625 34.625 C21.81048828 35.88957031 21.55847656 37.15414062 21.29882812 38.45703125 C21.04681641 39.65972656 20.79480469 40.86242187 20.53515625 42.1015625 C20.312229 43.18775879 20.08930176 44.27395508 19.85961914 45.39306641 C19 48 19 48 16 50 C13.5 50.4375 13.5 50.4375 11 50 C7.62527757 45.70573174 6.92914479 40.91555137 5.95703125 35.68359375 C5.69704597 34.34337914 5.69704597 34.34337914 5.43180847 32.97608948 C5.06851938 31.09341949 4.70991391 29.20984039 4.35571289 27.32543945 C3.81335865 24.44206493 3.25658737 21.56176686 2.69726562 18.68164062 C2.34550817 16.84912052 1.99456869 15.01644318 1.64453125 13.18359375 C1.47895218 12.32309921 1.31337311 11.46260468 1.14277649 10.57603455 C0.99229355 9.7716243 0.84181061 8.96721405 0.68676758 8.13842773 C0.55369705 7.43403061 0.42062653 6.72963348 0.28352356 6.00389099 C0 4 0 4 0 0 Z " fill="#04303B" transform="translate(113,167)"/>
<path d="M0 0 C0.33 0 0.66 0 1 0 C4.59771831 15.38667026 1.48788346 25.58752613 -4.71875 39.96875 C-5.59987242 42.0533567 -6.4307429 44.15969241 -7.21875 46.28125 C-10.63827651 55.3123072 -10.63827651 55.3123072 -13.9375 57.8125 C-17.61958076 59.2402456 -19.2946485 59.36936903 -23 58 C-26.12212113 55.28868428 -26.90584108 53.58587774 -27.5625 49.5 C-27.31247247 44.40328489 -25.21831163 39.91114022 -23.29296875 35.24609375 C-22.16050638 32.40296315 -21.28690007 29.63951241 -20.5 26.6875 C-18.3557708 19.33755881 -14.80334262 14.31701761 -8.84375 9.5859375 C-6.04106176 7.17515058 -3.74795872 4.37087434 -1.3828125 1.5390625 C-0.92648438 1.03117188 -0.47015625 0.52328125 0 0 Z " fill="#05303B" transform="translate(104,138)"/>
<path d="M0 0 C3.06715595 1.35945995 5.07741042 2.88007535 7.375 5.3125 C9.58640185 7.61860857 11.60149115 9.44816987 14.1875 11.375 C20.58907811 17.34980624 22.36226991 26.83427503 24.98242188 34.9675293 C25.95349703 38.77979318 25.95349703 38.77979318 28 42 C29.10598477 51.55886834 29.10598477 51.55886834 25.9375 55.6875 C22.30519315 57.31044561 19.94107612 57.50159151 16 57 C11.77763887 54.96731734 10.84084514 51.65637539 9.36230469 47.48754883 C9.07774414 46.64603271 8.79318359 45.8045166 8.5 44.9375 C7.89159101 43.21059686 7.28222513 41.48403053 6.671875 39.7578125 C6.38376953 38.9318457 6.09566406 38.10587891 5.79882812 37.25488281 C4.85062912 34.57836508 3.82154422 31.94190466 2.75 29.3125 C2.4509375 28.57 2.151875 27.8275 1.84375 27.0625 C1.27094614 25.66231279 0.68720878 24.26655853 0.09375 22.875 C-3.14636859 14.95471012 -1.83587609 8.14670015 0 0 Z " fill="#05303B" transform="translate(149,139)"/>
<path d="M0 0 C0.66 0 1.32 0 2 0 C4.7033908 6.82174784 7.25132525 13.64246175 9.5 20.625 C11.00026118 25.24961463 12.67039086 29.5748383 14.8125 33.9375 C17.0369896 38.60265218 17.57023765 41.86786113 17 47 C16 48 16 48 13.13256836 48.11352539 C11.88096924 48.10828857 10.62937012 48.10305176 9.33984375 48.09765625 C8.34314415 48.09553383 8.34314415 48.09553383 7.3263092 48.09336853 C5.19666101 48.08775518 3.06711661 48.07520054 0.9375 48.0625 C-0.50325369 48.05748671 -1.94400903 48.05292351 -3.38476562 48.04882812 C-6.92321102 48.03778145 -10.46159539 48.02050792 -14 48 C-15.88259749 44.23480501 -15.44373151 40.51544289 -14.29443359 36.59033203 C-13.31387521 33.88933476 -12.26803572 31.22504598 -11.1875 28.5625 C-10.47259675 26.75132557 -9.75775213 24.94012799 -9.04296875 23.12890625 C-8.69516357 22.25959473 -8.3473584 21.3902832 -7.98901367 20.49462891 C-7.09229775 18.23280633 -6.22474544 15.96339859 -5.375 13.68359375 C-4.22571413 10.60468303 -3.04023885 7.54817922 -1.8125 4.5 C-1.29623047 3.21609375 -1.29623047 3.21609375 -0.76953125 1.90625 C-0.51558594 1.2771875 -0.26164062 0.648125 0 0 Z " fill="#06303B" transform="translate(126,114)"/>
<path d="M0 0 C0.37898438 0.50273438 0.75796875 1.00546875 1.1484375 1.5234375 C2.95251666 3.27107781 2.95251666 3.27107781 5.6640625 3.0390625 C6.64117187 2.90242188 7.61828125 2.76578125 8.625 2.625 C10.41279265 2.38568917 12.20425567 2.16963057 14 2 C15 3 15 3 15.11352539 5.22485352 C15.10828857 6.18319092 15.10305176 7.14152832 15.09765625 8.12890625 C15.09443359 9.16337891 15.09121094 10.19785156 15.08789062 11.26367188 C15.07532227 12.8965918 15.07532227 12.8965918 15.0625 14.5625 C15.05798828 15.65498047 15.05347656 16.74746094 15.04882812 17.87304688 C15.03699826 20.58208495 15.02051543 23.29101599 15 26 C11.77865322 22.86904601 9.33265075 19.70807824 6.875 15.9375 C6.19179687 14.89464844 5.50859375 13.85179688 4.8046875 12.77734375 C4.20914063 11.86082031 3.61359375 10.94429687 3 10 C1.27773504 6.75150023 1.27773504 6.75150023 -2 6 C-2 7.32 -2 8.64 -2 10 C-1.401875 10.2475 -0.80375 10.495 -0.1875 10.75 C4.79203729 13.59544988 6.91658998 19.44603518 9.5 24.34375 C10.87800401 26.99363615 10.87800401 26.99363615 12.70703125 28.953125 C14.54714796 31.86617985 14.09059118 33.87869192 13.6875 37.25 C13.56761719 38.32765625 13.44773438 39.4053125 13.32421875 40.515625 C13.21722656 41.33546875 13.11023438 42.1553125 13 43 C9.34998538 40.2651494 8.6241258 36.24376503 7.4375 32.0625 C5.64063601 24.42050632 5.64063601 24.42050632 1 18.5 C-1.19932105 16.85050922 -1.96166898 15.50929996 -3 13 C-5.31801605 13.87068755 -5.31801605 13.87068755 -6 16.80078125 C-6.33 17.95964844 -6.66 19.11851563 -7 20.3125 C-8.07739107 24.07074308 -9.10350832 27.57107531 -11 31 C-11.99 31 -12.98 31 -14 31 C-14.39832031 31.90492188 -14.39832031 31.90492188 -14.8046875 32.828125 C-15.33449219 34.02695313 -15.33449219 34.02695313 -15.875 35.25 C-16.22304687 36.03890625 -16.57109375 36.8278125 -16.9296875 37.640625 C-17.90413905 39.78868608 -18.92986429 41.89829202 -20 44 C-20.66 44 -21.32 44 -22 44 C-21.98259766 42.28490234 -21.98259766 42.28490234 -21.96484375 40.53515625 C-21.95546712 39.04427246 -21.94636679 37.55338691 -21.9375 36.0625 C-21.92912109 35.30775391 -21.92074219 34.55300781 -21.91210938 33.77539062 C-21.90347559 31.85005687 -21.94775667 29.92464419 -22 28 C-22.33 27.67 -22.66 27.34 -23 27 C-23.08737645 25.14630389 -23.10698153 23.28932459 -23.09765625 21.43359375 C-23.09443359 20.30888672 -23.09121094 19.18417969 -23.08789062 18.02539062 C-23.07951172 16.84138672 -23.07113281 15.65738281 -23.0625 14.4375 C-23.05798828 13.24962891 -23.05347656 12.06175781 -23.04882812 10.83789062 C-23.03699675 7.89187774 -23.02051287 4.94596319 -23 2 C-18.02943092 2.60876173 -14.38848217 3.53816854 -10 6 C-10.33 7.98 -10.66 9.96 -11 12 C-8.01418302 9.44595059 -8.01418302 9.44595059 -6.5625 5.9375 C-6 4 -6 4 -3.5 2.3125 C-2.675 1.879375 -1.85 1.44625 -1 1 C-0.67 0.67 -0.34 0.34 0 0 Z " fill="#BC4E4C" transform="translate(131,101)"/>
<path d="M0 0 C8.94474266 3.91864916 12.47995585 10.8381451 16.04296875 19.56640625 C16.92578125 22.3359375 16.92578125 22.3359375 16.92578125 26.3359375 C13.93664958 25.29953667 13.0615667 24.60669774 11.6171875 21.7265625 C11.24464844 20.69015625 10.87210938 19.65375 10.48828125 18.5859375 C8.23173564 12.81305701 6.14018973 8.69317039 1.05078125 4.9609375 C-3.26256149 3.69230728 -6.8242147 3.68252629 -10.82421875 5.7734375 C-11.56671875 6.2890625 -12.30921875 6.8046875 -13.07421875 7.3359375 C-14.06421875 7.6659375 -15.05421875 7.9959375 -16.07421875 8.3359375 C-18.36720608 11.87168896 -19.40310511 16.10040955 -20.69921875 20.0859375 C-21.48296875 22.4784375 -22.26671875 24.8709375 -23.07421875 27.3359375 C-15.48421875 27.3359375 -7.89421875 27.3359375 -0.07421875 27.3359375 C-1.39421875 28.9859375 -2.71421875 30.6359375 -4.07421875 32.3359375 C-5.06421875 32.3359375 -6.05421875 32.3359375 -7.07421875 32.3359375 C-7.16703125 33.728125 -7.16703125 33.728125 -7.26171875 35.1484375 C-8.07421875 38.3359375 -8.07421875 38.3359375 -10.63671875 40.2109375 C-11.44109375 40.5821875 -12.24546875 40.9534375 -13.07421875 41.3359375 C-12.74421875 39.0259375 -12.41421875 36.7159375 -12.07421875 34.3359375 C-13.12609375 33.8615625 -14.17796875 33.3871875 -15.26171875 32.8984375 C-15.85339844 32.63160156 -16.44507812 32.36476562 -17.0546875 32.08984375 C-19.36573361 31.2271128 -21.65443383 30.79759553 -24.07421875 30.3359375 C-23.93526918 34.41953566 -23.78686937 38.50273706 -23.63671875 42.5859375 C-23.59740234 43.74480469 -23.55808594 44.90367188 -23.51757812 46.09765625 C-23.45473633 47.77021484 -23.45473633 47.77021484 -23.390625 49.4765625 C-23.35396729 50.50297852 -23.31730957 51.52939453 -23.27954102 52.58691406 C-23.10059498 54.98279084 -22.66948685 57.0237391 -22.07421875 59.3359375 C-22.15857554 61.58908004 -22.30961074 63.84029289 -22.51171875 66.0859375 C-22.61355469 67.25640625 -22.71539062 68.426875 -22.8203125 69.6328125 C-22.90410156 70.52484375 -22.98789063 71.416875 -23.07421875 72.3359375 C-20.8254535 71.49169433 -20.8254535 71.49169433 -20.14453125 68.9375 C-19.51630181 66.95935606 -18.89127973 64.98019053 -18.26953125 63 C-16.95690757 60.07447925 -15.77027295 58.99418004 -13.07421875 57.3359375 C-13.63624198 62.7454111 -15.02246477 67.19580756 -17.07421875 72.2109375 C-19.35197955 77.9874992 -20.85045354 83.07051165 -21.07421875 89.3359375 C-23.54921875 89.8309375 -23.54921875 89.8309375 -26.07421875 90.3359375 C-26.05101563 89.35753906 -26.0278125 88.37914062 -26.00390625 87.37109375 C-25.90329644 80.06250997 -26.0846596 73.42374199 -28.07421875 66.3359375 C-29.06421875 67.3259375 -29.06421875 67.3259375 -30.07421875 68.3359375 C-31.06421875 68.3359375 -32.05421875 68.3359375 -33.07421875 68.3359375 C-32.66872294 65.4974668 -32.2451031 64.48921005 -30.06542969 62.53417969 C-27.61190532 59.82555617 -27.54493625 58.51822492 -27.46484375 54.9140625 C-27.43261719 53.88925781 -27.40039062 52.86445312 -27.3671875 51.80859375 C-27.34591797 50.21337891 -27.34591797 50.21337891 -27.32421875 48.5859375 C-27.29457031 47.50699219 -27.26492187 46.42804688 -27.234375 45.31640625 C-27.16374939 42.65617506 -27.11101679 39.99681648 -27.07421875 37.3359375 C-28.06421875 37.3359375 -29.05421875 37.3359375 -30.07421875 37.3359375 C-29.47967562 32.48050191 -28.55087267 27.99905513 -27.07421875 23.3359375 C-26.67396484 22.04623047 -26.67396484 22.04623047 -26.265625 20.73046875 C-23.46440748 12.30356958 -19.54340472 5.12502511 -11.921875 0.18359375 C-7.80943919 -1.70308399 -4.14543028 -1.32716223 0 0 Z " fill="#C7504D" transform="translate(132.07421875,72.6640625)"/>
<path d="M0 0 C6.83854501 3.20992929 10.56017737 9.5313364 13.375 16.3125 C14 19 14 19 14 23 C2.45 23 -9.1 23 -21 23 C-19.89775716 14.18205728 -18.79702983 8.82602557 -12 3 C-7.96392979 -0.08015885 -5.04692784 -0.61979816 0 0 Z " fill="#08303B" transform="translate(131,76)"/>
<path d="M0 0 C0.33 0.66 0.66 1.32 1 2 C12.55 2 24.1 2 36 2 C36.33 1.34 36.66 0.68 37 0 C37.99 0.66 38.98 1.32 40 2 C40 2.99 40 3.98 40 5 C40.66 5 41.32 5 42 5 C46.13228255 15.18053957 50.22425028 25.35040269 53.83203125 35.73046875 C55.48460943 40.35658226 57.32676429 44.90403208 59.1796875 49.453125 C60 52 60 52 59 54 C57.0625 53.1875 57.0625 53.1875 55 52 C54.67 51.01 54.34 50.02 54 49 C53.34 49 52.68 49 52 49 C50.76831795 47.56858573 49.54252002 46.1311681 48.36328125 44.65625 C45.91920714 41.68694506 43.16812315 39.00124841 40.25 36.5 C38.55604291 34.4672515 38.34892641 32.58205543 38 30 C37.67 30 37.34 30 37 30 C36.67 22.41 36.34 14.82 36 7 C32.37 7.33 28.74 7.66 25 8 C24.34 6.35 23.68 4.7 23 3 C15.41 3 7.82 3 0 3 C0 2.01 0 1.02 0 0 Z " fill="#C34F4D" transform="translate(109,97)"/>
<path d="M0 0 C0.33 0.99 0.66 1.98 1 3 C1.99 3 2.98 3 4 3 C4.14560195 6.72875388 4.23417043 10.45677434 4.3125 14.1875 C4.35439453 15.24259766 4.39628906 16.29769531 4.43945312 17.38476562 C4.56428882 25.29934885 4.56428882 25.29934885 1.54296875 29.05078125 C0.70378906 29.69402344 -0.13539062 30.33726562 -1 31 C-1.33 31.99 -1.66 32.98 -2 34 C-1.34 34.33 -0.68 34.66 0 35 C-2.8046951 38.45116738 -5.34826886 41.53835711 -9 44.125 C-13.86499806 47.89601702 -15.72270119 54.48441457 -18 60 C-18.99 60 -19.98 60 -21 60 C-20.125 54.25 -20.125 54.25 -19 52 C-19.7425 52.350625 -20.485 52.70125 -21.25 53.0625 C-24.1322726 54.04509293 -25.21176345 54.0326802 -28 53 C-24.74098981 49.48026899 -21.1139069 46.47239725 -17 44 C-16.34 44 -15.68 44 -15 44 C-14.89494141 42.84806152 -14.78988281 41.69612305 -14.68164062 40.50927734 C-14.11281416 35.99375231 -12.76476799 32.06537829 -11.09375 27.8515625 C-10.80898804 27.1129599 -10.52422607 26.3743573 -10.23083496 25.6133728 C-9.32899701 23.28053586 -8.4146317 20.95284628 -7.5 18.625 C-6.8859092 17.04067813 -6.27262044 15.45604514 -5.66015625 13.87109375 C-1.26208093 2.52416186 -1.26208093 2.52416186 0 0 Z " fill="#C74F4C" transform="translate(101,107)"/>
<path d="M0 0 C2.63594163 0.36289382 3.74898251 0.7117441 5.52392578 2.75 C5.9929834 3.4925 6.46204102 4.235 6.9453125 5 C7.46480469 5.804375 7.98429688 6.60875 8.51953125 7.4375 C9.04933594 8.283125 9.57914063 9.12875 10.125 10 C11.18608116 11.66923079 12.250999 13.33603086 13.3203125 15 C13.78711426 15.7425 14.25391602 16.485 14.73486328 17.25 C15.89643445 19.14106681 15.89643445 19.14106681 18 20 C18 16.37 18 12.74 18 9 C18.33 9 18.66 9 19 9 C19.01417969 10.08539063 19.02835938 11.17078125 19.04296875 12.2890625 C19.08989582 13.73441613 19.13814305 15.17972731 19.1875 16.625 C19.19330078 17.33785156 19.19910156 18.05070312 19.20507812 18.78515625 C19.4412055 24.50468588 20.95011871 26.96189162 25 31 C26.23802077 32.12068418 27.50407472 33.21238169 28.8125 34.25 C30.64453125 35.703125 30.64453125 35.703125 32 37 C32 37.66 32 38.32 32 39 C32.99 38.67 33.98 38.34 35 38 C35.2475 38.78375 35.495 39.5675 35.75 40.375 C37.17491464 43.36732074 37.97767187 43.86662695 41 45 C41.99 45.495 41.99 45.495 43 46 C43 46.66 43 47.32 43 48 C36.85029183 46.75132829 33.64429011 44.3839506 29.25 40 C24.86985493 35.71150269 24.86985493 35.71150269 20 32 C20.04125 32.886875 20.0825 33.77375 20.125 34.6875 C20.14910219 40.5202299 18.96568978 46.26621692 18 52 C17.01 52 16.02 52 15 52 C14.773125 51.236875 14.54625 50.47375 14.3125 49.6875 C13.20742124 46.5827549 11.96353618 43.72509189 10.5625 40.75 C8.54443991 36.389338 7.03881694 32.10777033 5.7578125 27.484375 C4.68999954 23.98370984 3.24603478 20.6698541 1.76953125 17.32421875 C0.92022211 14.75904647 0.86221555 12.68442118 1 10 C1.66 10.33 2.32 10.66 3 11 C3 11.66 3 12.32 3 13 C3.99 13.33 4.98 13.66 6 14 C7.28125 16.40625 7.28125 16.40625 8.5 19.5 C8.92667969 20.57765625 9.35335937 21.6553125 9.79296875 22.765625 C11.30432834 26.81548178 12.69503879 30.87906987 14 35 C15.38484263 30.10977446 15.76801714 26.49129541 13.390625 21.875 C11.99632065 19.8395192 10.56017361 17.83188574 9.078125 15.859375 C7.01228359 13.01690148 5.56710544 10.13421088 4 7 C3.278125 6.46375 2.55625 5.9275 1.8125 5.375 C1.214375 4.92125 0.61625 4.4675 0 4 C0 2.68 0 1.36 0 0 Z " fill="#C8504E" transform="translate(129,107)"/>
<path d="M0 0 C1.12277344 0.55429688 2.24554688 1.10859375 3.40234375 1.6796875 C4.91382141 2.41195618 6.42555396 3.1436989 7.9375 3.875 C8.67291016 4.23980469 9.40832031 4.60460937 10.16601562 4.98046875 C23.22319396 11.25247581 37.51755634 11.85654131 51.3515625 7.75390625 C54.21615146 6.93847016 57.05714487 6.44444879 60 6 C60 9 60 9 58.8671875 10.5859375 C56.39193818 12.4604987 54.1451645 12.93962601 51.125 13.625 C50.09632812 13.86476562 49.06765625 14.10453125 48.0078125 14.3515625 C47.01523437 14.56554687 46.02265625 14.77953125 45 15 C44.17113281 15.18691406 43.34226563 15.37382812 42.48828125 15.56640625 C27.05036449 18.25652989 12.08495202 12.96555695 -1 5 C-1.66 4.01 -2.32 3.02 -3 2 C-2.01 2 -1.02 2 0 2 C0 1.34 0 0.68 0 0 Z " fill="#B84D4B" transform="translate(15,152)"/>
<path d="M0 0 C-1.39656555 4.18969666 -4.28829849 5.01016172 -8 6.9375 C-14.3495278 10.36159849 -20.31456362 14.12333602 -26.1875 18.3125 C-26.89326172 18.81579834 -27.59902344 19.31909668 -28.32617188 19.83764648 C-31.96641063 22.46227965 -35.52424104 25.15865141 -39 28 C-37.85123314 31.44630058 -36.80859085 31.91620679 -34 34 C-34 34.66 -34 35.32 -34 36 C-36.66355234 36.39169887 -38.39224373 36.40564529 -40.66796875 34.88671875 C-42.1510888 33.63610683 -43.57954352 32.32135486 -45 31 C-44.15774378 24.94118912 -38.55266029 21.54600733 -34 18 C-8.36936578 -0.84004787 -8.36936578 -0.84004787 0 0 Z " fill="#D25252" transform="translate(49,118)"/>
<path d="M0 0 C10.70378494 1.76081519 21.37246072 3.57457924 31.8125 6.5625 C32.52849365 6.75996826 33.2444873 6.95743652 33.98217773 7.16088867 C35.95703125 7.75390625 35.95703125 7.75390625 39 9 C39.495 10.485 39.495 10.485 40 12 C42.75281216 13.36306396 42.75281216 13.36306396 46 14.5 C49.3125 15.71875 49.3125 15.71875 52 17 C52.495 18.485 52.495 18.485 53 20 C48.78543481 18.62068776 44.6016961 17.23111506 40.4609375 15.640625 C30.71368619 11.93727681 21.03282557 9.56190878 10.75952148 7.73681641 C9.26980835 7.459104 9.26980835 7.459104 7.75 7.17578125 C6.41195312 6.94242065 6.41195312 6.94242065 5.046875 6.7043457 C4.37140625 6.47191162 3.6959375 6.23947754 3 6 C2.67 5.01 2.34 4.02 2 3 C1.34 3 0.68 3 0 3 C0 2.01 0 1.02 0 0 Z " fill="#B74E4C" transform="translate(149,99)"/>
<path d="M0 0 C10.6450906 2.9529683 22.41362346 1.81354781 33.25 0.4375 C31.93 1.7575 30.61 3.0775 29.25 4.4375 C30.24 4.7675 31.23 5.0975 32.25 5.4375 C15.97208617 9.39222093 1.14698755 7.1292099 -13.75 -0.5625 C-8.85687152 -3.64335867 -5.11452633 -1.68583909 0 0 Z " fill="#B54D4B" transform="translate(187.75,160.5625)"/>
<path d="M0 0 C1 1 1 1 1.11352539 3.22485352 C1.10828857 4.18319092 1.10305176 5.14152832 1.09765625 6.12890625 C1.09443359 7.16337891 1.09121094 8.19785156 1.08789062 9.26367188 C1.07951172 10.35228516 1.07113281 11.44089844 1.0625 12.5625 C1.05798828 13.65498047 1.05347656 14.74746094 1.04882812 15.87304688 C1.03699826 18.58208495 1.02051543 21.29101599 1 24 C-2.20084793 20.88154682 -4.70489647 17.72623419 -7.1875 14 C-7.88230469 12.96875 -8.57710937 11.9375 -9.29296875 10.875 C-10.73053596 8.45383417 -11.55842374 6.74172724 -12 4 C-4.55696203 -0.67014147 -4.55696203 -0.67014147 0 0 Z " fill="#0F323C" transform="translate(145,103)"/>
<path d="M0 0 C0.33 0.99 0.66 1.98 1 3 C3.47266765 2.65555119 3.47266765 2.65555119 6 2 C6.33 1.34 6.66 0.68 7 0 C7 0.66 7 1.32 7 2 C16.24 2 25.48 2 35 2 C35 2.33 35 2.66 35 3 C25.43 3.33 15.86 3.66 6 4 C5.67 6.97 5.34 9.94 5 13 C4.67 13 4.34 13 4 13 C3.67 10.36 3.34 7.72 3 5 C2.5875 6.2375 2.175 7.475 1.75 8.75 C1.47542969 9.56855469 1.20085937 10.38710937 0.91796875 11.23046875 C0.2831691 13.14567279 -0.33838883 15.06529817 -0.94921875 16.98828125 C-2.87177039 22.96870869 -5.02078113 28.46716496 -8 34 C-10 34 -12 34 -14 34 C-13.57589844 33.36449219 -13.15179688 32.72898438 -12.71484375 32.07421875 C-10.51507404 28.13066803 -9.07083483 24.05933648 -7.5625 19.8125 C-6.94896135 18.11420556 -6.33438636 16.41628514 -5.71875 14.71875 C-5.42484375 13.90664062 -5.1309375 13.09453125 -4.828125 12.2578125 C-3.31527059 8.13314341 -1.67996403 4.05904353 0 0 Z " fill="#BA4D4B" transform="translate(105,160)"/>
<path d="M0 0 C5.66082034 0.80868862 8.29672643 1.36157824 13 4 C12.37231912 8.00750098 10.32750519 10.75714885 8.0625 14.0625 C7.35222656 15.10535156 6.64195313 16.14820313 5.91015625 17.22265625 C5.27980469 18.13917969 4.64945312 19.05570313 4 20 C3.34 20.99 2.68 21.98 2 23 C1.34 23 0.68 23 0 23 C0 15.41 0 7.82 0 0 Z " fill="#13323C" transform="translate(108,103)"/>
<path d="M0 0 C8.91620345 4.01229155 12.44481127 10.81552233 16.0234375 19.58203125 C16.90625 22.3515625 16.90625 22.3515625 16.90625 26.3515625 C13.91711833 25.31516167 13.04203545 24.62232274 11.59765625 21.7421875 C11.22511719 20.70578125 10.85257813 19.669375 10.46875 18.6015625 C8.21220439 12.82868201 6.12065848 8.70879539 1.03125 4.9765625 C-3.58702376 3.61824669 -7.14701816 3.93844315 -11.53125 5.8515625 C-12.376875 6.3465625 -13.2225 6.8415625 -14.09375 7.3515625 C-14.42375 6.6915625 -14.75375 6.0315625 -15.09375 5.3515625 C-16.08375 6.3415625 -17.07375 7.3315625 -18.09375 8.3515625 C-18.75375 8.0215625 -19.41375 7.6915625 -20.09375 7.3515625 C-18.80439081 6.20313327 -17.51218421 5.05790023 -16.21875 3.9140625 C-15.13980469 2.95693359 -15.13980469 2.95693359 -14.0390625 1.98046875 C-9.86439848 -1.51518365 -5.07187426 -1.57076703 0 0 Z " fill="#C6504D" transform="translate(132.09375,72.6484375)"/>
<path d="M0 0 C0.33 0 0.66 0 1 0 C3.83772792 16.54523027 3.83772792 16.54523027 0.86962891 22.125 C-2.22165351 26.05433615 -5.96406531 29.08417054 -10 32 C-11.45655308 27.46669017 -9.93424935 24.16590778 -8.3125 19.875 C-8.03575439 19.11960938 -7.75900879 18.36421875 -7.47387695 17.5859375 C-6.66255073 15.3853476 -5.83515725 13.19164257 -5 11 C-4.58492188 9.90945312 -4.16984375 8.81890625 -3.7421875 7.6953125 C-1.20089286 1.20089286 -1.20089286 1.20089286 0 0 Z " fill="#0D313B" transform="translate(103,113)"/>
<path d="M0 0 C2.79868198 3.29352141 4.05917544 6.54877457 5.4375 10.625 C7.22162102 15.83094583 9.15257338 20.89087023 11.3984375 25.9140625 C12.09721395 28.33709252 11.81960514 29.64762682 11 32 C9.74520346 30.94316894 8.49640127 29.87921933 7.25 28.8125 C6.55390625 28.22082031 5.8578125 27.62914062 5.140625 27.01953125 C4.43421875 26.35308594 3.7278125 25.68664062 3 25 C2.2471875 24.3090625 1.494375 23.618125 0.71875 22.90625 C-1.87410014 18.52197613 -1.19109817 14.64110245 -0.75 9.6875 C-0.68425781 8.75615234 -0.61851562 7.82480469 -0.55078125 6.86523438 C-0.38633059 4.57467158 -0.20220182 2.28748761 0 0 Z " fill="#0F313B" transform="translate(150,113)"/>
<path d="M0 0 C0.02505615 0.76666992 0.0501123 1.53333984 0.07592773 2.32324219 C0.19201423 5.79899283 0.31468366 9.27448092 0.4375 12.75 C0.47681641 13.9565625 0.51613281 15.163125 0.55664062 16.40625 C0.61948242 18.14648438 0.61948242 18.14648438 0.68359375 19.921875 C0.72025146 20.99018555 0.75690918 22.05849609 0.79467773 23.15917969 C0.90713652 25.92021468 0.90713652 25.92021468 1.57836914 28.20800781 C2.20562445 30.87393367 1.13700906 32.59221611 0 35 C-1.32 35 -2.64 35 -4 35 C-4.66 36.32 -5.32 37.64 -6 39 C-6.99 39 -7.98 39 -9 39 C-8.59450419 36.1615293 -8.17088435 35.15327255 -5.99121094 33.19824219 C-3.53768657 30.48961867 -3.4707175 29.18228742 -3.390625 25.578125 C-3.35839844 24.55332031 -3.32617188 23.52851562 -3.29296875 22.47265625 C-3.27169922 20.87744141 -3.27169922 20.87744141 -3.25 19.25 C-3.22035156 18.17105469 -3.19070312 17.09210938 -3.16015625 15.98046875 C-3.08953064 13.32023756 -3.03679804 10.66087898 -3 8 C-3.99 8 -4.98 8 -6 8 C-5.67 5.69 -5.34 3.38 -5 1 C-2 0 -2 0 0 0 Z " fill="#DA5452" transform="translate(108,102)"/>
<path d="M0 0 C0.99 0.495 0.99 0.495 2 1 C2 1.66 2 2.32 2 3 C2.99 3.33 3.98 3.66 5 4 C6.28125 6.40625 6.28125 6.40625 7.5 9.5 C7.92667969 10.57765625 8.35335937 11.6553125 8.79296875 12.765625 C10.30432834 16.81548178 11.69503879 20.87906987 13 25 C13.66 23.68 14.32 22.36 15 21 C15.31563182 26.26053037 14.66590937 29.44573816 12 34 C9.27619189 29.91428784 7.76060378 25.57079827 6 21 C5.74605469 20.35643555 5.49210938 19.71287109 5.23046875 19.04980469 C4.39495952 16.93232335 3.57153246 14.8104388 2.75 12.6875 C2.34442871 11.66523315 2.34442871 11.66523315 1.93066406 10.62231445 C0.52980245 6.95654626 -0.33481461 3.93407165 0 0 Z " fill="#BF4E4B" transform="translate(130,117)"/>
<path d="M0 0 C0.33 0.99 0.66 1.98 1 3 C1.99 3 2.98 3 4 3 C4 8.61 4 14.22 4 20 C3.67 20 3.34 20 3 20 C2.67 15.71 2.34 11.42 2 7 C-2.71461723 19.4235624 -2.71461723 19.4235624 -7 32 C-7.33 32 -7.66 32 -8 32 C-8.144375 31.21625 -8.28875 30.4325 -8.4375 29.625 C-8.87798925 27.03578982 -8.87798925 27.03578982 -10 25 C-9.19555664 22.47802734 -9.19555664 22.47802734 -7.91015625 19.3359375 C-7.45576172 18.21445313 -7.00136719 17.09296875 -6.53320312 15.9375 C-6.04787109 14.761875 -5.56253906 13.58625 -5.0625 12.375 C-4.34030273 10.59996094 -4.34030273 10.59996094 -3.60351562 8.7890625 C-2.40920295 5.85649275 -1.20776337 2.92705005 0 0 Z " fill="#BD4E4C" transform="translate(101,107)"/>
<path d="M0 0 C2.07143338 5.59867015 -1.23519122 10.93001264 -3.25 16.1875 C-3.65863281 17.30576172 -4.06726563 18.42402344 -4.48828125 19.57617188 C-4.88917969 20.63771484 -5.29007812 21.69925781 -5.703125 22.79296875 C-6.07083008 23.7677417 -6.43853516 24.74251465 -6.81738281 25.74682617 C-8 28 -8 28 -11 29 C-11.85453626 20.34612482 -11.34148061 15.02817468 -5.82421875 8.16796875 C-5.22222656 7.45253906 -4.62023437 6.73710938 -4 6 C-3.16868389 4.80453389 -2.35234523 3.59826211 -1.5625 2.375 C-1.046875 1.59125 -0.53125 0.8075 0 0 Z " fill="#14323C" transform="translate(120,116)"/>
<path d="M0 0 C-0.66 1.98 -1.32 3.96 -2 6 C-3.41152344 6.09087891 -3.41152344 6.09087891 -4.8515625 6.18359375 C-6.09679687 6.26738281 -7.34203125 6.35117188 -8.625 6.4375 C-9.85476562 6.51871094 -11.08453125 6.59992188 -12.3515625 6.68359375 C-15.61532388 6.96663944 -18.77943859 7.41038953 -22 8 C-22 7.01 -22 6.02 -22 5 C-24.31 5.33 -26.62 5.66 -29 6 C-25.21543693 3.47695796 -21.70949408 2.83473193 -17.3125 1.875 C-16.53455078 1.69324219 -15.75660156 1.51148437 -14.95507812 1.32421875 C-9.85667017 0.19312908 -5.22040823 -0.17898543 0 0 Z " fill="#B34D4B" transform="translate(105,100)"/>
<path d="M0 0 C3.91414778 1.30471593 4.16377475 2.70221338 6 6.3125 C8.03972929 10.34827707 8.03972929 10.34827707 10.70703125 13.96484375 C12.55211307 16.86903598 12.08989889 18.88448201 11.6875 22.25 C11.56761719 23.32765625 11.44773438 24.4053125 11.32421875 25.515625 C11.21722656 26.33546875 11.11023438 27.1553125 11 28 C7.36366187 25.2727464 6.66467373 21.29528336 5.5 17.125 C3.91913955 11.48043777 3.91913955 11.48043777 1.34375 6.2421875 C0 4 0 4 0 0 Z " fill="#13323C" transform="translate(133,116)"/>
<path d="M0 0 C0.33 0 0.66 0 1 0 C1 3.63 1 7.26 1 11 C2.98 9.35 4.96 7.7 7 6 C7 6.66 7 7.32 7 8 C7.66 8.33 8.32 8.66 9 9 C7.02 11.31 5.04 13.62 3 16 C2.01 15.34 1.02 14.68 0 14 C-1.32 14 -2.64 14 -4 14 C-4.66 14.99 -5.32 15.98 -6 17 C-5.51947285 11.35380599 -4.17262158 4.17262158 0 0 Z " fill="#C34F4E" transform="translate(92,133)"/>
<path d="M0 0 C0.66 0 1.32 0 2 0 C2.42781312 8.79393628 1.29967196 16.51311539 -1 25 C-1.33 24.34 -1.66 23.68 -2 23 C-2.66 23 -3.32 23 -4 23 C-4.34679933 15.37041479 -3.82882586 6.74066401 0 0 Z " fill="#CB514D" transform="translate(141,171)"/>
<path d="M0 0 C0.33 0.99 0.66 1.98 1 3 C3.47266765 2.65555119 3.47266765 2.65555119 6 2 C6.33 1.34 6.66 0.68 7 0 C7 0.66 7 1.32 7 2 C16.24 2 25.48 2 35 2 C35 2.33 35 2.66 35 3 C25.43 3.33 15.86 3.66 6 4 C5.67 6.97 5.34 9.94 5 13 C4.67 13 4.34 13 4 13 C3.67 10.36 3.34 7.72 3 5 C2.01 7.97 1.02 10.94 0 14 C-0.66 13.01 -1.32 12.02 -2 11 C-2.99 11.495 -2.99 11.495 -4 12 C-3.52309796 10.37433394 -3.04340334 8.74948689 -2.5625 7.125 C-2.29566406 6.22007812 -2.02882813 5.31515625 -1.75390625 4.3828125 C-1 2 -1 2 0 0 Z " fill="#AA4B4A" transform="translate(105,160)"/>
<path d="M0 0 C5.94 0 11.88 0 18 0 C16.68 1.65 15.36 3.3 14 5 C13.01 5 12.02 5 11 5 C10.938125 5.928125 10.87625 6.85625 10.8125 7.8125 C10 11 10 11 7.4375 12.875 C6.2309375 13.431875 6.2309375 13.431875 5 14 C5 13.34 5 12.68 5 12 C5.66 11.67 6.32 11.34 7 11 C7.85056945 7.44307323 8.16909807 5.50729422 7 2 C4.69 1.67 2.38 1.34 0 1 C0 0.67 0 0.34 0 0 Z " fill="#DD5452" transform="translate(114,100)"/>
<path d="M0 0 C0.33 0.99 0.66 1.98 1 3 C1.99 3 2.98 3 4 3 C4 8.61 4 14.22 4 20 C3.67 20 3.34 20 3 20 C2.67 15.71 2.34 11.42 2 7 C1.34 8.65 0.68 10.3 0 12 C-1.32 11.67 -2.64 11.34 -4 11 C-3.52269162 9.5410574 -3.04308958 8.08286504 -2.5625 6.625 C-2.29566406 5.81289062 -2.02882813 5.00078125 -1.75390625 4.1640625 C-1 2 -1 2 0 0 Z " fill="#A54A4A" transform="translate(101,107)"/>
<path d="M0 0 C0.99 0.33 1.98 0.66 3 1 C3 4.96 3 8.92 3 13 C1.35 13.33 -0.3 13.66 -2 14 C-2.25328119 8.93437617 -1.33583899 4.84241633 0 0 Z " fill="#E65656" transform="translate(108,149)"/>
<path d="M0 0 C0.33 0.99 0.66 1.98 1 3 C-3.82029598 7.82029598 -3.82029598 7.82029598 -7.1796875 8.33203125 C-9.1228691 8.31474316 -11.06392229 8.16690325 -13 8 C-13.33 7.01 -13.66 6.02 -14 5 C-13.15695313 4.80664062 -12.31390625 4.61328125 -11.4453125 4.4140625 C-10.34960938 4.15367187 -9.25390625 3.89328125 -8.125 3.625 C-7.03445312 3.36976563 -5.94390625 3.11453125 -4.8203125 2.8515625 C-1.89591545 2.21093785 -1.89591545 2.21093785 0 0 Z " fill="#CF514D" transform="translate(95,192)"/>
<path d="M0 0 C0.99 0.33 1.98 0.66 3 1 C3 1.66 3 2.32 3 3 C3.99 2.67 4.98 2.34 6 2 C6.37125 3.175625 6.37125 3.175625 6.75 4.375 C8.17491464 7.36732074 8.97767187 7.86662695 12 9 C12.66 9.33 13.32 9.66 14 10 C14 10.66 14 11.32 14 12 C8.26301228 10.82918618 3.70750516 8.71044728 0 4 C0 2.68 0 1.36 0 0 Z " fill="#D85353" transform="translate(158,143)"/>
<path d="M0 0 C0.33 0.66 0.66 1.32 1 2 C2.32 1.34 3.64 0.68 5 0 C5 4 5 4 2.8125 6.75 C0 9 0 9 -5 9 C-3.35 6.03 -1.7 3.06 0 0 Z " fill="#DF5554" transform="translate(88,146)"/>
<path d="M0 0 C3.41782456 0.25317219 4.27744077 1.28374624 6.75 3.8125 C9 7 9 7 9 11 C8.01 11 7.02 11 6 11 C4.39453125 9.35546875 4.39453125 9.35546875 2.8125 7.1875 C2.28269531 6.47980469 1.75289062 5.77210937 1.20703125 5.04296875 C0 3 0 3 0 0 Z " fill="#D35353" transform="translate(135,76)"/>
<path d="M0 0 C0.33 0 0.66 0 1 0 C1.33 5.94 1.66 11.88 2 18 C1.01 18 0.02 18 -1 18 C-1 17.34 -1 16.68 -1 16 C-1.66 16 -2.32 16 -3 16 C-3.33 13.69 -3.66 11.38 -4 9 C-2.02 9.99 -2.02 9.99 0 11 C0 7.37 0 3.74 0 0 Z " fill="#E15555" transform="translate(147,116)"/>
<path d="M0 0 C0.33 0.66 0.66 1.32 1 2 C1.66 2.33 2.32 2.66 3 3 C1.02 5.31 -0.96 7.62 -3 10 C-4.32 9.01 -5.64 8.02 -7 7 C-6.67 6.01 -6.34 5.02 -6 4 C-5.34 4 -4.68 4 -4 4 C-2.62689293 2.70766393 -1.28965176 1.37562854 0 0 Z " fill="#B64D4B" transform="translate(98,139)"/>
<path d="M0 0 C1.485 0.99 1.485 0.99 3 2 C3.51171875 4.6015625 3.51171875 4.6015625 3.6875 7.625 C3.75324219 8.62789062 3.81898438 9.63078125 3.88671875 10.6640625 C3.92410156 11.43492187 3.96148437 12.20578125 4 13 C3.01 13 2.02 13 1 13 C-0.97387813 8.23947038 -1.0070238 5.03511899 0 0 Z " fill="#E95657" transform="translate(143,146)"/>
<path d="M0 0 C2.46044923 0.38904539 3.72159721 0.71427082 5.484375 2.5234375 C5.90203125 3.13445312 6.3196875 3.74546875 6.75 4.375 C7.17796875 4.98085937 7.6059375 5.58671875 8.046875 6.2109375 C9 8 9 8 9 11 C5.29346269 9.76448756 4.35084565 8.03334922 2 5 C1.34 4.67 0.68 4.34 0 4 C0 2.68 0 1.36 0 0 Z " fill="#D45251" transform="translate(129,107)"/>
<path d="M0 0 C0.33 1.32 0.66 2.64 1 4 C0.34 4 -0.32 4 -1 4 C-1.268125 4.598125 -1.53625 5.19625 -1.8125 5.8125 C-2.99087975 7.98319954 -4.14545086 9.38734857 -6 11 C-6.33 11 -6.66 11 -7 11 C-7.4375 8.875 -7.4375 8.875 -7 6 C-4.87310854 3.723853 -2.4976567 1.8541278 0 0 Z " fill="#D65353" transform="translate(117,77)"/>
<path d="M0 0 C0.66 0 1.32 0 2 0 C1.6875 2.875 1.6875 2.875 1 6 C-2.22791555 8.1519437 -3.28400809 8.20086443 -7 8 C-6.02133662 6.85373678 -5.04205413 5.70800212 -4.0625 4.5625 C-3.51722656 3.92441406 -2.97195312 3.28632813 -2.41015625 2.62890625 C-1.63204305 1.73008851 -0.84063472 0.84063472 0 0 Z " fill="#D25251" transform="translate(177,191)"/>
<path d="M0 0 C0.33 0 0.66 0 1 0 C1 1.65 1 3.3 1 5 C1.99 5 2.98 5 4 5 C4.33 4.01 4.66 3.02 5 2 C5.33 4.31 5.66 6.62 6 9 C4.02 9 2.04 9 0 9 C0 6.03 0 3.06 0 0 Z " fill="#CF514F" transform="translate(143,154)"/>
<path d="M0 0 C-0.33 2.31 -0.66 4.62 -1 7 C-2.65 7.33 -4.3 7.66 -6 8 C-5.67 5.69 -5.34 3.38 -5 1 C-2 0 -2 0 0 0 Z " fill="#E95757" transform="translate(108,102)"/>
<path d="M0 0 C0.66 0.33 1.32 0.66 2 1 C1.01 6.61 0.02 12.22 -1 18 C-1.33 18 -1.66 18 -2 18 C-2.33 14.37 -2.66 10.74 -3 7 C-2.01 7 -1.02 7 0 7 C0 4.69 0 2.38 0 0 Z " fill="#A34A4A" transform="translate(148,138)"/>
<path d="M0 0 C0.33 0 0.66 0 1 0 C1.1953125 6.0546875 1.1953125 6.0546875 1 8 C0.34 8.66 -0.32 9.32 -1 10 C-1.66 9.34 -2.32 8.68 -3 8 C-2.54545455 2.54545455 -2.54545455 2.54545455 0 0 Z " fill="#CF5250" transform="translate(92,133)"/>
<path d="M0 0 C0.66 0 1.32 0 2 0 C1.67 1.98 1.34 3.96 1 6 C-0.32 6.33 -1.64 6.66 -3 7 C-2.25 2.25 -2.25 2.25 0 0 Z " fill="#D15252" transform="translate(116,116)"/>
<path d="M0 0 C1.0326802 2.78823655 1.04509293 3.8677274 0.0625 6.75 C-0.288125 7.4925 -0.63875 8.235 -1 9 C-1.99 7.68 -2.98 6.36 -4 5 C-2.68 3.35 -1.36 1.7 0 0 Z " fill="#D3524E" transform="translate(113,144)"/>
<path d="M0 0 C0.99 0 1.98 0 3 0 C3.33 2.97 3.66 5.94 4 9 C0.06153846 5.67692308 0.06153846 5.67692308 -0.25 2.25 C-0.1675 1.5075 -0.085 0.765 0 0 Z " fill="#AA4B4A" transform="translate(111,171)"/>
<path d="M0 0 C0.66 0.33 1.32 0.66 2 1 C1.01 1.8971875 1.01 1.8971875 0 2.8125 C-2.3373846 4.87501834 -2.3373846 4.87501834 -2 8 C-2.99 8.495 -2.99 8.495 -4 9 C-4.66 7.68 -5.32 6.36 -6 5 C-4.02 3.35 -2.04 1.7 0 0 Z " fill="#C35051" transform="translate(15,136)"/>
<path d="M0 0 C0.99 0.33 1.98 0.66 3 1 C2.67 3.31 2.34 5.62 2 8 C0 6 0 6 -0.125 2.875 C-0.08375 1.92625 -0.0425 0.9775 0 0 Z " fill="#D5524E" transform="translate(111,176)"/>
<path d="M0 0 C0.66 0 1.32 0 2 0 C1.67 1.32 1.34 2.64 1 4 C0.67 4 0.34 4 0 4 C-0.33 5.98 -0.66 7.96 -1 10 C-1.33 10 -1.66 10 -2 10 C-2.1953125 3.9453125 -2.1953125 3.9453125 -2 2 C-1.34 1.34 -0.68 0.68 0 0 Z " fill="#3F3940" transform="translate(146,166)"/>
<path d="M0 0 C1.32 0 2.64 0 4 0 C3.67 0.99 3.34 1.98 3 3 C0.4375 4.1875 0.4375 4.1875 -2 5 C-2 4.01 -2 3.02 -2 2 C-1.34 2 -0.68 2 0 2 C0 1.34 0 0.68 0 0 Z " fill="#D35251" transform="translate(233,156)"/>
<path d="M0 0 C0.33 0 0.66 0 1 0 C1 2.64 1 5.28 1 8 C0.34 7.34 -0.32 6.68 -1 6 C-1.99 6.495 -1.99 6.495 -3 7 C-1.125 1.125 -1.125 1.125 0 0 Z " fill="#26353D" transform="translate(108,164)"/>
</svg>
